<svg width="1002.6" height="631.59" version="1.1" viewBox="0 0 1002.6 631.59" xmlns="http://www.w3.org/2000/svg">
 <path d="m312.86 0h689.75v449.32h-689.75z"/>
 <path d="m313.08 475.08h185.73v90.886h-185.73z"/>
 <path d="m277.39 548.73a82.853 82.853 0 0 1-82.853 82.853 82.853 82.853 0 0 1-82.854-82.853 82.853 82.853 0 0 1 82.854-82.853 82.853 82.853 0 0 1 82.853 82.853z"/>
 <path d="m94 548.51c0.53368-50.086 42.215-98.6 99.871-98.563l82.778-0.11687 0.64387-332.99-216.51 1.6974-60.792 171.12 0.0187 275.83h93.91z"/>
 <path d="m704.36 548.37a82.853 82.853 0 0 1-82.853 82.853 82.853 82.853 0 0 1-82.854-82.853 82.853 82.853 0 0 1 82.854-82.853 82.853 82.853 0 0 1 82.853 82.853z"/>
 <path d="m914.9 548.54a82.853 82.853 0 0 1-82.853 82.853 82.853 82.853 0 0 1-82.854-82.853 82.853 82.853 0 0 1 82.854-82.853 82.853 82.853 0 0 1 82.853 82.853z"/>
 <path d="m236.38 161.79v130.64h-190.58l40.796-129.53z" fill="#fff"/>
</svg>
