<svg width="1e3" height="1e3" xmlns="http://www.w3.org/2000/svg">
 <path d="m0 96c0-55 38-96 96-96h808c48 0 96 38 96 96v808c0 55-38 99-96 96h-808c-55 0-96-38-96-96z" fill="#0071bb"/>
 <path d="m10 96.072c0-47 39-86 86-86h808c47 0 86 39 86 86v808c0 47-39 86-86 86h-808c-47 0-86-39-86-86z" fill="#fff"/>
 <path d="m42 96.072c0-25.946 27-54 54-54h808c26 0 54 27 54 54v810c0 26-27 52-54 52h-808c-26 0-54-27-54-54z" fill="#0071bb"/>
 <path d="m180 150.09h640c16.608 0 29.978 13.37 29.978 29.978v640c0 16.608-13.37 29.978-29.978 29.978h-640c-16.608 0-29.978-13.37-29.978-29.978v-640c0-16.608 13.37-29.978 29.978-29.978z" fill="#fff"/>
 <path d="m377.26 379.97 230.52 229.89zm-20.008-8.916 117.16 437.55 77.137-0.66406 48.344-195.74z" style=""/>
 <path d="m402.79 207.77-29.621 51.639-47.992-35.225c-8.802 66.476 10.34 141.27 58.664 148.35l2.6289-0.55664 2.3164 10.953 26.57 26.297-8.7774-41.502 2.627-0.55664c41.32-26.038 28.545-102.18-6.416-159.4z" style=""/>
 <path d="m471.27 197.12c-22.366 63.216-19.112 140.35 26.701 157.28h2.6856v123.77l20.555-14.865v-108.91h2.6855c45.813-16.925 49.067-94.059 26.701-157.28l-39.664 44.393z" style=""/>
 <path d="m500.66 495.19 166.03-122.06-62.277 223.39z" style=""/>
 <path d="m445.63 367.28c-3.6352 6.6786-15.651 29.784-19.889 51.566l49.738 49.402c4.2968-12.58 7.5964-26.199 6.4473-36.457-2.8256-25.223-28.903-57.053-36.297-64.512z" style=""/>
 <path d="m565.06 358.18c-7.3943 7.459-33.471 39.287-36.297 64.51-1.0032 8.9544 1.391 20.486 4.8672 31.645l52.385-37.883c-2.7093-23.524-16.944-50.902-20.955-58.271z" style=""/>
 <path d="m617.8 207.77c-34.961 57.221-47.738 133.36-6.418 159.4l2.627 0.55664-7.1094 33.619 24.801-17.934 2.418-11.434 2.6289 0.55664c48.324-7.08 67.466-81.872 58.664-148.35l-47.992 35.225z" style=""/>
</svg>
