<svg width="1e3" height="1e3" xmlns="http://www.w3.org/2000/svg">
 <path d="m0 96c0-55 38-96 96-96h808c48 0 96 38 96 96v808c0 55-38 99-96 96h-808c-55 0-96-38-96-96z" fill="#0071bb"/>
 <path d="m10 96.072c0-47 39-86 86-86h808c47 0 86 39 86 86v808c0 47-39 86-86 86h-808c-47 0-86-39-86-86z" fill="#fff"/>
 <path d="m42 96.072c0-25.946 27-54 54-54h808c26 0 54 27 54 54v810c0 26-27 52-54 52h-808c-26 0-54-27-54-54z" fill="#0071bb"/>
 <path d="m180 150.09h640c16.608 0 29.978 13.37 29.978 29.978v640c0 16.608-13.37 29.978-29.978 29.978h-640c-16.608 0-29.978-13.37-29.978-29.978v-640c0-16.608 13.37-29.978 29.978-29.978z" fill="#fff"/>
 <path d="m364.75 404.51 32.742 393.03h220.64l32.744-393.03z"/>
 <path d="m388.32 423.63 6.533 78.418h225.94l6.533-78.418z" fill="#fff"/>
 <path d="M449.8 207.58s59.325-.08 71.302 38.482c11.264 36.268-27.066 67.306-33.862 102.71-5.656 29.467 3.918 44.753 3.918 44.753s-33.9-16.692-32.971-46.369c.872-27.844 25.873-56.528 24.529-84.353-1.138-23.535-17.885-37.671-32.915-55.221z"/>
 <path d="m509.62 207.58c20.824 4.046 62.725 12.974 63.99 42.658 1.872 43.913-30.582 50.993-65.789 84.864 23.372-37.001 67.899-95.931 1.8-127.52z"/>
</svg>
