<?xml version="1.0" encoding="UTF-8" standalone="no"?>
<!-- Created with Inkscape (http://www.inkscape.org/) -->

<svg
   width="400"
   height="400"
   viewBox="0 0 105.83333 105.83334"
   version="1.1"
   id="svg2255"
   inkscape:version="1.1.2 (b8e25be833, 2022-02-05)"
   sodipodi:docname="Denmark road sign M61.svg"
   xmlns:inkscape="http://www.inkscape.org/namespaces/inkscape"
   xmlns:sodipodi="http://sodipodi.sourceforge.net/DTD/sodipodi-0.dtd"
   xmlns="http://www.w3.org/2000/svg"
   xmlns:svg="http://www.w3.org/2000/svg">
  <sodipodi:namedview
     id="namedview2257"
     pagecolor="#ffffff"
     bordercolor="#666666"
     borderopacity="1.0"
     inkscape:pageshadow="2"
     inkscape:pageopacity="0.0"
     inkscape:pagecheckerboard="0"
     inkscape:document-units="mm"
     showgrid="false"
     inkscape:snap-intersection-paths="false"
     inkscape:snap-smooth-nodes="false"
     inkscape:snap-bbox="false"
     inkscape:snap-bbox-edge-midpoints="false"
     inkscape:bbox-nodes="false"
     inkscape:zoom="1.4142136"
     inkscape:cx="252.79067"
     inkscape:cy="93.691649"
     inkscape:window-width="1920"
     inkscape:window-height="1001"
     inkscape:window-x="-9"
     inkscape:window-y="-9"
     inkscape:window-maximized="1"
     inkscape:current-layer="svg2255"
     showguides="true"
     inkscape:guide-bbox="true"
     inkscape:object-paths="false"
     units="px"
     inkscape:snap-global="true" />
  <defs
     id="defs2252" />
  <rect
     style="fill:#ffffff;fill-opacity:1;stroke:#000007;stroke-width:0.264583;stroke-linecap:round;stroke-miterlimit:4;stroke-dasharray:none;stroke-opacity:1"
     id="rect22364"
     width="105.56875"
     height="105.56875"
     x="0.13229166"
     y="0.13228078"
     ry="6.4362597"
     inkscape:label="rect2525" />
  <rect
     style="fill:#0071bb;fill-opacity:1;stroke:none;stroke-width:0.395999;stroke-linecap:round;stroke-miterlimit:4;stroke-dasharray:none;stroke-opacity:1"
     id="rect19919"
     width="99.488167"
     height="99.488197"
     x="3.1725776"
     y="3.1725707"
     ry="3.3959801"
     inkscape:label="rect2530" />
  <rect
     style="fill:#ffffff;fill-opacity:1;stroke:none;stroke-width:0.395999;stroke-linecap:round;stroke-miterlimit:4;stroke-dasharray:none;stroke-opacity:1"
     id="rect21520"
     width="75.892845"
     height="75.892868"
     x="14.970235"
     y="14.970221"
     ry="3.3959801"
     inkscape:label="rect2535" />
  <path
     d="M 77.00166,69.628371 H 50.20887 V 19.328148 Z"
     style="fill:#000000;fill-opacity:1;fill-rule:nonzero;stroke:none;stroke-width:2.50026"
     id="path144"
     inkscape:label="path2540" />
  <path
     d="M 47.40361,30.464312 V 71.721094 H 26.1464 Z"
     style="fill:#000000;fill-opacity:1;fill-rule:nonzero;stroke:none;stroke-width:2.50026"
     id="path148"
     inkscape:label="path2545" />
  <path
     d="m 33.44214,77.956747 c 3.28785,0 5.50308,1.715179 9.72352,1.715179 4.21792,0 6.43566,-1.715179 9.721,-1.715179 3.28784,0 5.50557,1.715179 9.7235,1.715179 4.21795,0 6.43568,-1.715179 9.72352,-1.715179 3.28534,0 5.50308,1.715179 9.721,1.715179 0.17252,0 0.34006,-0.0025 0.50256,-0.01 L 79.55693,74.041343 H 24.83125 l 2.7428,5.140533 c 2.06271,-0.507553 3.74288,-1.225127 5.86811,-1.225127"
     style="fill:#000000;fill-opacity:1;fill-rule:nonzero;stroke:none;stroke-width:2.50026"
     id="path152"
     inkscape:label="path2550" />
  <path
     d="m 20.73834,81.692134 c 0.89259,0.175016 1.86519,0.297534 2.9803,0.297534 4.21795,0 6.43568,-1.717678 9.72101,-1.717678 3.28785,0 5.50559,1.715179 9.72351,1.715179 4.21795,0 6.43568,-1.715179 9.72352,-1.715179 3.28534,0 5.50306,1.715179 9.72101,1.715179 4.22043,0 6.43566,-1.715179 9.72349,-1.715179 3.28786,0 5.50308,1.715179 9.72352,1.715179 1.11511,0 2.09022,-0.12001 2.98031,-0.295033 v 3.815395 c -0.89009,0.177519 -1.86769,0.297532 -2.98031,0.297532 -4.22044,0 -6.43566,-1.717679 -9.72352,-1.717679 -3.28783,0 -5.50306,1.717679 -9.72349,1.717679 -4.21795,0 -6.43567,-1.715178 -9.72101,-1.715178 -3.28784,0 -5.50557,1.715178 -9.72352,1.715178 -4.21792,0 -6.43566,-1.715178 -9.72351,-1.715178 -3.28533,0 -5.50306,1.715178 -9.72101,1.715178 -1.11511,0 -2.08771,-0.12001 -2.9803,-0.29503 z"
     style="fill:#000000;fill-opacity:1;fill-rule:nonzero;stroke:none;stroke-width:2.50026"
     id="path156"
     inkscape:label="path2555" />
</svg>
