<svg width="1e3" height="1e3" xmlns="http://www.w3.org/2000/svg">
 <path d="m0 96c0-55 38-96 96-96h808c48 0 96 38 96 96v808c0 55-38 99-96 96h-808c-55 0-96-38-96-96z" fill="#0071bb"/>
 <path d="m10 96.072c0-47 39-86 86-86h808c47 0 86 39 86 86v808c0 47-39 86-86 86h-808c-47 0-86-39-86-86z" fill="#fff"/>
 <path d="m42 96.072c0-25.946 27-54 54-54h808c26 0 54 27 54 54v810c0 26-27 52-54 52h-808c-26 0-54-27-54-54z" fill="#0071bb"/>
 <path d="m180 150.09h640c16.608 0 29.978 13.37 29.978 29.978v640c0 16.608-13.37 29.978-29.978 29.978h-640c-16.608 0-29.978-13.37-29.978-29.978v-640c0-16.608 13.37-29.978 29.978-29.978z" fill="#fff"/>
 <path d="m178 638.1 2.94 5.781-0.206-5.781z"/>
 <path d="m219.1 751.68c13.096-1.335 26.122-4.952 38.065-9.066 14.951-5.15 31.57-10.891 53.381-10.891s38.433 5.74 53.383 10.89c14.948 5.149 28.22 9.702 46.279 9.702 18.054 0 31.334-4.554 46.283-9.703 14.951-5.15 31.57-10.891 53.381-10.891s38.433 5.742 53.383 10.893c14.948 5.148 28.223 9.7 46.281 9.7 18.054 0 31.331-4.553 46.281-9.702 14.951-5.15 31.57-10.891 53.381-10.891s38.431 5.74 53.381 10.89c13.278 4.574 25.424 8.49 40.582 9.35v-107.6c-47.313 0-114.5-18.089-168.07-0.761-73.028 23.622-131.24 65.984-213.63 66.957h-202.1z"/>
 <path d="m509.1 530.93c-5.382 12.573 12.925 19.689 17.459 8.9172l32.618-73.782c4.9544-10.339 10.272-18.021 15.604-23.763-12.198 81.985-7.794 108.6 27.963 122.06 33.09 12.45 62.782-3.1009 75.771-33.139 9.3325-26.781-15.92-65.31-31.232-83.991 23.715 13.107 47.565 15.412 73.838 4.4976 36.171-16.875 70.929-46.162 88.307-88.06 3.7822-16.643-2.2232-27.395-34.83-33.123l8e-3 -0.0117c-69.38-12.189-142.89 23.616-182.29 64.98 1.1818-5.1175-0.61698-9.532-3.8613-12.654 8.2704-11.858 21.3-19.777 34.611-27.537 14.543-8.4787 29.399-16.759 38.039-30.402l-3.0391-1.9258c-7.9862 12.611-22.239 20.72-36.812 29.217-13.293 7.7499-26.839 15.86-35.664 28.463-2.1291-1.2756-4.543-2.1618-7.1016-2.4394 2.7462-16.153-2.1819-32.106-7.166-47.572-5.1744-16.057-10.369-31.61-7.8926-46.33l-3.5488-0.5957c-2.6794 15.925 2.8503 32.009 8.0137 48.031 5.0411 15.643 9.7278 31.207 6.9394 46.477-4.1644 0.43017-8.3216 2.3683-11.553 6.3438-7.71-62.726-45.377-141.78-111.31-166.58-33.247-13.543-42.752-4.775-47.7 26.588-6.0613 38.418 9.7218 101.06 27.113 114.82 8.785 11.983 31.183 25.851 58.904 30.465-39.883 0.83184-70.907 23.584-78.504 43.774-11.152 28.177-1.8596 61.958 24.37 71.448 35.758 13.455 70.914 3.4629 112.11-72.779 0.21922 7.7636-2.329 16.128-6.1729 26.592z"/>
 <path d="m416.6 547.2c-3.61 7.968-9.328 13.829-16.77 16.942 0.352 1.307 9.05 4.445 10.811 5.143 2.61 5.445-14.134 12.428-18.258 11.185 6.01 7.665 9.656 6.845 11.037 9.523-0.446 4.633-19.348 8.224-19.348 8.224 4.807 8.651 15.076 9.09 14.776 13.094-4.363 7.919-16.463 6.854-21.926 6.268 5.81 11.59 12.71 11.952 11.799 14.75-2.028 2.618-17.639 4.155-17.639 4.155 5.66 6.348 11.03 6.999 15.07 10.809 0.166 4.52-19.206 6.72-24.242 6.694 7.871 9.003 20.933 10.455 24.254 15.463-0.29 5.135-24.505 8.369-24.505 8.369-0.694 2.507 23.265 15.381 33.556 13.008 1.066 1.35-9.293 8.825-9.293 8.825l25.258 3e-3v22.293h10.57v-22.292l25.54 3e-3s-10.36-7.475-9.294-8.825c10.29 2.372 34.25-10.502 33.556-13.008 0 0-24.215-3.234-24.505-8.369 3.32-5.008 16.382-6.46 24.254-15.463-5.036 0.026-24.408-2.174-24.242-6.694 4.04-3.81 9.41-4.461 15.07-10.81 0 0-15.61-1.536-17.639-4.154-0.911-2.798 5.99-3.16 11.8-14.75-5.464 0.586-17.563 1.65-21.927-6.268-0.3-4.003 9.969-4.442 14.776-13.094 0 0-18.902-3.591-19.348-8.224 1.382-2.678 5.027-1.858 11.038-9.523-4.125 1.243-20.868-5.74-18.258-11.185 1.761-0.698 10.46-3.836 10.811-5.143-7.456-3.902-13.082-9.513-16.778-16.949z"/>
 <path d="m288.8 502.8c-4.562 10.069-11.788 17.475-21.192 21.409 0.444 1.651 11.436 5.617 13.662 6.5 3.297 6.879-17.86 15.703-23.072 14.133 7.595 9.685 12.202 8.65 13.948 12.034-0.564 5.854-24.45 10.392-24.45 10.392 6.074 10.932 19.051 11.487 18.671 16.546-5.514 10.007-20.803 8.66-27.706 7.92 7.341 14.645 16.061 15.104 14.91 18.64-2.563 3.309-22.29 5.25-22.29 5.25 7.152 8.023 13.938 8.845 19.044 13.66 0.21 5.712-24.27 8.492-30.634 8.46 9.946 11.376 26.452 13.21 30.648 19.54-0.367 6.488-30.966 10.574-30.966 10.574-0.877 3.168 29.399 19.436 42.403 16.438 1.347 1.706-11.744 11.152-11.744 11.152l31.917 4e-3v28.171h13.357v-28.17l32.274 4e-3s-13.091-9.446-11.744-11.152c13.004 2.998 43.279-13.27 42.403-16.438 0 0-30.599-4.087-30.966-10.575 4.196-6.328 20.702-8.163 30.648-19.54-6.364 0.033-30.844-2.747-30.634-8.46 5.106-4.814 11.892-5.636 19.044-13.658 0 0-19.727-1.942-22.29-5.25-1.152-3.536 7.568-3.995 14.91-18.64-6.904 0.74-22.193 2.086-27.706-7.92-0.38-5.06 12.597-5.614 18.671-16.547 0 0-23.886-4.538-24.45-10.392 1.746-3.384 6.352-2.348 13.947-12.034-5.212 1.57-26.369-7.254-23.072-14.134 2.226-0.883 13.218-4.848 13.662-6.499-9.422-4.93-16.531-12.021-21.202-21.417z"/>
 <path d="m310.2 747.62c-21.81 0-38.431 5.74-53.382 10.889-12.355 4.257-23.884 7.907-37.618 9.101v32.812c17.038-1.441 32.322-5.92 44.717-10.189 14.948-5.15 28.229-9.701 46.283-9.701s31.333 4.55 46.281 9.701c14.948 5.148 31.57 10.891 53.38 10.891s38.435-5.743 53.385-10.89c14.948-5.151 28.224-9.702 46.279-9.702 18.054 0 31.335 4.55 46.283 9.701 14.948 5.148 31.57 10.891 53.38 10.891s38.429-5.743 53.38-10.89c14.948-5.151 28.229-9.702 46.283-9.702s31.335 4.55 46.283 9.701c13.691 4.716 28.839 9.876 48.039 10.72v-32.908c-15.406-0.796-27.516-4.909-40.942-9.534-14.951-5.15-31.57-10.89-53.38-10.89s-38.429 5.74-53.38 10.888c-14.951 5.151-28.229 9.705-46.283 9.705s-31.333-4.554-46.281-9.703c-14.951-5.15-31.572-10.891-53.382-10.891s-38.429 5.74-53.38 10.889c-14.951 5.151-28.229 9.705-46.283 9.705-18.058 0-31.332-4.554-46.281-9.703-14.951-5.15-31.571-10.891-53.382-10.891z"/>
</svg>
