<svg width="1e3" height="1e3" xmlns="http://www.w3.org/2000/svg">
 <path d="m0 96c0-55 38-96 96-96h808c48 0 96 38 96 96v808c0 55-38 99-96 96h-808c-55 0-96-38-96-96z" fill="#0071bb"/>
 <path d="m10 96.072c0-47 39-86 86-86h808c47 0 86 39 86 86v808c0 47-39 86-86 86h-808c-47 0-86-39-86-86z" fill="#fff"/>
 <path d="m42 96.072c0-25.946 27-54 54-54h808c26 0 54 27 54 54v810c0 26-27 52-54 52h-808c-26 0-54-27-54-54z" fill="#0071bb"/>
 <path d="m180 150.09h640c16.608 0 29.978 13.37 29.978 29.978v640c0 16.608-13.37 29.978-29.978 29.978h-640c-16.608 0-29.978-13.37-29.978-29.978v-640c0-16.608 13.37-29.978 29.978-29.978z" fill="#fff"/>
 <path d="m460.88 598.28-47.713 54.756h-62.135c-21.049 0-30.616 12.672-30.564 29.068l-0.0566 40.955h28.174c1.2969-17.898 17.042-31.811 35.654-31.811 18.612-3e-5 34.359 13.913 35.656 31.811h27.619c0.47962-7.9173 3.1367-15.223 8.3906-20.688 5.8647-6.0997 14.751-9.6133 26.078-9.6133h60.316l34.613-39.723h-42.197l-0.30274-43.723h52.812l37.459 28.689h21.598l-54.623-39.723z"/>
 <path d="m479.54 766.78c1.2969-17.898 17.042-31.811 35.654-31.811 18.612-3e-5 34.359 13.913 35.656 31.811h149.38c2.6804-16.906 17.42-29.949 35.047-29.949 17.627-1e-5 32.368 13.043 35.049 29.949h26.039l0.1813-71.016-73.93-53.764h-130.78l-47.713 54.756h-62.135c-21.05 0-30.616 12.672-30.565 29.068l-0.057 40.955z"/>
 <path d="m295.97 688.4c0 14.744-12.648 26.697-28.251 26.697-15.602-3e-5 -28.251-11.953-28.251-26.697s12.648-26.697 28.251-26.697c15.602-2e-5 28.251 11.952 28.251 26.697z"/>
 <path d="m344.36 560.24-47.713 54.756h-62.135c-21.049 0-30.616 12.672-30.564 29.068l-0.0586 40.955h28.176c1.2969-17.898 17.042-31.811 35.654-31.811 18.612-3e-5 34.359 13.913 35.656 31.811h13.09l4e-3 -2.9023c-0.0283-8.9792 2.6216-17.367 8.4863-23.467 5.8647-6.0997 14.751-9.6133 26.078-9.6133h60.314l29.662-34.041h-22.814l-0.30273-43.721h52.812l30.039 23.006h21.203l-46.809-34.041z"/>
 <path d="m348.54 571.28h59.381l-0.3985 43.722h-95.951z" fill="#fff"/>
 <path d="m412.49 726.44c0 14.744-12.648 26.697-28.251 26.697-15.602-3e-5 -28.251-11.953-28.251-26.697s12.648-26.697 28.251-26.697c15.602-2e-5 28.251 11.952 28.251 26.697z"/>
 <path d="m465.06 609.32h59.381l-0.3985 43.722h-95.951z" fill="#fff"/>
 <path d="m543.44 770.16c0 14.744-12.648 26.697-28.251 26.697-15.602-3e-5 -28.251-11.953-28.251-26.697s12.648-26.697 28.251-26.697c15.602-2e-5 28.251 11.952 28.251 26.697z"/>
 <path d="m763.26 773.31a27.986 27.986 0 0 1-27.986 27.986 27.986 27.986 0 0 1-27.986-27.986 27.986 27.986 0 0 1 27.986-27.986 27.986 27.986 0 0 1 27.986 27.986z"/>
 <path d="m596.01 653.04h59.381l-0.3985 43.722h-95.951z" fill="#fff"/>
 <path d="m718.18 653.04 57.088 43.722h-109.6l-0.3027-43.722z" fill="#fff"/>
 <path d="m537.02 201.13v276.73h-342v27.449h598.09v-27.449h-113.77v-98.807c7.3948 1.1306 12.117 4.8337 18.779 9.1582 7.8152 5.073 18.014 10.481 35.432 10.494l4.002 4e-3v-165.68l-3.8184-0.17188c-15.301-0.69161-21.559-4.8873-28.527-9.5742-6.3348-4.2605-13.426-9.0456-25.867-10.213v-11.945h-14.33v276.73h-113.67v-98.848c7.5271 1.0882 12.27 4.8304 19 9.1992 7.8152 5.073 18.014 10.481 35.432 10.494l4.002 4e-3v-165.68l-3.8184-0.17188c-15.301-0.69161-21.559-4.8873-28.527-9.5742-6.3724-4.2858-13.508-9.1037-26.088-10.234v-11.924z"/>
 <path d="m679.35 221.26c10.076 1.0606 15.174 4.4749 21.402 8.6641 6.4738 4.354 14.672 9.0782 28.811 10.463v150.03c-13.016-0.73128-20.363-4.5554-27.078-8.9141-6.5926-4.2794-13.155-9.2679-23.135-10.51z" fill="#fff"/>
 <path d="m551.57 221.26c10.076 1.0606 15.174 4.4749 21.402 8.6641 6.4738 4.354 14.672 9.0782 28.811 10.463v150.03c-13.016-0.73128-20.363-4.5554-27.078-8.9141-6.5926-4.2794-13.155-9.2679-23.135-10.51z" fill="#fff"/>
</svg>
