<svg width="1e3" height="1e3" xmlns="http://www.w3.org/2000/svg">
 <path d="m0 96c0-55 38-96 96-96h808c48 0 96 38 96 96v808c0 55-38 99-96 96h-808c-55 0-96-38-96-96z" fill="#0071bb"/>
 <path d="m10 96.072c0-47 39-86 86-86h808c47 0 86 39 86 86v808c0 47-39 86-86 86h-808c-47 0-86-39-86-86z" fill="#fff"/>
 <path d="m42 96.072c0-25.946 27-54 54-54h808c26 0 54 27 54 54v810c0 26-27 52-54 52h-808c-26 0-54-27-54-54z" fill="#0071bb"/>
 <path d="m180 150.09h640c16.608 0 29.978 13.37 29.978 29.978v640c0 16.608-13.37 29.978-29.978 29.978h-640c-16.608 0-29.978-13.37-29.978-29.978v-640c0-16.608 13.37-29.978 29.978-29.978z" fill="#fff"/>
 <path d="m800.62 478.22-38.486 0.0106c-5.0753-0.0118-10.183 2.4924-11.931 8.0127l-39.815 125.74c-3.6604 11.56-0.94882 16.249 1.905 23.904l18.144 48.662c0.42833 1.1532 0.66313 2.3763 0.66301 3.6461 0 6.83-6.68 12.37-14.91 12.369 0 0-266.37 3e-4 -266.27 0-6.3634 0-11.489 4.2495-11.489 9.5284 0 5.279 5.1257 9.531 11.489 9.531h266.47c20.842-8.6e-4 37.736-14.017 37.736-31.307 1.4e-4 -3.2754-0.62167-6.4293-1.7462-9.3968l-18.141-48.662c-0.75439-2.0237-3.7536-6.7148-0.1026-18.274l36.049-113.84c0.15411-0.48663 0.76617-0.87795 1.3727-0.87795h29.07c6.3421 8.1e-4 11.484-4.2645 11.483-9.5259-9.5e-4 -5.2604-5.142-9.5241-11.483-9.5233z"/>
 <path d="m451.5 497.65c-4.8178-6.6e-4 -8.7241 3.2387-8.725 7.2354 1e-3 0.55919 0.0807 1.1164 0.23654 1.6604 0 0 35.259 112.46 35.258 112.45 0.93117 3.2633 4.4429 5.5685 8.4854 5.5699h200.72c4.0425-2e-3 7.5542-2.3066 8.4853-5.5699-7.6e-4 3e-3 35.258-112.45 35.258-112.45 0.15603-0.54402 0.23527-1.1012 0.23654-1.6604-9.1e-4 -3.9967-3.9072-7.2361-8.725-7.2354z"/>
 <path d="m495.25 727.04a33.017 33.017 0 0 0-33.017 33.017 33.017 33.017 0 0 0 33.017 33.017 33.017 33.017 0 0 0 33.017-33.017 33.017 33.017 0 0 0-33.017-33.017z"/>
 <path d="m696.62 727.11a33.017 33.017 0 0 0-33.017 33.017 33.017 33.017 0 0 0 33.017 33.017 33.017 33.017 0 0 0 33.017-33.017 33.017 33.017 0 0 0-33.017-33.017z"/>
 <path d="m504.37 245.13v118.87h82.904v-46.95h36.625v46.95h8.8902v-46.95h36.625v46.95h8.8902v-46.95h36.625v46.95h84.952v-118.87z"/>
 <rect x="582.81" y="207.09" width="136.96" height="26.724"/>
 <path d="m207.22 496.47c-0.0659 0-0.11841 0.0508-0.11841 0.11454v142.72c0 0.0637 0.0527 0.11455 0.11841 0.11455h147.28c0.0659 0 0.11842-0.0508 0.11842-0.11455v-142.72c0-0.0637-0.0527-0.11454-0.11842-0.11454z"/>
 <path d="m315.72 385.82-11.913 11.913v20.352h-41.66v69.158h101.57c0.0659 0 0.11842 0.0508 0.11842 0.11455v71.126h48.68v-140.4h-44.086v-20.64l-11.625-11.625z"/>
 <path d="m193.2 265.46h250.4v98.532h-250.4z"/>
 <path d="m193.2 242.03h250.4v16.53h-250.4z"/>
 <g fill="#fff">
  <path d="m495.25 748.33a11.731 11.731 0 0 1 11.73 11.73 11.731 11.731 0 0 1-11.73 11.73 11.731 11.731 0 0 1-11.73-11.73 11.731 11.731 0 0 1 11.73-11.73z"/>
  <path d="m696.62 748.4a11.731 11.731 0 0 1 11.73 11.73 11.731 11.731 0 0 1-11.73 11.73 11.731 11.731 0 0 1-11.73-11.73 11.731 11.731 0 0 1 11.73-11.73z"/>
  <path d="m320.36 397.02h31.807l5.0619 5.0632v15.999h-42.22v-15.711z"/>
  <path d="m584.46 295.72h131.97l10.648 14.58h-153.26z"/>
  <path d="m259.63 508.98h43.241a8.7642 8.7642 0 0 1 8.7634 8.7635 8.7642 8.7642 0 0 1-8.7634 8.7647h-43.241a8.7642 8.7642 0 0 1-8.7634-8.7647 8.7642 8.7642 0 0 1 8.7634-8.7635z"/>
  <path d="m224.9 287.35h82.324v55.409h-82.324z"/>
  <path d="m330.9 287.35h82.324v55.409h-82.324z"/>
  <path d="m650.62 586.36h37.549l-7.4395 23.731h-34.053z"/>
  <path d="m595.84 586.36h37.172l-3.947 23.731h-33.225z"/>
  <path d="m541.22 586.36h37.172v23.731h-33.225z"/>
  <path d="m486.06 586.36h37.549l3.9438 23.731h-34.053z"/>
  <path d="m656.85 548.92h43.062l-7.1998 22.966h-39.681z"/>
  <path d="m595.84 548.92h43.395l-3.8162 22.966h-39.579z"/>
  <path d="m535 548.92h43.395v22.966h-39.579z"/>
  <path d="m474.32 548.92h43.062l3.8193 22.966h-39.681z"/>
  <path d="m662.96 512.12h48.481l-7.0006 22.326h-45.191z"/>
  <path d="m595.84 512.12h49.514l-3.7135 22.326h-45.801z"/>
  <path d="m528.88 512.12h49.514v22.326h-45.801z"/>
  <path d="m462.79 512.12h48.481l3.7104 22.326h-45.191z"/>
 </g>
</svg>
