<?xml version="1.0" encoding="UTF-8" standalone="no"?>
<!-- Created with Inkscape (http://www.inkscape.org/) -->

<svg
   width="400"
   height="400"
   viewBox="0 0 105.83333 105.83334"
   version="1.1"
   id="svg2255"
   inkscape:version="1.1.2 (b8e25be833, 2022-02-05)"
   sodipodi:docname="Denmark road sign M61.svg"
   xmlns:inkscape="http://www.inkscape.org/namespaces/inkscape"
   xmlns:sodipodi="http://sodipodi.sourceforge.net/DTD/sodipodi-0.dtd"
   xmlns="http://www.w3.org/2000/svg"
   xmlns:svg="http://www.w3.org/2000/svg">
  <sodipodi:namedview
     id="namedview2257"
     pagecolor="#ffffff"
     bordercolor="#666666"
     borderopacity="1.0"
     inkscape:pageshadow="2"
     inkscape:pageopacity="0.0"
     inkscape:pagecheckerboard="0"
     inkscape:document-units="mm"
     showgrid="false"
     inkscape:snap-intersection-paths="false"
     inkscape:snap-smooth-nodes="false"
     inkscape:snap-bbox="false"
     inkscape:snap-bbox-edge-midpoints="false"
     inkscape:bbox-nodes="false"
     inkscape:zoom="1"
     inkscape:cx="239.5"
     inkscape:cy="287.5"
     inkscape:window-width="1920"
     inkscape:window-height="1001"
     inkscape:window-x="-9"
     inkscape:window-y="-9"
     inkscape:window-maximized="1"
     inkscape:current-layer="svg2255"
     showguides="true"
     inkscape:guide-bbox="true"
     inkscape:object-paths="false"
     units="px"
     inkscape:snap-global="true" />
  <defs
     id="defs2252" />
  <rect
     style="fill:#ffffff;fill-opacity:1;stroke:#000007;stroke-width:0.264583;stroke-linecap:round;stroke-miterlimit:4;stroke-dasharray:none;stroke-opacity:1"
     id="rect22364"
     width="105.56875"
     height="105.56875"
     x="0.13229166"
     y="0.13228078"
     ry="6.4362597"
     inkscape:label="rect2525" />
  <rect
     style="fill:#0071bb;fill-opacity:1;stroke:none;stroke-width:0.395999;stroke-linecap:round;stroke-miterlimit:4;stroke-dasharray:none;stroke-opacity:1"
     id="rect19919"
     width="99.488167"
     height="99.488197"
     x="3.1725776"
     y="3.1725707"
     ry="3.3959801"
     inkscape:label="rect2530" />
  <rect
     style="fill:#ffffff;fill-opacity:1;stroke:none;stroke-width:0.395999;stroke-linecap:round;stroke-miterlimit:4;stroke-dasharray:none;stroke-opacity:1"
     id="rect21520"
     width="75.892845"
     height="75.892868"
     x="14.970235"
     y="14.970221"
     ry="3.3959801"
     inkscape:label="rect2535" />
  <path
     d="m 25.86955,72.709206 c 1.62239,0 2.93732,1.312417 2.93732,2.93482 0,1.619901 -1.31493,2.934819 -2.93732,2.934819 -1.61991,0 -2.93483,-1.314918 -2.93483,-2.934819 0,-1.622403 1.31492,-2.93482 2.93483,-2.93482 z m 0,7.887019 c 2.73482,0 4.95219,-2.217365 4.95219,-4.952199 0,-2.734835 -2.21737,-4.9522 -4.95219,-4.9522 -2.73235,0 -4.9497,2.217365 -4.9497,4.9522 0,2.734834 2.21735,4.952199 4.9497,4.952199 z"
     style="fill:#000000;fill-opacity:1;fill-rule:nonzero;stroke:none;stroke-width:2.49984"
     id="path396"
     sodipodi:nodetypes="ssscsssscs"
     inkscape:label="circle2540" />
  <path
     d="m 37.65383,72.709206 c 1.62239,0 2.93481,1.312417 2.93481,2.93482 0,1.619901 -1.31242,2.934819 -2.93481,2.934819 -1.61992,0 -2.93483,-1.314918 -2.93483,-2.934819 0,-1.622403 1.31491,-2.93482 2.93483,-2.93482 z m 0,7.887019 c 2.73482,0 4.95219,-2.217365 4.95219,-4.952199 0,-2.734835 -2.21737,-4.9522 -4.95219,-4.9522 -2.73484,0 -4.95221,2.217365 -4.95221,4.9522 0,2.734834 2.21737,4.952199 4.95221,4.952199 z"
     style="fill:#000000;fill-opacity:1;fill-rule:nonzero;stroke:none;stroke-width:2.49984"
     id="path400"
     sodipodi:nodetypes="ssscsssscs"
     inkscape:label="circle2545" />
  <path
     d="m 27.14948,69.736878 c -3.93978,0 -7.13458,-3.202302 -7.13458,-7.139562 0,-0.327452 0.26503,-0.602467 0.59247,-0.602467 h 22.35115 c 0.32744,0 0.58991,0.275015 0.58991,0.602467 0,3.93726 -3.19229,7.139562 -7.13205,7.139562 z"
     style="fill:#000000;fill-opacity:1;fill-rule:nonzero;stroke:none;stroke-width:2.49984"
     id="path404"
     inkscape:label="path2550" />
  <path
     d="m 31.08172,49.250621 c 0.3925,0 0.70996,0.31498 0.70996,0.709957 v 10.37687 c 0,0.394984 -0.32744,0.722458 -0.71996,0.722458 H 20.62987 c -0.39251,0 -0.70996,-0.287487 -0.70996,-0.67999 0,-6.157127 5.00469,-11.129323 11.16181,-11.129323 z"
     style="fill:#000000;fill-opacity:1;fill-rule:nonzero;stroke:none;stroke-width:2.49984"
     id="path408"
     sodipodi:nodetypes="ssssscs"
     inkscape:label="path2555" />
  <path
     d="m 43.35848,60.967416 c 0,-1.597402 1.29491,-2.889823 2.89231,-2.889823 l 0.12493,-0.0326 c 0.53998,0 0.97745,-0.437502 0.97745,-0.97744 0,-0.539967 -0.43751,-0.979941 -0.97745,-0.979941 l -0.12493,-0.01281 c -2.70232,0 -4.89469,2.189865 -4.89469,4.892201 z"
     style="fill:#000000;fill-opacity:1;fill-rule:nonzero;stroke:none;stroke-width:2.49984"
     id="path412"
     inkscape:label="path2560" />
  <ellipse
     style="fill:#000000;stroke-width:0.952417;stroke-linecap:round;fill-opacity:1"
     id="path1825"
     cx="57.090134"
     cy="29.874268"
     rx="4.4997234"
     ry="4.4997687"
     inkscape:label="circle2565" />
  <path
     d="m 59.04501,78.408841 c 0,1.204927 -0.97743,2.182367 -2.18236,2.182367 -1.20492,0 -2.18237,-0.97744 -2.18237,-2.182367 l -1.92986,-11.316809 -4.80972,-0.0077 c -0.26247,-0.140017 -0.3575,-0.330005 -0.27247,-0.535007 l 4.9997,-17.496427 C 52.35047,46.965522 51.93548,44.903151 51.5505,42.840775 l -3.3773,11.5343 c -0.18502,0.70995 -0.83245,1.234922 -1.5999,1.234922 -0.91244,0 -1.6549,-0.739954 -1.6549,-1.652399 0,-0.160001 0.0226,-0.31498 0.0653,-0.459964 l 4.24225,-14.791603 c 0.38994,-1.5449 1.78988,-2.707333 3.45479,-2.707333 h 8.68925 c 1.66739,0 3.06732,1.127434 3.45479,2.672342 l 4.16223,14.654103 c 0.0702,0.185021 0.11002,0.387473 0.11002,0.597435 0,0.912447 -0.73995,1.652399 -1.6524,1.652399 -0.72994,0 -1.34991,-0.472506 -1.5699,-1.129934 L 62.60742,42.848252 61.43,49.142872 66.28471,66.689298 c 0.0123,0.219955 -0.17003,0.31498 -0.33497,0.397464 l -4.8372,-0.0077 z"
     style="fill:#000000;fill-opacity:1;fill-rule:nonzero;stroke:none;stroke-width:2.49984"
     id="path420"
     inkscape:label="path2570" />
  <path
     d="m 85.55591,67.127038 c 0,0 -5.18719,-7.069571 -5.18719,-7.069571 -0.74246,-1.074931 -1.97987,-1.779886 -3.38228,-1.779886 -0.78247,0 -1.7074,0.237458 -2.59486,0.669928 L 70.89681,60.6999 69.81436,57.037626 c -0.17493,-0.804955 -1.01493,-1.212425 -1.72989,-1.05244 -0.82994,0.17999 -1.24992,0.909951 -1.07994,1.6924 0.08,0.367489 1.43742,5.102185 1.57491,5.589658 0.18999,0.674958 0.91994,1.354921 1.7449,1.174931 0.34999,-0.07752 1.64741,-0.649945 2.98481,-1.232429 v 6.382113 l -0.65994,9.176939 c -0.0749,1.054934 0.71747,1.969881 1.77241,2.047374 0.0476,0.0025 0.0949,0.0049 0.14002,0.0049 0.99494,0 1.83488,-0.769956 1.90738,-1.777391 l 0.47243,-6.584601 h 0.64499 l 0.47244,6.587096 c 0.0725,1.007442 0.91244,1.777391 1.90739,1.777391 0.0476,0 0.0925,-0.0025 0.14002,-0.0051 1.05493,-0.07497 1.84738,-0.992441 1.77238,-2.047374 L 81.22123,69.594161 V 66.39938 l 1.86489,2.539844 c 0.29996,0.409936 0.76495,0.62493 1.23492,0.62493 0.31498,0 0.63244,-0.09496 0.90495,-0.294997 0.68247,-0.502481 0.82996,-1.459918 0.33,-2.142373"
     style="fill:#000000;fill-opacity:1;fill-rule:nonzero;stroke:none;stroke-width:2.49984"
     id="path428"
     inkscape:label="path2575" />
  <ellipse
     style="fill:#000000;stroke-width:0.781657;stroke-linecap:round;fill-opacity:1"
     id="path2232"
     cx="77.150169"
     cy="53.68161"
     rx="3.5360296"
     ry="3.5360239"
     inkscape:label="circle2580" />
</svg>
