<svg width="1e3" height="1e3" version="1.1" xmlns="http://www.w3.org/2000/svg">
 <path d="m0 96c0-55 38-96 96-96h808c48 0 96 38 96 96v808c0 55-38 99-96 96h-808c-55 0-96-38-96-96z" fill="#0071bb"/>
 <path d="m10 96.072c0-47 39-86 86-86h808c47 0 86 39 86 86v808c0 47-39 86-86 86h-808c-47 0-86-39-86-86z" fill="#fff"/>
 <path d="m42 96.072c0-25.946 27-54 54-54h808c26 0 54 27 54 54v810c0 26-27 52-54 52h-808c-26 0-54-27-54-54z" fill="#0071bb"/>
 <path d="m180 150.09h640c16.608 0 29.978 13.37 29.978 29.978v640c0 16.608-13.37 29.978-29.978 29.978h-640c-16.608 0-29.978-13.37-29.978-29.978v-640c0-16.608 13.37-29.978 29.978-29.978z" fill="#fff"/>
 <path d="m265.86 370.3 234.08 132.43 234.13-132.57 0.10058 62.101-234.22 132.89-234.22-132.89z"/>
 <path d="m265.86 489.75 234.08 132.43 234.13-132.57 0.10058 62.101-234.22 132.89-234.22-132.89z"/>
 <path d="m265.86 602.65 234.08 132.43 234.13-132.57 0.10058 62.101-234.22 132.89-234.22-132.89z"/>
 <path d="m566.81 393.23-67.089-49.234-67.166 48.958 26.093-79.02-67.317-48.749 83.216 0.39746 25.561-79.087 25.337 79.266 83.115-0.12887-67.556 48.591z"/>
</svg>
