<svg width="1e3" height="1000.1" version="1.1" viewBox="0 0 1e3 1000.1" xmlns="http://www.w3.org/2000/svg">
 <path d="m0 96c0-55 38-96 96-96h808c48 0 96 38 96 96v808c0 55-38 99-96 96h-808c-55 0-96-38-96-96z" fill="#0071bb"/>
 <path d="m10 96.072c0-47 39-86 86-86h808c47 0 86 39 86 86v808c0 47-39 86-86 86h-808c-47 0-86-39-86-86z" fill="#fff"/>
 <path d="m42 90.072c0-25.946 21-48 48-48h820c26 0 48 21 48 48v820c0 26-21 48-48 48h-820c-26 0-48-21-48-48z" fill="#0071bb"/>
 <path d="m180 150.09h640c16.608 0 29.978 13.37 29.978 29.978v640c0 16.608-13.37 29.978-29.978 29.978h-640c-16.608 0-29.978-13.37-29.978-29.978v-640c0-16.608 13.37-29.978 29.978-29.978z" fill="#fff"/>
 <path d="m352.77 308.13-26.247 311.66h-139.79v164.44h624.72v-164.44h-145.98l-25.11-311.66h-92.418l-43.5 177.31-41.06-177.31z"/>
 <path d="m583.61 411.66 24.843 208.15h-79.544z" fill="#fff"/>
 <path d="m415.82 411.45 54.701 208.34h-72.456z" fill="#fff"/>
</svg>
