<?xml version="1.0" encoding="UTF-8" standalone="no"?>
<!-- Created with Inkscape (http://www.inkscape.org/) -->

<svg
   width="400"
   height="400"
   viewBox="0 0 105.83333 105.83334"
   version="1.1"
   id="svg2255"
   inkscape:version="1.1.2 (b8e25be833, 2022-02-05)"
   sodipodi:docname="Denmark road sign M12.svg"
   xmlns:inkscape="http://www.inkscape.org/namespaces/inkscape"
   xmlns:sodipodi="http://sodipodi.sourceforge.net/DTD/sodipodi-0.dtd"
   xmlns="http://www.w3.org/2000/svg"
   xmlns:svg="http://www.w3.org/2000/svg">
  <sodipodi:namedview
     id="namedview2257"
     pagecolor="#ffffff"
     bordercolor="#666666"
     borderopacity="1.0"
     inkscape:pageshadow="2"
     inkscape:pageopacity="0.0"
     inkscape:pagecheckerboard="0"
     inkscape:document-units="mm"
     showgrid="false"
     inkscape:snap-intersection-paths="true"
     inkscape:snap-smooth-nodes="true"
     inkscape:snap-bbox="true"
     inkscape:snap-bbox-edge-midpoints="true"
     inkscape:bbox-nodes="true"
     inkscape:zoom="1.4142136"
     inkscape:cx="144.60334"
     inkscape:cy="126.21856"
     inkscape:window-width="1920"
     inkscape:window-height="1001"
     inkscape:window-x="-9"
     inkscape:window-y="-9"
     inkscape:window-maximized="1"
     inkscape:current-layer="svg2255"
     showguides="true"
     inkscape:guide-bbox="true"
     inkscape:object-paths="false"
     units="px" />
  <defs
     id="defs2252" />
  <rect
     style="fill:#ffffff;fill-opacity:1;stroke:#000007;stroke-width:0.264583;stroke-linecap:round;stroke-miterlimit:4;stroke-dasharray:none;stroke-opacity:1"
     id="rect22364"
     width="105.56875"
     height="105.56875"
     x="0.13229166"
     y="0.13228078"
     ry="6.4362597"
     inkscape:label="rect2525" />
  <rect
     style="fill:#0071bb;fill-opacity:1;stroke:none;stroke-width:0.395999;stroke-linecap:round;stroke-miterlimit:4;stroke-dasharray:none;stroke-opacity:1"
     id="rect19919"
     width="99.488167"
     height="99.488197"
     x="3.1725776"
     y="3.1725707"
     ry="3.3959801"
     inkscape:label="rect2530" />
  <rect
     style="fill:#ffffff;fill-opacity:1;stroke:none;stroke-width:0.395999;stroke-linecap:round;stroke-miterlimit:4;stroke-dasharray:none;stroke-opacity:1"
     id="rect21520"
     width="75.892845"
     height="75.892868"
     x="14.970235"
     y="14.970221"
     ry="3.3959801"
     inkscape:label="rect2535" />
  <rect
     style="fill:#000000;fill-opacity:1;stroke-width:0.529167;stroke-linecap:round"
     id="rect4495"
     width="4.1004295"
     height="11.236677"
     x="73.698532"
     y="73.559952"
     ry="2.0502148" />
  <path
     d="m 76.104915,63.393072 c 0,0 0.98172,0 1.78212,-1.16045 l 1.5179,-2.318308 c 0.71234,0.357457 1.51532,0.178732 1.87279,-0.533598 0.44554,-0.714922 0.17873,-1.517909 -0.5362,-1.960848 l -5.08215,-2.857089 c -0.71491,-0.354873 -1.60597,-0.08807 -1.96084,0.624256 -0.35746,0.626849 -0.17873,1.51791 0.53361,1.875369 l -1.15787,2.585109 c -0.62685,1.24852 -0.0907,2.14217 -0.0907,2.14217 0,0 -1.60597,2.942568 -3.56682,6.330665 v -0.53619 c 0,-8.024715 -6.42132,-14.536699 -14.44604,-14.536699 -8.0273,0 -14.44864,6.511984 -14.44864,14.536699 0,1.51791 0.17872,3.566828 0.71231,4.906008 -2.40638,-3.123889 -3.47618,-8.472836 -3.47618,-11.951594 0,-3.388097 1.15787,-6.154526 1.15787,-6.154526 l -15.51584,8.920956 c 3.12131,0 7.40047,3.297438 12.03967,9.718763 4.36982,6.066455 10.52176,10.969877 19.53078,10.969877 4.54596,0 9.71876,-2.05151 12.752,-6.154526 0.35485,-0.354867 0.53357,-0.712301 0.89105,-1.157863 v 3.833628 c 0,1.069786 0.89105,1.963441 1.96084,1.963441 1.16045,0 2.05152,-0.893655 2.05152,-1.963441 v -7.133656 c 0,-0.712331 -0.44555,-1.427249 -1.0698,-1.782119 z m -11.77286,4.191086 c 0,5.172808 -4.19108,9.366486 -9.36131,9.366486 -5.1728,0 -9.36647,-4.193678 -9.36647,-9.366486 0,-5.172806 4.19367,-9.363893 9.36647,-9.363893 5.17023,0 9.36131,4.191087 9.36131,9.363893"
     style="display:inline;fill:#000000;fill-opacity:1;fill-rule:evenodd;stroke:none;stroke-width:2.59029"
     id="path548"
     sodipodi:nodetypes="cccccccccccssscscccsccsssscccsssc" />
  <rect
     style="fill:#000000;fill-opacity:1;stroke-width:0.529167;stroke-linecap:round"
     id="rect3237"
     width="2.6196973"
     height="22.141409"
     x="62.823715"
     y="-8.8932285"
     transform="rotate(60.102905)"
     ry="1.3098487" />
  <rect
     style="fill:#000000;stroke-width:0.529167;stroke-linecap:round;fill-opacity:1"
     id="rect2582"
     width="20.06698"
     height="3.6574881"
     x="44.980007"
     y="46.092503"
     ry="0" />
  <path
     d="m 54.968165,22.013179 c -0.44555,0 -0.80299,0.357457 -0.80299,0.80299 v 1.07238 h -1.15785 c -0.44812,0 -0.80299,0.354873 -0.80299,0.802989 0,0.44294 0.35486,0.800399 0.80299,0.800399 h 1.15785 v 1.069789 c -1.15785,0.269391 -1.96084,1.339179 -1.96084,2.587699 0,1.069789 0.62425,2.05151 1.51532,2.497039 v 0.624256 c -1.60598,0 -2.58512,-1.517909 -4.54856,-1.517909 -1.78211,0 -2.76384,1.429839 -2.76384,1.429839 -0.35743,-0.269391 -1.69404,-0.893649 -2.76384,-0.893649 -1.60597,0 -4.01234,1.248518 -4.01234,3.924288 0,4.103018 5.34893,6.242596 5.34893,9.630693 h 20.06438 c 0,-3.388097 5.26346,-5.527675 5.26346,-9.630693 0,-2.67577 -2.32088,-3.924288 -4.01234,-3.924288 -1.07238,0 -2.3209,0.624263 -2.76644,0.893649 0,0 -0.89105,-1.429839 -2.76384,-1.429839 -1.87277,0 -2.85449,1.517909 -4.46046,1.517909 v -0.624256 c 0.89363,-0.445531 1.42724,-1.42725 1.42724,-2.497039 0,-1.24852 -0.80299,-2.318308 -1.96084,-2.587699 v -1.069789 h 1.2485 c 0.44555,0 0.803,-0.357457 0.803,-0.800399 0,-0.448122 -0.35743,-0.802989 -0.803,-0.802989 h -1.2485 v -1.07238 c 0,-0.445532 -0.35487,-0.80299 -0.803,-0.80299 m 11.14861,11.682203 c 0.7123,0 1.78212,0.357458 1.78212,1.78471 0,1.339178 -1.96086,3.300028 -2.40638,3.836218 -0.53623,0.533598 -1.96345,2.139578 -2.23025,2.942568 h -2.40896 c 0.0907,-0.714924 1.07239,-1.78212 2.49703,-3.74556 1.33918,-1.963438 1.16045,-3.657486 1.16045,-4.191086 0,0 0.89107,-0.626849 1.60599,-0.626849 m -5.53028,-0.533598 c 0.803,0 1.42725,0.80299 1.42725,1.78471 0,1.248518 -0.53614,2.048918 -1.42725,3.297437 -1.06979,1.429839 -2.05151,2.497038 -2.31831,4.103018 h -1.96342 v -7.757918 c 2.32089,-0.09067 2.94515,-1.42725 4.28173,-1.42725 m -15.07029,1.16045 c -0.0907,0.533598 -0.2694,2.227648 1.06978,4.191086 1.51533,1.96344 2.49704,3.030639 2.49704,3.74556 h -2.3183 c -0.35744,-0.80299 -1.78472,-2.408969 -2.23024,-2.942568 -0.53615,-0.53619 -2.49704,-2.49704 -2.49704,-3.836218 0,-1.42725 1.06979,-1.78471 1.7847,-1.78471 0.80041,0 1.69406,0.626849 1.69406,0.626849 m 8.20345,0.266798 v 7.757915 h -2.05152 c -0.26681,-1.605978 -1.24852,-2.673177 -2.3183,-4.103016 -0.89106,-1.24852 -1.42466,-2.048919 -1.42466,-3.297439 0,-0.981718 0.62168,-1.784708 1.42466,-1.784708 1.42725,0 1.96343,1.336589 4.36982,1.427248"
     style="fill:#000000;fill-opacity:1;fill-rule:evenodd;stroke:none;stroke-width:2.59029"
     id="path2482"
     sodipodi:nodetypes="cscsssccsccscssccsscsccsccssscsccscccccccsccccccccccsscccccssc" />
</svg>
