<?xml version="1.0" encoding="UTF-8" standalone="no"?>
<!-- Generator: Adobe Illustrator 14.0.0, SVG Export Plug-In . SVG Version: 6.00 Build 43363)  -->

<svg
   xmlns:dc="http://purl.org/dc/elements/1.1/"
   xmlns:cc="http://creativecommons.org/ns#"
   xmlns:rdf="http://www.w3.org/1999/02/22-rdf-syntax-ns#"
   xmlns:svg="http://www.w3.org/2000/svg"
   xmlns="http://www.w3.org/2000/svg"
   xmlns:sodipodi="http://sodipodi.sourceforge.net/DTD/sodipodi-0.dtd"
   xmlns:inkscape="http://www.inkscape.org/namespaces/inkscape"
   version="1.1"
   id="Calque_1"
   x="0px"
   y="0px"
   width="52.837498"
   height="52.806248"
   viewBox="0 0 52.8375 52.806248"
   enable-background="new 0 0 95.797 83.704"
   xml:space="preserve"
   inkscape:version="0.48.4 r9939"
   sodipodi:docname="AJAX1.svg"><metadata
   id="metadata23"><rdf:RDF><cc:Work
       rdf:about=""><dc:format>image/svg+xml</dc:format><dc:type
         rdf:resource="http://purl.org/dc/dcmitype/StillImage" /></cc:Work></rdf:RDF></metadata><defs
   id="defs21" /><sodipodi:namedview
   pagecolor="#ffffff"
   bordercolor="#666666"
   borderopacity="1"
   objecttolerance="10"
   gridtolerance="10"
   guidetolerance="10"
   inkscape:pageopacity="0"
   inkscape:pageshadow="2"
   inkscape:window-width="1280"
   inkscape:window-height="1004"
   id="namedview19"
   showgrid="false"
   fit-margin-top="0.2"
   fit-margin-left="0.2"
   fit-margin-right="0.2"
   fit-margin-bottom="0.2"
   inkscape:zoom="4.9528815"
   inkscape:cx="22.162101"
   inkscape:cy="22.924777"
   inkscape:window-x="-8"
   inkscape:window-y="-8"
   inkscape:window-maximized="1"
   inkscape:current-layer="Calque_1" />








<path
   inkscape:connector-curvature="0"
   d="m 49.247648,52.371858 c 1.71625,0 3.125001,-1.40875 3.125001,-3.125 l 0,-45.6862528 c 0,-1.71625 -1.408751,-3.12500102 -3.125001,-3.12500102 l -45.686252,0 c -1.7175,0 -3.12499997,1.40875102 -3.12499997,3.12500102 l 0,45.6862528 c 0,1.71625 1.40749997,3.125 3.12499997,3.125 l 45.686252,0 z"
   style="fill:#ffffff;fill-opacity:1;fill-rule:nonzero;stroke:#000000;stroke-width:0.50000002;stroke-miterlimit:4;stroke-opacity:1;stroke-dasharray:none"
   id="path4727" /><path
   inkscape:connector-curvature="0"
   d="m 20.066277,20.109476 0,-9.0225 c 0,-0.26375 0.22,-0.44 0.44,-0.44 l 11.795001,0 c 0.22125,0 0.44125,0.17625 0.44125,0.44 l 0,9.0225 8.97875,0 c 0.22,0 0.44,0.17625 0.44,0.44 l 0,11.7525 c 0,0.22 -0.22,0.44 -0.44,0.44 l -8.97875,0 0,8.978752 c 0,0.26375 -0.22,0.44 -0.44125,0.44 l -11.795001,0 c -0.22,0 -0.44,-0.17625 -0.44,-0.44 l 0,-8.978752 -8.97875,0 c -0.26375,0 -0.44,-0.22 -0.44,-0.44 l 0,-11.7525 c 0,-0.26375 0.17625,-0.44 0.44,-0.44 l 8.97875,0 z"
   style="fill:#ef3e42;fill-opacity:1;fill-rule:nonzero;stroke:none"
   id="path4735" /><path
   inkscape:connector-curvature="0"
   d="m 43.525528,45.109608 c 0.88,0 1.585,-0.70375 1.585,-1.585 l 0,-34.2412528 c 0,-0.88125 -0.705,-1.58625 -1.585,-1.58625 l -34.242502,0 c -0.88,0 -1.585,0.705 -1.585,1.58625 l 0,34.2412528 c 0,0.88125 0.705,1.585 1.585,1.585 l 34.242502,0 z m -39.525002,5.72125 c -1.1,0 -2.02375,-0.92375 -2.02375,-2.0675 l 0,-44.8062528 c 0,-1.10125 0.92375,-2.025 2.02375,-2.025 l 44.806252,0 c 1.10125,0 2.025,0.92375 2.025,2.025 l 0,44.8062528 c 0,1.14375 -0.92375,2.0675 -2.025,2.0675 l -44.806252,0 z"
   style="fill:#007ac2;fill-opacity:1;fill-rule:nonzero;stroke:none"
   id="path4739" /></svg>