<svg width="1e3" height="1e3" version="1.1" xmlns="http://www.w3.org/2000/svg">
 <path d="m0 96c0-55 38-96 96-96h808c48 0 96 38 96 96v808c0 55-38 99-96 96h-808c-55 0-96-38-96-96z" fill="#0071bb"/>
 <path d="m10 96.072c0-47 39-86 86-86h808c47 0 86 39 86 86v808c0 47-39 86-86 86h-808c-47 0-86-39-86-86z" fill="#fff"/>
 <path d="m42 96.072c0-25.946 27-54 54-54h806c26 0 56 27 56 54v810c0 26-27 52-54 52h-808c-26 0-54-25-54-52z" fill="#0071bb"/>
 <path d="m180 150.09h640c16.608 0 29.978 13.37 29.978 29.978v640c0 16.608-13.37 29.978-29.978 29.978h-640c-16.608 0-29.978-13.37-29.978-29.978v-640c0-16.608 13.37-29.978 29.978-29.978z" fill="#fff"/>
 <path d="m269.44 363.44c-39.569 0-63.322 24.383-63.322 60.124l-0.26736 288.36s128.61-0.0541 216.87-0.10563c0-0.0698-5e-3 -0.13825-5e-3 -0.20738 0-41.622 34.091-75.715 75.715-75.715 41.622 0 75.715 34.092 75.715 75.715 0 0.0456-4e-3 0.0913-4e-3 0.13695 75.761-0.0326 103.77-0.0776 160.69-0.0776 41.808 0.70036 63.322-22.006 63.322-60.126v-227.98c0-36.68-23.456-60.124-63.323-60.124z"/>
 <path d="m557.83 711.61a59.412 59.412 0 0 1-59.412 59.412 59.412 59.412 0 0 1-59.412-59.412 59.412 59.412 0 0 1 59.412-59.412 59.412 59.412 0 0 1 59.412 59.412z"/>
 <rect x="287.58" y="428.88" width="98.089" height="252.48" rx=".157" ry=".157" fill="#fff"/>
 <rect x="500" y="428.88" width="222.95" height="126.24" rx=".157" ry=".157" fill="#fff"/>
</svg>
