<svg width="1e3" height="1000.1" version="1.1" viewBox="0 0 1e3 1000.1" xmlns="http://www.w3.org/2000/svg">
 <path d="m0 96c0-55 38-96 96-96h808c48 0 96 38 96 96v808c0 55-38 99-96 96h-808c-55 0-96-38-96-96z" fill="#0071bb"/>
 <path d="m10 96.072c0-47 39-86 86-86h808c47 0 86 39 86 86v808c0 47-39 86-86 86h-808c-47 0-86-39-86-86z" fill="#fff"/>
 <path d="m42 90.072c0-25.946 21-48 48-48h820c26 0 48 21 48 48v820c0 26-21 48-48 48h-820c-26 0-48-21-48-48z" fill="#0071bb"/>
 <path d="m180 150.09h640c16.608 0 29.978 13.37 29.978 29.978v640c0 16.608-13.37 29.978-29.978 29.978h-640c-16.608 0-29.978-13.37-29.978-29.978v-640c0-16.608 13.37-29.978 29.978-29.978z" fill="#fff"/>
 <path d="m257.47 553.09s-2.7808 1.7055-11.668 4.9081c-13.379 5.9276-25.607 10.204-24.615 9.6187h-5.6512c-12.973 0-23.403 15.917-23.403 35.709v58.747c0 19.792 10.429 35.709 23.403 35.709l32.283-0.12097c-0.0126-35.385 28.934-64.352 64.319-64.363 35.401-0.0126 64.376 28.962 64.363 64.363l212.27 0.12097c0.0329-35.348 28.958-64.271 64.316-64.282 35.373-0.0126 64.324 28.918 64.355 64.282h67.012c12.973 0 23.405-15.917 23.405-35.709v-236.33c0-19.792-10.431-35.709-23.405-35.709h-254.76c-8.4147 0-14.347-27.195-23.807-27.204h-8e-3c-77.202 0.13456-231.6 0.80732-231.6 0.80732-10.172 0.0349-12.825 10.72-18.36 20.277l-22.462 38.771c-5.5364 9.5562 8.2037 19.748 18.36 20.277l32.886 1.7158z"/>
 <path d="m311.49 445.75h86.553c0.69977 0 1.2791 1.3698 1.2791 3.0939-0.81495 32.949 0.57412 104.58 0.57412 104.58l-115.17 0.90918c9.3196-32.859 17.018-76.754 26.766-108.58z" fill="#fff"/>
 <path d="m590.85 432.14h176.58c1.4275 0 2.5557 1.1605 2.5557 2.5892v81.107c0 1.4275-1.1273 2.5892-2.5557 2.5892h-176.58c-1.4275 0-2.589-1.1605-2.589-2.5892v-81.107c0-1.4275 1.1605-2.5892 2.589-2.5892z" fill="#fff"/>
 <path d="m284.65 389.89h71.658c0.57763 0 1.0418 0.38568 1.0418 0.84114v25.792c0 0.45547-0.46417 0.84112-1.0418 0.84112h-71.658c-0.58112 0-1.0418-0.38565-1.0418-0.84112v-25.792c0-0.45546 0.46419-0.84114 1.0418-0.84114z" fill="#fff"/>
 <path d="m312.14 645.94a51.7 51.7 0 0 0-51.683 51.717 51.7 51.7 0 0 0 51.683 51.683 51.7 51.7 0 0 0 51.717-51.683 51.7 51.7 0 0 0-51.717-51.717z"/>
 <path d="m653.1 646.14a51.7 51.7 0 0 0-51.683 51.717 51.7 51.7 0 0 0 51.683 51.683 51.7 51.7 0 0 0 51.717-51.683 51.7 51.7 0 0 0-51.717-51.717z"/>
</svg>
