<svg width="1e3" height="1e3" version="1.1" xmlns="http://www.w3.org/2000/svg">
 <path d="m0 96c0-55 38-96 96-96h808c48 0 96 38 96 96v808c0 55-38 99-96 96h-808c-55 0-96-38-96-96z" fill="#0071bb"/>
 <path d="m10 96.072c0-47 39-86 86-86h808c47 0 86 39 86 86v808c0 47-39 86-86 86h-808c-47 0-86-39-86-86z" fill="#fff"/>
 <path d="m42 90.072c0-25.946 21-48 48-48h820c26 0 48 21 48 48v820c0 26-21 48-48 48h-820c-26 0-48-21-48-48z" fill="#0071bb"/>
 <path d="m180 150.09h640c16.608 0 29.978 13.37 29.978 29.978v640c0 16.608-13.37 29.978-29.978 29.978h-640c-16.608 0-29.978-13.37-29.978-29.978v-640c0-16.608 13.37-29.978 29.978-29.978z" fill="#fff"/>
 <path d="m497.99 207.63-311.53 311.53h73.303v293.21h476.47v-293.21h73.303l-73.303-73.303v-164.94h-73.303v91.629z" fill-opacity=".99029"/>
 <path d="m427.22 538.49h144.62v144.62h-144.62z" fill="#fff"/>
</svg>
