<svg width="1e3" height="1e3" version="1.1" xmlns="http://www.w3.org/2000/svg">
 <path d="m0 96c0-55 38-96 96-96h808c48 0 96 38 96 96v808c0 55-38 99-96 96h-808c-55 0-96-38-96-96z" fill="#0071bb"/>
 <path d="m10 96.072c0-47 39-86 86-86h808c47 0 86 39 86 86v808c0 47-39 86-86 86h-808c-47 0-86-39-86-86z" fill="#fff"/>
 <path d="m42 96.072c0-25.946 27-54 54-54h808c26 0 54 27 54 54v810c0 26-27 52-54 52h-808c-26 0-54-27-54-54z" fill="#0071bb"/>
 <path d="m180 150.09h640c16.608 0 29.978 13.37 29.978 29.978v640c0 16.608-13.37 29.978-29.978 29.978h-640c-16.608 0-29.978-13.37-29.978-29.978v-640c0-16.608 13.37-29.978 29.978-29.978z" fill="#fff"/>
 <path d="m467.06 699.86c-10.134 0-18.393 8.245-18.393 18.374 0 10.142 8.2565 18.401 18.393 18.401h60.36v72.738a1.3729 1.3729 0 0 0 1.3731 1.3731h40.194a1.3729 1.3729 0 0 0 1.3731-1.3731v-72.738h60.369c10.136 0 18.364-8.2618 18.364-18.401 0-10.127-8.2365-18.374-18.364-18.374h-163.68z"/>
 <path d="m850.14 235.01-46.546-64.945c-0.45154-0.78586-1.2887-1.2704-2.1951-1.2703l-3e-3 -1e-5c-0.90638-1.1e-4 -1.7436 0.48439-2.1952 1.2703l-108.11 187.76 1.0555-0.60715c-1.5952 1.3705-0.92027 3.9758 1.1397 4.3996 0.28233-0.0994 0.54481-0.248 0.77524-0.43903l0.0478 0.29892 43.425-15.048-71.206 137.38c-1.0536 2.0299 0.91158 4.3055 3.0733 3.5588l43.323-14.992-95.807 179.61c-1.0046 1.8778 0.61728 4.0814 2.7088 3.6803l157.63-30.302v139.01c6e-5 1.398 1.1333 2.5312 2.5313 2.5313h43.248c1.398-6e-5 2.5312-1.1333 2.5313-2.5313v-139.01l24.576 3.1081z"/>
 <path d="m187.51 273.15-0.22513 23.226 46.553 0.47237 16.41 56.246-99.917 0.0221-0.0764 23.132 103.63-0.0282 7.5418 27.104-111.69 131.91-0.1186 36.095 122.18-144.33 9.1298 31.311c-40.471 22.495-67.945 65.671-67.945 115.13 0 72.564 59.098 131.66 131.66 131.66 72.564 0 131.66-59.098 131.66-131.66 0-72.564-59.098-131.66-131.66-131.66-14.81 0-29.029 2.4816-42.328 7.0152l-48.628-166.7-11.015-8.3378-55.157-0.60705z"/>
 <path d="m344.58 466.97c-12.388 0-24.268 2.0929-35.31 5.9587l48.803 106.51-22.22 6.4904-47.746-102.81c-30.046 18.786-49.986 52.146-49.986 90.313 0 58.94 47.518 106.47 106.47 106.47 58.94 0 106.47-47.518 106.47-106.47 0-58.94-47.518-106.47-106.47-106.47z" fill="#fff"/>
 <path d="m504.64 201.6c-4.4781 0-8.0831 3.605-8.0831 8.0831v5.3379c0 4.4781 3.6051 8.0831 8.0831 8.0831h42.588v63.48h-8.4158v162.36c-5.7186 0.0123-13.556-0.22782-21.7-1.3838-7.6205-1.0816-15.278-2.9905-20.93-5.9092-5.6524-2.9188-9.0323-6.4332-9.9507-11.278-4.333-22.855-4.079-33.921-0.53683-46.788 3.5418-12.867 10.792-27.877 20.456-56.493 1.4878-4.4054 1.9133-8.3902 1.1387-11.971-0.77477-3.5806-2.8527-6.5722-5.436-8.5802-5.1664-4.0158-11.813-4.8504-18.038-4.9827h-0.0106l-15.633-0.26379v-3.6545h-9.0097v17.707h9.0097v-4.6844l15.465 0.26113c5.2766 0.11476 10.218 1.2618 12.469 3.0116 1.127 0.87608 1.7151 1.7142 2.0294 3.1667 0.3143 1.4526 0.25321 3.7044-0.85758 6.9936-9.5242 28.203-16.713 42.84-20.612 57.005-3.8997 14.165-4.0914 27.516 0.36452 51.018 1.5766 8.3153 7.6827 14.15 14.855 17.854 7.1728 3.7037 15.679 5.6911 23.911 6.8596 8.6994 1.2348 16.975 1.4986 23.016 1.4859v15.214h-47.752v14.855h121.43v-14.855h-9.8023v-9.4206h-18.343v9.4206h-16.202v-186.95h-9.1488v-63.48h42.13c4.4781 0 8.0831-3.605 8.0831-8.0831v-5.3379c0-4.4781-3.6051-8.0831-8.0831-8.0831z"/>
</svg>
