<?xml version="1.0" encoding="UTF-8" standalone="no"?>
<!-- Created with Inkscape (http://www.inkscape.org/) -->

<svg
   width="400"
   height="400"
   viewBox="0 0 105.83333 105.83334"
   version="1.1"
   id="svg2255"
   inkscape:version="1.1.2 (b8e25be833, 2022-02-05)"
   sodipodi:docname="Denmark road sign M35.1.svg"
   xmlns:inkscape="http://www.inkscape.org/namespaces/inkscape"
   xmlns:sodipodi="http://sodipodi.sourceforge.net/DTD/sodipodi-0.dtd"
   xmlns="http://www.w3.org/2000/svg"
   xmlns:svg="http://www.w3.org/2000/svg">
  <sodipodi:namedview
     id="namedview2257"
     pagecolor="#ffffff"
     bordercolor="#666666"
     borderopacity="1.0"
     inkscape:pageshadow="2"
     inkscape:pageopacity="0.0"
     inkscape:pagecheckerboard="0"
     inkscape:document-units="mm"
     showgrid="false"
     inkscape:snap-intersection-paths="false"
     inkscape:snap-smooth-nodes="false"
     inkscape:snap-bbox="false"
     inkscape:snap-bbox-edge-midpoints="false"
     inkscape:bbox-nodes="false"
     inkscape:zoom="1.4142136"
     inkscape:cx="167.23075"
     inkscape:cy="216.72823"
     inkscape:window-width="1920"
     inkscape:window-height="1001"
     inkscape:window-x="-9"
     inkscape:window-y="-9"
     inkscape:window-maximized="1"
     inkscape:current-layer="svg2255"
     showguides="true"
     inkscape:guide-bbox="true"
     inkscape:object-paths="false"
     units="px"
     inkscape:snap-global="true" />
  <defs
     id="defs2252" />
  <rect
     style="fill:#ffffff;fill-opacity:1;stroke:#000007;stroke-width:0.264583;stroke-linecap:round;stroke-miterlimit:4;stroke-dasharray:none;stroke-opacity:1"
     id="rect22364"
     width="105.56875"
     height="105.56875"
     x="0.13229166"
     y="0.13228078"
     ry="6.4362597"
     inkscape:label="rect2525" />
  <rect
     style="fill:#0071bb;fill-opacity:1;stroke:none;stroke-width:0.395999;stroke-linecap:round;stroke-miterlimit:4;stroke-dasharray:none;stroke-opacity:1"
     id="rect19919"
     width="99.488167"
     height="99.488197"
     x="3.1725776"
     y="3.1725707"
     ry="3.3959801"
     inkscape:label="rect2530" />
  <rect
     style="fill:#ffffff;fill-opacity:1;stroke:none;stroke-width:0.395999;stroke-linecap:round;stroke-miterlimit:4;stroke-dasharray:none;stroke-opacity:1"
     id="rect21520"
     width="75.892845"
     height="75.892868"
     x="14.970235"
     y="14.970221"
     ry="3.3959801"
     inkscape:label="rect2535" />
  <path
     id="path14387"
     style="display:inline;fill:#010003;fill-opacity:1;fill-rule:nonzero;stroke:none;stroke-width:2.4914"
     d="m 33.812915,80.416277 c -3.303604,0 -5.446054,1.961121 -9.551873,1.961121 -1.086969,0 -2.035516,-0.138428 -2.905249,-0.340548 v 4.374409 c 0.869733,0.202388 1.81828,0.341066 2.905249,0.341066 4.105819,0 6.248269,-1.963705 9.551873,-1.963705 3.303592,0 5.446051,1.963705 9.551871,1.963705 4.10582,0 6.24827,-1.963705 9.551871,-1.963705 3.3036,0 5.446051,1.963705 9.551871,1.963705 4.10582,0 6.248275,-1.963705 9.551871,-1.963705 3.3036,0 5.446053,1.963705 9.551873,1.963705 1.086969,0 2.035516,-0.138678 2.905249,-0.341066 V 82.03685 c -0.869733,0.20212 -1.81828,0.340548 -2.905249,0.340548 -4.10582,0 -6.248273,-1.961121 -9.551873,-1.961121 -3.303596,0 -5.446051,1.961121 -9.551871,1.961121 -4.10582,0 -6.248271,-1.961121 -9.551871,-1.961121 -3.303601,0 -5.446051,1.961121 -9.551871,1.961121 -4.10582,0 -6.248279,-1.961121 -9.551871,-1.961121 z"
     inkscape:label="path2540" />
  <path
     id="path5171"
     style="display:inline;fill:#010203;fill-opacity:1;fill-rule:nonzero;stroke:none;stroke-width:9.41632"
     d="M 171.1582 207.08984 C 159.67974 207.08984 151.57112 213.49443 148.53906 224.29492 L 132.44141 280.30469 C 130.94933 280.08922 129.40999 279.96289 127.79688 279.96289 C 115.31081 279.96289 107.21337 287.375 91.695312 287.375 C 87.587083 287.375 84.002024 286.85181 80.714844 286.08789 L 80.714844 302.62109 C 84.002024 303.38602 87.587083 303.91016 91.695312 303.91016 C 107.21337 303.91016 115.31081 296.48828 127.79688 296.48828 C 140.28289 296.48828 148.38038 303.91016 163.89844 303.91016 C 179.4165 303.91016 187.51395 296.48828 200 296.48828 C 212.48605 296.48828 220.5835 303.91016 236.10156 303.91016 C 251.61962 303.91016 259.71709 296.48828 272.20312 296.48828 C 284.68917 296.48828 292.78663 303.91016 308.30469 303.91016 C 312.41292 303.91016 315.99798 303.38602 319.28516 302.62109 L 319.28516 286.08789 C 315.99798 286.85181 312.41292 287.375 308.30469 287.375 C 292.78663 287.375 284.68917 279.96289 272.20312 279.96289 C 270.59001 279.96289 269.05067 280.08922 267.55859 280.30469 L 251.46094 224.29492 C 248.42888 213.49443 240.32026 207.08984 228.8418 207.08984 L 171.1582 207.08984 z M 163.72852 250.27344 L 169.41016 287.05469 C 167.67394 287.25865 165.84483 287.375 163.89844 287.375 C 159.95884 287.375 156.50052 286.89647 153.32422 286.18359 L 163.72852 250.27344 z M 236.27148 250.27344 L 246.67578 286.18359 C 243.49949 286.89647 240.04116 287.375 236.10156 287.375 C 234.15517 287.375 232.32606 287.25865 230.58984 287.05469 L 236.27148 250.27344 z "
     transform="scale(0.26458333)"
     inkscape:label="path2545" />
  <ellipse
     style="fill:#000000;fill-opacity:1;stroke-width:0.932108;stroke-linecap:round"
     id="path5601"
     cx="52.916656"
     cy="44.700672"
     rx="7.4111443"
     ry="7.4112587"
     inkscape:label="circle2550" />
  <path
     id="path5175"
     style="display:inline;fill:#010203;fill-opacity:1;fill-rule:nonzero;stroke:none;stroke-width:9.41632"
     d="M 200 75.148438 L 82.224609 114.9707 C 81.22379 115.30621 80.210938 115.63972 80.210938 116.98633 L 80.210938 140.94922 C 80.210941 142.30517 81.901094 143.42421 83.242188 142.97461 L 200 103.83203 L 316.75781 142.97461 C 318.09891 143.42421 319.78906 142.30517 319.78906 140.94922 L 319.78906 116.98633 C 319.78906 115.63972 318.77426 115.30621 317.77344 114.9707 L 200 75.148438 z "
     transform="scale(0.26458333)"
     inkscape:label="path2555" />
</svg>
