<svg width="1e3" height="1000" xmlns="http://www.w3.org/2000/svg">
 <path d="m0 96c0-55 38-96 96-96h808c48 0 96 38 96 96v808c0 55-38 99-96 96h-808c-55 0-96-38-96-96z" fill="#0071bb"/>
 <path d="m10 96.072c0-47 39-86 86-86h808c47 0 86 39 86 86v808c0 47-39 86-86 86h-808c-47 0-86-39-86-86z" fill="#fff"/>
 <path d="m42 90.072c0-25.946 21-48 48-48h820c26 0 48 21 48 48v820c0 26-21 48-48 48h-820c-26 0-48-21-48-48z" fill="#0071bb"/>
 <path d="m180 150.09h640c16.608 0 29.978 13.37 29.978 29.978v640c0 16.608-13.37 29.978-29.978 29.978h-640c-16.608 0-29.978-13.37-29.978-29.978v-640c0-16.608 13.37-29.978 29.978-29.978z" fill="#fff"/>
 <path d="m612.9 235.32c-4.8089-0.035-8.7429 3.8199-8.7988 8.6284l-0.27938 26.635-39.185 1.0232c-3.5464-2.7914-7.8454-4.4336-12.481-4.4336h-18.587c-12.253 0-22.099 11.409-22.099 25.545v58.148c0 1.9789 0.20954 3.8823 0.57623 5.7296h-151.35v151.66c0 1.7515 0.0134 3.1717 0 3.1717h24.657l-58.593 297.62c-0.33177 1.7182-0.59369 3.0987-0.57622 3.1034l31.82 6.2752c0 5e-3 0.3143-1.3847 0.64607-3.1036l17.597-89.286c0.31431-0.18335 0.9953-0.63037 2.2176-1.4318l110.84-72.676 111.83 73.325c1.4668 0.96038 2.6472 1.7252 2.6611 1.706l1.1524-1.7734 15.175 77.041c0.33177 1.7182 0.62862 3.1081 0.64607 3.1034l31.82-6.2752c0-5e-3 -0.24445-1.3847-0.57622-3.1034l-56.034-284.53h29.773v-151.66c0-1.7515-0.0134-3.1717 0-3.1717h-52.077c0.36668-1.847 0.61115-3.7507 0.61115-5.7295v-57.397l38.368-1.0232c4.7024-0.12222 8.4426-3.9592 8.4915-8.6626l0.41908-39.663c0-4.822-3.8415-8.7615-8.6626-8.7989z"/>
 <path d="m593.09 214.1c-3.7001 0-6.6842 3.8294-6.6842 8.5603v0.51161c0 4.7307 2.9842 8.526 6.6842 8.526h38.811c3.6983 0 6.6842-3.7954 6.6842-8.526v-0.51161c0-4.7308-2.9859-8.5603-6.6842-8.5603z"/>
 <path d="m541.17 197.67a31.175 31.175 0 0 0-31.208 31.171 31.175 31.175 0 0 0 31.208 31.171 31.175 31.175 0 0 0 31.17-31.171 31.175 31.175 0 0 0-31.17-31.171z"/>
 <path d="m402.1 594.7 68.414 44.881-88.705 58.148z" fill="#fff"/>
 <path d="m578.96 593.14 21.007 106.68-91.842-60.229z" fill="#fff"/>
 <path d="m418.5 511.43h144.37l12.654 64.218-2.2525-3.4104c-0.0134-0.0175-1.1874 0.74561-2.6594 1.706l-81.304 53.304-80.317-52.691c-1.4318-0.93769-2.5232-1.6554-2.5913-1.6711z" fill="#fff"/>
</svg>
