<svg width="1e3" height="1000.1" version="1.1" viewBox="0 0 1e3 1000.1" xmlns="http://www.w3.org/2000/svg">
 <path d="m0 96c0-55 38-96 96-96h808c48 0 96 38 96 96v808c0 55-38 99-96 96h-808c-55 0-96-38-96-96z" fill="#0071bb"/>
 <path d="m10 96.072c0-47 39-86 86-86h808c47 0 86 39 86 86v808c0 47-39 86-86 86h-808c-47 0-86-39-86-86z" fill="#fff"/>
 <path d="m42 90.072c0-25.946 21-48 48-48h820c26 0 48 21 48 48v820c0 26-21 48-48 48h-820c-26 0-48-21-48-48z" fill="#0071bb"/>
 <path d="m180 150.09h640c16.608 0 29.978 13.37 29.978 29.978v640c0 16.608-13.37 29.978-29.978 29.978h-640c-16.608 0-29.978-13.37-29.978-29.978v-640c0-16.608 13.37-29.978 29.978-29.978z" fill="#fff"/>
 <path d="m695.81 499.34c-38.54 0-72.573 14.597-96.658 41.197-24.085 26.6-38.146 64.939-38.146 111.86 0 46.914 13.986 85.253 38.038 111.86 24.052 26.604 58.092 41.2 96.766 41.2 65.406 0 114.45-41.82 124.26-101.14a6.4748 6.4748 0 0 0-6.3679-7.531l-43.47-0.14019a6.4748 6.4748 0 0 0-6.3679 5.1909c-6.7857 33.545-34.093 51.382-67.782 51.382-22.8 0-42.185-8.515-56.317-25.181s-23.04-41.874-23.04-75.635c0-33.479 8.8718-58.696 23.012-75.438 14.14-16.74 33.562-25.379 56.485-25.379 33.935 0 61.089 18.174 67.63 52.156a6.4748 6.4748 0 0 0 6.3568 5.2506h43.473a6.4748 6.4748 0 0 0 6.3929-7.4949c-10.212-63.895-55.204-102.36-124.27-102.15z"/>
 <path d="m183.9 504.07a5.642 5.642 0 0 0-5.4352 7.1507l79.142 285.36a5.642 5.642 0 0 0 5.4352 4.1347h43.473a5.642 5.642 0 0 0 5.4296-4.1153l55.737-198.38 55.737 198.38a5.642 5.642 0 0 0 5.4324 4.1153h43.333a5.642 5.642 0 0 0 5.4352-4.1319l79.284-285.36a5.642 5.642 0 0 0-5.4352-7.1535h-45.426a5.642 5.642 0 0 0-5.4699 4.2693l-51.396 204.93-53.602-204.99a5.642 5.642 0 0 0-5.4574-4.2152h-44.867a5.642 5.642 0 0 0-5.456 4.2152l-53.609 204.87-51.53-204.82a5.642 5.642 0 0 0-5.4713-4.2665z"/>
</svg>
