<svg width="1e3" height="1e3" version="1.1" xmlns="http://www.w3.org/2000/svg">
 <path d="m0 96c0-55 38-96 96-96h808c48 0 96 38 96 96v808c0 55-38 99-96 96h-808c-55 0-96-38-96-96z" fill="#0071bb"/>
 <path d="m10 96.072c0-47 39-86 86-86h808c47 0 86 39 86 86v808c0 47-39 86-86 86h-808c-47 0-86-39-86-86z" fill="#fff"/>
 <path d="m42 96.072c0-25.946 27-54 54-54h808c26 0 54 27 54 54v810c0 26-27 52-54 52h-808c-26 0-54-27-54-54z" fill="#0071bb"/>
 <path d="m392.1 114.86h45.432c9.2259 0 16.32 7.811 16.32 16.339 0 9.2259-7.0936 17.037-16.32 17.037h-29.091c-2.132 0-6.3963 0.69742-8.5284 7.0936l-9.9433 34.073h195.21l7.811-24.847h-16.339c-9.206 0-16.32-7.811-16.32-16.32 0-9.2458 7.811-16.339 16.32-16.339h65.317c9.2458 0 16.319 7.0936 16.319 16.339 0 9.2259-7.0737 16.32-16.319 16.32h-16.34l-8.5085 29.81 42.6 94.407c12.772-4.2441 26.96-6.3763 41.167-6.3763 72.408 0.69743 131.33 58.92 130.61 132.03 0 73.111-59.618 131.33-132.03 131.33-67.449-0.71739-122.82-51.11-130.63-115.71h-19.866c-4.9615 7.811-14.187 13.49-24.847 13.49-16.32-0.71738-29.091-13.49-29.091-30.546v-2.1121l-127.78-146.93s-4.264 13.47-9.2259 31.225c44.017 20.583 74.543 66.733 74.543 119.26-0.71731 72.408-60.356 131.33-132.74 131.33-73.111-0.71738-132.05-60.356-131.33-132.77 0.71733-73.111 59.639-131.31 132.74-130.6 9.2259 0 17.754 0.69744 26.262 2.8295l48.261-158.29c2.132-7.811 8.5284-12.075 16.339-12.075" fill="#fff"/>
 <path d="m643.37 327.82v0.69743l31.942 68.868h-76.652c4.9615-29.091 21.302-53.96 44.713-69.557" fill="#0071bb" stroke-width=".66302"/>
 <path d="m715.06 407.32-42.582-92.299c8.5085-2.1121 18.451-3.5469 27.698-3.5469 56.768 0 102.2 46.149 101.5 102.94 0 56.072-46.149 101.5-102.22 101.5-51.11 0-92.995-37.619-100.81-85.881h100.81c9.2259 0 16.32-7.0936 17.037-16.32 0-2.132-0.71739-4.9814-1.4346-6.3961" fill="#0071bb" stroke-width=".66302"/>
 <path d="m301.95 368.3c-7.1136 21.28-13.49 33.356-16.339 38.317-2.132 4.9814-2.132 16.339 8.5284 21.302 7.0936 2.8295 14.905 0.6975 19.169-5.6787 6.3763-9.9433 12.772-26.262 20.583-50.413 1.4148-4.2443 14.905-48.261 14.905-48.261 32.639 17.037 53.959 51.11 53.959 90.164-0.71732 56.77-46.149 102.2-102.94 102.2-56.808-0.6975-102.22-46.846-101.52-102.94 0-56.768 46.149-102.2 102.94-101.5 5.6789 0 12.075 0 17.754 1.4346 0 0-14.925 48.261-17.037 55.374" fill="#0071bb" stroke-width=".66302"/>
 <path d="m575.24 221.35-49.695 162.55h-0.69736c-3.5469 0-7.0936 0-10.66 1.4346l-136.29-156.9 2.132-7.0937z" fill="#0071bb" stroke-width=".66302"/>
 <path d="m602.92 240.52 28.414 61.054c-33.375 19.866-57.506 54.657-62.487 95.826h-14.187z" fill="#0071bb" stroke-width=".66302"/>
 <path d="m637.16 850.12v-186.01c0.46237-31.105-15.286-45.299-45.299-45.299h-186.02c-26.562 0-45.299 19.458-45.299 45.299v186.01c-0.46238 28.349 20.08 44.874 45.299 45.299h186.02c28.497-0.75719 45.299-15.43 45.299-45.299z" fill="#fff"/>
 <path d="m613.57 848.58v-186.01c0-13.743-9.5524-21.709-21.709-21.709h-186.02c-13.375 0-21.709 8.9196-21.709 21.709v186.01c0 13.246 10.376 21.518 21.709 21.709h186.02c13.228-0.35383 21.709-8.6265 21.709-21.709z" fill="#f00"/>
 <path d="m506.28 726.09c-9.7393 0-19.479 2.8957-28.692 9.4763 2.8956-7.3702 12.108-18.163 16.057-21.059 15.004-11.845 32.64-16.847 45.275-16.847h1.3162l-4.7381-25.007c-17.9 0-43.17 8.4236-60.28 23.428-19.479 17.373-33.957 37.642-33.957 79.235v3.6854c0 34.22 29.482 59.489 60.804 59.489 31.323 0 57.384-25.797 57.384-57.121 0-28.429-21.322-55.278-53.172-55.278z" fill="#fff"/>
 <path d="m502.07 751.89c16.584 0 29.219 12.898 29.219 29.482s-12.635 29.745-29.219 29.745-30.535-13.162-30.535-29.745 13.951-29.482 30.535-29.482z" fill="#f00"/>
</svg>
