<svg width="1e3" height="455" version="1.1" xmlns="http://www.w3.org/2000/svg">
 <path d="m0 78.408c0-42.737 35.556-78.348 78.223-78.348h844.3c42.669 0 78.223 35.613 78.223 78.348v296.73c0 43.562-35.556 79.857-78.223 79.857h-844.3c-42.669 0-78.223-36.298-78.223-79.857z" fill="#f00"/>
 <path d="m35.552 78.408c0-23.595 19.112-42.737 42.669-42.737h844.3c23.557 0 42.669 19.143 42.669 42.737v296.73c0 24.048-19.112 43.562-42.669 43.562h-844.3c-23.557 0-42.669-19.513-42.669-43.562z" fill="#fff"/>
 <path d="m177.27 158.76-5.8415 83.972h25.07c4.6243-6.5715 13.143-10.466 23.366-10.466 14.604 0 26.043 11.439 26.043 25.07 0 13.874-11.439 26.043-25.8 26.043-18.985 0-26.774-4.1379-43.081-13.387l-12.17 21.662c17.038 9.4922 31.885 16.551 55.249 16.551 28.234 0 50.627-23.366 50.627-50.869 0-27.503-23.122-49.897-50.869-49.897-7.0587 0-13.143 1.4604-19.472 3.8943v-27.26h60.605v-25.313z"/>
 <path d="m361.63 154.87c-18.498 0-35.049 8.5187-45.029 22.879-9.7358 14.117-13.874 32.858-13.874 55.007v0.97359c0 22.392 4.1379 40.645 14.36 54.035 9.9794 13.387 27.017 19.958 43.811 19.958 17.281 0 34.805-7.0587 45.271-20.445 9.9794-12.657 14.117-29.694 14.117-50.869v-2.9208c0-22.149-4.6243-41.133-14.36-55.495s-25.8-23.122-44.299-23.122z"/>
 <path d="m517.62 154.87c-18.498 0-35.049 8.5187-45.029 22.879-9.7358 14.117-13.874 32.858-13.874 55.007v0.97359c0 22.392 4.1379 40.645 14.36 54.035 9.9794 13.387 27.017 19.958 43.811 19.958 17.281 0 34.805-7.0587 45.271-20.445 9.9794-12.657 14.117-29.694 14.117-50.869v-2.9208c0-22.149-4.6243-41.133-14.36-55.495-9.7358-14.362-25.8-23.122-44.299-23.122z"/>
 <path d="m692.48 304.31h26.53v-70.829c0-6.8151 6.5715-13.387 16.307-13.387 9.7358 0 16.551 6.5715 16.551 13.387v70.829h24.096v-70.829c0-6.8151 6.5715-13.387 16.307-13.387 9.7358 0 16.064 6.5715 16.064 13.387v70.829h24.096v-70.829c0-21.419-14.36-37.483-35.779-37.483-11.683 0-21.662 4.8679-28.477 12.657-6.0851-7.7887-15.334-12.657-27.017-12.657-10.709 0-18.985 3.8943-24.583 10.709v-7.3019h-24.096z"/>
 <path d="m337.29 192.11c5.8415-8.2754 12.657-12.17 24.34-12.17s18.011 3.8943 23.609 12.17 10.223 22.392 10.223 41.621v2.434c0 17.768-3.8943 29.207-9.0058 35.779-5.3547 7.0587-12.657 10.709-25.07 10.709h-1.4604c-11.439 0-17.768-3.1641-22.879-9.9794-5.3547-7.0587-9.249-19.958-9.249-39.185v-0.48679c0-18.985 3.8943-32.615 9.4922-40.891z" fill="#fff"/>
 <path d="m493.26 192.11c5.8415-8.2754 12.657-12.17 24.34-12.17s18.011 3.8943 23.61 12.17 10.223 22.392 10.223 41.621v2.434c0 17.768-3.8943 29.207-9.0058 35.779-5.3547 7.0587-12.657 10.709-25.07 10.709h-1.4604c-11.439 0-17.768-3.1641-22.879-9.9794-5.3547-7.0587-9.249-19.958-9.249-39.185v-0.48679c0-18.985 3.8943-32.615 9.4922-40.891z" fill="#fff"/>
</svg>
