<svg width="1e3" height="455" version="1.1" xmlns="http://www.w3.org/2000/svg">
 <path d="m0 96.22c0-55 38-96.001 96.001-96.001h808c48.001 0 96.001 38 96.001 96.001v261.53c0 55-38 96.001-96.001 96.001h-808c-55 0-96.001-38-96.001-96.001z" fill="#0071bb" />
 <path d="m10 96.292c0-46.999 39.001-86 86-86h808c46.999 0 86 39.001 86 86v261.53c0 46.999-39.001 86-86 86h-808c-46.999 0-86-39.001-86-86z" fill="#fff" />
 <path d="m41.999 96.292c0-25.946 27.001-54.003 54.003-54.003h808c26 0 54.003 27.001 54.003 54.003v263.53c0 26-27.001 51.999-54.003 51.999h-808c-26 0-54.003-27-54.003-53.999z" fill="#0071bb" />
 <path d="m513.76 167.9c-18.39 0-35.247 12.43-35.247 29.968 0 8.3434 4.427 16.006 10.387 20.603-8.5139 5.1081-14.644 14.814-14.644 25.371 0 19.411 18.56 33.374 39.334 33.374 20.774 0 39.334-13.962 39.334-33.374 0-10.557-6.1297-20.263-14.474-25.371 6.1297-4.427 10.387-12.26 10.387-20.603 0-17.538-16.687-29.968-35.077-29.968z" fill="#fff"  />
 <path d="m619.43 168.92c-12.941 0-24.52 5.9596-31.501 16.006-6.8108 9.876-9.7056 22.987-9.7056 38.484v0.68108c0 15.665 2.8947 28.436 10.046 37.8 6.9813 9.365 18.901 13.963 30.649 13.963 12.089 0 24.349-4.938 31.671-14.303 6.9812-8.8544 9.876-20.773 9.876-35.587v-2.0433c0-15.495-3.2352-28.777-10.046-38.824-6.8109-10.047-18.049-16.176-30.99-16.176z" fill="#fff"  />
 <path d="m731.8 168.92c-12.941 0-24.52 5.9596-31.501 16.006-6.8108 9.876-9.7056 22.987-9.7056 38.484v0.68108c0 15.665 2.8947 28.436 10.046 37.8 6.9813 9.365 18.901 13.963 30.649 13.963 12.089 0 24.349-4.938 31.671-14.303 6.9813-8.8544 9.876-20.773 9.876-35.587v-2.0433c0-15.495-3.2352-28.777-10.046-38.824-6.8109-10.047-18.049-16.176-30.99-16.176z" fill="#fff"  />
 <path d="m807.32 273.47h18.56v-49.55c0-4.7676 4.5975-9.365 11.408-9.365 6.8108 0 11.579 4.5975 11.579 9.365v49.55h16.857v-49.55c0-4.7676 4.5975-9.365 11.408-9.365 6.8108 0 11.238 4.5975 11.238 9.365v49.55h16.857v-49.55c0-14.984-10.046-26.222-25.03-26.222-8.1733 0-15.155 3.4055-19.922 8.8544-4.2569-5.4486-10.727-8.8544-18.901-8.8544-7.4919 0-13.281 2.7244-17.198 7.4923v-5.1081h-16.857z" fill="#fff"  />
 <path d="m155.22 201.44c0 6.3002-3.5758 11.749-7.6623 14.814l-46.315 40.184v17.027h71.003v-17.027h-45.124c10.557-9.365 21.455-18.39 32.011-27.755 7.6623-7.1517 13.111-16.857 13.111-27.755 0-17.708-15.155-31.841-32.182-31.841h-0.34055c-12.089 0.17026-27.755 5.6191-37.46 23.498l14.814 8.5139c6.9812-13.792 14.133-15.155 22.817-15.155 8.5139 0 15.325 6.6407 15.325 15.495z" fill="#fff"  />
 <path d="m239.97 168.92c-12.941 0-24.52 5.9596-31.501 16.006-6.8108 9.876-9.7056 22.987-9.7056 38.484v0.68108c0 15.665 2.8947 28.436 10.046 37.8 6.9812 9.365 18.901 13.963 30.649 13.963 12.089 0 24.349-4.938 31.671-14.303 6.9813-8.8544 9.876-20.773 9.876-35.587v-2.0433c0-15.495-3.2352-28.777-10.046-38.824-6.8109-10.047-18.049-16.176-30.99-16.176z" fill="#fff"  />
 <path d="m352.33 168.92c-12.941 0-24.52 5.9596-31.501 16.006-6.8108 9.876-9.7056 22.987-9.7056 38.484v0.68108c0 15.665 2.8947 28.436 10.046 37.8 6.9813 9.365 18.901 13.963 30.649 13.963 12.089 0 24.349-4.938 31.671-14.303 6.9812-8.8544 9.876-20.773 9.876-35.587v-2.0433c0-15.495-3.2352-28.777-10.046-38.824-6.8108-10.046-18.049-16.176-30.99-16.176z" fill="#fff"  />
 <path d="m418.85 213.47h35.356v18.397h-35.356z" fill="#fff"/>
 <g fill="#0071bb" >
  <path d="m222.94 194.97c4.0865-5.7892 8.8544-8.5139 17.027-8.5139 8.1733 0 12.6 2.7244 16.517 8.5139 3.9164 5.7892 7.1517 15.665 7.1517 29.117v1.7027c0 12.43-2.7244 20.433-6.3002 25.03-3.746 4.938-8.8544 7.4922-17.538 7.4922h-1.0217c-8.0029 0-12.43-2.2136-16.006-6.9813-3.7461-4.938-6.4703-13.963-6.4703-27.414v-0.34055c0-13.281 2.7244-22.817 6.6407-28.606z" />
  <path d="m335.31 194.97c4.0865-5.7892 8.8544-8.5139 17.027-8.5139 8.1733 0 12.6 2.7244 16.517 8.5139 3.9164 5.7892 7.1517 15.665 7.1517 29.117v1.7027c0 12.43-2.7244 20.433-6.3002 25.03-3.746 4.938-8.8544 7.4922-17.538 7.4922h-1.0217c-8.0029 0-12.43-2.2136-16.006-6.9813-3.746-4.938-6.4702-13.963-6.4702-27.414v-0.34055c0-13.281 2.7244-22.817 6.6407-28.606z" />
  <path d="m513.76 226.47s6.4706 1.3622 9.5355 2.7244c6.1297 2.7244 11.238 8.3434 11.238 14.984 0 7.3218-8.5139 14.984-20.944 14.984-12.77 0-20.944-8.0029-20.944-15.665 0-6.1297 4.427-10.898 10.217-13.622 3.5758-1.7028 10.898-3.4055 10.898-3.4055z" />
  <path d="m513.76 185.95c10.387 0 16.687 6.3002 16.687 12.089 0 4.938-4.7676 9.1949-10.727 11.068-2.0433 0.68107-6.1297 1.873-6.1297 1.873l-5.1081-1.5325c-6.3002-1.7027-11.579-6.4702-11.579-11.579 0-5.6191 6.6407-11.919 16.857-11.919z" />
  <path d="m602.43 194.97c4.0865-5.7892 8.8544-8.5139 17.027-8.5139s12.6 2.7244 16.517 8.5139c3.9164 5.7892 7.1517 15.665 7.1517 29.117v1.7027c0 12.43-2.7244 20.433-6.3002 25.03-3.746 4.938-8.8544 7.4922-17.538 7.4922h-1.0216c-8.0029 0-12.43-2.2136-16.006-6.9813-3.7461-4.938-6.4706-13.963-6.4706-27.414v-0.34055c0-13.281 2.7244-22.817 6.6407-28.606z" />
  <path d="m714.79 194.97c4.0865-5.7892 8.8544-8.5139 17.027-8.5139 8.173 0 12.6 2.7244 16.517 8.5139 3.9164 5.7892 7.1517 15.665 7.1517 29.117v1.7027c0 12.43-2.7244 20.433-6.3002 25.03-3.746 4.938-8.8544 7.4922-17.538 7.4922h-1.0217c-8.0029 0-12.43-2.2136-16.006-6.9813-3.7461-4.938-6.4706-13.963-6.4706-27.414v-0.34055c0-13.281 2.7244-22.817 6.6407-28.606z" />
 </g>
</svg>
