<svg width="1e3" height="795" version="1.1" xmlns="http://www.w3.org/2000/svg">
 <path d="m0.90343 79.082c0-42.645 35.479-78.179 78.053-78.179h842.47c42.577 0 78.053 35.536 78.053 78.179v636.09c0 43.467-35.479 79.684-78.053 79.684h-842.47c-42.577 0-78.053-36.219-78.053-79.684z" fill="#f00"/>
 <path d="m36.378 79.082c0-23.544 19.07-42.645 42.577-42.645h842.47c23.506 0 42.577 19.101 42.577 42.645v636.09c0 23.995-19.07 43.467-42.577 43.467h-842.47c-23.506 0-42.577-19.471-42.577-43.467z" fill="#fff"/>
 <g fill="#f00">
  <path d="m540.26 550.48h-12.621v21.035h23.84v105.64h22.905v-139.06l-22.905-0.2337v3.0383c0 4.207-5.3755 9.5826-11.219 9.5826z"  />
  <path d="m701.3 578.76c0 8.6477-4.9081 16.127-10.517 20.334l-63.572 55.158v23.372h97.462v-23.372h-61.936c14.491-12.855 29.449-25.242 43.94-38.096 10.517-9.8163 17.996-23.138 17.996-38.096 0-24.307-20.801-43.706-44.173-43.706h-0.4674c-16.594 0.2338-38.096 7.7128-51.419 32.254l20.334 11.686c9.5826-18.931 19.399-20.801 31.319-20.801 11.686 0 21.035 9.1151 21.035 21.269z"  />
  <path d="m329.07 633.22c8.6477 0 17.295-2.3372 25.476-8.1802-2.5709 6.5442-10.751 16.127-14.257 18.698-13.322 10.517-28.982 14.958-40.2 14.958h-0.9348l4.2069 22.204c15.893 0 38.33-7.7128 53.522-21.035 17.295-15.426 29.916-33.188 29.916-70.116v-3.5058c0-30.384-26.177-52.587-53.99-52.587s-50.718 22.905-50.718 50.717c0 25.008 18.931 48.848 46.978 48.848z"  />
  <path d="m438.95 595.27h48.529v25.251h-48.529z" />
 </g>
 <path d="m540.26 127.31h-12.621v21.035h23.84v105.64h22.905v-139.06l-22.905-0.2337v3.0383c0 4.207-5.3756 9.5826-11.219 9.5826z"  />
 <path d="m622.77 114.22v23.138h65.909l-53.055 117.09h25.242l53.055-117.09v-23.138z"  />
 <path d="m339.82 109.55c-25.242 0-48.38 17.062-48.38 41.135 0 11.452 6.0767 21.97 14.257 28.28-11.686 7.0117-20.1 20.334-20.1 34.824 0 26.644 25.476 45.809 53.99 45.809s53.99-19.165 53.99-45.809c0-14.491-8.4139-27.813-19.866-34.824 8.4139-6.0767 14.257-16.828 14.257-28.28 0-24.073-22.905-41.135-48.146-41.135z"  />
 <path d="m438.95 172.1h48.529v25.251h-48.529z" />
 <path d="m533.47 335.31h-12.621v21.035h23.84v105.64h22.905v-139.06l-22.905-0.2337v3.0383c0 4.207-5.3755 9.5826-11.219 9.5826z"  />
 <path d="m672.05 322.22-64.04 84.607v25.943h73.155v29.449h23.138v-29.449h20.1v-23.138h-20.1v-87.412z"  />
 <path d="m339.82 317.55c-25.242 0-48.38 17.062-48.38 41.135 0 11.452 6.0767 21.97 14.257 28.28-11.686 7.0117-20.1 20.334-20.1 34.824 0 26.644 25.476 45.809 53.99 45.809s53.99-19.165 53.99-45.809c0-14.491-8.4139-27.813-19.866-34.824 8.4139-6.0767 14.257-16.828 14.257-28.28 0-24.073-22.905-41.135-48.146-41.135z"  />
 <path d="m438.95 380.1h48.529v25.251h-48.529z" />
 <path d="m224.08 486.8c-16.794-26.538-31.099-49.344-31.099-95.578 0-43.331 14.306-66.552 31.099-92.882l12.44 11.196c-13.891 18.245-24.05 54.942-24.05 83.76 0 29.026 10.366 64.686 24.05 82.309z"/>
 <path d="m793.42 486.8c16.793-26.538 31.099-49.344 31.099-95.578 0-43.331-14.306-66.552-31.099-92.882l-12.44 11.196c13.891 18.245 24.05 54.942 24.05 83.76 0 29.026-10.366 64.686-24.05 82.309z"/>
 <g fill="#fff" >
  <path d="m339.82 189.95s8.8814 1.8698 13.088 3.7396c8.4139 3.7395 15.426 11.452 15.426 20.567 0 10.05-11.686 20.567-28.748 20.567-17.529 0-28.748-10.985-28.748-21.502 0-8.4139 6.0768-14.958 14.023-18.698 4.9081-2.3372 14.958-4.6744 14.958-4.6744z" />
  <path d="m332.81 610.54c-14.724 0-25.709-11.452-25.709-26.177 0-14.724 10.985-26.41 25.709-26.41s27.112 11.686 27.112 26.41c0 14.724-12.387 26.177-27.112 26.177z" />
  <path d="m339.82 134.32c14.257 0 22.905 8.6477 22.905 16.594 0 6.7779-6.5442 12.621-14.724 15.192-2.8046 0.9349-8.4139 2.5709-8.4139 2.5709l-7.0116-2.1035c-8.6477-2.3372-15.893-8.8814-15.893-15.893 0-7.7128 9.1152-16.36 23.138-16.36z" />
  <path d="m339.82 397.95s8.8814 1.8698 13.088 3.7396c8.4139 3.7395 15.426 11.452 15.426 20.567 0 10.05-11.686 20.567-28.748 20.567-17.529 0-28.748-10.985-28.748-21.502 0-8.4139 6.0768-14.958 14.023-18.698 4.9081-2.3372 14.958-4.6744 14.958-4.6744z" />
  <path d="m339.82 342.32c14.257 0 22.905 8.6477 22.905 16.594 0 6.7779-6.5442 12.621-14.724 15.192-2.8046 0.9349-8.4139 2.5709-8.4139 2.5709l-7.0116-2.1035c-8.6477-2.3372-15.893-8.8814-15.893-15.893 0-7.7128 9.1152-16.36 23.138-16.36z" />
  <path d="m681.16 348.16v61.469h-46.043z" />
 </g>
</svg>
