<svg width="1e3" height="795" version="1.1" xmlns="http://www.w3.org/2000/svg">
 <path d="m0 96c0-55 38-96 96-96h808c48 0 96 38 96 96v601.53c0 55-38 99-96 96h-808c-55 0-96-38-96-96z" fill="#0071bb"/>
 <path d="m10 96.072c0-47 39-86 86-86h808c47 0 86 39 86 86v601.53c0 47-39 86-86 86h-808c-47 0-86-39-86-86z" fill="#fff"/>
 <path d="m42 96.072c0-25.946 27-54 54-54h808c26 0 54 27 54 54v603.53c0 26-27 52-54 52h-808c-26 0-54-27-54-54z" fill="#0071bb"/>
 <g fill="#f00">
  <path d="m531.51 552.1h-12.621v21.035h23.84v105.64h22.905v-139.06l-22.905-0.2337v3.0384c0 4.2069-5.3756 9.5825-11.219 9.5825z"  />
  <path d="m692.54 580.38c0 8.6476-4.9081 16.127-10.517 20.334l-63.572 55.158v23.372h97.462v-23.372h-61.936c14.491-12.855 29.449-25.242 43.94-38.096 10.517-9.8163 17.997-23.138 17.997-38.096 0-24.307-20.801-43.706-44.173-43.706h-0.46744c-16.594 0.2337-38.097 7.7128-51.419 32.254l20.334 11.686c9.5826-18.931 19.399-20.801 31.319-20.801 11.686 0 21.035 9.1151 21.035 21.269z"  />
  <path d="m320.32 634.83c8.6477 0 17.295-2.3373 25.476-8.1803-2.5709 6.5442-10.751 16.127-14.257 18.698-13.322 10.517-28.981 14.958-40.2 14.958h-0.93489l4.207 22.204c15.893 0 38.33-7.7128 53.522-21.035 17.295-15.426 29.916-33.188 29.916-70.116v-3.5059c0-30.384-26.177-52.587-53.99-52.587-27.813 0-50.717 22.905-50.717 50.718 0 25.008 18.931 48.848 46.978 48.848z"  />
  <path d="m430.2 596.88h48.529v25.251h-48.529z" />
 </g>
 <g fill="#fff">
  <path d="m531.51 128.93h-12.621v21.035h23.84v105.64h22.905v-139.06l-22.905-0.2337v3.0384c0 4.2069-5.3756 9.5825-11.219 9.5825z"  />
  <path d="m614.01 115.84v23.138h65.909l-53.055 117.09h25.242l53.055-117.09v-23.138z"  />
  <path d="m331.07 111.16c-25.242 0-48.38 17.062-48.38 41.135 0 11.452 6.0768 21.97 14.257 28.28-11.686 7.0116-20.1 20.334-20.1 34.824 0 26.644 25.476 45.809 53.99 45.809 28.514 0 53.99-19.165 53.99-45.809 0-14.491-8.414-27.813-19.866-34.824 8.414-6.0768 14.257-16.828 14.257-28.28 0-24.073-22.905-41.135-48.147-41.135z"  />
  <path d="m524.72 336.93h-12.621v21.035h23.84v105.64h22.905v-139.06l-22.905-0.2337v3.0384c0 4.2069-5.3756 9.5825-11.219 9.5825z"  />
  <path d="m663.29 323.84-64.04 84.607v25.943h73.155v29.449h23.138v-29.449h20.1v-23.138h-20.1v-87.412z"  />
  <path d="m331.07 319.16c-25.242 0-48.38 17.062-48.38 41.135 0 11.452 6.0768 21.97 14.257 28.28-11.686 7.0116-20.1 20.334-20.1 34.824 0 26.644 25.476 45.809 53.99 45.809 28.514 0 53.99-19.165 53.99-45.809 0-14.491-8.414-27.813-19.866-34.824 8.414-6.0768 14.257-16.828 14.257-28.28 0-24.073-22.905-41.135-48.147-41.135z"  />
  <path d="m215.33 488.42c-16.793-26.538-31.099-49.344-31.099-95.578 0-43.331 14.306-66.552 31.099-92.882l12.44 11.196c-13.891 18.245-24.05 54.942-24.05 83.76 0 29.026 10.366 64.686 24.05 82.309z"/>
  <path d="m784.67 488.42c16.794-26.538 31.099-49.344 31.099-95.578 0-43.331-14.306-66.552-31.099-92.882l-12.44 11.196c13.891 18.245 24.05 54.942 24.05 83.76 0 29.026-10.366 64.686-24.05 82.309z"/>
  <path d="m430.2 173.71h48.529v25.251h-48.529z" />
  <path d="m430.2 381.71h48.529v25.251h-48.529z" />
 </g>
 <g fill="#0071bb" >
  <path d="m331.07 191.56s8.8814 1.8697 13.088 3.7395c8.414 3.7395 15.426 11.452 15.426 20.567 0 10.05-11.686 20.568-28.748 20.568-17.529 0-28.748-10.985-28.748-21.502 0-8.414 6.0768-14.958 14.023-18.698 4.9081-2.3372 14.958-4.6744 14.958-4.6744z" />
  <path d="m331.07 135.94c14.257 0 22.905 8.6476 22.905 16.594 0 6.778-6.5442 12.621-14.724 15.192-2.8046 0.9349-8.414 2.5709-8.414 2.5709l-7.0116-2.1034c-8.6477-2.3373-15.893-8.8814-15.893-15.893 0-7.7128 9.1151-16.36 23.138-16.36z" />
  <path d="m324.06 612.16c-14.724 0-25.709-11.452-25.709-26.177 0-14.724 10.985-26.41 25.709-26.41 14.724 0 27.112 11.686 27.112 26.41 0 14.724-12.387 26.177-27.112 26.177z" />
  <path d="m672.41 349.78v61.469h-46.043z" />
  <path d="m331.07 399.56s8.8814 1.8697 13.088 3.7395c8.414 3.7395 15.426 11.452 15.426 20.567 0 10.05-11.686 20.568-28.748 20.568-17.529 0-28.748-10.985-28.748-21.502 0-8.414 6.0768-14.958 14.023-18.698 4.9081-2.3372 14.958-4.6744 14.958-4.6744z" />
  <path d="m331.07 343.94c14.257 0 22.905 8.6476 22.905 16.594 0 6.778-6.5442 12.621-14.724 15.192-2.8046 0.9349-8.414 2.5709-8.414 2.5709l-7.0116-2.1034c-8.6477-2.3373-15.893-8.8814-15.893-15.893 0-7.7128 9.1151-16.36 23.138-16.36z" />
 </g>
</svg>
