<svg width="1e3" height="795" version="1.1" xmlns="http://www.w3.org/2000/svg">
 <path d="m0 96.18c0-55.103 38.071-96.18 96.18-96.18h809.5c48.09 0 96.18 38.071 96.18 96.18v602.64c0 55.103-38.071 99.187-96.18 96.18h-809.5c-55.103 0-96.18-38.071-96.18-96.18z" fill="#0071bb"/>
 <path d="m10.019 96.252c0-47.087 39.074-86.161 86.161-86.161h809.5c47.087 0 86.161 39.074 86.161 86.161v602.64c0 47.087-39.074 86.161-86.161 86.161h-809.5c-47.087 0-86.161-39.074-86.161-86.161z" fill="#fff"/>
 <path d="m42.077 96.252c0-25.995 27.051-54.103 54.099-54.103h809.5c26.049 0 54.103 27.05 54.103 54.103v604.65c0 26.049-27.051 52.096-54.103 52.096h-809.5c-26.049 0-54.099-27.051-54.099-54.103z" fill="#0071bb"/>
 <path d="m410.39 102.12h40.615c8.2476 0 14.589 6.9829 14.589 14.607 0 8.248-6.3414 15.231-14.589 15.231h-26.007c-1.9061 0-5.7182 0.62346-7.6244 6.3414l-8.8891 30.46h174.51l6.9829-22.213h-14.607c-8.2298 0-14.589-6.9829-14.589-14.589 0-8.2654 6.9829-14.607 14.589-14.607h58.393c8.2654 0 14.589 6.3414 14.589 14.607 0 8.2476-6.3236 14.589-14.589 14.589h-14.607l-7.6066 26.649 38.082 84.396c11.418-3.7942 24.101-5.7004 36.802-5.7004 64.732 0.62346 117.41 52.672 116.77 118.03 0 65.361-53.297 117.41-118.03 117.41-60.298-0.6413-109.8-45.689-116.78-103.44h-17.76c-4.4356 6.9829-12.683 12.06-22.213 12.06-14.589-0.64118-26.007-12.06-26.007-27.307v-1.8881l-114.23-131.35s-3.812 12.042-8.2476 27.914c39.351 18.401 66.641 59.658 66.641 106.61-0.64118 64.732-53.955 117.41-118.67 117.41-65.361-0.64119-118.05-53.955-117.41-118.69 0.6413-65.361 53.316-117.39 118.67-116.75 8.248 0 15.872 0.62347 23.478 2.5295l43.145-141.51c1.906-6.9829 7.6243-10.795 14.607-10.795" fill="#fff"/>
 <path d="m205.01 658.76v6.7322h15.648v-77.875h-17.103v43.85c0 13.1-7.46 17.649-14.92 18.195h-1.0917c-7.8239 0-12.555-4.3668-12.555-13.1v-48.945h-17.103v48.945c0 14.92 2.9112 19.287 9.0976 24.563 4.9127 4.1849 11.645 6.0044 18.195 6.0044 8.1878 0 16.194-2.5473 19.833-8.3698z" fill="#fff" />
 <path d="m272.78 665.67v-52.402c0-5.0946 5.2766-10.007 12.919-10.007s13.828 4.9127 13.828 10.007v52.402h19.105v-52.402c0-15.83-10.553-27.838-27.657-27.838-8.9156 0-15.648 3.2751-20.015 8.7336v-5.4585h-16.921v76.965z" fill="#fff" />
 <path d="m397.86 556.5v34.389c-4.7307-3.639-11.099-5.4585-18.923-5.4585-14.374 0-34.207 7.8239-34.207 41.303 0 26.019 15.648 40.575 31.659 40.575s19.287-2.9112 24.018-7.278v5.8224h15.83v-109.35z" fill="#fff" />
 <path d="m458.89 648.02c0 11.463 2.0015 15.102 7.642 18.195 4.1849 2.3654 9.2795 2.9112 13.646 2.9112 1.4556 0 2.7293-0.18195 4.0029-0.18195 5.0946-0.3639 9.0976-2.3654 11.463-3.2751v-16.558c-1.8195 0.7278-8.9156 3.0932-12.373 3.2751h-0.3639c-2.7293 0-6.1863-1.2737-6.1863-5.4585v-41.485h20.742v-17.831h-20.742v-31.478l-17.831 6.5502v24.927h-14.556v17.831h14.556z" fill="#fff" />
 <path d="m588.31 668.77 3.821-14.192c-6.0044-2.1834-7.6419-7.46-7.6419-13.828 0-6.9141 1.8195-15.466 1.8195-24.018 0-4.5488-0.3639-8.9156-2.0015-13.1-2.7293-7.0961-6.3683-13.1-15.466-16.558-5.0946-1.6376-10.553-2.5473-16.012-2.5473-10.553 0-21.288 3.0932-30.568 7.8239l7.642 14.92c6.7322-3.4571 15.466-5.8224 23.654-5.8224 2.1834 0 4.3668 0.18195 6.5502 0.54585 5.0946 0.90975 8.1878 4.7307 8.1878 8.7336 0 4.5488-4.1849 9.2795-14.192 9.2795-3.2751 0-6.5502-0.18195-9.8254-0.18195-5.0946 0-10.189 0.54585-14.556 3.639-6.0044 4.1849-8.7336 11.281-8.7336 18.377 0 2.9112 0.3639 5.6405 1.2736 8.3697 2.9112 10.917 14.01 18.013 24.745 18.013 9.0976 0 19.651-1.8195 25.109-9.8254 3.821 5.4585 9.6434 9.2795 16.194 10.371z" fill="#fff" />
 <path d="m685.13 587.43h-16.558v5.8224c-4.7307-4.3668-6.5502-7.278-22.562-7.278-20.379 0-32.569 15.284-32.569 41.303 0 25.473 12.373 40.575 33.661 40.575 7.8239 0 14.01-2.0015 18.741-5.6405 0 1.4556 0.18195 2.7293 0.18195 4.0029 0 7.0961-1.4556 10.553-4.3668 12.009-4.9127 2.1834-8.5517 3.2751-15.648 3.2751-7.8239 0-14.556-2.7293-23.108-7.6419l-6.9141 16.558c7.8239 4.0029 16.012 6.9141 25.473 8.3697 2.0015 0.3639 4.1849 0.54586 6.5502 0.54586 6.0044 0 12.555-1.0917 16.376-2.7293 8.7336-3.821 20.56-10.007 20.742-23.836z" fill="#fff" />
 <path d="m712.14 633.65c1.0917 16.376 12.373 28.748 25.291 32.569 4.0029 1.0917 8.1878 1.8195 12.373 1.8195 10.553 0 21.47-4.0029 29.84-12.191l-11.281-13.828c-5.2766 5.8224-11.645 8.1878-17.467 8.1878-2.9112 0-5.6405-0.54585-8.0058-1.6376-6.1863-2.7293-10.189-5.6405-10.917-14.92h50.4v-7.6419c0-14.738-4.7307-25.473-12.009-32.023-7.278-6.5502-16.012-8.5517-23.472-8.5517-7.6419 0-16.558 2.5473-23.472 9.2795-7.6419 7.278-11.463 18.741-11.463 33.479 0 1.8195 0 3.639 0.18195 5.4585z" fill="#fff" />
 <path d="m819.43 648.02c0 11.463 2.0015 15.102 7.642 18.195 4.1849 2.3654 9.2795 2.9112 13.646 2.9112 1.4556 0 2.7293-0.18195 4.0029-0.18195 5.0946-0.3639 9.0976-2.3654 11.463-3.2751v-16.558c-1.8195 0.7278-8.9156 3.0932-12.373 3.2751h-0.3639c-2.7293 0-6.1863-1.2737-6.1863-5.4585v-41.485h20.742v-17.831h-20.742v-31.478l-17.831 6.5502v24.927h-14.556v17.831h14.556z" fill="#fff" />
 <g fill="#0071bb">
  <path d="m635.01 292.5v0.62348l28.555 61.566h-68.524c4.4354-26.007 19.043-48.238 39.972-62.182" />
  <path d="m699.1 363.58-38.067-82.512c7.6064-1.8882 16.495-3.1708 24.761-3.1708 50.749 0 91.362 41.256 90.739 92.026 0 50.127-41.256 90.739-91.379 90.739-45.69 0-83.135-33.63-90.117-76.775h90.117c8.2477 0 14.589-6.3415 15.23-14.589 0-1.9059-0.64132-4.4532-1.2825-5.7179" />
  <path d="m329.79 328.69c-6.3593 19.024-12.059 29.819-14.607 34.254-1.9059 4.4532-1.9059 14.607 7.6242 19.043 6.3415 2.5295 13.324 0.62354 17.136-5.0766 5.7002-8.889 11.418-23.478 18.401-45.068 1.2647-3.7943 13.324-43.144 13.324-43.144 29.178 15.231 48.238 45.69 48.238 80.604-0.64126 50.75-41.256 91.362-92.026 91.362-50.784-0.62354-91.379-41.879-90.757-92.026 0-50.749 41.256-91.362 92.026-90.739 5.0768 0 10.795 0 15.872 1.2825 0 0-13.342 43.144-15.231 49.503" />
  <path d="m574.1 197.32-44.425 145.32h-0.62342c-3.1708 0-6.3415 0-9.5297 1.2825l-121.84-140.26 1.906-6.3415z" />
  <path d="m598.84 214.45 25.402 54.58c-29.836 17.76-51.408 48.862-55.861 85.666h-12.683z" />
  <path d="m397.49 625.64v1.2737c0 15.648-3.4571 22.926-16.012 22.926-12.919 0-17.467-8.7336-17.467-23.654 0-14.192 6.7322-23.29 17.831-23.29 11.463 0 15.466 7.0961 15.648 22.744z" />
  <path d="m568.48 628.74v14.01c0 6.3683-6.0044 10.735-14.374 10.735-2.1834 0-4.3668-0.3639-6.7322-0.90975-5.2766-1.2737-9.0976-6.1863-9.0976-11.099 0-1.2737 0.3639-2.5473 0.90976-3.821 2.3654-5.0946 8.7336-5.2766 13.646-5.8224 1.4556-0.18195 2.9112-0.18195 4.3668-0.18195h2.0015c3.4571 0 6.5502-0.18195 9.2795-2.9112z" />
  <path d="m650.38 603.26c11.827 0 15.284 8.5517 15.284 24.199 0 13.1-4.7307 22.744-16.194 22.744-11.099 0-17.285-8.9156-17.285-23.108 0-14.92 4.0029-23.836 18.195-23.836z" />
  <path d="m762.91 618.55h-31.659c0.90976-5.4585 2.9112-9.0976 5.0946-11.463 0.90976-0.72781 2.0015-1.4556 3.0932-2.5473 2.3654-1.4556 5.0946-2.1834 7.46-2.1834 9.2795 0 14.556 6.1863 16.012 16.194z" />
 </g>
</svg>
