<?xml version="1.0" encoding="UTF-8" standalone="no"?>
<!-- Created with Inkscape (http://www.inkscape.org/) -->

<svg
   width="314.884"
   height="134.953"
   viewBox="0 0 83.313057 35.706316"
   version="1.1"
   id="svg5019"
   inkscape:version="1.1.2 (b8e25be833, 2022-02-05)"
   sodipodi:docname="corrections.svg"
   xmlns:inkscape="http://www.inkscape.org/namespaces/inkscape"
   xmlns:sodipodi="http://sodipodi.sourceforge.net/DTD/sodipodi-0.dtd"
   xmlns="http://www.w3.org/2000/svg"
   xmlns:svg="http://www.w3.org/2000/svg">
  <sodipodi:namedview
     id="namedview5021"
     pagecolor="#ffffff"
     bordercolor="#666666"
     borderopacity="1.0"
     inkscape:pageshadow="2"
     inkscape:pageopacity="0.0"
     inkscape:pagecheckerboard="0"
     inkscape:document-units="mm"
     showgrid="false"
     units="px"
     inkscape:zoom="2.0359279"
     inkscape:cx="129.91619"
     inkscape:cy="79.816186"
     inkscape:window-width="1920"
     inkscape:window-height="1001"
     inkscape:window-x="-9"
     inkscape:window-y="-9"
     inkscape:window-maximized="1"
     inkscape:current-layer="svg5019" />
  <defs
     id="defs5016" />
  <rect
     style="display:inline;fill:#ed171f;fill-opacity:1;stroke-width:0.529167;stroke-linecap:round"
     id="rect1667"
     width="83.313034"
     height="35.706429"
     x="0"
     y="0"
     ry="4.7399888"
     inkscape:label="rect400" />
  <rect
     style="fill:#ffffff;fill-opacity:1;stroke-width:0.529167;stroke-linecap:round"
     id="rect2079"
     width="78.573036"
     height="30.966431"
     x="2.3699951"
     y="2.3699989"
     ry="2.3699901"
     inkscape:label="rect404" />
  <path
     d="m 44.301542,19.357816 3.06119,5.34229 h 3.31768 c 0.67538,0 1.19292,0.519048 1.19292,1.192911 0,0.673854 -0.51754,1.192902 -1.19292,1.192902 h -1.91836 l 0.88178,1.55716 c 0.41434,0.77707 0.20792,1.711966 -0.57065,2.124771 -0.72546,0.415849 -1.65885,0.156338 -2.0747,-0.570647 l -0.88179,-1.607238 -0.98498,1.711959 c -0.31112,0.570656 -1.03658,0.777054 -1.60874,0.41584 -0.57066,-0.312633 -0.77707,-1.038103 -0.46595,-1.60876 l 1.65885,-2.853259 -3.05968,-5.393899 -3.05967,5.393899 1.65885,2.853259 c 0.31112,0.570657 0.15633,1.296112 -0.41435,1.60876 -0.57066,0.361205 -1.29611,0.154791 -1.66036,-0.41584 l -0.93338,-1.711959 -0.93338,1.607238 c -0.41585,0.726975 -1.34772,0.986504 -2.0747,0.570647 -0.72697,-0.41278 -0.98497,-1.347701 -0.57065,-2.124771 l 0.9349,-1.55716 h -1.973 c -0.67385,0 -1.19291,-0.519048 -1.19291,-1.192902 0,-0.673863 0.51906,-1.192911 1.19291,-1.192911 h 3.32072 l 3.11279,-5.34229 h -6.22558 l -1.65885,2.904878 c -0.31114,0.519047 -1.0381,0.725453 -1.60875,0.414334 -0.57066,-0.311136 -0.77706,-1.038104 -0.41435,-1.607238 l 0.98499,-1.711958 h -1.86676 c -0.83019,0 -1.50405,-0.673855 -1.50405,-1.504045 0,-0.830168 0.67386,-1.505545 1.50405,-1.505545 h 1.86676 l -0.98499,-1.658854 c -0.3627,-0.569133 -0.15634,-1.296109 0.41435,-1.658836 0.57065,-0.311128 1.29762,-0.104745 1.60875,0.465935 l 1.65885,2.851755 h 6.22558 l -3.11279,-5.340784 h -3.32072 c -0.67385,0 -1.19291,-0.519049 -1.19291,-1.1929114 0,-0.673855 0.51906,-1.192902 1.19291,-1.192902 h 1.973 l -0.9349,-1.555638 c -0.41433,-0.778576 -0.15634,-1.711959 0.57065,-2.127811 0.72698,-0.415843 1.65885,-0.15479 2.0747,0.572173 l 0.93338,1.605723 0.93338,-1.710444 c 0.36426,-0.569137 1.0897,-0.778578 1.66036,-0.414338 0.51905,0.309624 0.72546,1.036585 0.41435,1.605726 l -1.65885,2.854776 3.05967,5.3938974 3.05968,-5.3938974 -1.65885,-2.854776 c -0.31113,-0.569141 -0.10471,-1.296118 0.41435,-1.605726 0.57066,-0.364261 1.29763,-0.154789 1.66035,0.414338 l 0.98498,1.710444 0.88179,-1.605723 c 0.41584,-0.726976 1.34923,-0.988021 2.07469,-0.572173 0.77858,0.415844 0.98499,1.349235 0.57065,2.127811 l -0.88178,1.555638 h 1.91837 c 0.67537,0 1.19291,0.519047 1.19291,1.192903 0,0.6222634 -0.51754,1.1929104 -1.19291,1.1929104 h -3.31768 l -3.0612,5.340784 h 6.17247 l 1.65885,-2.904878 c 0.31113,-0.517534 1.03809,-0.72394 1.60875,-0.412836 0.56913,0.311135 0.77705,1.036598 0.41435,1.607253 l -0.93339,1.710445 h 1.81516 c 0.83018,0 1.50405,0.675368 1.50405,1.505544 0,0.830183 -0.67387,1.504038 -1.50405,1.504038 h -1.81516 l 0.93339,1.660358 c 0.3627,0.570648 0.15478,1.296118 -0.41435,1.658846 -0.57066,0.311135 -1.29762,0.104753 -1.60875,-0.465934 l -1.65885,-2.85327 z"
     style="fill:#000000;fill-opacity:1;fill-rule:nonzero;stroke:none;stroke-width:1.51771"
     id="path628"
     inkscape:label="path408" />
</svg>
