<svg width="1e3" height="440" version="1.1" xmlns="http://www.w3.org/2000/svg">
 <path d="m0 78.165c0-42.637 35.53-78.165 78.165-78.165h843.67c42.637 0 78.165 35.53 78.165 78.165v282.49c0 42.637-35.53 78.165-78.165 78.165h-843.67c-42.637 0-78.165-35.529-78.165-78.165z" fill="#f00"/>
 <path d="m35.529 78.165c0-23.54 19.098-42.637 42.637-42.637h843.67c23.54 0 42.637 19.098 42.637 42.637v282.49c0 23.538-19.098 42.637-42.637 42.637h-843.67c-23.54 0-42.637-19.099-42.637-42.637z" fill="#fff"/>
 <path d="m230.92 239.62c0-13.421-6.9419-26.612-18.743-33.09-12.496-7.4049-28.926-9.2561-42.577-10.876-9.4875-1.8512-23.603-4.628-23.603-18.049 0-6.9419 3.7025-13.885 10.181-16.892 6.248-3.2396 12.727-4.8594 19.438-4.8594 12.959 0 25.686 6.0163 33.323 16.198l17.356-16.198c-11.57-15.041-31.239-21.289-50.216-21.289h-1.157c-18.281 0-39.569 6.0163-48.594 23.14-3.0082 6.0163-4.6281 12.727-4.6281 19.669 0 10.413 3.7025 20.826 11.57 27.768 11.801 10.876 28.231 12.959 43.503 15.041 10.876 1.6198 28.926 4.628 28.926 19.669 0 3.471-0.92562 7.1736-2.314 10.181-6.248 9.4875-17.587 12.727-28.231 12.727h-2.0826c-14.347 0-28.462-7.4049-37.718-18.512l-17.356 16.198c13.653 16.198 37.718 24.066 59.471 24.066 10.876 0 21.058-1.8513 29.388-5.785 13.421-6.9419 24.066-21.52 24.066-36.792z"/>
 <path d="m246.97 278.95h25.222v-67.337c0-6.4793 6.248-12.727 15.504-12.727 9.2561 0 15.736 6.248 15.736 12.727v67.337h22.909v-67.337c0-6.4793 6.248-12.727 15.504-12.727 9.2564 0 15.272 6.248 15.272 12.727v67.337h22.909v-67.337c0-20.364-13.653-35.636-34.016-35.636-11.108 0-20.595 4.6281-27.074 12.033-5.785-7.4049-14.578-12.033-25.686-12.033-10.181 0-18.049 3.7025-23.371 10.181v-6.9419h-22.909z"/>
 <path d="m480.95 282.89 4.8594-18.049c-7.6362-2.7768-9.7188-9.4875-9.7188-17.587 0-8.7931 2.314-19.669 2.314-30.545 0-5.785-0.4628-11.339-2.5455-16.661-3.471-9.0249-8.0992-16.661-19.669-21.058-6.4793-2.0826-13.421-3.2396-20.364-3.2396-13.421 0-27.074 3.9337-38.877 9.9504l9.7187 18.975c8.5618-4.3968 19.669-7.4049 30.082-7.4049 2.7768 0 5.5536 0.23142 8.3306 0.69423 6.4793 1.157 10.413 6.0163 10.413 11.108 0 5.785-5.3224 11.801-18.049 11.801-4.1651 0-8.3306-0.23143-12.496-0.23143-6.4793 0-12.959 0.69423-18.512 4.6281-7.6362 5.3224-11.108 14.347-11.108 23.371 0 3.7025 0.4628 7.1736 1.6198 10.644 3.7025 13.885 17.818 22.909 31.47 22.909 11.57 0 24.991-2.314 31.934-12.496 4.8594 6.9419 12.264 11.801 20.595 13.19z"/>
 <path d="m506.27 252.81c0 14.81 2.7768 20.133 10.181 24.066 5.5536 3.0082 11.57 3.9337 17.587 3.9337 5.5537 0 11.339-0.92562 16.43-1.8512l-2.5455-21.751c-2.5455 1.157-5.785 1.8512-8.7931 1.8512-5.091 0-9.2561-1.8512-9.2561-7.4049v-111.08h-23.603z"/>
 <path d="m621.06 179.46 33.091 99.504h26.611l33.091-99.504h-24.066l-22.446 67.337-22.215-67.337z"/>
 <path d="m721.02 238.23c1.3884 20.826 15.736 36.561 32.165 41.421 5.0907 1.3885 10.413 2.314 15.736 2.314 13.421 0 27.306-5.0907 37.951-15.504l-14.347-17.587c-6.7106 7.4049-14.81 10.413-22.215 10.413-3.7024 0-7.1736-0.69423-10.181-2.0826-7.8676-3.471-12.959-7.1736-13.885-18.975h64.097v-9.7187c0-18.743-6.0163-32.396-15.272-40.729-9.2561-8.3305-20.364-10.876-29.851-10.876-9.7187 0-21.058 3.2396-29.851 11.801-9.7188 9.2561-14.578 23.835-14.578 42.577 0 2.314 0 4.6281 0.23131 6.9419z"/>
 <path d="m838.45 179.69v98.809c0 6.0163-3.7025 8.0992-8.3306 8.0992-2.5455 0-5.3224-0.69419-8.5618-1.6198l-3.2396 21.289c6.7106 0.69423 12.264 1.3885 17.123 1.3885 4.3968 0 8.5618-0.46281 12.264-1.6198 9.9504-3.2396 14.116-13.885 14.116-26.843v-99.504z"/>
 <path d="m849.35 138.96c-8.0992 0-14.81 6.4793-14.81 14.347 0 7.8676 6.7106 14.578 14.81 14.578 8.0992 0 15.041-6.7106 15.041-14.578 0-7.8676-6.9419-14.347-15.041-14.347z"/>
 <path d="m455.74 231.98v17.818c0 8.0992-7.6362 13.653-18.281 13.653-2.7768 0-5.5537-0.46281-8.5618-1.157-6.7106-1.6198-11.57-7.8676-11.57-14.116 0-1.6198 0.46281-3.2396 1.157-4.8594 3.0082-6.4793 11.108-6.7106 17.356-7.4049 1.8512-0.23142 3.7025-0.23142 5.5537-0.23142h2.5455c4.3968 0 8.3305-0.23142 11.801-3.7025z" fill="#fff"/>
 <path d="m785.58 219.03h-40.263c1.157-6.9419 3.7024-11.57 6.4793-14.578 1.157-0.92561 2.5455-1.8512 3.9337-3.2396 3.0082-1.8512 6.4793-2.7768 9.4875-2.7768 11.801 0 18.512 7.8676 20.364 20.595z" fill="#fff"/>
</svg>
