<svg width="896.9" height="603.02" version="1.1" xmlns="http://www.w3.org/2000/svg">
 <path d="m0 70.2c0-38.24 31.866-70.105 70.105-70.105h756.69c38.24 0 70.105 31.866 70.105 70.105v462.81c0 38.24-31.866 70.105-70.105 70.105h-756.69c-38.24 0-70.105-31.865-70.105-70.105z" fill="#f00"/>
 <path d="m31.87 70.2c0-21.112 17.128-38.24 38.24-38.24h756.69c21.112 0 38.24 17.128 38.24 38.24v462.81c0 21.111-17.128 38.24-38.24 38.24h-756.69c-21.112 0-38.24-17.129-38.24-38.24z" fill="#fff"/>
 <path d="m346.95 163.38c10.128-3.3968 18.116-0.97524 26.41 8.5476l64.072 74.874c15.975-4.3494 28.906 3.6184 34.162 19.29l27.496 81.983c5.5601 16.578-3.0276 30.754-15.927 35.081l13.283 39.606c6.4332 23.856-51.609 40.115-58.955 19.773l-13.283-39.606-234.94 78.796 13.283 39.606c6.4127 23.866-51.638 40.109-58.981 19.782l-13.283-39.606c-13.806 4.6306-28.272-1.8138-33.832-18.392l-27.496-81.983c-5.256-15.671 0.25587-29.825 15.597-35.978l5.9692-98.365c0.90126-12.607 5.8135-19.355 15.941-22.752z"/>
 <path d="m290 184.15c13.795-22.885 40.219-36.812 68.362-33.264 38.04 4.7951 65.152 39.724 60.357 77.763-1.2775 10.134-4.7103 19.48-9.7541 27.666l215.69 128.91c13.795-22.885 39.522-35.649 67.665-32.101 38.039 4.7949 65.152 39.724 60.357 77.763-1.2775 10.134-3.7735 17.915-8.8173 26.101l15.744 9.6064c8.0814 4.8485 17.533-0.0679 21.192-6.0375l52.081-84.97 1.4675-8.6079-29.251-125.75c-2.9887-10.896-8.464-18.352-20.69-25.959-1.7467-1.0867-3.6303-2.1758-5.6649-3.2793l-173.1-103.85c-5.9885-3.5928-10.769-4.8011-23.134-4.6817l-118.4 28.369c-8.6007 1.7266-15.497 0.16083-24.3-4.4791l-89.083-53.207c-11.5-6.8991-28.301-7.4517-35.82 5.0816l-45.803 76.507c-4.4991 7.3527-4.6853 15.949 2.7985 20.438l13.225 8.0168c1.8712 0.6961 3.5306 0.7826 4.8753-0.0359z" />
 <path d="m709.76 377.38c-24.796-14.416-56.329-6.0676-70.745 18.728-14.416 24.796-6.0688 56.331 18.727 70.746 24.796 14.416 56.339 6.0713 70.755-18.724 14.415-24.796 6.0587-56.334-18.737-70.75z" />
 <path d="m604.76 139.99 61.024 36.612c3.5814 2.0037 5.2193 5.0482 2.1785 10.085l-31.474 52.063c-1.7689 2.9484-4.9788 3.5642-7.808 1.8668l-121.85-73.103c-7.5488-4.5289-10.852-15.911 11.032-18.938l65.217-14.562c6.9943-1.7488 13.19 0.88258 21.678 5.975z" fill="#fff" />
 <path d="m767.36 237.38c5.9843 3.5368 10.092 6.7685 10.451 12.958l17.625 78.672c1.1761 4.7036-4.1726 9.1513-9.0044 6.2525l-124.2-74.512c-2.8101-1.6859-3.9115-4.456-2.0166-7.6743 11.11-18.709 22.568-37.999 33.678-56.709 1.0316-1.7195 2.7043-1.2755 3.5354-0.77683l63.388 38.03c2.3426 1.3672 4.5459 2.5802 6.5407 3.7591z" fill="#fff"/>
 <path d="m414.77 280.02c-15.671 5.256-24.244 22.482-18.684 39.06 5.256 15.671 22.473 24.219 38.145 18.963 16.578-5.56 25.134-22.751 19.878-38.423-5.56-16.578-22.76-25.16-39.338-19.6" fill="#fff"/>
 <path d="m103.1 417.34c5.256 15.671 22.473 24.219 38.145 18.963 16.578-5.56 25.16-22.76 19.904-38.431-5.56-16.578-22.786-25.151-39.364-19.591-15.671 5.256-24.244 22.482-18.684 39.06" fill="#fff"/>
 <path d="m205.67 383.95c-10.128 3.3969-12.88 10.486-9.7869 19.708l8.3401 24.867c3.0928 9.2214 9.5538 13.192 19.682 9.7955l146.51-49.137c9.1955-3.0841 12.888-10.461 9.7956-19.682l-8.3401-24.867c-3.0928-9.2214-10.495-12.905-19.691-9.8214z" fill="#fff"/>
 <path d="m127.1 268.87c-3.6784 1.2337-5.833 4.0023-6.4297 8.3232l-4.4686 78.353 289.31-97.032-50.834-59.805c-2.1492-3.3999-5.5375-4.3095-9.2156-3.0759z" fill="#fff"/>
</svg>
