<?xml version="1.0" encoding="UTF-8" standalone="no"?>
<!-- Created with Inkscape (http://www.inkscape.org/) -->

<svg
   width="399.97299"
   height="300.22601"
   viewBox="0 0 105.82619 79.434802"
   version="1.1"
   id="svg1228"
   inkscape:version="1.1.2 (b8e25be833, 2022-02-05)"
   sodipodi:docname="acuratte.svg"
   xmlns:inkscape="http://www.inkscape.org/namespaces/inkscape"
   xmlns:sodipodi="http://sodipodi.sourceforge.net/DTD/sodipodi-0.dtd"
   xmlns="http://www.w3.org/2000/svg"
   xmlns:svg="http://www.w3.org/2000/svg">
  <sodipodi:namedview
     id="namedview1230"
     pagecolor="#ffffff"
     bordercolor="#666666"
     borderopacity="1.0"
     inkscape:pageshadow="2"
     inkscape:pageopacity="0.0"
     inkscape:pagecheckerboard="0"
     inkscape:document-units="mm"
     showgrid="false"
     units="px"
     inkscape:zoom="1.0179639"
     inkscape:cx="199.90885"
     inkscape:cy="190.08532"
     inkscape:window-width="1920"
     inkscape:window-height="1001"
     inkscape:window-x="-9"
     inkscape:window-y="-9"
     inkscape:window-maximized="1"
     inkscape:current-layer="svg1228"
     showguides="true"
     inkscape:guide-bbox="true"
     inkscape:snap-bbox="false"
     inkscape:snap-bbox-edge-midpoints="false"
     inkscape:bbox-nodes="false"
     inkscape:snap-intersection-paths="false"
     inkscape:snap-smooth-nodes="false"
     inkscape:object-paths="false" />
  <defs
     id="defs1225" />
  <rect
     style="fill:#ed171f;fill-opacity:1;stroke-width:1.48644;stroke-linecap:round"
     id="rect1410"
     width="105.82612"
     height="79.434822"
     x="0"
     y="0"
     ry="4.7399883"
     inkscape:label="rect5520" />
  <rect
     style="fill:#ffffff;fill-opacity:1;stroke-width:0.529167;stroke-linecap:round"
     id="rect2457"
     width="101.08612"
     height="74.694824"
     x="2.3700027"
     y="2.3699985"
     ry="2.3699901"
     inkscape:label="rect5525" />
  <path
     d="m 65.084322,60.663753 c 0,-0.257056 0,-0.447908 -0.1928,-0.576437 -0.190899,-0.06426 -0.3837,-0.06426 -0.640748,0.128529 l -8.198553,5.828602 c -0.128515,0.128529 -0.257049,0.32132 -0.257049,0.447908 0,0.192794 0.128534,0.321323 0.257049,0.449852 l 8.198553,5.828586 c 0.257048,0.192794 0.449849,0.257058 0.640748,0.128529 0.1928,-0.06236 0.1928,-0.319365 0.1928,-0.512159 l -0.705015,-3.39629 h 35.362621 v -4.99705 H 64.379307 Z"
     style="fill:#000000;fill-opacity:1;fill-rule:nonzero;stroke:none;stroke-width:1.94741"
     id="path536"
     sodipodi:nodetypes="ccccsccccccccc"
     inkscape:label="path5530" />
  <path
     d="m 91.02848,52.977324 c -3.330072,0 -6.085702,-2.434267 -6.597774,-5.635807 h 6.662042 c 0.576479,0 1.024286,-0.449853 1.024286,-1.090541 0,-0.128527 0,-0.321321 -0.06426,-0.447908 l -2.753591,-6.021395 c 0.576485,-0.12853 1.152822,-0.194734 1.793569,-0.194734 3.715654,0.06616 6.7263,3.012647 6.7263,6.728302 -0.06426,3.713702 -3.074908,6.726348 -6.790568,6.662083 m -9.544309,-7.814958 3.201548,-10.313476 1.859873,4.099303 c -2.179151,1.28139 -3.781967,3.522863 -4.101243,6.214173 z M 80.715058,40.613226 79.69061,37.090363 82.508621,34.84889 Z M 78.79296,31.516878 h -8.200581 l 0.704996,-2.241473 7.943387,-6.406981 3.267859,5.63775 z m -8.967815,2.562781 0.128515,-0.447895 h 6.21219 l -0.574434,0.576424 c -0.321315,0.190852 -0.512214,1.024347 -0.321315,1.729301 l 2.048565,6.662097 z M 89.427713,45.162366 H 84.43071 c 0.321323,-1.85783 1.407975,-3.522863 2.946381,-4.54914 z m -18.001805,1.152875 c 0,3.713702 -3.010792,6.662083 -6.726451,6.662083 -3.71566,0 -6.726306,-3.074955 -6.726306,-6.79061 0.06427,-3.715658 3.074912,-6.599775 6.790572,-6.599775 0.383699,0 0.76738,0.06616 1.152962,0.128527 0,0 -0.960162,3.141176 -1.088695,3.58907 -0.449848,1.407978 -0.89765,2.177209 -1.09045,2.498532 -0.127071,0.319381 -0.127071,1.088596 0.576335,1.407978 0.449848,0.192791 0.962063,0.06426 1.281495,-0.383646 0.449848,-0.640686 0.833383,-1.729298 1.345616,-3.33007 0.06571,-0.321323 0.962062,-3.203485 0.962062,-3.203485 2.112831,1.152864 3.587127,3.394337 3.52286,6.021396 m 19.666844,-8.648454 c -0.897806,0 -1.793569,0.128529 -2.627107,0.383643 l -2.691222,-5.828599 1.795462,-1.536507 c 1.088552,-0.833482 1.34561,-2.243415 0.510173,-3.653335 l -4.099201,-7.174256 c -0.512217,-0.89776 -1.472236,-1.40992 -2.560931,-1.40992 -0.576355,0 -1.217083,0.192794 -1.793562,0.640689 l -9.610485,7.752638 c -0.190734,0.190849 -0.255001,0.319379 -0.319268,0.576435 L 66.49302,37.795316 c -0.576335,-0.128529 -1.152816,-0.192794 -1.729297,-0.192794 -4.804208,0 -8.71265,3.779922 -8.71265,8.584192 0,4.804251 3.844175,8.712703 8.648384,8.712703 4.804354,0.06426 8.648548,-3.844187 8.712814,-8.584176 0,-3.458599 -1.986363,-6.469301 -4.932888,-7.814959 0.383681,-1.219083 0.640748,-2.050621 0.640748,-2.050621 l 8.455601,9.608524 v 0.192791 c 0,1.090541 0.833548,1.922095 1.922097,1.984401 0.705014,0 1.281496,-0.381688 1.665031,-0.89386 h 1.281493 c 0.51207,4.290153 4.165508,7.5579 8.584131,7.622164 4.804212,0 8.712663,-3.844187 8.712663,-8.64844 0.06427,-4.80621 -3.844187,-8.648454 -8.648395,-8.648454"
     style="fill:#000000;fill-opacity:1;fill-rule:nonzero;stroke:none;stroke-width:1.94741"
     id="path544"
     inkscape:label="path5535" />
  <ellipse
     style="fill:#000000;fill-opacity:1;stroke-width:1.20095;stroke-linecap:round"
     id="path3637"
     cx="76.966454"
     cy="14.765226"
     rx="3.5559433"
     ry="3.556"
     inkscape:label="circle5540" />
  <path
     d="m 40.741795,60.663753 c 0,-0.257056 0,-0.447908 0.1928,-0.576437 0.190899,-0.06426 0.3837,-0.06426 0.640748,0.128529 l 8.198557,5.828602 c 0.12851,0.128529 0.25705,0.32132 0.25705,0.447908 0,0.192794 -0.12854,0.321323 -0.25705,0.449852 l -8.198557,5.828586 c -0.257048,0.192794 -0.449849,0.257058 -0.640748,0.128529 -0.1928,-0.06236 -0.1928,-0.319365 -0.1928,-0.512159 l 0.705015,-3.39629 H 6.0841885 v -4.99705 H 41.44681 Z"
     style="fill:#000000;fill-opacity:1;fill-rule:nonzero;stroke:none;stroke-width:1.94741"
     id="path3876"
     sodipodi:nodetypes="ccccsccccccccc"
     inkscape:label="path5545" />
  <path
     d="m 14.797637,52.977324 c 3.330072,0 6.085702,-2.434267 6.597774,-5.635807 h -6.662042 c -0.576479,0 -1.024286,-0.449853 -1.024286,-1.090541 0,-0.128527 0,-0.321321 0.06426,-0.447908 l 2.753591,-6.021395 c -0.576485,-0.12853 -1.152822,-0.194734 -1.793569,-0.194734 -3.715654,0.06616 -6.7263005,3.012647 -6.7263005,6.728302 0.06426,3.713702 3.0749085,6.726348 6.7905685,6.662083 m 9.544309,-7.814958 -3.201548,-10.313476 -1.859873,4.099303 c 2.179151,1.28139 3.781967,3.522863 4.101243,6.214173 z m 0.769117,-4.54914 1.024448,-3.522863 -2.818011,-2.241473 z m 1.922098,-9.096348 h 8.200581 l -0.704996,-2.241473 -7.943387,-6.406981 -3.267859,5.63775 z m 8.967815,2.562781 -0.128515,-0.447895 h -6.21219 l 0.574434,0.576424 c 0.321315,0.190852 0.512214,1.024347 0.321315,1.729301 l -2.048565,6.662097 z M 16.398404,45.162366 h 4.997003 c -0.321323,-1.85783 -1.407975,-3.522863 -2.946381,-4.54914 z m 18.001805,1.152875 c 0,3.713702 3.010792,6.662083 6.726451,6.662083 3.71566,0 6.72631,-3.074955 6.72631,-6.79061 -0.0643,-3.715658 -3.074916,-6.599775 -6.790576,-6.599775 -0.383699,0 -0.76738,0.06616 -1.152962,0.128527 0,0 0.960162,3.141176 1.088695,3.58907 0.449848,1.407978 0.89765,2.177209 1.09045,2.498532 0.127071,0.319381 0.127071,1.088596 -0.576335,1.407978 -0.449848,0.192791 -0.962063,0.06426 -1.281495,-0.383646 -0.449848,-0.640686 -0.833383,-1.729298 -1.345616,-3.33007 -0.06571,-0.321323 -0.962062,-3.203485 -0.962062,-3.203485 -2.112831,1.152864 -3.587127,3.394337 -3.52286,6.021396 M 14.733365,37.666787 c 0.897806,0 1.793569,0.128529 2.627107,0.383643 l 2.691222,-5.828599 -1.795462,-1.536507 c -1.088552,-0.833482 -1.34561,-2.243415 -0.510173,-3.653335 l 4.099201,-7.174256 c 0.512217,-0.89776 1.472236,-1.40992 2.560931,-1.40992 0.576355,0 1.217083,0.192794 1.793562,0.640689 l 9.610485,7.752638 c 0.190734,0.190849 0.255001,0.319379 0.319268,0.576435 l 3.203591,10.377741 c 0.576335,-0.128529 1.152816,-0.192794 1.729297,-0.192794 4.804208,0 8.712646,3.779922 8.712646,8.584192 0,4.804251 -3.844171,8.712703 -8.64838,8.712703 -4.804354,0.06426 -8.648548,-3.844187 -8.712814,-8.584176 0,-3.458599 1.986363,-6.469301 4.932888,-7.814959 -0.383681,-1.219083 -0.640748,-2.050621 -0.640748,-2.050621 l -8.455601,9.608524 v 0.192791 c 0,1.090541 -0.833548,1.922095 -1.922097,1.984401 -0.705014,0 -1.281496,-0.381688 -1.665031,-0.89386 h -1.281493 c -0.51207,4.290153 -4.165508,7.5579 -8.584131,7.622164 -4.8042125,0 -8.7126635,-3.844187 -8.7126635,-8.64844 -0.06427,-4.80621 3.844187,-8.648454 8.6483955,-8.648454"
     style="fill:#000000;fill-opacity:1;fill-rule:nonzero;stroke:none;stroke-width:1.94741"
     id="path3878"
     inkscape:label="path5550" />
  <ellipse
     style="fill:#000000;fill-opacity:1;stroke-width:1.20095;stroke-linecap:round"
     id="ellipse3880"
     cx="28.859665"
     cy="14.765226"
     rx="3.5559433"
     ry="3.556"
     inkscape:label="circle5555" />
</svg>
