<?xml version="1.0" encoding="UTF-8" standalone="no"?>
<!-- Created with Inkscape (http://www.inkscape.org/) -->

<svg
   width="399.97299"
   height="300.22601"
   viewBox="0 0 105.82619 79.434802"
   version="1.1"
   id="svg1228"
   inkscape:version="1.1.2 (b8e25be833, 2022-02-05)"
   sodipodi:docname="acuratte.svg"
   xmlns:inkscape="http://www.inkscape.org/namespaces/inkscape"
   xmlns:sodipodi="http://sodipodi.sourceforge.net/DTD/sodipodi-0.dtd"
   xmlns="http://www.w3.org/2000/svg"
   xmlns:svg="http://www.w3.org/2000/svg">
  <sodipodi:namedview
     id="namedview1230"
     pagecolor="#ffffff"
     bordercolor="#666666"
     borderopacity="1.0"
     inkscape:pageshadow="2"
     inkscape:pageopacity="0.0"
     inkscape:pagecheckerboard="0"
     inkscape:document-units="mm"
     showgrid="false"
     units="px"
     inkscape:zoom="1.4396184"
     inkscape:cx="206.65199"
     inkscape:cy="151.08171"
     inkscape:window-width="1920"
     inkscape:window-height="1001"
     inkscape:window-x="-9"
     inkscape:window-y="-9"
     inkscape:window-maximized="1"
     inkscape:current-layer="svg1228"
     showguides="true"
     inkscape:guide-bbox="true"
     inkscape:snap-bbox="false"
     inkscape:snap-bbox-edge-midpoints="false"
     inkscape:bbox-nodes="false"
     inkscape:snap-intersection-paths="false"
     inkscape:snap-smooth-nodes="false"
     inkscape:object-paths="false" />
  <defs
     id="defs1225" />
  <rect
     style="fill:#ed171f;fill-opacity:1;stroke-width:1.48644;stroke-linecap:round"
     id="rect1410"
     width="105.82612"
     height="79.434822"
     x="0"
     y="0"
     ry="4.7399883"
     inkscape:label="rect400" />
  <rect
     style="fill:#ffffff;fill-opacity:1;stroke-width:0.529167;stroke-linecap:round"
     id="rect2457"
     width="101.08612"
     height="74.694824"
     x="2.3700027"
     y="2.3699985"
     ry="2.3699901"
     inkscape:label="rect404" />
  <path
     d="m 65.084322,60.663753 c 0,-0.257056 0,-0.447908 -0.1928,-0.576437 -0.190899,-0.06426 -0.3837,-0.06426 -0.640748,0.128529 l -8.198553,5.828602 c -0.128515,0.128529 -0.257049,0.32132 -0.257049,0.447908 0,0.192794 0.128534,0.321323 0.257049,0.449852 l 8.198553,5.828586 c 0.257048,0.192794 0.449849,0.257058 0.640748,0.128529 0.1928,-0.06236 0.1928,-0.319365 0.1928,-0.512159 l -0.705015,-3.39629 h 35.362621 v -4.99705 H 64.379307 Z"
     style="fill:#000000;fill-opacity:1;fill-rule:nonzero;stroke:none;stroke-width:1.94741"
     id="path536"
     sodipodi:nodetypes="ccccsccccccccc"
     inkscape:label="path408" />
  <path
     d="m 27.786716,54.963681 c 1.80353,0 3.259864,-1.459552 3.259864,-3.259885 h -6.519764 c 0,1.800333 1.456334,3.259885 3.2599,3.259885"
     style="fill:#000000;fill-opacity:1;fill-rule:nonzero;stroke:none;stroke-width:3.21488"
     id="path402"
     inkscape:label="path412" />
  <path
     d="m 37.661197,54.963681 c 1.80353,0 3.2599,-1.459552 3.2599,-3.259885 h -6.519799 c 0,1.800333 1.459552,3.259885 3.259899,3.259885"
     style="fill:#000000;fill-opacity:1;fill-rule:nonzero;stroke:none;stroke-width:3.21488"
     id="path406"
     inkscape:label="path416" />
  <path
     d="m 78.107201,54.963681 c 1.80035,0 3.2599,-1.459552 3.2599,-3.259885 h -6.52298 c 0,1.800333 1.45955,3.259885 3.26308,3.259885"
     style="fill:#000000;fill-opacity:1;fill-rule:nonzero;stroke:none;stroke-width:3.21488"
     id="path414"
     inkscape:label="path420" />
  <path
     d="m 68.044641,54.963681 c 1.80356,0 3.2599,-1.459552 3.2599,-3.259885 h -6.51977 c 0,1.800333 1.45634,3.259885 3.25987,3.259885"
     style="fill:#000000;fill-opacity:1;fill-rule:nonzero;stroke:none;stroke-width:3.21488"
     id="path418"
     inkscape:label="path424" />
  <path
     d="m 90.154301,43.139371 c 0,0 -5.8189,-1.472415 -5.8189,-3.436702 V 28.826745 c 0,-0.302209 0.25075,-0.546527 0.55296,-0.546527 h 1.11236 c 0.27975,0 0.50793,0.208983 0.54008,0.482234 l 3.61354,12.959163 z m -8.14968,-4.047529 c 0,0.601179 -0.48866,1.086628 -1.08986,1.086628 h -5.48136 c -0.60117,0 -1.08983,-0.485452 -1.08983,-1.086628 v -9.757145 c 0,-0.601186 0.48866,-1.089845 1.08983,-1.089845 h 5.48136 c 0.6012,0 1.08986,0.488659 1.08986,1.089845 z m -9.98864,7.336345 c 0,0.604393 -0.48867,1.089842 -1.09305,1.089842 h -5.47814 c -0.60438,0 -1.08986,-0.485441 -1.08986,-1.089842 V 29.257538 c 0,-0.604394 0.48544,-1.093057 1.08986,-1.093057 h 5.47814 c 0.60438,0 1.09305,0.488659 1.09305,1.093057 z M 61.87628,39.172213 c 0,0.601187 -0.488663,1.089843 -1.093046,1.089843 H 45.223221 c -0.601201,0 -1.089828,-0.488656 -1.089828,-1.089843 v -9.837516 c 0,-0.601186 0.488627,-1.089845 1.089828,-1.089845 h 15.560013 c 0.604383,0 1.093046,0.488659 1.093046,1.089845 z m -20.182984,7.255974 c 0,0.604393 -0.488628,1.089842 -1.089864,1.089842 h -5.481359 c -0.601165,0 -1.089828,-0.485441 -1.089828,-1.089842 V 29.257538 c 0,-0.604394 0.488628,-1.093057 1.089828,-1.093057 h 5.481359 c 0.601201,0 1.089864,0.488659 1.089864,1.093057 z M 31.633952,39.091842 c 0,0.601179 -0.488663,1.086628 -1.089864,1.086628 h -5.481359 c -0.601164,0 -1.089827,-0.485452 -1.089827,-1.086628 v -9.757145 c 0,-0.601186 0.488627,-1.089845 1.089827,-1.089845 h 5.481359 c 0.601201,0 1.089864,0.488659 1.089864,1.089845 z m -10.068999,0.610827 c 0,1.96429 -5.818935,3.436702 -5.818935,3.436702 v -1.417759 l 3.610314,-12.959164 c 0.03537,-0.273279 0.263482,-0.482233 0.54334,-0.482233 h 1.112321 c 0.298849,0 0.552995,0.244314 0.552995,0.546527 z m 70.691908,0.967679 -5.23705,-18.045097 c -0.32467,-1.012686 -1.27632,-1.745677 -2.39186,-1.745677 H 21.204883 c -1.125194,0 -2.080027,0.742639 -2.398293,1.764966 l -5.23701,18.025808 c -0.08028,0.189672 -0.125552,0.39864 -0.125552,0.617253 v 7.484227 c 0,0.877659 0.710448,1.591364 1.588146,1.591364 h 75.758557 c 0.88084,0 1.59136,-0.713705 1.59136,-1.591364 v -7.484227 c 0,-0.218602 -0.0449,-0.427574 -0.1252,-0.617253"
     style="fill:#000000;fill-opacity:1;fill-rule:nonzero;stroke:none;stroke-width:3.21488"
     id="path422"
     inkscape:label="path428" />
  <path
     d="m 37.954388,15.391782 c 0,0 10.548007,-2.501176 10.589811,-2.514035 0.32785,-0.122157 0.559361,-0.440437 0.559361,-0.810148 0,-0.472585 -0.385781,-0.858373 -0.861571,-0.858373 -0.08028,0 -0.160565,0.0095 -0.234835,0.029 -0.06119,0.01945 -13.8304,3.372405 -13.907535,3.394909 -0.360069,0.102882 -0.623693,0.434007 -0.623693,0.826221 0,0.363284 0.224932,0.67512 0.543304,0.80051 l 14.081151,3.256667 c 0.0481,0.0095 0.09337,0.0095 0.141467,0.0095 0.475789,0 0.86157,-0.385781 0.86157,-0.858374 0,-0.405077 -0.276568,-0.739424 -0.649405,-0.839084 z"
     style="fill:#000000;fill-opacity:1;fill-rule:nonzero;stroke:none;stroke-width:3.21488"
     id="path426"
     inkscape:label="path432" />
  <path
     d="m 40.741795,60.663753 c 0,-0.257056 0,-0.447908 0.1928,-0.576437 0.190899,-0.06426 0.3837,-0.06426 0.640748,0.128529 l 8.198557,5.828602 c 0.12851,0.128529 0.25705,0.32132 0.25705,0.447908 0,0.192794 -0.12854,0.321323 -0.25705,0.449852 l -8.198557,5.828586 c -0.257048,0.192794 -0.449849,0.257058 -0.640748,0.128529 -0.1928,-0.06236 -0.1928,-0.319365 -0.1928,-0.512159 l 0.705015,-3.39629 H 6.0841885 v -4.99705 H 41.44681 Z"
     style="fill:#000000;fill-opacity:1;fill-rule:nonzero;stroke:none;stroke-width:1.94741"
     id="path3876"
     sodipodi:nodetypes="ccccsccccccccc"
     inkscape:label="path436" />
</svg>
