<svg width="297.68" height="255.14" version="1.1" viewBox="0 -366.3 297.68 255.14" xmlns="http://www.w3.org/2000/svg">
 <path d="m17.01-366.3h263.65c9.358 0 17.017 7.653 17.017 17.012v221.13c0 9.353-7.658 17.005-17.017 17.005h-263.65c-9.354 1e-3 -17.01-7.652-17.01-17.005v-221.13c0-9.359 7.656-17.012 17.01-17.012" fill="#f00"/>
 <path d="m17.01-357.8h263.65c4.682 0 8.505 3.83 8.505 8.512v221.13c0 4.675-3.823 8.505-8.505 8.505h-263.65c-4.677 0-8.501-3.83-8.501-8.505v-221.13c-1e-3 -4.682 3.824-8.512 8.501-8.512" fill="#fff"/>
 <path d="m75.134-162.19h-35.722v-9.494c5.054-4.082 10.208-8.422 15.566-13.118 1.325-1.121 4.847-4.339 7.5-7.756 1.376-1.583 2.195-3.519 2.244-5.153 0.305-3.572-2.402-7.248-7.195-7.352-1.94-0.154-6.633 0.258-9.9 7.861l-8.928-5.055c4.896-9.084 11.378-12.397 19.848-11.986 7.906 0.303 16.43 5.608 16.43 16.074 0 2.599-0.761 5.153-1.935 7.399-2.044 3.874-5.466 7.138-7.914 9.438-3.518 3.269-7.552 6.637-11.483 9.801h21.487v9.34h2e-3z"/>
 <path d="m133.69-187.71c0-14.598-5.308-26.847-20.563-26.847-15.157 0-20.67 12.249-20.67 26.847 0 14.54 5.513 26.745 20.67 26.796 15.256 0 20.563-12.256 20.563-26.796z"/>
 <path d="m192.4-187.71c0-14.598-5.305-26.847-20.562-26.847-15.156 0-20.666 12.249-20.666 26.847 0 14.54 5.511 26.745 20.666 26.796 15.257 0 20.562-12.256 20.562-26.796z"/>
 <path d="m258.97-162.19h-8.878v-23.634c0-5-3.978-5.511-5.664-5.258-2.55 0.312-5.356 2.147-5.356 6.279v22.612h-8.878v-23.634c0-5-3.976-5.511-5.613-5.258-2.498 0.312-5.405 2.147-5.405 6.279v22.612h-8.83v-36.644h8.055v3.214c2.094-2.703 4.906-4.032 8.681-4.087 3.878-0.049 7.755 1.538 9.491 4.647 2.654-3.774 7.752-5.308 12.3-4.538 4.841 0.763 10.099 4.741 10.099 11.428v25.982"/>
 <path d="m76.161-272.54c0 12.077-10.555 22.859-27.691 22.791-13.086 0-21.542-4.858-29.784-13.248l9.901-9.395c4.486 4.99 10.341 9.831 18.946 9.831 4.914 0 14.167-1.299 14.457-9.542 0.362-8.026-8.602-8.531-17.713-9.83-4.192-0.869-7.953-1.592-11.423-3.179-6.939-3.546-11.712-8.675-11.853-18.297-0.072-12.86 10.772-21.534 25.591-22.114 10.842-0.363 20.599 2.891 28.049 11.492l-10.413 9.036c-3.615-5.059-9.034-7.807-15.977-7.807-5.997 0-13.372 2.817-13.012 8.892 0.144 4.117 2.171 6.646 11.785 8.239 14.821 2.245 29.137 5.062 29.137 23.131z"/>
 <path d="m137.89-310.77h-20.605v59.277h-13.953v-59.277h-20.674v-13.019h55.231z"/>
 <path d="m212.19-287.28c0 20.383-11.637 37.599-33.904 37.599-22.765 0.218-33.397-16.854-33.397-37.817 0-20.821 9.903-37.738 33.327-38.025 22.842-0.364 33.974 17.778 33.974 38.243z"/>
 <path d="m278.98-301.6c0 13.955-9.106 23.86-22.407 23.86h-14.894v26.241h-13.302v-72.296h27.684c14.032 0 22.845 10.559 22.919 22.195z"/>
 <g fill="#fff">
  <path d="m198.1-287.57c0-13.738-6.294-25.591-19.596-25.591-13.657 0-19.734 11.135-19.734 25.591 0 14.102 6.077 25.375 19.734 25.375 13.302-1e-3 19.596-11.273 19.596-25.375z"/>
  <path d="m265.39-300.58c0-5.133-3.25-7.88-4.123-8.461-2.966-2.098-6.507-1.95-8.816-1.95h-10.773v20.747h10.773c2.31 0 5.852 0.144 8.816-1.81 0.873-0.719 4.123-3.467 4.123-8.526"/>
  <path d="m123.69-187.76c-0.103 10.558-3.475 17.601-10.562 17.601-7.147 0-10.823-6.993-10.823-17.601-0.046-10.669 3.676-17.509 10.823-17.558 7.087-1e-3 10.713 6.889 10.562 17.558z"/>
  <path d="m182.4-187.76c-0.105 10.558-3.472 17.601-10.565 17.601-7.143 0-10.82-6.993-10.82-17.601-0.05-10.669 3.679-17.509 10.82-17.558 7.093-1e-3 10.712 6.889 10.565 17.558z"/>
 </g>
</svg>
