<svg width="782.25" height="343.27" version="1.1" xmlns="http://www.w3.org/2000/svg">
 <path d="m0 61.144c0-33.353 27.793-61.144 61.144-61.144h659.96c33.353 0 61.144 27.793 61.144 61.144v220.98c0 33.353-27.793 61.144-61.144 61.144h-659.96c-33.353 0-61.144-27.792-61.144-61.144z" fill="#f00"/>
 <path d="m27.79 61.144c0-18.414 14.939-33.353 33.353-33.353h659.96c18.414 0 33.353 14.939 33.353 33.353v220.98c0 18.412-14.939 33.353-33.353 33.353h-659.96c-18.414 0-33.353-14.94-33.353-33.353z" fill="#fff"/>
 <path d="m78.815 263c0 7.188 5.6907 12.822 12.832 12.822h182.73c7.1463 0 12.827-5.7342 12.827-12.822v-182.74c0-6.8852-5.5172-12.827-12.827-12.827h-182.73c-7.0103 0-12.832 5.9475-12.832 12.827z" fill="#007ac2"/>
 <path d="m197.44 91.588c36.519 0 53.325 27.435 53.325 52.934 0 24.344-16.421 52.36-49.654 52.36h-35.353v59.898h-31.107v-165.19z" fill="#fff"/>
 <path d="m165.76 120.95h28.401c15.651 0 24.924 10.429 24.924 23.379 0 14.68-10.629 24.149-23.184 24.149h-30.141z" fill="#007ac2"/>
 <path d="m362.31 128.42h-7.9768v13.295h15.067v66.769h14.476v-87.893l-14.476-0.14772v1.9204c0 2.659-3.3975 6.0565-7.0905 6.0565z" />
 <path d="m442.45 194.45c0 9.3063 1.6249 12.261 6.2042 14.772 3.3976 1.9203 7.5337 2.3635 11.079 2.3635 1.1818 0 2.2158-0.14772 3.2498-0.14772 4.1361-0.29545 7.386-1.9204 9.3063-2.659v-13.442c-1.4772 0.59088-7.2382 2.5112-10.045 2.659h-0.29544c-2.2158 0-5.0224-1.034-5.0224-4.4316v-33.68h16.84v-14.476h-16.84v-25.555l-14.476 5.3179v20.238h-11.818v14.476h11.818z"/>
 <path d="m492.13 145.26v63.519h15.658v-63.519z" />
 <path d="m499.96 119.56c-5.1702 0-9.454 4.2839-9.454 9.454 0 5.1702 4.2839 9.454 9.454 9.454 5.1702 0 9.454-4.2839 9.454-9.454 0-5.1702-4.2838-9.454-9.454-9.454z" />
 <path d="m527.56 208.78h16.101v-42.986c0-4.1361 3.9884-8.1246 9.8972-8.1246s10.045 3.9884 10.045 8.1246v42.986h14.624v-42.986c0-4.1361 3.9884-8.1246 9.8972-8.1246s9.7495 3.9884 9.7495 8.1246v42.986h14.624v-42.986c0-12.999-8.7154-22.749-21.715-22.749-7.0905 0-13.147 2.9544-17.283 7.6814-3.693-4.727-9.3063-7.6814-16.397-7.6814-6.4996 0-11.522 2.3635-14.92 6.4996v-4.4316h-14.624z" style="paint-order:stroke fill markers"/>
 <path d="m625.77 182.78c0.88632 13.295 10.045 23.34 20.533 26.442 3.2498 0.88631 6.6474 1.4772 10.045 1.4772 8.5677 0 17.431-3.2498 24.226-9.8972l-9.1586-11.227c-4.2839 4.727-9.454 6.6474-14.181 6.6474-2.3635 0-4.5793-0.44315-6.4996-1.3295-5.0225-2.2158-8.2723-4.5793-8.8632-12.113h40.918v-6.2042c0-11.965-3.8407-20.681-9.7495-25.999s-12.999-6.9428-19.056-6.9428c-6.2042 0-13.442 2.0681-19.056 7.5337-6.2042 5.9088-9.3063 15.215-9.3063 27.18 0 1.4772 0 2.9544 0.14772 4.4316z" />
 <path d="m666.98 170.52h-25.703c0.73859-4.4316 2.3635-7.386 4.1361-9.3063 0.7386-0.59088 1.6249-1.1818 2.5112-2.0681 1.9204-1.1818 4.1361-1.7726 6.0565-1.7726 7.5337 0 11.818 5.0224 12.999 13.147z" fill="#fff"/>
</svg>
