<svg width="1e3" height="500" version="1.1" xmlns="http://www.w3.org/2000/svg">
 <path d="m0.71297 78.212c0-42.645 35.479-78.179 78.053-78.179h842.47c42.577 0 78.053 35.536 78.053 78.179v342.09c0 43.467-35.479 79.684-78.053 79.684h-842.47c-42.577 0-78.053-36.219-78.053-79.684z" fill="#f00"/>
 <path d="m36.188 78.212c0-23.544 19.07-42.645 42.577-42.645h842.47c23.506 0 42.577 19.101 42.577 42.645v342.09c0 23.995-19.07 43.467-42.577 43.467h-842.47c-23.506 0-42.577-19.471-42.577-43.467z" fill="#fff"/>
 <path d="m594.89 223.05c0-86.98 70.71-157.96 157.96-157.96 86.98 0 157.95 70.98 157.95 157.96s-70.972 157.96-157.95 157.96c-87.25 0-157.96-70.98-157.96-157.96" fill="#f00"/>
 <path d="m658.93 153.14c-14.681 19.482-23.487 44.027-23.487 69.907 0 64.566 52.563 117.4 117.41 117.4 26.143 0 50.425-8.5368 69.907-23.21z" fill="#005ab2"/>
 <path d="m869.98 223.05c0 26.15-8.5368 50.433-22.94 70.177l-164.1-164.1c19.482-14.41 43.764-23.21 69.914-23.21 64.566 0 117.13 52.563 117.13 117.13" fill="#005ab2"/>
 <path d="m95.743 389.86 0.03579 37.573h811.19v-18.859h-362.48l-0.0405-18.703z"/>
</svg>
