<?xml version="1.0" encoding="UTF-8" standalone="no"?>
<!-- Created with Inkscape (http://www.inkscape.org/) -->

<svg
   width="117.449"
   height="176.16901"
   viewBox="0 0 31.075048 46.611384"
   version="1.1"
   id="svg1228"
   inkscape:version="1.1.2 (b8e25be833, 2022-02-05)"
   sodipodi:docname="Denmark road sign UC60.1.svg"
   xmlns:inkscape="http://www.inkscape.org/namespaces/inkscape"
   xmlns:sodipodi="http://sodipodi.sourceforge.net/DTD/sodipodi-0.dtd"
   xmlns="http://www.w3.org/2000/svg"
   xmlns:svg="http://www.w3.org/2000/svg">
  <sodipodi:namedview
     id="namedview1230"
     pagecolor="#ffffff"
     bordercolor="#666666"
     borderopacity="1.0"
     inkscape:pageshadow="2"
     inkscape:pageopacity="0.0"
     inkscape:pagecheckerboard="0"
     inkscape:document-units="mm"
     showgrid="false"
     units="px"
     inkscape:zoom="2.8284271"
     inkscape:cx="80.079844"
     inkscape:cy="82.554717"
     inkscape:window-width="1920"
     inkscape:window-height="1001"
     inkscape:window-x="-9"
     inkscape:window-y="-9"
     inkscape:window-maximized="1"
     inkscape:current-layer="svg1228"
     showguides="true"
     inkscape:guide-bbox="true"
     inkscape:snap-bbox="false"
     inkscape:snap-bbox-edge-midpoints="false"
     inkscape:bbox-nodes="false"
     inkscape:snap-intersection-paths="false"
     inkscape:snap-smooth-nodes="false"
     inkscape:object-paths="false"
     width="117.449px" />
  <defs
     id="defs1225" />
  <rect
     style="fill:#ec1313;fill-opacity:1;stroke-width:1.48644;stroke-linecap:round"
     id="rect1410"
     width="31.075085"
     height="46.611507"
     x="0"
     y="0"
     ry="4.6748638"
     inkscape:label="rect400" />
  <rect
     style="fill:#ffffff;fill-opacity:1;stroke-width:0.529167;stroke-linecap:round"
     id="rect2457"
     width="26.333952"
     height="41.871513"
     x="2.3700027"
     y="2.3699985"
     ry="2.3048654"
     inkscape:label="rect404" />
  <path
     id="path554"
     style="fill:#000000;fill-opacity:1;fill-rule:nonzero;stroke:none;stroke-width:4.31894"
     inkscape:label="path408"
     d="M 58.722656 29.359375 C 58.472168 29.359375 57.975079 29.606915 57.724609 29.857422 L 40.060547 57.230469 C 39.814348 57.476656 39.814453 57.726496 39.814453 57.972656 C 39.814453 58.719827 40.309849 59.466797 41.052734 59.466797 L 41.304688 59.466797 L 54.244141 56.478516 L 54.244141 119.68555 L 41.304688 116.69727 L 41.052734 116.69727 C 40.309849 116.69727 39.814453 117.44424 39.814453 118.19141 C 39.814453 118.43757 39.814348 118.68936 40.060547 118.93555 L 57.724609 146.30859 C 57.975079 146.5591 58.472168 146.80469 58.722656 146.80469 C 58.973126 146.80469 59.468642 146.5591 59.714844 146.30859 L 77.384766 118.93555 C 77.630964 118.68939 77.630859 118.43759 77.630859 118.19141 C 77.630859 117.44422 77.138172 116.69727 76.386719 116.69727 L 76.140625 116.69727 L 63.201172 119.68555 L 63.201172 56.478516 L 76.140625 59.466797 L 76.386719 59.466797 C 77.138172 59.466797 77.630859 58.719839 77.630859 57.972656 C 77.630859 57.726469 77.630964 57.476629 77.384766 57.230469 L 59.714844 29.857422 C 59.468642 29.606911 58.973126 29.359375 58.722656 29.359375 z "
     transform="scale(0.26458333)" />
</svg>
