<?xml version="1.0" encoding="UTF-8" standalone="no"?>
<!-- Created with Inkscape (http://www.inkscape.org/) -->

<svg
   width="117.449"
   height="176.16901"
   viewBox="0 0 31.075048 46.611384"
   version="1.1"
   id="svg1228"
   inkscape:version="1.1.2 (b8e25be833, 2022-02-05)"
   sodipodi:docname="Denmark road sign UC61.svg"
   xmlns:inkscape="http://www.inkscape.org/namespaces/inkscape"
   xmlns:sodipodi="http://sodipodi.sourceforge.net/DTD/sodipodi-0.dtd"
   xmlns="http://www.w3.org/2000/svg"
   xmlns:svg="http://www.w3.org/2000/svg">
  <sodipodi:namedview
     id="namedview1230"
     pagecolor="#ffffff"
     bordercolor="#666666"
     borderopacity="1.0"
     inkscape:pageshadow="2"
     inkscape:pageopacity="0.0"
     inkscape:pagecheckerboard="0"
     inkscape:document-units="mm"
     showgrid="false"
     units="px"
     inkscape:zoom="4"
     inkscape:cx="93.625"
     inkscape:cy="105.375"
     inkscape:window-width="1920"
     inkscape:window-height="1001"
     inkscape:window-x="-9"
     inkscape:window-y="-9"
     inkscape:window-maximized="1"
     inkscape:current-layer="svg1228"
     showguides="true"
     inkscape:guide-bbox="true"
     inkscape:snap-bbox="false"
     inkscape:snap-bbox-edge-midpoints="false"
     inkscape:bbox-nodes="false"
     inkscape:snap-intersection-paths="false"
     inkscape:snap-smooth-nodes="false"
     inkscape:object-paths="false"
     width="117.449px"
     height="176.16901px" />
  <defs
     id="defs1225" />
  <rect
     style="fill:#ec1313;fill-opacity:1;stroke-width:1.48644;stroke-linecap:round"
     id="rect1410"
     width="31.075085"
     height="46.611507"
     x="0"
     y="0"
     ry="4.6748638"
     inkscape:label="rect400" />
  <rect
     style="fill:#ffffff;fill-opacity:1;stroke-width:0.529167;stroke-linecap:round"
     id="rect2457"
     width="26.333952"
     height="41.871513"
     x="2.3700027"
     y="2.3699985"
     ry="2.3048654"
     inkscape:label="rect404" />
  <ellipse
     style="fill:#ec1313;fill-opacity:1;stroke-width:0.255399;stroke-linecap:round"
     id="path1251"
     cx="15.536979"
     cy="23.305756"
     rx="11.652534"
     ry="11.65253"
     inkscape:label="circle408" />
  <path
     id="ellipse2984"
     style="display:inline;fill:#005ab2;fill-opacity:1;stroke-width:0.189437;stroke-linecap:round"
     d="m 22.470651,18.146252 -5.159446,5.159446 5.144041,5.144041 c 1.112172,-1.4851 1.716925,-3.288673 1.724837,-5.144041 -1.74e-4,-1.858893 -0.599616,-3.668206 -1.709432,-5.159446 z m -1.789631,12.077712 -5.144041,-5.14404 -5.144041,5.14404 c 1.485101,1.112172 3.288674,1.716925 5.144041,1.724838 1.855368,-0.0079 3.658941,-0.612666 5.144041,-1.724838 z M 8.618713,28.449739 13.762754,23.305698 8.618826,18.161771 c -1.1121904,1.485055 -1.7169814,3.288587 -1.7249504,5.143927 0.0079,1.855368 0.612665,3.658941 1.7248374,5.144041 z m 1.774228,-12.062194 5.144041,5.144041 5.15956,-5.15956 c -1.491286,-1.109798 -3.300642,-1.709222 -5.159563,-1.709318 -1.855367,0.0079 -3.65894,0.612666 -5.144041,1.724837 z"
     sodipodi:nodetypes="cccccccccccccccccccsc"
     inkscape:label="circle412" />
</svg>
