<svg width="659.67" height="1e3" version="1.1" xmlns="http://www.w3.org/2000/svg">
 <path d="m563.67 0c55 0 96 38 96 96v808c0 48-38 96-96 96h-467.53c-55 0-99-38-96-96v-808c0-55 38-96 96-96z" fill="#0071bb"/>
 <path d="m563.59 9.9996c47 0 86 39 86 86v808c0 47-39 86-86 86h-467.53c-47 0-86-39-86-86v-808c0-47 39-86 86-86z" fill="#fff"/>
 <path d="m563.59 42c25.946 0 54 27 54 54v808c0 26-27 54-54 54h-469.53c-26 0-52-27-52-54v-808c0-26 27-54 54-54z" fill="#0071bb"/>
 <path d="m355.12 831.56h-50.575v-510l-73.06 16.875h-1.4138c-4.1945 0-6.999-4.2183-6.999-8.4372 0-1.3901 0-2.8045 1.3901-4.1945l99.738-154.56c1.4138-1.4144 4.2183-2.8045 5.6326-2.8045 1.4144 0 4.2189 1.3901 5.609 2.8045l99.762 154.56c1.3901 1.39 1.3901 2.8044 1.3901 4.1945 0 4.2189-2.7802 8.4372-7.0233 8.4372h-1.3901l-73.059-16.875z" fill="#fff"/>
</svg>
