<?xml version="1.0" encoding="UTF-8" standalone="no"?>
<!-- Created with Inkscape (http://www.inkscape.org/) -->

<svg
   xmlns:dc="http://purl.org/dc/elements/1.1/"
   xmlns:cc="http://creativecommons.org/ns#"
   xmlns:rdf="http://www.w3.org/1999/02/22-rdf-syntax-ns#"
   xmlns:svg="http://www.w3.org/2000/svg"
   xmlns="http://www.w3.org/2000/svg"
   xmlns:sodipodi="http://sodipodi.sourceforge.net/DTD/sodipodi-0.dtd"
   xmlns:inkscape="http://www.inkscape.org/namespaces/inkscape"
   width="400.8913"
   height="400.8913"
   id="svg5321"
   version="1.1"
   inkscape:version="0.47 r22583"
   sodipodi:docname="Denmark road sign D26.5.svg">
  <defs
     id="defs5323">
    <inkscape:perspective
       sodipodi:type="inkscape:persp3d"
       inkscape:vp_x="0 : 526.18109 : 1"
       inkscape:vp_y="0 : 1000 : 0"
       inkscape:vp_z="744.09448 : 526.18109 : 1"
       inkscape:persp3d-origin="372.04724 : 350.78739 : 1"
       id="perspective5329" />
    <inkscape:perspective
       id="perspective5339"
       inkscape:persp3d-origin="0.5 : 0.33333333 : 1"
       inkscape:vp_z="1 : 0.5 : 1"
       inkscape:vp_y="0 : 1000 : 0"
       inkscape:vp_x="0 : 0.5 : 1"
       sodipodi:type="inkscape:persp3d" />
    <clipPath
       clipPathUnits="userSpaceOnUse"
       id="clipPath4202">
      <path
         d="m 20.045,731.714 42.114,0 0,37.012 -42.114,0 0,-37.012 z"
         id="path4204" />
    </clipPath>
    <inkscape:perspective
       id="perspective5396"
       inkscape:persp3d-origin="425 : 140 : 1"
       inkscape:vp_z="850 : 210 : 1"
       inkscape:vp_y="0 : 1000 : 0"
       inkscape:vp_x="0 : 210 : 1"
       sodipodi:type="inkscape:persp3d" />
    <inkscape:perspective
       id="perspective5429"
       inkscape:persp3d-origin="0.5 : 0.33333333 : 1"
       inkscape:vp_z="1 : 0.5 : 1"
       inkscape:vp_y="0 : 1000 : 0"
       inkscape:vp_x="0 : 0.5 : 1"
       sodipodi:type="inkscape:persp3d" />
    <clipPath
       clipPathUnits="userSpaceOnUse"
       id="clipPath2840">
      <path
         d="m 77.057,731.714 42.114,0 0,37.012 -42.114,0 0,-37.012 z"
         id="path2842" />
    </clipPath>
    <inkscape:perspective
       id="perspective5499"
       inkscape:persp3d-origin="0.5 : 0.33333333 : 1"
       inkscape:vp_z="1 : 0.5 : 1"
       inkscape:vp_y="0 : 1000 : 0"
       inkscape:vp_x="0 : 0.5 : 1"
       sodipodi:type="inkscape:persp3d" />
    <clipPath
       clipPathUnits="userSpaceOnUse"
       id="clipPath3036">
      <path
         d="m 134.072,731.751 42.114,0 0,36.975 -42.114,0 0,-36.975 z"
         id="path3038" />
    </clipPath>
    <inkscape:perspective
       id="perspective5621"
       inkscape:persp3d-origin="0.5 : 0.33333333 : 1"
       inkscape:vp_z="1 : 0.5 : 1"
       inkscape:vp_y="0 : 1000 : 0"
       inkscape:vp_x="0 : 0.5 : 1"
       sodipodi:type="inkscape:persp3d" />
    <clipPath
       clipPathUnits="userSpaceOnUse"
       id="clipPath2952">
      <path
         d="m 191.084,731.751 42.113,0 0,36.975 -42.113,0 0,-36.975 z"
         id="path2954" />
    </clipPath>
    <clipPath
       clipPathUnits="userSpaceOnUse"
       id="clipPath2936">
      <path
         d="m 191.084,731.751 42.113,0 0,36.975 -42.113,0 0,-36.975 z"
         id="path2938" />
    </clipPath>
    <inkscape:perspective
       id="perspective5694"
       inkscape:persp3d-origin="0.5 : 0.33333333 : 1"
       inkscape:vp_z="1 : 0.5 : 1"
       inkscape:vp_y="0 : 1000 : 0"
       inkscape:vp_x="0 : 0.5 : 1"
       sodipodi:type="inkscape:persp3d" />
    <inkscape:perspective
       inkscape:vp_x="0 : 226.5 : 1"
       inkscape:vp_y="0 : 1000 : 0"
       inkscape:vp_z="510 : 226.5 : 1"
       inkscape:persp3d-origin="255 : 151 : 1"
       id="perspective18"
       sodipodi:type="inkscape:persp3d" />
    <inkscape:perspective
       id="perspective5722"
       inkscape:persp3d-origin="0.5 : 0.33333333 : 1"
       inkscape:vp_z="1 : 0.5 : 1"
       inkscape:vp_y="0 : 1000 : 0"
       inkscape:vp_x="0 : 0.5 : 1"
       sodipodi:type="inkscape:persp3d" />
    <clipPath
       clipPathUnits="userSpaceOnUse"
       id="clipPath3216">
      <path
         d="m 248.098,731.74 42.114,0 0,36.986 -42.114,0 0,-36.986 z"
         id="path3218" />
    </clipPath>
    <inkscape:perspective
       id="perspective5860"
       inkscape:persp3d-origin="0.5 : 0.33333333 : 1"
       inkscape:vp_z="1 : 0.5 : 1"
       inkscape:vp_y="0 : 1000 : 0"
       inkscape:vp_x="0 : 0.5 : 1"
       sodipodi:type="inkscape:persp3d" />
    <clipPath
       clipPathUnits="userSpaceOnUse"
       id="clipPath2880">
      <path
         d="m 305.111,731.751 42.114,0 0,36.975 -42.114,0 0,-36.975 z"
         id="path2882" />
    </clipPath>
    <inkscape:perspective
       id="perspective5456"
       inkscape:persp3d-origin="0.5 : 0.33333333 : 1"
       inkscape:vp_z="1 : 0.5 : 1"
       inkscape:vp_y="0 : 1000 : 0"
       inkscape:vp_x="0 : 0.5 : 1"
       sodipodi:type="inkscape:persp3d" />
    <clipPath
       clipPathUnits="userSpaceOnUse"
       id="clipPath3316">
      <path
         d="m 77.057,409.341 42.114,0 0,42.114 -42.114,0 0,-42.114 z"
         id="path3318" />
    </clipPath>
    <inkscape:perspective
       id="perspective6307"
       inkscape:persp3d-origin="0.5 : 0.33333333 : 1"
       inkscape:vp_z="1 : 0.5 : 1"
       inkscape:vp_y="0 : 1000 : 0"
       inkscape:vp_x="0 : 0.5 : 1"
       sodipodi:type="inkscape:persp3d" />
    <clipPath
       clipPathUnits="userSpaceOnUse"
       id="clipPath3802">
      <path
         d="m 134.072,409.341 42.114,0 0,56.174 -42.114,0 0,-56.174 z"
         id="path3804" />
    </clipPath>
    <inkscape:perspective
       id="perspective6372"
       inkscape:persp3d-origin="0.5 : 0.33333333 : 1"
       inkscape:vp_z="1 : 0.5 : 1"
       inkscape:vp_y="0 : 1000 : 0"
       inkscape:vp_x="0 : 0.5 : 1"
       sodipodi:type="inkscape:persp3d" />
    <clipPath
       clipPathUnits="userSpaceOnUse"
       id="clipPath3564">
      <path
         d="m 191.084,409.341 42.113,0 0,42.113 -42.113,0 0,-42.113 z"
         id="path3566" />
    </clipPath>
    <inkscape:perspective
       id="perspective6525"
       inkscape:persp3d-origin="0.5 : 0.33333333 : 1"
       inkscape:vp_z="1 : 0.5 : 1"
       inkscape:vp_y="0 : 1000 : 0"
       inkscape:vp_x="0 : 0.5 : 1"
       sodipodi:type="inkscape:persp3d" />
    <clipPath
       clipPathUnits="userSpaceOnUse"
       id="clipPath3420">
      <path
         d="m 305.125,409.34 42.114,0 0,42.114 -42.114,0 0,-42.114 z"
         id="path3422" />
    </clipPath>
    <inkscape:perspective
       id="perspective6601"
       inkscape:persp3d-origin="0.5 : 0.33333333 : 1"
       inkscape:vp_z="1 : 0.5 : 1"
       inkscape:vp_y="0 : 1000 : 0"
       inkscape:vp_x="0 : 0.5 : 1"
       sodipodi:type="inkscape:persp3d" />
    <clipPath
       clipPathUnits="userSpaceOnUse"
       id="clipPath3822">
      <path
         d="m 362.126,409.341 42.114,0 0,42.114 -42.114,0 0,-42.114 z"
         id="path3824" />
    </clipPath>
    <inkscape:perspective
       id="perspective6677"
       inkscape:persp3d-origin="0.5 : 0.33333333 : 1"
       inkscape:vp_z="1 : 0.5 : 1"
       inkscape:vp_y="0 : 1000 : 0"
       inkscape:vp_x="0 : 0.5 : 1"
       sodipodi:type="inkscape:persp3d" />
    <inkscape:perspective
       id="perspective6691"
       inkscape:persp3d-origin="0.5 : 0.33333333 : 1"
       inkscape:vp_z="1 : 0.5 : 1"
       inkscape:vp_y="0 : 1000 : 0"
       inkscape:vp_x="0 : 0.5 : 1"
       sodipodi:type="inkscape:persp3d" />
    <clipPath
       clipPathUnits="userSpaceOnUse"
       id="clipPath4098">
      <path
         d="m 20.045,328.96 42.113,0 0,42.115 -42.113,0 0,-42.115 z"
         id="path4100" />
    </clipPath>
    <inkscape:perspective
       id="perspective3566"
       inkscape:persp3d-origin="0.5 : 0.33333333 : 1"
       inkscape:vp_z="1 : 0.5 : 1"
       inkscape:vp_y="0 : 1000 : 0"
       inkscape:vp_x="0 : 0.5 : 1"
       sodipodi:type="inkscape:persp3d" />
    <clipPath
       clipPathUnits="userSpaceOnUse"
       id="clipPath3288">
      <path
         d="m 20.078,726.418 42.185,0 0,42.186 -42.185,0 0,-42.186 z"
         id="path3290" />
    </clipPath>
    <inkscape:perspective
       inkscape:vp_x="0 : 526.18109 : 1"
       inkscape:vp_y="0 : 1000 : 0"
       inkscape:vp_z="744.09448 : 526.18109 : 1"
       inkscape:persp3d-origin="372.04724 : 350.78739 : 1"
       sodipodi:type="inkscape:persp3d"
       id="perspective5329-9" />
    <inkscape:perspective
       inkscape:vp_x="0 : 0.5 : 1"
       inkscape:vp_y="0 : 1000 : 0"
       inkscape:vp_z="1 : 0.5 : 1"
       inkscape:persp3d-origin="0.5 : 0.33333333 : 1"
       sodipodi:type="inkscape:persp3d"
       id="perspective5339-4" />
    <clipPath
       clipPathUnits="userSpaceOnUse"
       id="clipPath4202-8">
      <path
         d="m 20.045,731.714 42.114,0 0,37.012 -42.114,0 0,-37.012 z"
         id="path4204-8" />
    </clipPath>
    <inkscape:perspective
       inkscape:vp_x="0 : 210 : 1"
       inkscape:vp_y="0 : 1000 : 0"
       inkscape:vp_z="850 : 210 : 1"
       inkscape:persp3d-origin="425 : 140 : 1"
       sodipodi:type="inkscape:persp3d"
       id="perspective5396-2" />
    <inkscape:perspective
       inkscape:vp_x="0 : 0.5 : 1"
       inkscape:vp_y="0 : 1000 : 0"
       inkscape:vp_z="1 : 0.5 : 1"
       inkscape:persp3d-origin="0.5 : 0.33333333 : 1"
       sodipodi:type="inkscape:persp3d"
       id="perspective5429-4" />
    <clipPath
       clipPathUnits="userSpaceOnUse"
       id="clipPath2840-5">
      <path
         d="m 77.057,731.714 42.114,0 0,37.012 -42.114,0 0,-37.012 z"
         id="path2842-5" />
    </clipPath>
    <inkscape:perspective
       inkscape:vp_x="0 : 0.5 : 1"
       inkscape:vp_y="0 : 1000 : 0"
       inkscape:vp_z="1 : 0.5 : 1"
       inkscape:persp3d-origin="0.5 : 0.33333333 : 1"
       sodipodi:type="inkscape:persp3d"
       id="perspective5499-17" />
    <clipPath
       clipPathUnits="userSpaceOnUse"
       id="clipPath3036-11">
      <path
         d="m 134.072,731.751 42.114,0 0,36.975 -42.114,0 0,-36.975 z"
         id="path3038-52" />
    </clipPath>
    <inkscape:perspective
       inkscape:vp_x="0 : 0.5 : 1"
       inkscape:vp_y="0 : 1000 : 0"
       inkscape:vp_z="1 : 0.5 : 1"
       inkscape:persp3d-origin="0.5 : 0.33333333 : 1"
       sodipodi:type="inkscape:persp3d"
       id="perspective5621-7" />
    <clipPath
       clipPathUnits="userSpaceOnUse"
       id="clipPath2952-6">
      <path
         d="m 191.084,731.751 42.113,0 0,36.975 -42.113,0 0,-36.975 z"
         id="path2954-1" />
    </clipPath>
    <clipPath
       clipPathUnits="userSpaceOnUse"
       id="clipPath2936-4">
      <path
         d="m 191.084,731.751 42.113,0 0,36.975 -42.113,0 0,-36.975 z"
         id="path2938-2" />
    </clipPath>
    <inkscape:perspective
       inkscape:vp_x="0 : 0.5 : 1"
       inkscape:vp_y="0 : 1000 : 0"
       inkscape:vp_z="1 : 0.5 : 1"
       inkscape:persp3d-origin="0.5 : 0.33333333 : 1"
       sodipodi:type="inkscape:persp3d"
       id="perspective5694-3" />
    <inkscape:perspective
       inkscape:vp_x="0 : 226.5 : 1"
       inkscape:vp_y="0 : 1000 : 0"
       inkscape:vp_z="510 : 226.5 : 1"
       inkscape:persp3d-origin="255 : 151 : 1"
       sodipodi:type="inkscape:persp3d"
       id="perspective18-2" />
    <inkscape:perspective
       inkscape:vp_x="0 : 0.5 : 1"
       inkscape:vp_y="0 : 1000 : 0"
       inkscape:vp_z="1 : 0.5 : 1"
       inkscape:persp3d-origin="0.5 : 0.33333333 : 1"
       sodipodi:type="inkscape:persp3d"
       id="perspective5722-21" />
    <clipPath
       clipPathUnits="userSpaceOnUse"
       id="clipPath3216-6">
      <path
         d="m 248.098,731.74 42.114,0 0,36.986 -42.114,0 0,-36.986 z"
         id="path3218-8" />
    </clipPath>
    <inkscape:perspective
       inkscape:vp_x="0 : 0.5 : 1"
       inkscape:vp_y="0 : 1000 : 0"
       inkscape:vp_z="1 : 0.5 : 1"
       inkscape:persp3d-origin="0.5 : 0.33333333 : 1"
       sodipodi:type="inkscape:persp3d"
       id="perspective5860-5" />
    <clipPath
       clipPathUnits="userSpaceOnUse"
       id="clipPath2880-7">
      <path
         d="m 305.111,731.751 42.114,0 0,36.975 -42.114,0 0,-36.975 z"
         id="path2882-6" />
    </clipPath>
    <inkscape:perspective
       inkscape:vp_x="0 : 0.5 : 1"
       inkscape:vp_y="0 : 1000 : 0"
       inkscape:vp_z="1 : 0.5 : 1"
       inkscape:persp3d-origin="0.5 : 0.33333333 : 1"
       sodipodi:type="inkscape:persp3d"
       id="perspective5456-1" />
    <clipPath
       clipPathUnits="userSpaceOnUse"
       id="clipPath3316-8">
      <path
         d="m 77.057,409.341 42.114,0 0,42.114 -42.114,0 0,-42.114 z"
         id="path3318-9" />
    </clipPath>
    <inkscape:perspective
       inkscape:vp_x="0 : 0.5 : 1"
       inkscape:vp_y="0 : 1000 : 0"
       inkscape:vp_z="1 : 0.5 : 1"
       inkscape:persp3d-origin="0.5 : 0.33333333 : 1"
       sodipodi:type="inkscape:persp3d"
       id="perspective6307-2" />
    <clipPath
       clipPathUnits="userSpaceOnUse"
       id="clipPath3802-7">
      <path
         d="m 134.072,409.341 42.114,0 0,56.174 -42.114,0 0,-56.174 z"
         id="path3804-9" />
    </clipPath>
    <inkscape:perspective
       inkscape:vp_x="0 : 0.5 : 1"
       inkscape:vp_y="0 : 1000 : 0"
       inkscape:vp_z="1 : 0.5 : 1"
       inkscape:persp3d-origin="0.5 : 0.33333333 : 1"
       sodipodi:type="inkscape:persp3d"
       id="perspective6372-5" />
    <clipPath
       clipPathUnits="userSpaceOnUse"
       id="clipPath3564-4">
      <path
         d="m 191.084,409.341 42.113,0 0,42.113 -42.113,0 0,-42.113 z"
         id="path3566-3" />
    </clipPath>
    <inkscape:perspective
       inkscape:vp_x="0 : 0.5 : 1"
       inkscape:vp_y="0 : 1000 : 0"
       inkscape:vp_z="1 : 0.5 : 1"
       inkscape:persp3d-origin="0.5 : 0.33333333 : 1"
       sodipodi:type="inkscape:persp3d"
       id="perspective6525-1" />
    <clipPath
       clipPathUnits="userSpaceOnUse"
       id="clipPath3420-2">
      <path
         d="m 305.125,409.34 42.114,0 0,42.114 -42.114,0 0,-42.114 z"
         id="path3422-3" />
    </clipPath>
    <inkscape:perspective
       inkscape:vp_x="0 : 0.5 : 1"
       inkscape:vp_y="0 : 1000 : 0"
       inkscape:vp_z="1 : 0.5 : 1"
       inkscape:persp3d-origin="0.5 : 0.33333333 : 1"
       sodipodi:type="inkscape:persp3d"
       id="perspective6601-3" />
    <clipPath
       clipPathUnits="userSpaceOnUse"
       id="clipPath3822-4">
      <path
         d="m 362.126,409.341 42.114,0 0,42.114 -42.114,0 0,-42.114 z"
         id="path3824-1" />
    </clipPath>
    <inkscape:perspective
       inkscape:vp_x="0 : 0.5 : 1"
       inkscape:vp_y="0 : 1000 : 0"
       inkscape:vp_z="1 : 0.5 : 1"
       inkscape:persp3d-origin="0.5 : 0.33333333 : 1"
       sodipodi:type="inkscape:persp3d"
       id="perspective6677-1" />
    <inkscape:perspective
       inkscape:vp_x="0 : 0.5 : 1"
       inkscape:vp_y="0 : 1000 : 0"
       inkscape:vp_z="1 : 0.5 : 1"
       inkscape:persp3d-origin="0.5 : 0.33333333 : 1"
       sodipodi:type="inkscape:persp3d"
       id="perspective6691-3" />
    <clipPath
       clipPathUnits="userSpaceOnUse"
       id="clipPath4098-8">
      <path
         d="m 20.045,328.96 42.113,0 0,42.115 -42.113,0 0,-42.115 z"
         id="path4100-7" />
    </clipPath>
    <inkscape:perspective
       inkscape:vp_x="0 : 0.5 : 1"
       inkscape:vp_y="0 : 1000 : 0"
       inkscape:vp_z="1 : 0.5 : 1"
       inkscape:persp3d-origin="0.5 : 0.33333333 : 1"
       sodipodi:type="inkscape:persp3d"
       id="perspective6753" />
    <clipPath
       clipPathUnits="userSpaceOnUse"
       id="clipPath3336">
      <path
         d="m 77.057,328.96 42.114,0 0,42.115 -42.114,0 0,-42.115 z"
         id="path3338" />
    </clipPath>
    <inkscape:perspective
       inkscape:vp_x="0 : 0.5 : 1"
       inkscape:vp_y="0 : 1000 : 0"
       inkscape:vp_z="1 : 0.5 : 1"
       inkscape:persp3d-origin="0.5 : 0.33333333 : 1"
       sodipodi:type="inkscape:persp3d"
       id="perspective6818" />
    <clipPath
       clipPathUnits="userSpaceOnUse"
       id="clipPath3692">
      <path
         d="m 134.072,328.96 42.114,0 0,42.115 -42.114,0 0,-42.115 z"
         id="path3694" />
    </clipPath>
    <inkscape:perspective
       inkscape:vp_x="0 : 0.5 : 1"
       inkscape:vp_y="0 : 1000 : 0"
       inkscape:vp_z="1 : 0.5 : 1"
       inkscape:persp3d-origin="0.5 : 0.33333333 : 1"
       sodipodi:type="inkscape:persp3d"
       id="perspective6883" />
    <clipPath
       clipPathUnits="userSpaceOnUse"
       id="clipPath3584">
      <path
         d="m 191.084,328.96 42.113,0 0,42.115 -42.113,0 0,-42.115 z"
         id="path3586" />
    </clipPath>
    <inkscape:perspective
       inkscape:vp_x="0 : 0.5 : 1"
       inkscape:vp_y="0 : 1000 : 0"
       inkscape:vp_z="1 : 0.5 : 1"
       inkscape:persp3d-origin="0.5 : 0.33333333 : 1"
       sodipodi:type="inkscape:persp3d"
       id="perspective6937" />
    <clipPath
       clipPathUnits="userSpaceOnUse"
       id="clipPath3990">
      <path
         d="m 248.098,328.96 42.114,0 0,42.115 -42.114,0 0,-42.115 z"
         id="path3992" />
    </clipPath>
    <inkscape:perspective
       inkscape:vp_x="0 : 0.5 : 1"
       inkscape:vp_y="0 : 1000 : 0"
       inkscape:vp_z="1 : 0.5 : 1"
       inkscape:persp3d-origin="0.5 : 0.33333333 : 1"
       sodipodi:type="inkscape:persp3d"
       id="perspective5685" />
    <clipPath
       clipPathUnits="userSpaceOnUse"
       id="clipPath4006">
      <path
         d="m 20.046,204.305 42.114,0 0,42.47 -42.114,0 0,-42.47 z"
         id="path4008" />
    </clipPath>
    <inkscape:perspective
       inkscape:vp_x="0 : 0.5 : 1"
       inkscape:vp_y="0 : 1000 : 0"
       inkscape:vp_z="1 : 0.5 : 1"
       inkscape:persp3d-origin="0.5 : 0.33333333 : 1"
       sodipodi:type="inkscape:persp3d"
       id="perspective5747" />
    <clipPath
       clipPathUnits="userSpaceOnUse"
       id="clipPath3464">
      <path
         d="m 77.053,204.662 42.113,0 0,42.114 -42.113,0 0,-42.114 z"
         id="path3466" />
    </clipPath>
    <inkscape:perspective
       inkscape:vp_x="0 : 0.5 : 1"
       inkscape:vp_y="0 : 1000 : 0"
       inkscape:vp_z="1 : 0.5 : 1"
       inkscape:persp3d-origin="0.5 : 0.33333333 : 1"
       sodipodi:type="inkscape:persp3d"
       id="perspective5809" />
    <clipPath
       clipPathUnits="userSpaceOnUse"
       id="clipPath3866">
      <path
         d="m 134.068,204.642 42.114,0 0,42.115 -42.114,0 0,-42.115 z"
         id="path3868" />
    </clipPath>
    <inkscape:perspective
       inkscape:vp_x="0 : 0.5 : 1"
       inkscape:vp_y="0 : 1000 : 0"
       inkscape:vp_z="1 : 0.5 : 1"
       inkscape:persp3d-origin="0.5 : 0.33333333 : 1"
       sodipodi:type="inkscape:persp3d"
       id="perspective5881" />
    <clipPath
       clipPathUnits="userSpaceOnUse"
       id="clipPath4178">
      <path
         d="m 191.081,204.642 42.114,0 0,42.115 -42.114,0 0,-42.115 z"
         id="path4180" />
    </clipPath>
    <inkscape:perspective
       inkscape:vp_x="0 : 0.5 : 1"
       inkscape:vp_y="0 : 1000 : 0"
       inkscape:vp_z="1 : 0.5 : 1"
       inkscape:persp3d-origin="0.5 : 0.33333333 : 1"
       sodipodi:type="inkscape:persp3d"
       id="perspective5953" />
    <clipPath
       clipPathUnits="userSpaceOnUse"
       id="clipPath3400">
      <path
         d="m 248.093,204.642 42.114,0 0,42.115 -42.114,0 0,-42.115 z"
         id="path3402" />
    </clipPath>
    <inkscape:perspective
       inkscape:vp_x="0 : 0.5 : 1"
       inkscape:vp_y="0 : 1000 : 0"
       inkscape:vp_z="1 : 0.5 : 1"
       inkscape:persp3d-origin="0.5 : 0.33333333 : 1"
       sodipodi:type="inkscape:persp3d"
       id="perspective6016" />
    <clipPath
       clipPathUnits="userSpaceOnUse"
       id="clipPath3778">
      <path
         d="m 305.108,204.642 42.114,0 0,42.115 -42.114,0 0,-42.115 z"
         id="path3780" />
    </clipPath>
    <inkscape:perspective
       inkscape:vp_x="0 : 0.5 : 1"
       inkscape:vp_y="0 : 1000 : 0"
       inkscape:vp_z="1 : 0.5 : 1"
       inkscape:persp3d-origin="0.5 : 0.33333333 : 1"
       sodipodi:type="inkscape:persp3d"
       id="perspective7017" />
    <clipPath
       clipPathUnits="userSpaceOnUse"
       id="clipPath4062">
      <path
         d="m 419.135,204.668 42.113,0 0,42.114 -42.113,0 0,-42.114 z"
         id="path4064" />
    </clipPath>
    <inkscape:perspective
       inkscape:vp_x="0 : 0.5 : 1"
       inkscape:vp_y="0 : 1000 : 0"
       inkscape:vp_z="1 : 0.5 : 1"
       inkscape:persp3d-origin="0.5 : 0.33333333 : 1"
       sodipodi:type="inkscape:persp3d"
       id="perspective7139" />
    <clipPath
       clipPathUnits="userSpaceOnUse"
       id="clipPath4138">
      <path
         d="m 134.077,142.502 42.114,0 0,42.115 -42.114,0 0,-42.115 z"
         id="path4140" />
    </clipPath>
    <inkscape:perspective
       inkscape:vp_x="0 : 0.5 : 1"
       inkscape:vp_y="0 : 1000 : 0"
       inkscape:vp_z="1 : 0.5 : 1"
       inkscape:persp3d-origin="0.5 : 0.33333333 : 1"
       sodipodi:type="inkscape:persp3d"
       id="perspective7201" />
    <clipPath
       clipPathUnits="userSpaceOnUse"
       id="clipPath3548">
      <path
         d="m 20.039,142.502 42.114,0 0,42.115 -42.114,0 0,-42.115 z"
         id="path3550" />
    </clipPath>
    <inkscape:perspective
       inkscape:vp_x="0 : 526.18109 : 1"
       inkscape:vp_y="0 : 1000 : 0"
       inkscape:vp_z="744.09448 : 526.18109 : 1"
       inkscape:persp3d-origin="372.04724 : 350.78739 : 1"
       sodipodi:type="inkscape:persp3d"
       id="perspective5329-8" />
    <inkscape:perspective
       inkscape:vp_x="0 : 0.5 : 1"
       inkscape:vp_y="0 : 1000 : 0"
       inkscape:vp_z="1 : 0.5 : 1"
       inkscape:persp3d-origin="0.5 : 0.33333333 : 1"
       sodipodi:type="inkscape:persp3d"
       id="perspective5339-8" />
    <clipPath
       clipPathUnits="userSpaceOnUse"
       id="clipPath4202-2">
      <path
         d="m 20.045,731.714 42.114,0 0,37.012 -42.114,0 0,-37.012 z"
         id="path4204-4" />
    </clipPath>
    <inkscape:perspective
       inkscape:vp_x="0 : 210 : 1"
       inkscape:vp_y="0 : 1000 : 0"
       inkscape:vp_z="850 : 210 : 1"
       inkscape:persp3d-origin="425 : 140 : 1"
       sodipodi:type="inkscape:persp3d"
       id="perspective5396-5" />
    <inkscape:perspective
       inkscape:vp_x="0 : 0.5 : 1"
       inkscape:vp_y="0 : 1000 : 0"
       inkscape:vp_z="1 : 0.5 : 1"
       inkscape:persp3d-origin="0.5 : 0.33333333 : 1"
       sodipodi:type="inkscape:persp3d"
       id="perspective5429-5" />
    <clipPath
       clipPathUnits="userSpaceOnUse"
       id="clipPath2840-1">
      <path
         d="m 77.057,731.714 42.114,0 0,37.012 -42.114,0 0,-37.012 z"
         id="path2842-7" />
    </clipPath>
    <inkscape:perspective
       inkscape:vp_x="0 : 0.5 : 1"
       inkscape:vp_y="0 : 1000 : 0"
       inkscape:vp_z="1 : 0.5 : 1"
       inkscape:persp3d-origin="0.5 : 0.33333333 : 1"
       sodipodi:type="inkscape:persp3d"
       id="perspective5499-1" />
    <clipPath
       clipPathUnits="userSpaceOnUse"
       id="clipPath3036-1">
      <path
         d="m 134.072,731.751 42.114,0 0,36.975 -42.114,0 0,-36.975 z"
         id="path3038-5" />
    </clipPath>
    <inkscape:perspective
       inkscape:vp_x="0 : 0.5 : 1"
       inkscape:vp_y="0 : 1000 : 0"
       inkscape:vp_z="1 : 0.5 : 1"
       inkscape:persp3d-origin="0.5 : 0.33333333 : 1"
       sodipodi:type="inkscape:persp3d"
       id="perspective5621-2" />
    <clipPath
       clipPathUnits="userSpaceOnUse"
       id="clipPath2952-7">
      <path
         d="m 191.084,731.751 42.113,0 0,36.975 -42.113,0 0,-36.975 z"
         id="path2954-6" />
    </clipPath>
    <clipPath
       clipPathUnits="userSpaceOnUse"
       id="clipPath2936-1">
      <path
         d="m 191.084,731.751 42.113,0 0,36.975 -42.113,0 0,-36.975 z"
         id="path2938-4" />
    </clipPath>
    <inkscape:perspective
       inkscape:vp_x="0 : 0.5 : 1"
       inkscape:vp_y="0 : 1000 : 0"
       inkscape:vp_z="1 : 0.5 : 1"
       inkscape:persp3d-origin="0.5 : 0.33333333 : 1"
       sodipodi:type="inkscape:persp3d"
       id="perspective5694-2" />
    <inkscape:perspective
       inkscape:vp_x="0 : 226.5 : 1"
       inkscape:vp_y="0 : 1000 : 0"
       inkscape:vp_z="510 : 226.5 : 1"
       inkscape:persp3d-origin="255 : 151 : 1"
       sodipodi:type="inkscape:persp3d"
       id="perspective18-3" />
    <inkscape:perspective
       inkscape:vp_x="0 : 0.5 : 1"
       inkscape:vp_y="0 : 1000 : 0"
       inkscape:vp_z="1 : 0.5 : 1"
       inkscape:persp3d-origin="0.5 : 0.33333333 : 1"
       sodipodi:type="inkscape:persp3d"
       id="perspective5722-2" />
    <clipPath
       clipPathUnits="userSpaceOnUse"
       id="clipPath3216-2">
      <path
         d="m 248.098,731.74 42.114,0 0,36.986 -42.114,0 0,-36.986 z"
         id="path3218-1" />
    </clipPath>
    <inkscape:perspective
       inkscape:vp_x="0 : 0.5 : 1"
       inkscape:vp_y="0 : 1000 : 0"
       inkscape:vp_z="1 : 0.5 : 1"
       inkscape:persp3d-origin="0.5 : 0.33333333 : 1"
       sodipodi:type="inkscape:persp3d"
       id="perspective5860-6" />
    <clipPath
       clipPathUnits="userSpaceOnUse"
       id="clipPath2880-8">
      <path
         d="m 305.111,731.751 42.114,0 0,36.975 -42.114,0 0,-36.975 z"
         id="path2882-5" />
    </clipPath>
    <inkscape:perspective
       inkscape:vp_x="0 : 0.5 : 1"
       inkscape:vp_y="0 : 1000 : 0"
       inkscape:vp_z="1 : 0.5 : 1"
       inkscape:persp3d-origin="0.5 : 0.33333333 : 1"
       sodipodi:type="inkscape:persp3d"
       id="perspective5456-7" />
    <clipPath
       clipPathUnits="userSpaceOnUse"
       id="clipPath3316-6">
      <path
         d="m 77.057,409.341 42.114,0 0,42.114 -42.114,0 0,-42.114 z"
         id="path3318-1" />
    </clipPath>
    <inkscape:perspective
       inkscape:vp_x="0 : 0.5 : 1"
       inkscape:vp_y="0 : 1000 : 0"
       inkscape:vp_z="1 : 0.5 : 1"
       inkscape:persp3d-origin="0.5 : 0.33333333 : 1"
       sodipodi:type="inkscape:persp3d"
       id="perspective6307-8" />
    <clipPath
       clipPathUnits="userSpaceOnUse"
       id="clipPath3802-9">
      <path
         d="m 134.072,409.341 42.114,0 0,56.174 -42.114,0 0,-56.174 z"
         id="path3804-2" />
    </clipPath>
    <inkscape:perspective
       inkscape:vp_x="0 : 0.5 : 1"
       inkscape:vp_y="0 : 1000 : 0"
       inkscape:vp_z="1 : 0.5 : 1"
       inkscape:persp3d-origin="0.5 : 0.33333333 : 1"
       sodipodi:type="inkscape:persp3d"
       id="perspective6372-7" />
    <clipPath
       clipPathUnits="userSpaceOnUse"
       id="clipPath3564-9">
      <path
         d="m 191.084,409.341 42.113,0 0,42.113 -42.113,0 0,-42.113 z"
         id="path3566-5" />
    </clipPath>
    <inkscape:perspective
       inkscape:vp_x="0 : 0.5 : 1"
       inkscape:vp_y="0 : 1000 : 0"
       inkscape:vp_z="1 : 0.5 : 1"
       inkscape:persp3d-origin="0.5 : 0.33333333 : 1"
       sodipodi:type="inkscape:persp3d"
       id="perspective6525-4" />
    <clipPath
       clipPathUnits="userSpaceOnUse"
       id="clipPath3420-3">
      <path
         d="m 305.125,409.34 42.114,0 0,42.114 -42.114,0 0,-42.114 z"
         id="path3422-1" />
    </clipPath>
    <inkscape:perspective
       inkscape:vp_x="0 : 0.5 : 1"
       inkscape:vp_y="0 : 1000 : 0"
       inkscape:vp_z="1 : 0.5 : 1"
       inkscape:persp3d-origin="0.5 : 0.33333333 : 1"
       sodipodi:type="inkscape:persp3d"
       id="perspective6601-2" />
    <clipPath
       clipPathUnits="userSpaceOnUse"
       id="clipPath3822-3">
      <path
         d="m 362.126,409.341 42.114,0 0,42.114 -42.114,0 0,-42.114 z"
         id="path3824-3" />
    </clipPath>
    <inkscape:perspective
       inkscape:vp_x="0 : 0.5 : 1"
       inkscape:vp_y="0 : 1000 : 0"
       inkscape:vp_z="1 : 0.5 : 1"
       inkscape:persp3d-origin="0.5 : 0.33333333 : 1"
       sodipodi:type="inkscape:persp3d"
       id="perspective6677-4" />
    <inkscape:perspective
       inkscape:vp_x="0 : 0.5 : 1"
       inkscape:vp_y="0 : 1000 : 0"
       inkscape:vp_z="1 : 0.5 : 1"
       inkscape:persp3d-origin="0.5 : 0.33333333 : 1"
       sodipodi:type="inkscape:persp3d"
       id="perspective7385" />
    <clipPath
       clipPathUnits="userSpaceOnUse"
       id="clipPath3954">
      <path
         d="m 77.054,142.502 42.114,0 0,42.115 -42.114,0 0,-42.115 z"
         id="path3956" />
    </clipPath>
    <inkscape:perspective
       id="perspective4674"
       inkscape:persp3d-origin="0.5 : 0.33333333 : 1"
       inkscape:vp_z="1 : 0.5 : 1"
       inkscape:vp_y="0 : 1000 : 0"
       inkscape:vp_x="0 : 0.5 : 1"
       sodipodi:type="inkscape:persp3d" />
    <clipPath
       clipPathUnits="userSpaceOnUse"
       id="clipPath3028">
      <path
         d="m 191.406,726.418 42.185,0 0,42.186 -42.185,0 0,-42.186 z"
         id="path3030" />
    </clipPath>
    <inkscape:perspective
       id="perspective4766"
       inkscape:persp3d-origin="0.5 : 0.33333333 : 1"
       inkscape:vp_z="1 : 0.5 : 1"
       inkscape:vp_y="0 : 1000 : 0"
       inkscape:vp_x="0 : 0.5 : 1"
       sodipodi:type="inkscape:persp3d" />
    <clipPath
       clipPathUnits="userSpaceOnUse"
       id="clipPath2908">
      <path
         d="m 305.624,726.418 42.185,0 0,42.186 -42.185,0 0,-42.186 z"
         id="path2910" />
    </clipPath>
    <inkscape:perspective
       id="perspective4829"
       inkscape:persp3d-origin="0.5 : 0.33333333 : 1"
       inkscape:vp_z="1 : 0.5 : 1"
       inkscape:vp_y="0 : 1000 : 0"
       inkscape:vp_x="0 : 0.5 : 1"
       sodipodi:type="inkscape:persp3d" />
    <clipPath
       clipPathUnits="userSpaceOnUse"
       id="clipPath3328">
      <path
         d="m 419.845,726.418 42.185,0 0,42.186 -42.185,0 0,-42.186 z"
         id="path3330" />
    </clipPath>
    <inkscape:perspective
       id="perspective4894"
       inkscape:persp3d-origin="0.5 : 0.33333333 : 1"
       inkscape:vp_z="1 : 0.5 : 1"
       inkscape:vp_y="0 : 1000 : 0"
       inkscape:vp_x="0 : 0.5 : 1"
       sodipodi:type="inkscape:persp3d" />
    <clipPath
       clipPathUnits="userSpaceOnUse"
       id="clipPath2856">
      <path
         d="m 476.952,726.418 42.185,0 0,42.186 -42.185,0 0,-42.186 z"
         id="path2858" />
    </clipPath>
    <inkscape:perspective
       id="perspective4959"
       inkscape:persp3d-origin="0.5 : 0.33333333 : 1"
       inkscape:vp_z="1 : 0.5 : 1"
       inkscape:vp_y="0 : 1000 : 0"
       inkscape:vp_x="0 : 0.5 : 1"
       sodipodi:type="inkscape:persp3d" />
    <clipPath
       clipPathUnits="userSpaceOnUse"
       id="clipPath3268">
      <path
         d="m 77.184,664.161 42.185,0 0,42.185 -42.185,0 0,-42.185 z"
         id="path3270" />
    </clipPath>
    <inkscape:perspective
       id="perspective5024"
       inkscape:persp3d-origin="0.5 : 0.33333333 : 1"
       inkscape:vp_z="1 : 0.5 : 1"
       inkscape:vp_y="0 : 1000 : 0"
       inkscape:vp_x="0 : 0.5 : 1"
       sodipodi:type="inkscape:persp3d" />
    <clipPath
       clipPathUnits="userSpaceOnUse"
       id="clipPath2968">
      <path
         d="m 134.293,664.161 42.185,0 0,42.185 -42.185,0 0,-42.185 z"
         id="path2970" />
    </clipPath>
    <inkscape:perspective
       id="perspective5144"
       inkscape:persp3d-origin="0.5 : 0.33333333 : 1"
       inkscape:vp_z="1 : 0.5 : 1"
       inkscape:vp_y="0 : 1000 : 0"
       inkscape:vp_x="0 : 0.5 : 1"
       sodipodi:type="inkscape:persp3d" />
    <clipPath
       clipPathUnits="userSpaceOnUse"
       id="clipPath3188">
      <path
         d="m 191.402,664.161 42.185,0 0,42.185 -42.185,0 0,-42.185 z"
         id="path3190" />
    </clipPath>
    <inkscape:perspective
       id="perspective5209"
       inkscape:persp3d-origin="0.5 : 0.33333333 : 1"
       inkscape:vp_z="1 : 0.5 : 1"
       inkscape:vp_y="0 : 1000 : 0"
       inkscape:vp_x="0 : 0.5 : 1"
       sodipodi:type="inkscape:persp3d" />
    <clipPath
       clipPathUnits="userSpaceOnUse"
       id="clipPath3008">
      <path
         d="m 248.509,664.161 42.185,0 0,42.185 -42.185,0 0,-42.185 z"
         id="path3010" />
    </clipPath>
    <inkscape:perspective
       id="perspective5274"
       inkscape:persp3d-origin="0.5 : 0.33333333 : 1"
       inkscape:vp_z="1 : 0.5 : 1"
       inkscape:vp_y="0 : 1000 : 0"
       inkscape:vp_x="0 : 0.5 : 1"
       sodipodi:type="inkscape:persp3d" />
    <clipPath
       clipPathUnits="userSpaceOnUse"
       id="clipPath3308">
      <path
         d="m 305.658,664.161 42.185,0 0,42.185 -42.185,0 0,-42.185 z"
         id="path3310" />
    </clipPath>
    <inkscape:perspective
       id="perspective5361"
       inkscape:persp3d-origin="0.5 : 0.33333333 : 1"
       inkscape:vp_z="1 : 0.5 : 1"
       inkscape:vp_y="0 : 1000 : 0"
       inkscape:vp_x="0 : 0.5 : 1"
       sodipodi:type="inkscape:persp3d" />
    <clipPath
       clipPathUnits="userSpaceOnUse"
       id="clipPath2948">
      <path
         d="m 362.788,664.161 42.185,0 0,42.185 -42.185,0 0,-42.185 z"
         id="path2950" />
    </clipPath>
    <inkscape:perspective
       id="perspective5410"
       inkscape:persp3d-origin="0.5 : 0.33333333 : 1"
       inkscape:vp_z="1 : 0.5 : 1"
       inkscape:vp_y="0 : 1000 : 0"
       inkscape:vp_x="0 : 0.5 : 1"
       sodipodi:type="inkscape:persp3d" />
    <clipPath
       clipPathUnits="userSpaceOnUse"
       id="clipPath2948-0">
      <path
         d="m 362.788,664.161 42.185,0 0,42.185 -42.185,0 0,-42.185 z"
         id="path2950-2" />
    </clipPath>
    <inkscape:perspective
       id="perspective5475"
       inkscape:persp3d-origin="0.5 : 0.33333333 : 1"
       inkscape:vp_z="1 : 0.5 : 1"
       inkscape:vp_y="0 : 1000 : 0"
       inkscape:vp_x="0 : 0.5 : 1"
       sodipodi:type="inkscape:persp3d" />
    <clipPath
       clipPathUnits="userSpaceOnUse"
       id="clipPath3208">
      <path
         d="m 419.863,664.161 42.185,0 0,42.185 -42.185,0 0,-42.185 z"
         id="path3210" />
    </clipPath>
    <inkscape:perspective
       id="perspective5540"
       inkscape:persp3d-origin="0.5 : 0.33333333 : 1"
       inkscape:vp_z="1 : 0.5 : 1"
       inkscape:vp_y="0 : 1000 : 0"
       inkscape:vp_x="0 : 0.5 : 1"
       sodipodi:type="inkscape:persp3d" />
    <clipPath
       clipPathUnits="userSpaceOnUse"
       id="clipPath3108">
      <path
         d="m 476.952,664.161 42.185,0 0,42.185 -42.185,0 0,-42.185 z"
         id="path3110" />
    </clipPath>
    <inkscape:perspective
       id="perspective5605"
       inkscape:persp3d-origin="0.5 : 0.33333333 : 1"
       inkscape:vp_z="1 : 0.5 : 1"
       inkscape:vp_y="0 : 1000 : 0"
       inkscape:vp_x="0 : 0.5 : 1"
       sodipodi:type="inkscape:persp3d" />
    <clipPath
       clipPathUnits="userSpaceOnUse"
       id="clipPath3048">
      <path
         d="m 534.061,664.161 42.185,0 0,42.185 -42.185,0 0,-42.185 z"
         id="path3050" />
    </clipPath>
    <inkscape:perspective
       id="perspective5670"
       inkscape:persp3d-origin="0.5 : 0.33333333 : 1"
       inkscape:vp_z="1 : 0.5 : 1"
       inkscape:vp_y="0 : 1000 : 0"
       inkscape:vp_x="0 : 0.5 : 1"
       sodipodi:type="inkscape:persp3d" />
    <clipPath
       clipPathUnits="userSpaceOnUse"
       id="clipPath3248">
      <path
         d="m 20.078,601.897 42.185,0 0,42.186 -42.185,0 0,-42.186 z"
         id="path3250" />
    </clipPath>
    <inkscape:perspective
       id="perspective5735"
       inkscape:persp3d-origin="0.5 : 0.33333333 : 1"
       inkscape:vp_z="1 : 0.5 : 1"
       inkscape:vp_y="0 : 1000 : 0"
       inkscape:vp_x="0 : 0.5 : 1"
       sodipodi:type="inkscape:persp3d" />
    <clipPath
       clipPathUnits="userSpaceOnUse"
       id="clipPath2928">
      <path
         d="m 77.188,601.897 42.185,0 0,42.186 -42.185,0 0,-42.186 z"
         id="path2930" />
    </clipPath>
  </defs>
  <sodipodi:namedview
     id="base"
     pagecolor="#ffffff"
     bordercolor="#666666"
     borderopacity="1.0"
     inkscape:pageopacity="0.0"
     inkscape:pageshadow="2"
     inkscape:zoom="1.1896297"
     inkscape:cx="-46.568326"
     inkscape:cy="155.00456"
     inkscape:document-units="px"
     inkscape:current-layer="layer1"
     showgrid="false"
     inkscape:window-width="1600"
     inkscape:window-height="838"
     inkscape:window-x="-8"
     inkscape:window-y="-8"
     inkscape:window-maximized="1" />
  <metadata
     id="metadata5326">
    <rdf:RDF>
      <cc:Work
         rdf:about="">
        <dc:format>image/svg+xml</dc:format>
        <dc:type
           rdf:resource="http://purl.org/dc/dcmitype/StillImage" />
        <dc:title></dc:title>
      </cc:Work>
    </rdf:RDF>
  </metadata>
  <g
     inkscape:label="Livello 1"
     inkscape:groupmode="layer"
     id="layer1"
     transform="translate(-1108.9727,-331.71909)">
    <g
       inkscape:label="Ebene 1"
       inkscape:groupmode="layer"
       transform="translate(-501.54702,586.32528)"
       id="layer1-0" />
    <path
       id="path2934"
       style="fill:#ffffff;fill-opacity:1;fill-rule:nonzero;stroke:none"
       d="m 1109.6227,532.16473 c 0,110.06297 89.7326,199.79565 199.7956,199.79565 110.0535,0 199.7957,-89.73268 199.7957,-199.79565 0,-110.05346 -89.7422,-199.79564 -199.7957,-199.79564 -110.063,0 -199.7956,89.74218 -199.7956,199.79564" />
    <path
       id="path2938-0"
       style="fill:none;stroke:#000000;stroke-width:1.29999995;stroke-linecap:butt;stroke-linejoin:miter;stroke-miterlimit:10;stroke-opacity:1;stroke-dasharray:none"
       d="m 1109.6227,532.16474 c 0,110.06297 89.7326,199.79564 199.7956,199.79564 110.0535,0 199.7957,-89.73267 199.7957,-199.79564 0,-110.05347 -89.7422,-199.79565 -199.7957,-199.79565 -110.063,0 -199.7956,89.74218 -199.7956,199.79565 z" />
    <path
       id="path2942"
       style="fill:#005ab2;fill-opacity:1;fill-rule:nonzero;stroke:none"
       d="m 1284.0193,364.54017 c 8.4685,0 15.578,6.77676 15.578,15.56849 0,8.81074 -7.1095,15.58751 -15.578,15.58751 -8.8013,0 -15.578,-6.77677 -15.578,-15.58751 0,-8.79173 6.7767,-15.56849 15.578,-15.56849 m 32.1635,158.47927 c 2.0434,4.06796 0,8.81073 -3.7163,10.16039 -3.7258,1.70131 -8.4686,0 -10.1604,-3.7258 l -14.2189,-30.81383 c -1.3591,-2.03398 -1.7012,-3.72579 -1.7012,-5.41761 l 0,-21.33776 -20.6535,56.55221 c -1.6918,4.41013 -6.7673,6.77676 -11.1774,5.08495 -4.7333,-1.35915 -7.1094,-6.43459 -5.4176,-10.83521 l 23.0296,-63.66164 0,-23.02958 -11.1774,30.13901 c -1.0075,2.70879 -4.4006,4.40061 -7.4515,3.38362 -2.6994,-1.01699 -4.4007,-4.40062 -3.3837,-7.45158 l 18.6289,-51.13462 c 2.3667,-6.76725 8.8108,-11.51004 16.2529,-11.51004 6.0924,0 11.51,3.05098 14.561,7.78425 l 17.2698,28.11453 c 2.3667,3.71629 3.0509,5.07545 3.0509,8.45907 l 0,18.61946 c 0,3.05097 -2.3665,5.42712 -5.4176,5.42712 -3.0509,0 -5.0753,-2.37615 -5.0753,-5.42712 l 0,-17.60246 -5.7599,-9.47607 0,58.24404 12.5176,29.45467 z m 31.8403,-107.68683 c 7.1094,0 12.527,5.75977 12.527,12.8692 0,7.11892 -5.4176,12.52703 -12.527,12.52703 -7.1095,0 -12.5271,-5.40811 -12.5271,-12.52703 0,-7.10943 5.4176,-12.8692 12.5271,-12.8692 m 2.7183,97.19378 c -0.6844,-1.34965 -1.3591,-2.36664 -1.3591,-3.7258 l 0,-15.578 -13.5536,36.57361 c -1.017,2.7088 -4.7333,4.40062 -7.7843,3.38363 -3.3836,-1.01699 -5.0753,-4.40062 -3.7257,-7.78425 l 14.561,-39.62457 0,-10.83522 -6.7672,18.62898 c -0.6844,2.36663 -3.3932,3.38362 -5.7693,2.70879 -2.3667,-1.01698 -3.3741,-3.72579 -2.6994,-6.10193 l 13.2019,-36.23144 c 2.3761,-6.09243 7.4516,-9.82772 13.2113,-9.82772 4.7429,0 9.1434,2.37614 12.5271,7.46108 l 10.1603,16.59499 c 1.6919,3.04146 2.7089,4.39112 2.7089,6.42509 l 0,14.56101 c 0,2.7183 -2.034,4.75229 -4.4007,4.75229 -2.7088,0 -4.7427,-2.03399 -4.7427,-4.75229 l 0,-12.85969 -4.4007,-7.45159 0,39.61507 8.1264,17.27931 c 1.3593,2.6993 0,6.4251 -3.0414,7.44209 -3.0509,1.34964 -6.4441,0 -7.7938,-2.36665 l -8.459,-18.28679 z m -11.1774,83.30758 8.1265,17.94464 c -9.8278,6.09243 -16.5951,16.25282 -17.9542,28.10502 l -4.4007,0 14.2284,-46.04966 z m -8.1359,-5.75977 -14.561,47.75099 -0.3327,0 c -1.017,0 -2.034,0.33266 -3.051,0.67482 l -39.6245,-46.40134 0.6843,-2.02447 56.8849,0 z m -79.9239,43.34086 c -2.0245,6.4441 -4.0585,9.82773 -4.7333,11.51954 -0.6843,1.34965 -0.6843,4.74279 2.3666,6.09244 2.034,0.67482 4.4007,0 5.7598,-1.69182 2.0339,-3.05097 3.7258,-7.79375 6.0924,-14.90317 0.3422,-1.34965 4.4101,-14.21884 4.4101,-14.21884 9.1434,5.08494 15.5685,15.23583 15.5685,26.75537 0,16.59499 -13.544,29.79684 -30.1295,29.79684 -16.595,0 -29.8063,-13.54402 -29.8063,-30.139 0,-16.59499 13.544,-30.139 30.139,-29.80634 1.6918,0 3.7258,0 5.4176,0.35166 0,0 -4.4006,14.21885 -5.0849,16.24332 m 120.8981,11.51954 -12.527,-27.09754 c 2.7088,-0.66532 5.4176,-1.01698 8.1264,-1.01698 16.595,0 30.1485,13.55351 29.8064,30.1485 0,16.59499 -13.5536,29.79684 -30.1486,29.79684 -14.8937,0 -27.088,-10.83521 -29.4547,-25.39622 l 29.7969,0 c 2.7088,0 4.7427,-2.03398 4.7427,-4.74278 0,-0.67483 -0.3421,-1.35916 -0.3421,-1.69182 m -20.9956,-23.37174 0,0 9.4855,20.32077 -22.6874,0 c 1.3592,-8.46857 6.4346,-15.57799 13.2019,-20.32077 m -73.4799,-62.64465 13.2019,0 c 2.7088,0 4.7428,2.36664 4.7428,4.74278 0,2.70881 -2.034,5.07544 -4.7428,5.07544 l -8.4591,0 c -0.6843,0 -1.7013,0 -2.3761,2.03399 l -3.0509,10.16038 57.2364,0 2.034,-7.45158 -4.7428,0 c -2.3665,0 -4.7332,-2.03398 -4.7332,-4.74279 0,-2.70879 2.3667,-4.73328 5.0755,-4.73328 l 18.9521,0 c 2.7182,0 4.7523,2.02449 4.7523,4.73328 0,2.70881 -2.0341,4.74279 -4.7523,4.74279 l -4.7334,0 -2.7088,8.81074 12.5271,27.4207 c 3.7258,-1.017 7.7938,-1.69182 11.8522,-1.69182 21.6704,0.34216 38.6076,17.61198 38.6076,38.94974 0,21.32826 -17.612,38.59807 -38.9498,38.59807 -19.6364,-0.33266 -35.8893,-14.89366 -38.2558,-34.19745 l -5.4272,0 c -1.6918,2.36664 -4.4006,4.05845 -7.4421,4.05845 -4.7428,0 -8.478,-4.05845 -8.478,-8.80123 l 0,-0.67483 -37.5811,-43.35036 c 0,0 -1.017,4.06796 -2.7088,9.1434 13.2018,6.4346 22.0125,19.64596 22.0125,35.22395 -0.3421,21.32826 -17.6119,38.59807 -38.9402,38.26541 -21.3378,0 -38.6076,-17.26981 -38.6076,-38.60757 0.3327,-21.67043 17.6025,-38.60758 38.9403,-38.60758 2.7088,0 5.4176,0.34216 7.7937,0.67482 l 14.2189,-46.04966 c 0.6748,-2.37614 2.3761,-3.72579 4.7427,-3.72579 m 31.4983,161.53024 c 103.9514,0 188.2855,-84.31509 188.2855,-188.28561 0,-103.96103 -84.3341,-188.27611 -188.2855,-188.27611 -103.9706,0 -188.2857,84.31508 -188.2857,188.27611 0,103.97052 84.3151,188.28561 188.2857,188.28561" />
  </g>
</svg>
