<?xml version="1.0" encoding="UTF-8" standalone="no"?>
<!-- Created with Inkscape (http://www.inkscape.org/) -->

<svg
   xmlns:dc="http://purl.org/dc/elements/1.1/"
   xmlns:cc="http://creativecommons.org/ns#"
   xmlns:rdf="http://www.w3.org/1999/02/22-rdf-syntax-ns#"
   xmlns:svg="http://www.w3.org/2000/svg"
   xmlns="http://www.w3.org/2000/svg"
   xmlns:sodipodi="http://sodipodi.sourceforge.net/DTD/sodipodi-0.dtd"
   xmlns:inkscape="http://www.inkscape.org/namespaces/inkscape"
   width="400.31079"
   height="400.31076"
   id="svg5321"
   version="1.1"
   inkscape:version="0.47 r22583"
   sodipodi:docname="Denmark road sign D27.svg">
  <defs
     id="defs5323">
    <inkscape:perspective
       sodipodi:type="inkscape:persp3d"
       inkscape:vp_x="0 : 526.18109 : 1"
       inkscape:vp_y="0 : 1000 : 0"
       inkscape:vp_z="744.09448 : 526.18109 : 1"
       inkscape:persp3d-origin="372.04724 : 350.78739 : 1"
       id="perspective5329" />
    <inkscape:perspective
       id="perspective5339"
       inkscape:persp3d-origin="0.5 : 0.33333333 : 1"
       inkscape:vp_z="1 : 0.5 : 1"
       inkscape:vp_y="0 : 1000 : 0"
       inkscape:vp_x="0 : 0.5 : 1"
       sodipodi:type="inkscape:persp3d" />
    <clipPath
       clipPathUnits="userSpaceOnUse"
       id="clipPath4202">
      <path
         d="m 20.045,731.714 42.114,0 0,37.012 -42.114,0 0,-37.012 z"
         id="path4204" />
    </clipPath>
    <inkscape:perspective
       id="perspective5396"
       inkscape:persp3d-origin="425 : 140 : 1"
       inkscape:vp_z="850 : 210 : 1"
       inkscape:vp_y="0 : 1000 : 0"
       inkscape:vp_x="0 : 210 : 1"
       sodipodi:type="inkscape:persp3d" />
    <inkscape:perspective
       id="perspective5429"
       inkscape:persp3d-origin="0.5 : 0.33333333 : 1"
       inkscape:vp_z="1 : 0.5 : 1"
       inkscape:vp_y="0 : 1000 : 0"
       inkscape:vp_x="0 : 0.5 : 1"
       sodipodi:type="inkscape:persp3d" />
    <clipPath
       clipPathUnits="userSpaceOnUse"
       id="clipPath2840">
      <path
         d="m 77.057,731.714 42.114,0 0,37.012 -42.114,0 0,-37.012 z"
         id="path2842" />
    </clipPath>
    <inkscape:perspective
       id="perspective5499"
       inkscape:persp3d-origin="0.5 : 0.33333333 : 1"
       inkscape:vp_z="1 : 0.5 : 1"
       inkscape:vp_y="0 : 1000 : 0"
       inkscape:vp_x="0 : 0.5 : 1"
       sodipodi:type="inkscape:persp3d" />
    <clipPath
       clipPathUnits="userSpaceOnUse"
       id="clipPath3036">
      <path
         d="m 134.072,731.751 42.114,0 0,36.975 -42.114,0 0,-36.975 z"
         id="path3038" />
    </clipPath>
    <inkscape:perspective
       id="perspective5621"
       inkscape:persp3d-origin="0.5 : 0.33333333 : 1"
       inkscape:vp_z="1 : 0.5 : 1"
       inkscape:vp_y="0 : 1000 : 0"
       inkscape:vp_x="0 : 0.5 : 1"
       sodipodi:type="inkscape:persp3d" />
    <clipPath
       clipPathUnits="userSpaceOnUse"
       id="clipPath2952">
      <path
         d="m 191.084,731.751 42.113,0 0,36.975 -42.113,0 0,-36.975 z"
         id="path2954" />
    </clipPath>
    <clipPath
       clipPathUnits="userSpaceOnUse"
       id="clipPath2936">
      <path
         d="m 191.084,731.751 42.113,0 0,36.975 -42.113,0 0,-36.975 z"
         id="path2938" />
    </clipPath>
    <inkscape:perspective
       id="perspective5694"
       inkscape:persp3d-origin="0.5 : 0.33333333 : 1"
       inkscape:vp_z="1 : 0.5 : 1"
       inkscape:vp_y="0 : 1000 : 0"
       inkscape:vp_x="0 : 0.5 : 1"
       sodipodi:type="inkscape:persp3d" />
    <inkscape:perspective
       inkscape:vp_x="0 : 226.5 : 1"
       inkscape:vp_y="0 : 1000 : 0"
       inkscape:vp_z="510 : 226.5 : 1"
       inkscape:persp3d-origin="255 : 151 : 1"
       id="perspective18"
       sodipodi:type="inkscape:persp3d" />
    <inkscape:perspective
       id="perspective5722"
       inkscape:persp3d-origin="0.5 : 0.33333333 : 1"
       inkscape:vp_z="1 : 0.5 : 1"
       inkscape:vp_y="0 : 1000 : 0"
       inkscape:vp_x="0 : 0.5 : 1"
       sodipodi:type="inkscape:persp3d" />
    <clipPath
       clipPathUnits="userSpaceOnUse"
       id="clipPath3216">
      <path
         d="m 248.098,731.74 42.114,0 0,36.986 -42.114,0 0,-36.986 z"
         id="path3218" />
    </clipPath>
    <inkscape:perspective
       id="perspective5860"
       inkscape:persp3d-origin="0.5 : 0.33333333 : 1"
       inkscape:vp_z="1 : 0.5 : 1"
       inkscape:vp_y="0 : 1000 : 0"
       inkscape:vp_x="0 : 0.5 : 1"
       sodipodi:type="inkscape:persp3d" />
    <clipPath
       clipPathUnits="userSpaceOnUse"
       id="clipPath2880">
      <path
         d="m 305.111,731.751 42.114,0 0,36.975 -42.114,0 0,-36.975 z"
         id="path2882" />
    </clipPath>
    <inkscape:perspective
       id="perspective5456"
       inkscape:persp3d-origin="0.5 : 0.33333333 : 1"
       inkscape:vp_z="1 : 0.5 : 1"
       inkscape:vp_y="0 : 1000 : 0"
       inkscape:vp_x="0 : 0.5 : 1"
       sodipodi:type="inkscape:persp3d" />
    <clipPath
       clipPathUnits="userSpaceOnUse"
       id="clipPath3316">
      <path
         d="m 77.057,409.341 42.114,0 0,42.114 -42.114,0 0,-42.114 z"
         id="path3318" />
    </clipPath>
    <inkscape:perspective
       id="perspective6307"
       inkscape:persp3d-origin="0.5 : 0.33333333 : 1"
       inkscape:vp_z="1 : 0.5 : 1"
       inkscape:vp_y="0 : 1000 : 0"
       inkscape:vp_x="0 : 0.5 : 1"
       sodipodi:type="inkscape:persp3d" />
    <clipPath
       clipPathUnits="userSpaceOnUse"
       id="clipPath3802">
      <path
         d="m 134.072,409.341 42.114,0 0,56.174 -42.114,0 0,-56.174 z"
         id="path3804" />
    </clipPath>
    <inkscape:perspective
       id="perspective6372"
       inkscape:persp3d-origin="0.5 : 0.33333333 : 1"
       inkscape:vp_z="1 : 0.5 : 1"
       inkscape:vp_y="0 : 1000 : 0"
       inkscape:vp_x="0 : 0.5 : 1"
       sodipodi:type="inkscape:persp3d" />
    <clipPath
       clipPathUnits="userSpaceOnUse"
       id="clipPath3564">
      <path
         d="m 191.084,409.341 42.113,0 0,42.113 -42.113,0 0,-42.113 z"
         id="path3566" />
    </clipPath>
    <inkscape:perspective
       id="perspective6525"
       inkscape:persp3d-origin="0.5 : 0.33333333 : 1"
       inkscape:vp_z="1 : 0.5 : 1"
       inkscape:vp_y="0 : 1000 : 0"
       inkscape:vp_x="0 : 0.5 : 1"
       sodipodi:type="inkscape:persp3d" />
    <clipPath
       clipPathUnits="userSpaceOnUse"
       id="clipPath3420">
      <path
         d="m 305.125,409.34 42.114,0 0,42.114 -42.114,0 0,-42.114 z"
         id="path3422" />
    </clipPath>
    <inkscape:perspective
       id="perspective6601"
       inkscape:persp3d-origin="0.5 : 0.33333333 : 1"
       inkscape:vp_z="1 : 0.5 : 1"
       inkscape:vp_y="0 : 1000 : 0"
       inkscape:vp_x="0 : 0.5 : 1"
       sodipodi:type="inkscape:persp3d" />
    <clipPath
       clipPathUnits="userSpaceOnUse"
       id="clipPath3822">
      <path
         d="m 362.126,409.341 42.114,0 0,42.114 -42.114,0 0,-42.114 z"
         id="path3824" />
    </clipPath>
    <inkscape:perspective
       id="perspective6677"
       inkscape:persp3d-origin="0.5 : 0.33333333 : 1"
       inkscape:vp_z="1 : 0.5 : 1"
       inkscape:vp_y="0 : 1000 : 0"
       inkscape:vp_x="0 : 0.5 : 1"
       sodipodi:type="inkscape:persp3d" />
    <inkscape:perspective
       id="perspective6691"
       inkscape:persp3d-origin="0.5 : 0.33333333 : 1"
       inkscape:vp_z="1 : 0.5 : 1"
       inkscape:vp_y="0 : 1000 : 0"
       inkscape:vp_x="0 : 0.5 : 1"
       sodipodi:type="inkscape:persp3d" />
    <clipPath
       clipPathUnits="userSpaceOnUse"
       id="clipPath4098">
      <path
         d="m 20.045,328.96 42.113,0 0,42.115 -42.113,0 0,-42.115 z"
         id="path4100" />
    </clipPath>
    <inkscape:perspective
       id="perspective3566"
       inkscape:persp3d-origin="0.5 : 0.33333333 : 1"
       inkscape:vp_z="1 : 0.5 : 1"
       inkscape:vp_y="0 : 1000 : 0"
       inkscape:vp_x="0 : 0.5 : 1"
       sodipodi:type="inkscape:persp3d" />
    <clipPath
       clipPathUnits="userSpaceOnUse"
       id="clipPath3288">
      <path
         d="m 20.078,726.418 42.185,0 0,42.186 -42.185,0 0,-42.186 z"
         id="path3290" />
    </clipPath>
    <inkscape:perspective
       inkscape:vp_x="0 : 526.18109 : 1"
       inkscape:vp_y="0 : 1000 : 0"
       inkscape:vp_z="744.09448 : 526.18109 : 1"
       inkscape:persp3d-origin="372.04724 : 350.78739 : 1"
       sodipodi:type="inkscape:persp3d"
       id="perspective5329-9" />
    <inkscape:perspective
       inkscape:vp_x="0 : 0.5 : 1"
       inkscape:vp_y="0 : 1000 : 0"
       inkscape:vp_z="1 : 0.5 : 1"
       inkscape:persp3d-origin="0.5 : 0.33333333 : 1"
       sodipodi:type="inkscape:persp3d"
       id="perspective5339-4" />
    <clipPath
       clipPathUnits="userSpaceOnUse"
       id="clipPath4202-8">
      <path
         d="m 20.045,731.714 42.114,0 0,37.012 -42.114,0 0,-37.012 z"
         id="path4204-8" />
    </clipPath>
    <inkscape:perspective
       inkscape:vp_x="0 : 210 : 1"
       inkscape:vp_y="0 : 1000 : 0"
       inkscape:vp_z="850 : 210 : 1"
       inkscape:persp3d-origin="425 : 140 : 1"
       sodipodi:type="inkscape:persp3d"
       id="perspective5396-2" />
    <inkscape:perspective
       inkscape:vp_x="0 : 0.5 : 1"
       inkscape:vp_y="0 : 1000 : 0"
       inkscape:vp_z="1 : 0.5 : 1"
       inkscape:persp3d-origin="0.5 : 0.33333333 : 1"
       sodipodi:type="inkscape:persp3d"
       id="perspective5429-4" />
    <clipPath
       clipPathUnits="userSpaceOnUse"
       id="clipPath2840-5">
      <path
         d="m 77.057,731.714 42.114,0 0,37.012 -42.114,0 0,-37.012 z"
         id="path2842-5" />
    </clipPath>
    <inkscape:perspective
       inkscape:vp_x="0 : 0.5 : 1"
       inkscape:vp_y="0 : 1000 : 0"
       inkscape:vp_z="1 : 0.5 : 1"
       inkscape:persp3d-origin="0.5 : 0.33333333 : 1"
       sodipodi:type="inkscape:persp3d"
       id="perspective5499-17" />
    <clipPath
       clipPathUnits="userSpaceOnUse"
       id="clipPath3036-11">
      <path
         d="m 134.072,731.751 42.114,0 0,36.975 -42.114,0 0,-36.975 z"
         id="path3038-52" />
    </clipPath>
    <inkscape:perspective
       inkscape:vp_x="0 : 0.5 : 1"
       inkscape:vp_y="0 : 1000 : 0"
       inkscape:vp_z="1 : 0.5 : 1"
       inkscape:persp3d-origin="0.5 : 0.33333333 : 1"
       sodipodi:type="inkscape:persp3d"
       id="perspective5621-7" />
    <clipPath
       clipPathUnits="userSpaceOnUse"
       id="clipPath2952-6">
      <path
         d="m 191.084,731.751 42.113,0 0,36.975 -42.113,0 0,-36.975 z"
         id="path2954-1" />
    </clipPath>
    <clipPath
       clipPathUnits="userSpaceOnUse"
       id="clipPath2936-4">
      <path
         d="m 191.084,731.751 42.113,0 0,36.975 -42.113,0 0,-36.975 z"
         id="path2938-2" />
    </clipPath>
    <inkscape:perspective
       inkscape:vp_x="0 : 0.5 : 1"
       inkscape:vp_y="0 : 1000 : 0"
       inkscape:vp_z="1 : 0.5 : 1"
       inkscape:persp3d-origin="0.5 : 0.33333333 : 1"
       sodipodi:type="inkscape:persp3d"
       id="perspective5694-3" />
    <inkscape:perspective
       inkscape:vp_x="0 : 226.5 : 1"
       inkscape:vp_y="0 : 1000 : 0"
       inkscape:vp_z="510 : 226.5 : 1"
       inkscape:persp3d-origin="255 : 151 : 1"
       sodipodi:type="inkscape:persp3d"
       id="perspective18-2" />
    <inkscape:perspective
       inkscape:vp_x="0 : 0.5 : 1"
       inkscape:vp_y="0 : 1000 : 0"
       inkscape:vp_z="1 : 0.5 : 1"
       inkscape:persp3d-origin="0.5 : 0.33333333 : 1"
       sodipodi:type="inkscape:persp3d"
       id="perspective5722-21" />
    <clipPath
       clipPathUnits="userSpaceOnUse"
       id="clipPath3216-6">
      <path
         d="m 248.098,731.74 42.114,0 0,36.986 -42.114,0 0,-36.986 z"
         id="path3218-8" />
    </clipPath>
    <inkscape:perspective
       inkscape:vp_x="0 : 0.5 : 1"
       inkscape:vp_y="0 : 1000 : 0"
       inkscape:vp_z="1 : 0.5 : 1"
       inkscape:persp3d-origin="0.5 : 0.33333333 : 1"
       sodipodi:type="inkscape:persp3d"
       id="perspective5860-5" />
    <clipPath
       clipPathUnits="userSpaceOnUse"
       id="clipPath2880-7">
      <path
         d="m 305.111,731.751 42.114,0 0,36.975 -42.114,0 0,-36.975 z"
         id="path2882-6" />
    </clipPath>
    <inkscape:perspective
       inkscape:vp_x="0 : 0.5 : 1"
       inkscape:vp_y="0 : 1000 : 0"
       inkscape:vp_z="1 : 0.5 : 1"
       inkscape:persp3d-origin="0.5 : 0.33333333 : 1"
       sodipodi:type="inkscape:persp3d"
       id="perspective5456-1" />
    <clipPath
       clipPathUnits="userSpaceOnUse"
       id="clipPath3316-8">
      <path
         d="m 77.057,409.341 42.114,0 0,42.114 -42.114,0 0,-42.114 z"
         id="path3318-9" />
    </clipPath>
    <inkscape:perspective
       inkscape:vp_x="0 : 0.5 : 1"
       inkscape:vp_y="0 : 1000 : 0"
       inkscape:vp_z="1 : 0.5 : 1"
       inkscape:persp3d-origin="0.5 : 0.33333333 : 1"
       sodipodi:type="inkscape:persp3d"
       id="perspective6307-2" />
    <clipPath
       clipPathUnits="userSpaceOnUse"
       id="clipPath3802-7">
      <path
         d="m 134.072,409.341 42.114,0 0,56.174 -42.114,0 0,-56.174 z"
         id="path3804-9" />
    </clipPath>
    <inkscape:perspective
       inkscape:vp_x="0 : 0.5 : 1"
       inkscape:vp_y="0 : 1000 : 0"
       inkscape:vp_z="1 : 0.5 : 1"
       inkscape:persp3d-origin="0.5 : 0.33333333 : 1"
       sodipodi:type="inkscape:persp3d"
       id="perspective6372-5" />
    <clipPath
       clipPathUnits="userSpaceOnUse"
       id="clipPath3564-4">
      <path
         d="m 191.084,409.341 42.113,0 0,42.113 -42.113,0 0,-42.113 z"
         id="path3566-3" />
    </clipPath>
    <inkscape:perspective
       inkscape:vp_x="0 : 0.5 : 1"
       inkscape:vp_y="0 : 1000 : 0"
       inkscape:vp_z="1 : 0.5 : 1"
       inkscape:persp3d-origin="0.5 : 0.33333333 : 1"
       sodipodi:type="inkscape:persp3d"
       id="perspective6525-1" />
    <clipPath
       clipPathUnits="userSpaceOnUse"
       id="clipPath3420-2">
      <path
         d="m 305.125,409.34 42.114,0 0,42.114 -42.114,0 0,-42.114 z"
         id="path3422-3" />
    </clipPath>
    <inkscape:perspective
       inkscape:vp_x="0 : 0.5 : 1"
       inkscape:vp_y="0 : 1000 : 0"
       inkscape:vp_z="1 : 0.5 : 1"
       inkscape:persp3d-origin="0.5 : 0.33333333 : 1"
       sodipodi:type="inkscape:persp3d"
       id="perspective6601-3" />
    <clipPath
       clipPathUnits="userSpaceOnUse"
       id="clipPath3822-4">
      <path
         d="m 362.126,409.341 42.114,0 0,42.114 -42.114,0 0,-42.114 z"
         id="path3824-1" />
    </clipPath>
    <inkscape:perspective
       inkscape:vp_x="0 : 0.5 : 1"
       inkscape:vp_y="0 : 1000 : 0"
       inkscape:vp_z="1 : 0.5 : 1"
       inkscape:persp3d-origin="0.5 : 0.33333333 : 1"
       sodipodi:type="inkscape:persp3d"
       id="perspective6677-1" />
    <inkscape:perspective
       inkscape:vp_x="0 : 0.5 : 1"
       inkscape:vp_y="0 : 1000 : 0"
       inkscape:vp_z="1 : 0.5 : 1"
       inkscape:persp3d-origin="0.5 : 0.33333333 : 1"
       sodipodi:type="inkscape:persp3d"
       id="perspective6691-3" />
    <clipPath
       clipPathUnits="userSpaceOnUse"
       id="clipPath4098-8">
      <path
         d="m 20.045,328.96 42.113,0 0,42.115 -42.113,0 0,-42.115 z"
         id="path4100-7" />
    </clipPath>
    <inkscape:perspective
       inkscape:vp_x="0 : 0.5 : 1"
       inkscape:vp_y="0 : 1000 : 0"
       inkscape:vp_z="1 : 0.5 : 1"
       inkscape:persp3d-origin="0.5 : 0.33333333 : 1"
       sodipodi:type="inkscape:persp3d"
       id="perspective6753" />
    <clipPath
       clipPathUnits="userSpaceOnUse"
       id="clipPath3336">
      <path
         d="m 77.057,328.96 42.114,0 0,42.115 -42.114,0 0,-42.115 z"
         id="path3338" />
    </clipPath>
    <inkscape:perspective
       inkscape:vp_x="0 : 0.5 : 1"
       inkscape:vp_y="0 : 1000 : 0"
       inkscape:vp_z="1 : 0.5 : 1"
       inkscape:persp3d-origin="0.5 : 0.33333333 : 1"
       sodipodi:type="inkscape:persp3d"
       id="perspective6818" />
    <clipPath
       clipPathUnits="userSpaceOnUse"
       id="clipPath3692">
      <path
         d="m 134.072,328.96 42.114,0 0,42.115 -42.114,0 0,-42.115 z"
         id="path3694" />
    </clipPath>
    <inkscape:perspective
       inkscape:vp_x="0 : 0.5 : 1"
       inkscape:vp_y="0 : 1000 : 0"
       inkscape:vp_z="1 : 0.5 : 1"
       inkscape:persp3d-origin="0.5 : 0.33333333 : 1"
       sodipodi:type="inkscape:persp3d"
       id="perspective6883" />
    <clipPath
       clipPathUnits="userSpaceOnUse"
       id="clipPath3584">
      <path
         d="m 191.084,328.96 42.113,0 0,42.115 -42.113,0 0,-42.115 z"
         id="path3586" />
    </clipPath>
    <inkscape:perspective
       inkscape:vp_x="0 : 0.5 : 1"
       inkscape:vp_y="0 : 1000 : 0"
       inkscape:vp_z="1 : 0.5 : 1"
       inkscape:persp3d-origin="0.5 : 0.33333333 : 1"
       sodipodi:type="inkscape:persp3d"
       id="perspective6937" />
    <clipPath
       clipPathUnits="userSpaceOnUse"
       id="clipPath3990">
      <path
         d="m 248.098,328.96 42.114,0 0,42.115 -42.114,0 0,-42.115 z"
         id="path3992" />
    </clipPath>
    <inkscape:perspective
       inkscape:vp_x="0 : 0.5 : 1"
       inkscape:vp_y="0 : 1000 : 0"
       inkscape:vp_z="1 : 0.5 : 1"
       inkscape:persp3d-origin="0.5 : 0.33333333 : 1"
       sodipodi:type="inkscape:persp3d"
       id="perspective5685" />
    <clipPath
       clipPathUnits="userSpaceOnUse"
       id="clipPath4006">
      <path
         d="m 20.046,204.305 42.114,0 0,42.47 -42.114,0 0,-42.47 z"
         id="path4008" />
    </clipPath>
    <inkscape:perspective
       inkscape:vp_x="0 : 0.5 : 1"
       inkscape:vp_y="0 : 1000 : 0"
       inkscape:vp_z="1 : 0.5 : 1"
       inkscape:persp3d-origin="0.5 : 0.33333333 : 1"
       sodipodi:type="inkscape:persp3d"
       id="perspective5747" />
    <clipPath
       clipPathUnits="userSpaceOnUse"
       id="clipPath3464">
      <path
         d="m 77.053,204.662 42.113,0 0,42.114 -42.113,0 0,-42.114 z"
         id="path3466" />
    </clipPath>
    <inkscape:perspective
       inkscape:vp_x="0 : 0.5 : 1"
       inkscape:vp_y="0 : 1000 : 0"
       inkscape:vp_z="1 : 0.5 : 1"
       inkscape:persp3d-origin="0.5 : 0.33333333 : 1"
       sodipodi:type="inkscape:persp3d"
       id="perspective5809" />
    <clipPath
       clipPathUnits="userSpaceOnUse"
       id="clipPath3866">
      <path
         d="m 134.068,204.642 42.114,0 0,42.115 -42.114,0 0,-42.115 z"
         id="path3868" />
    </clipPath>
    <inkscape:perspective
       inkscape:vp_x="0 : 0.5 : 1"
       inkscape:vp_y="0 : 1000 : 0"
       inkscape:vp_z="1 : 0.5 : 1"
       inkscape:persp3d-origin="0.5 : 0.33333333 : 1"
       sodipodi:type="inkscape:persp3d"
       id="perspective5881" />
    <clipPath
       clipPathUnits="userSpaceOnUse"
       id="clipPath4178">
      <path
         d="m 191.081,204.642 42.114,0 0,42.115 -42.114,0 0,-42.115 z"
         id="path4180" />
    </clipPath>
    <inkscape:perspective
       inkscape:vp_x="0 : 0.5 : 1"
       inkscape:vp_y="0 : 1000 : 0"
       inkscape:vp_z="1 : 0.5 : 1"
       inkscape:persp3d-origin="0.5 : 0.33333333 : 1"
       sodipodi:type="inkscape:persp3d"
       id="perspective5953" />
    <clipPath
       clipPathUnits="userSpaceOnUse"
       id="clipPath3400">
      <path
         d="m 248.093,204.642 42.114,0 0,42.115 -42.114,0 0,-42.115 z"
         id="path3402" />
    </clipPath>
    <inkscape:perspective
       inkscape:vp_x="0 : 0.5 : 1"
       inkscape:vp_y="0 : 1000 : 0"
       inkscape:vp_z="1 : 0.5 : 1"
       inkscape:persp3d-origin="0.5 : 0.33333333 : 1"
       sodipodi:type="inkscape:persp3d"
       id="perspective6016" />
    <clipPath
       clipPathUnits="userSpaceOnUse"
       id="clipPath3778">
      <path
         d="m 305.108,204.642 42.114,0 0,42.115 -42.114,0 0,-42.115 z"
         id="path3780" />
    </clipPath>
    <inkscape:perspective
       inkscape:vp_x="0 : 0.5 : 1"
       inkscape:vp_y="0 : 1000 : 0"
       inkscape:vp_z="1 : 0.5 : 1"
       inkscape:persp3d-origin="0.5 : 0.33333333 : 1"
       sodipodi:type="inkscape:persp3d"
       id="perspective7017" />
    <clipPath
       clipPathUnits="userSpaceOnUse"
       id="clipPath4062">
      <path
         d="m 419.135,204.668 42.113,0 0,42.114 -42.113,0 0,-42.114 z"
         id="path4064" />
    </clipPath>
    <inkscape:perspective
       inkscape:vp_x="0 : 0.5 : 1"
       inkscape:vp_y="0 : 1000 : 0"
       inkscape:vp_z="1 : 0.5 : 1"
       inkscape:persp3d-origin="0.5 : 0.33333333 : 1"
       sodipodi:type="inkscape:persp3d"
       id="perspective7139" />
    <clipPath
       clipPathUnits="userSpaceOnUse"
       id="clipPath4138">
      <path
         d="m 134.077,142.502 42.114,0 0,42.115 -42.114,0 0,-42.115 z"
         id="path4140" />
    </clipPath>
    <inkscape:perspective
       inkscape:vp_x="0 : 0.5 : 1"
       inkscape:vp_y="0 : 1000 : 0"
       inkscape:vp_z="1 : 0.5 : 1"
       inkscape:persp3d-origin="0.5 : 0.33333333 : 1"
       sodipodi:type="inkscape:persp3d"
       id="perspective7201" />
    <clipPath
       clipPathUnits="userSpaceOnUse"
       id="clipPath3548">
      <path
         d="m 20.039,142.502 42.114,0 0,42.115 -42.114,0 0,-42.115 z"
         id="path3550" />
    </clipPath>
    <inkscape:perspective
       inkscape:vp_x="0 : 526.18109 : 1"
       inkscape:vp_y="0 : 1000 : 0"
       inkscape:vp_z="744.09448 : 526.18109 : 1"
       inkscape:persp3d-origin="372.04724 : 350.78739 : 1"
       sodipodi:type="inkscape:persp3d"
       id="perspective5329-8" />
    <inkscape:perspective
       inkscape:vp_x="0 : 0.5 : 1"
       inkscape:vp_y="0 : 1000 : 0"
       inkscape:vp_z="1 : 0.5 : 1"
       inkscape:persp3d-origin="0.5 : 0.33333333 : 1"
       sodipodi:type="inkscape:persp3d"
       id="perspective5339-8" />
    <clipPath
       clipPathUnits="userSpaceOnUse"
       id="clipPath4202-2">
      <path
         d="m 20.045,731.714 42.114,0 0,37.012 -42.114,0 0,-37.012 z"
         id="path4204-4" />
    </clipPath>
    <inkscape:perspective
       inkscape:vp_x="0 : 210 : 1"
       inkscape:vp_y="0 : 1000 : 0"
       inkscape:vp_z="850 : 210 : 1"
       inkscape:persp3d-origin="425 : 140 : 1"
       sodipodi:type="inkscape:persp3d"
       id="perspective5396-5" />
    <inkscape:perspective
       inkscape:vp_x="0 : 0.5 : 1"
       inkscape:vp_y="0 : 1000 : 0"
       inkscape:vp_z="1 : 0.5 : 1"
       inkscape:persp3d-origin="0.5 : 0.33333333 : 1"
       sodipodi:type="inkscape:persp3d"
       id="perspective5429-5" />
    <clipPath
       clipPathUnits="userSpaceOnUse"
       id="clipPath2840-1">
      <path
         d="m 77.057,731.714 42.114,0 0,37.012 -42.114,0 0,-37.012 z"
         id="path2842-7" />
    </clipPath>
    <inkscape:perspective
       inkscape:vp_x="0 : 0.5 : 1"
       inkscape:vp_y="0 : 1000 : 0"
       inkscape:vp_z="1 : 0.5 : 1"
       inkscape:persp3d-origin="0.5 : 0.33333333 : 1"
       sodipodi:type="inkscape:persp3d"
       id="perspective5499-1" />
    <clipPath
       clipPathUnits="userSpaceOnUse"
       id="clipPath3036-1">
      <path
         d="m 134.072,731.751 42.114,0 0,36.975 -42.114,0 0,-36.975 z"
         id="path3038-5" />
    </clipPath>
    <inkscape:perspective
       inkscape:vp_x="0 : 0.5 : 1"
       inkscape:vp_y="0 : 1000 : 0"
       inkscape:vp_z="1 : 0.5 : 1"
       inkscape:persp3d-origin="0.5 : 0.33333333 : 1"
       sodipodi:type="inkscape:persp3d"
       id="perspective5621-2" />
    <clipPath
       clipPathUnits="userSpaceOnUse"
       id="clipPath2952-7">
      <path
         d="m 191.084,731.751 42.113,0 0,36.975 -42.113,0 0,-36.975 z"
         id="path2954-6" />
    </clipPath>
    <clipPath
       clipPathUnits="userSpaceOnUse"
       id="clipPath2936-1">
      <path
         d="m 191.084,731.751 42.113,0 0,36.975 -42.113,0 0,-36.975 z"
         id="path2938-4" />
    </clipPath>
    <inkscape:perspective
       inkscape:vp_x="0 : 0.5 : 1"
       inkscape:vp_y="0 : 1000 : 0"
       inkscape:vp_z="1 : 0.5 : 1"
       inkscape:persp3d-origin="0.5 : 0.33333333 : 1"
       sodipodi:type="inkscape:persp3d"
       id="perspective5694-2" />
    <inkscape:perspective
       inkscape:vp_x="0 : 226.5 : 1"
       inkscape:vp_y="0 : 1000 : 0"
       inkscape:vp_z="510 : 226.5 : 1"
       inkscape:persp3d-origin="255 : 151 : 1"
       sodipodi:type="inkscape:persp3d"
       id="perspective18-3" />
    <inkscape:perspective
       inkscape:vp_x="0 : 0.5 : 1"
       inkscape:vp_y="0 : 1000 : 0"
       inkscape:vp_z="1 : 0.5 : 1"
       inkscape:persp3d-origin="0.5 : 0.33333333 : 1"
       sodipodi:type="inkscape:persp3d"
       id="perspective5722-2" />
    <clipPath
       clipPathUnits="userSpaceOnUse"
       id="clipPath3216-2">
      <path
         d="m 248.098,731.74 42.114,0 0,36.986 -42.114,0 0,-36.986 z"
         id="path3218-1" />
    </clipPath>
    <inkscape:perspective
       inkscape:vp_x="0 : 0.5 : 1"
       inkscape:vp_y="0 : 1000 : 0"
       inkscape:vp_z="1 : 0.5 : 1"
       inkscape:persp3d-origin="0.5 : 0.33333333 : 1"
       sodipodi:type="inkscape:persp3d"
       id="perspective5860-6" />
    <clipPath
       clipPathUnits="userSpaceOnUse"
       id="clipPath2880-8">
      <path
         d="m 305.111,731.751 42.114,0 0,36.975 -42.114,0 0,-36.975 z"
         id="path2882-5" />
    </clipPath>
    <inkscape:perspective
       inkscape:vp_x="0 : 0.5 : 1"
       inkscape:vp_y="0 : 1000 : 0"
       inkscape:vp_z="1 : 0.5 : 1"
       inkscape:persp3d-origin="0.5 : 0.33333333 : 1"
       sodipodi:type="inkscape:persp3d"
       id="perspective5456-7" />
    <clipPath
       clipPathUnits="userSpaceOnUse"
       id="clipPath3316-6">
      <path
         d="m 77.057,409.341 42.114,0 0,42.114 -42.114,0 0,-42.114 z"
         id="path3318-1" />
    </clipPath>
    <inkscape:perspective
       inkscape:vp_x="0 : 0.5 : 1"
       inkscape:vp_y="0 : 1000 : 0"
       inkscape:vp_z="1 : 0.5 : 1"
       inkscape:persp3d-origin="0.5 : 0.33333333 : 1"
       sodipodi:type="inkscape:persp3d"
       id="perspective6307-8" />
    <clipPath
       clipPathUnits="userSpaceOnUse"
       id="clipPath3802-9">
      <path
         d="m 134.072,409.341 42.114,0 0,56.174 -42.114,0 0,-56.174 z"
         id="path3804-2" />
    </clipPath>
    <inkscape:perspective
       inkscape:vp_x="0 : 0.5 : 1"
       inkscape:vp_y="0 : 1000 : 0"
       inkscape:vp_z="1 : 0.5 : 1"
       inkscape:persp3d-origin="0.5 : 0.33333333 : 1"
       sodipodi:type="inkscape:persp3d"
       id="perspective6372-7" />
    <clipPath
       clipPathUnits="userSpaceOnUse"
       id="clipPath3564-9">
      <path
         d="m 191.084,409.341 42.113,0 0,42.113 -42.113,0 0,-42.113 z"
         id="path3566-5" />
    </clipPath>
    <inkscape:perspective
       inkscape:vp_x="0 : 0.5 : 1"
       inkscape:vp_y="0 : 1000 : 0"
       inkscape:vp_z="1 : 0.5 : 1"
       inkscape:persp3d-origin="0.5 : 0.33333333 : 1"
       sodipodi:type="inkscape:persp3d"
       id="perspective6525-4" />
    <clipPath
       clipPathUnits="userSpaceOnUse"
       id="clipPath3420-3">
      <path
         d="m 305.125,409.34 42.114,0 0,42.114 -42.114,0 0,-42.114 z"
         id="path3422-1" />
    </clipPath>
    <inkscape:perspective
       inkscape:vp_x="0 : 0.5 : 1"
       inkscape:vp_y="0 : 1000 : 0"
       inkscape:vp_z="1 : 0.5 : 1"
       inkscape:persp3d-origin="0.5 : 0.33333333 : 1"
       sodipodi:type="inkscape:persp3d"
       id="perspective6601-2" />
    <clipPath
       clipPathUnits="userSpaceOnUse"
       id="clipPath3822-3">
      <path
         d="m 362.126,409.341 42.114,0 0,42.114 -42.114,0 0,-42.114 z"
         id="path3824-3" />
    </clipPath>
    <inkscape:perspective
       inkscape:vp_x="0 : 0.5 : 1"
       inkscape:vp_y="0 : 1000 : 0"
       inkscape:vp_z="1 : 0.5 : 1"
       inkscape:persp3d-origin="0.5 : 0.33333333 : 1"
       sodipodi:type="inkscape:persp3d"
       id="perspective6677-4" />
    <inkscape:perspective
       inkscape:vp_x="0 : 0.5 : 1"
       inkscape:vp_y="0 : 1000 : 0"
       inkscape:vp_z="1 : 0.5 : 1"
       inkscape:persp3d-origin="0.5 : 0.33333333 : 1"
       sodipodi:type="inkscape:persp3d"
       id="perspective7385" />
    <clipPath
       clipPathUnits="userSpaceOnUse"
       id="clipPath3954">
      <path
         d="m 77.054,142.502 42.114,0 0,42.115 -42.114,0 0,-42.115 z"
         id="path3956" />
    </clipPath>
    <inkscape:perspective
       id="perspective4674"
       inkscape:persp3d-origin="0.5 : 0.33333333 : 1"
       inkscape:vp_z="1 : 0.5 : 1"
       inkscape:vp_y="0 : 1000 : 0"
       inkscape:vp_x="0 : 0.5 : 1"
       sodipodi:type="inkscape:persp3d" />
    <clipPath
       clipPathUnits="userSpaceOnUse"
       id="clipPath3028">
      <path
         d="m 191.406,726.418 42.185,0 0,42.186 -42.185,0 0,-42.186 z"
         id="path3030" />
    </clipPath>
    <inkscape:perspective
       id="perspective4766"
       inkscape:persp3d-origin="0.5 : 0.33333333 : 1"
       inkscape:vp_z="1 : 0.5 : 1"
       inkscape:vp_y="0 : 1000 : 0"
       inkscape:vp_x="0 : 0.5 : 1"
       sodipodi:type="inkscape:persp3d" />
    <clipPath
       clipPathUnits="userSpaceOnUse"
       id="clipPath2908">
      <path
         d="m 305.624,726.418 42.185,0 0,42.186 -42.185,0 0,-42.186 z"
         id="path2910" />
    </clipPath>
    <inkscape:perspective
       id="perspective4829"
       inkscape:persp3d-origin="0.5 : 0.33333333 : 1"
       inkscape:vp_z="1 : 0.5 : 1"
       inkscape:vp_y="0 : 1000 : 0"
       inkscape:vp_x="0 : 0.5 : 1"
       sodipodi:type="inkscape:persp3d" />
    <clipPath
       clipPathUnits="userSpaceOnUse"
       id="clipPath3328">
      <path
         d="m 419.845,726.418 42.185,0 0,42.186 -42.185,0 0,-42.186 z"
         id="path3330" />
    </clipPath>
    <inkscape:perspective
       id="perspective4894"
       inkscape:persp3d-origin="0.5 : 0.33333333 : 1"
       inkscape:vp_z="1 : 0.5 : 1"
       inkscape:vp_y="0 : 1000 : 0"
       inkscape:vp_x="0 : 0.5 : 1"
       sodipodi:type="inkscape:persp3d" />
    <clipPath
       clipPathUnits="userSpaceOnUse"
       id="clipPath2856">
      <path
         d="m 476.952,726.418 42.185,0 0,42.186 -42.185,0 0,-42.186 z"
         id="path2858" />
    </clipPath>
    <inkscape:perspective
       id="perspective4959"
       inkscape:persp3d-origin="0.5 : 0.33333333 : 1"
       inkscape:vp_z="1 : 0.5 : 1"
       inkscape:vp_y="0 : 1000 : 0"
       inkscape:vp_x="0 : 0.5 : 1"
       sodipodi:type="inkscape:persp3d" />
    <clipPath
       clipPathUnits="userSpaceOnUse"
       id="clipPath3268">
      <path
         d="m 77.184,664.161 42.185,0 0,42.185 -42.185,0 0,-42.185 z"
         id="path3270" />
    </clipPath>
    <inkscape:perspective
       id="perspective5024"
       inkscape:persp3d-origin="0.5 : 0.33333333 : 1"
       inkscape:vp_z="1 : 0.5 : 1"
       inkscape:vp_y="0 : 1000 : 0"
       inkscape:vp_x="0 : 0.5 : 1"
       sodipodi:type="inkscape:persp3d" />
    <clipPath
       clipPathUnits="userSpaceOnUse"
       id="clipPath2968">
      <path
         d="m 134.293,664.161 42.185,0 0,42.185 -42.185,0 0,-42.185 z"
         id="path2970" />
    </clipPath>
    <inkscape:perspective
       id="perspective5144"
       inkscape:persp3d-origin="0.5 : 0.33333333 : 1"
       inkscape:vp_z="1 : 0.5 : 1"
       inkscape:vp_y="0 : 1000 : 0"
       inkscape:vp_x="0 : 0.5 : 1"
       sodipodi:type="inkscape:persp3d" />
    <clipPath
       clipPathUnits="userSpaceOnUse"
       id="clipPath3188">
      <path
         d="m 191.402,664.161 42.185,0 0,42.185 -42.185,0 0,-42.185 z"
         id="path3190" />
    </clipPath>
    <inkscape:perspective
       id="perspective5209"
       inkscape:persp3d-origin="0.5 : 0.33333333 : 1"
       inkscape:vp_z="1 : 0.5 : 1"
       inkscape:vp_y="0 : 1000 : 0"
       inkscape:vp_x="0 : 0.5 : 1"
       sodipodi:type="inkscape:persp3d" />
    <clipPath
       clipPathUnits="userSpaceOnUse"
       id="clipPath3008">
      <path
         d="m 248.509,664.161 42.185,0 0,42.185 -42.185,0 0,-42.185 z"
         id="path3010" />
    </clipPath>
    <inkscape:perspective
       id="perspective5274"
       inkscape:persp3d-origin="0.5 : 0.33333333 : 1"
       inkscape:vp_z="1 : 0.5 : 1"
       inkscape:vp_y="0 : 1000 : 0"
       inkscape:vp_x="0 : 0.5 : 1"
       sodipodi:type="inkscape:persp3d" />
    <clipPath
       clipPathUnits="userSpaceOnUse"
       id="clipPath3308">
      <path
         d="m 305.658,664.161 42.185,0 0,42.185 -42.185,0 0,-42.185 z"
         id="path3310" />
    </clipPath>
    <inkscape:perspective
       id="perspective5361"
       inkscape:persp3d-origin="0.5 : 0.33333333 : 1"
       inkscape:vp_z="1 : 0.5 : 1"
       inkscape:vp_y="0 : 1000 : 0"
       inkscape:vp_x="0 : 0.5 : 1"
       sodipodi:type="inkscape:persp3d" />
    <clipPath
       clipPathUnits="userSpaceOnUse"
       id="clipPath2948">
      <path
         d="m 362.788,664.161 42.185,0 0,42.185 -42.185,0 0,-42.185 z"
         id="path2950" />
    </clipPath>
    <inkscape:perspective
       id="perspective5410"
       inkscape:persp3d-origin="0.5 : 0.33333333 : 1"
       inkscape:vp_z="1 : 0.5 : 1"
       inkscape:vp_y="0 : 1000 : 0"
       inkscape:vp_x="0 : 0.5 : 1"
       sodipodi:type="inkscape:persp3d" />
    <clipPath
       clipPathUnits="userSpaceOnUse"
       id="clipPath2948-0">
      <path
         d="m 362.788,664.161 42.185,0 0,42.185 -42.185,0 0,-42.185 z"
         id="path2950-2" />
    </clipPath>
    <inkscape:perspective
       id="perspective5475"
       inkscape:persp3d-origin="0.5 : 0.33333333 : 1"
       inkscape:vp_z="1 : 0.5 : 1"
       inkscape:vp_y="0 : 1000 : 0"
       inkscape:vp_x="0 : 0.5 : 1"
       sodipodi:type="inkscape:persp3d" />
    <clipPath
       clipPathUnits="userSpaceOnUse"
       id="clipPath3208">
      <path
         d="m 419.863,664.161 42.185,0 0,42.185 -42.185,0 0,-42.185 z"
         id="path3210" />
    </clipPath>
    <inkscape:perspective
       id="perspective5540"
       inkscape:persp3d-origin="0.5 : 0.33333333 : 1"
       inkscape:vp_z="1 : 0.5 : 1"
       inkscape:vp_y="0 : 1000 : 0"
       inkscape:vp_x="0 : 0.5 : 1"
       sodipodi:type="inkscape:persp3d" />
    <clipPath
       clipPathUnits="userSpaceOnUse"
       id="clipPath3108">
      <path
         d="m 476.952,664.161 42.185,0 0,42.185 -42.185,0 0,-42.185 z"
         id="path3110" />
    </clipPath>
    <inkscape:perspective
       id="perspective5605"
       inkscape:persp3d-origin="0.5 : 0.33333333 : 1"
       inkscape:vp_z="1 : 0.5 : 1"
       inkscape:vp_y="0 : 1000 : 0"
       inkscape:vp_x="0 : 0.5 : 1"
       sodipodi:type="inkscape:persp3d" />
    <clipPath
       clipPathUnits="userSpaceOnUse"
       id="clipPath3048">
      <path
         d="m 534.061,664.161 42.185,0 0,42.185 -42.185,0 0,-42.185 z"
         id="path3050" />
    </clipPath>
    <inkscape:perspective
       id="perspective5670"
       inkscape:persp3d-origin="0.5 : 0.33333333 : 1"
       inkscape:vp_z="1 : 0.5 : 1"
       inkscape:vp_y="0 : 1000 : 0"
       inkscape:vp_x="0 : 0.5 : 1"
       sodipodi:type="inkscape:persp3d" />
    <clipPath
       clipPathUnits="userSpaceOnUse"
       id="clipPath3248">
      <path
         d="m 20.078,601.897 42.185,0 0,42.186 -42.185,0 0,-42.186 z"
         id="path3250" />
    </clipPath>
    <inkscape:perspective
       id="perspective5735"
       inkscape:persp3d-origin="0.5 : 0.33333333 : 1"
       inkscape:vp_z="1 : 0.5 : 1"
       inkscape:vp_y="0 : 1000 : 0"
       inkscape:vp_x="0 : 0.5 : 1"
       sodipodi:type="inkscape:persp3d" />
    <clipPath
       clipPathUnits="userSpaceOnUse"
       id="clipPath2928">
      <path
         d="m 77.188,601.897 42.185,0 0,42.186 -42.185,0 0,-42.186 z"
         id="path2930" />
    </clipPath>
    <inkscape:perspective
       id="perspective5800"
       inkscape:persp3d-origin="0.5 : 0.33333333 : 1"
       inkscape:vp_z="1 : 0.5 : 1"
       inkscape:vp_y="0 : 1000 : 0"
       inkscape:vp_x="0 : 0.5 : 1"
       sodipodi:type="inkscape:persp3d" />
    <clipPath
       clipPathUnits="userSpaceOnUse"
       id="clipPath3168">
      <path
         d="m 134.299,601.897 42.185,0 0,42.186 -42.185,0 0,-42.186 z"
         id="path3170" />
    </clipPath>
  </defs>
  <sodipodi:namedview
     id="base"
     pagecolor="#ffffff"
     bordercolor="#666666"
     borderopacity="1.0"
     inkscape:pageopacity="0.0"
     inkscape:pageshadow="2"
     inkscape:zoom="1.1896297"
     inkscape:cx="503.43541"
     inkscape:cy="202.59152"
     inkscape:document-units="px"
     inkscape:current-layer="layer1"
     showgrid="false"
     inkscape:window-width="1600"
     inkscape:window-height="838"
     inkscape:window-x="-8"
     inkscape:window-y="-8"
     inkscape:window-maximized="1" />
  <metadata
     id="metadata5326">
    <rdf:RDF>
      <cc:Work
         rdf:about="">
        <dc:format>image/svg+xml</dc:format>
        <dc:type
           rdf:resource="http://purl.org/dc/dcmitype/StillImage" />
        <dc:title></dc:title>
      </cc:Work>
    </rdf:RDF>
  </metadata>
  <g
     inkscape:label="Livello 1"
     inkscape:groupmode="layer"
     id="layer1"
     transform="translate(-686.47921,-379.88659)">
    <g
       inkscape:label="Ebene 1"
       inkscape:groupmode="layer"
       transform="translate(-501.54702,586.32528)"
       id="layer1-0" />
    <path
       id="path3174"
       style="fill:#ffffff;fill-opacity:1;fill-rule:nonzero;stroke:none"
       d="m 1086.14,580.04197 c 0,109.90306 -89.61183,199.50538 -199.50541,199.50538 -109.89358,0 -199.50538,-89.60232 -199.50538,-199.50538 0,-109.89357 89.6118,-199.50538 199.50538,-199.50538 109.89358,0 199.50541,89.61181 199.50541,199.50538" />
    <path
       id="path3178"
       style="fill:none;stroke:#000000;stroke-width:1.29999995;stroke-linecap:butt;stroke-linejoin:miter;stroke-miterlimit:10;stroke-opacity:1;stroke-dasharray:none"
       d="m 1086.14,580.04197 c 0,109.90306 -89.61183,199.50538 -199.50541,199.50538 -109.89358,0 -199.50538,-89.60232 -199.50538,-199.50538 0,-109.89357 89.6118,-199.50538 199.50538,-199.50538 109.89358,0 199.50541,89.61181 199.50541,199.50538 z" />
    <path
       id="path3182"
       style="fill:#005ab2;fill-opacity:1;fill-rule:nonzero;stroke:none"
       d="m 857.55298,610.81293 c -0.33218,-1.68936 -0.67384,-3.72038 -1.68936,-4.73589 l -7.09909,-10.47781 0,-28.06419 2.37269,0 c 2.3632,0 6.08358,1.01551 6.08358,8.44678 0,7.10858 -1.35718,7.10858 -1.35718,13.19216 0,11.16114 7.0991,14.87203 10.14563,14.87203 l 0,-26.03317 c 0,-11.16114 -6.76691,-16.57087 -14.53985,-16.57087 l -3.37871,0 c -7.44076,-6.41576 -16.57088,-8.11461 -23.3378,-8.11461 -6.76691,0 -19.60792,2.71436 -19.60792,2.71436 4.39423,-3.3882 4.39423,-7.10858 3.37872,-11.16114 l -6.09308,-28.74753 c -0.66435,-3.37871 -5.40024,-7.44076 -10.4778,-6.08358 -4.39423,1.01551 -7.77294,5.07756 -6.76692,10.81948 l 2.37269,10.48729 -15.89703,8.44678 c 0,0 -3.37871,-5.40973 -8.78845,-11.16114 -7.44076,-7.77293 -17.92805,-9.46229 -22.99612,-9.46229 -2.3632,0 -5.74191,0.33218 -6.75743,0.67384 -2.37269,-4.39422 -7.78242,-5.07756 -9.81345,-4.7264 l 4.40372,6.41576 -6.76692,33.13226 c -1.01551,3.04654 2.03103,7.45025 6.42525,7.45025 5.40974,0 6.76692,-4.73589 6.76692,-6.43474 l 0,-1.01551 8.44678,-9.79447 6.42524,18.59241 c 0,0 0,8.78845 1.35718,14.88152 1.34769,5.75141 5.74192,10.47781 5.74192,10.47781 l -13.85652,1.35718 c -6.08358,0.67384 -7.44076,4.39422 -7.44076,7.09909 l 0,21.30677 c 0,3.03704 1.00602,4.7264 3.72038,6.75742 l 9.80396,6.42525 c 3.04654,-4.39422 2.03102,-8.78845 -1.01551,-11.49332 l -2.37269,-2.3632 0,-17.24472 23.66997,0 13.53383,34.82162 -5.06807,9.47179 5.74191,0 c 4.05256,0 9.13012,-4.40372 9.13012,-9.47179 0,-2.3632 -0.33218,-4.39422 -2.03102,-8.1146 l -11.49332,-30.43689 6.42525,0 c 14.53985,0 24.34381,-4.7264 32.11675,-4.7264 l 5.7514,15.55537 -15.54587,12.85049 c -2.37269,2.02153 -2.37269,4.05256 -1.69885,5.74191 l 3.04654,14.53986 c 6.76691,-2.3632 8.1146,-7.0991 7.78242,-9.80396 l -0.68333,-4.06205 17.24472,-14.19819 c 2.03102,-1.69884 1.35718,-4.39422 1.01551,-5.06806 l -3.04653,-11.50281 16.23869,15.88754 4.72641,22.32228 -5.74192,10.4873 5.07756,0 c 5.74192,0 10.80998,-5.07756 10.80998,-10.81948 0,-1.35718 0,-2.70487 -0.33217,-4.40371 l -4.06205,-18.93408 z m -81.15554,-64.91684 c 6.42525,6.08358 8.11461,6.08358 8.11461,6.08358 l 6.42525,-4.05255 -1.68936,-8.79794 -12.8505,6.76691 z m 13.52435,-56.81172 c -5.06807,0 -9.4623,4.05256 -9.4623,9.47179 0,5.06806 4.39423,9.12062 9.4623,9.12062 5.07755,0 9.47178,-4.05256 9.47178,-9.12062 0,-5.41923 -4.39423,-9.47179 -9.47178,-9.47179 m 154.53808,-61.20595 c -7.099,0 -13.1826,5.74192 -13.1826,12.84101 0,7.10858 6.0836,12.85999 13.1826,12.85999 7.0991,0 12.8505,-5.75141 12.8505,-12.85999 0,-7.09909 -5.7514,-12.84101 -12.8505,-12.84101 m 27.0582,131.20035 -10.8289,-24.34382 0,-48.35545 4.7359,7.77294 0,14.53985 c 0,2.70487 2.031,4.40372 4.3942,4.40372 2.7048,0 4.7359,-1.69885 4.7359,-4.40372 l 0,-15.21369 c 0,-3.04654 -0.6739,-4.05256 -2.7144,-7.0991 l -14.5304,-23.33779 c -2.7143,-3.72038 -7.099,-6.41576 -12.1766,-6.41576 -6.0836,0 -11.1611,4.05256 -13.1922,9.4623 l -15.5553,42.27187 c -0.6739,2.70486 0.3416,5.40973 3.0465,6.41575 2.3727,0.68334 5.0681,-0.67384 6.0931,-3.03704 l 9.1206,-25.02715 0,19.27575 -18.9341,52.74967 c -1.3477,3.72987 0.3417,7.78243 4.0621,9.13012 4.0525,1.35718 8.1146,-0.67385 9.4718,-4.39423 l 16.903,-46.66609 0,17.58639 c 0,1.35718 0.6739,2.70486 1.3477,4.39422 l 11.835,25.35933 c 1.6988,3.3882 5.4097,5.07756 8.7979,3.3882 3.3882,-1.35718 4.7264,-5.40974 3.3882,-8.45627 m 26.0332,-88.93797 c -5.7514,0 -10.4873,4.39423 -10.4873,10.15512 0,6.08358 4.7359,10.47781 10.4873,10.47781 5.74193,0 10.47783,-4.39423 10.47783,-10.47781 0,-5.76089 -4.7359,-10.15512 -10.47783,-10.15512 m 2.3632,80.14952 7.09913,14.87203 c 1.0155,2.70487 4.062,3.72038 6.4347,2.37269 2.3632,-1.01551 3.7109,-4.06205 2.3632,-6.42525 l -6.7669,-14.19818 0,-32.80958 3.7204,6.09307 0,10.47781 c 0,2.3632 1.6893,4.06204 4.0525,4.06204 2.0311,0 3.7299,-1.69884 3.7299,-4.06204 l 0,-11.49332 c 0,-2.03102 -1.0155,-3.3882 -2.3727,-5.7514 l -8.4562,-13.52435 c -2.7049,-4.39422 -6.4253,-6.08358 -10.47793,-6.08358 -4.7358,0 -9.1301,2.70487 -10.8289,8.11461 l -10.81,30.09522 c -0.6833,1.68935 0.3322,4.05255 2.0215,4.73589 2.0311,0.67384 4.3943,-0.34167 4.7359,-2.37269 l 5.7514,-15.2137 0,8.78845 -12.1766,33.14175 c -1.0155,2.69538 0.3416,5.40974 3.0465,6.42525 2.7049,1.01551 5.7514,-0.34167 6.7574,-3.04654 l 11.1612,-30.09521 0,12.85049 c 0,1.01551 0.3416,2.03103 1.0155,3.04654 m -6.7669,73.71477 -9.804,32.11675 2.7049,0 c 1.0155,-8.44678 5.7514,-15.55536 12.5088,-19.60792 l -5.4097,-12.50883 z m -5.7419,-3.72038 -39.5575,0 -0.6834,1.34769 28.0642,31.78458 c 0.3417,0 1.0155,-0.33218 2.031,-0.33218 l 10.1457,-32.80009 z m -55.4641,29.75355 c 0.3417,-1.34768 3.3882,-11.16114 3.3882,-11.16114 -1.0155,-0.33217 -2.3727,-0.33217 -3.7203,-0.33217 -11.4934,0 -20.633,9.13011 -20.633,20.62343 -0.3321,11.49332 9.1396,20.63292 20.633,20.9651 11.1611,0 20.6234,-9.47178 20.6234,-20.63292 0,-8.10512 -4.3847,-14.87203 -10.8195,-18.59241 0,0 -2.7049,9.13011 -3.037,9.80396 -1.6894,5.07756 -2.7144,8.45627 -4.0621,10.48729 -1.0155,1.01552 -2.7048,1.68936 -4.0525,1.01552 -2.0311,-1.01552 -2.0311,-3.37872 -1.6989,-4.39423 0.6834,-1.01551 2.031,-3.3882 3.3787,-7.78243 m 83.52833,7.78243 c 0.3416,0.67385 0.3416,1.01551 0.3416,1.67987 0,1.69884 -1.3572,3.04653 -3.3787,3.04653 l -20.29123,0 c 1.6893,9.81345 10.14563,17.58639 20.29123,17.58639 11.4933,0 20.9556,-9.13012 20.9556,-20.63292 0,-11.49332 -9.1301,-20.95561 -20.6234,-20.95561 -2.031,0 -4.0526,0.33217 -5.7514,0.67384 l 8.4563,18.6019 z m -14.1982,-15.89703 c -4.74543,3.04654 -8.12413,8.1146 -9.13013,14.19818 l 15.54583,0 -6.4157,-14.19818 z m -51.06033,-43.28738 c -1.6989,0 -3.0466,1.01551 -3.3882,2.71436 l -9.8135,31.78457 c -1.6799,-0.34167 -3.3692,-0.68333 -5.4002,-0.68333 -14.5399,0 -26.7166,11.84447 -26.7166,26.7165 0,14.53985 11.835,26.71651 26.3844,26.71651 14.872,0.33217 27.0392,-11.83499 27.0392,-26.38433 0,-10.80998 -6.0836,-19.9401 -15.2137,-24.33433 1.3571,-3.72038 2.031,-6.43473 2.031,-6.43473 l 26.0427,30.1047 0,0.33218 c -0.3417,3.37871 2.3632,6.09307 5.7419,6.09307 2.3632,0 4.062,-1.025 5.068,-2.71436 l 4.0621,0 c 1.6893,13.19217 12.8505,23.3378 26.38433,23.66997 14.872,0 26.707,-12.16716 26.707,-26.7165 0.3417,-14.87203 -11.4933,-26.70702 -26.3748,-27.04868 -3.0465,0 -5.7514,0.68333 -8.1146,1.35717 l -8.78853,-18.93407 1.6894,-6.09307 3.37873,0 c 1.6894,0 3.3787,-1.34769 3.3787,-3.36923 0,-1.69884 -1.6893,-3.3882 -3.3787,-3.3882 l -13.19223,0 c -1.6893,0 -3.3787,1.68936 -3.3787,3.3882 0,1.67987 1.3572,3.36923 3.3787,3.36923 l 3.0466,0 -1.3572,5.07756 -39.8992,0 2.3727,-7.0991 c 0.3322,-1.34769 1.006,-1.34769 1.3477,-1.34769 l 6.0836,0 c 1.6988,0 3.3882,-1.36667 3.3882,-3.3882 0,-1.68936 -1.6894,-3.3882 -3.3882,-3.3882 l -9.1206,0 z M 886.63269,392.0318 c 103.80998,0 188.01211,84.20208 188.01211,188.01207 0,103.80999 -84.20213,188.01206 -188.01211,188.01206 -103.81,0 -188.01207,-84.20207 -188.01207,-188.01206 0,-103.80999 84.20207,-188.01207 188.01207,-188.01207" />
  </g>
</svg>
