<?xml version="1.0" encoding="UTF-8" standalone="no"?>
<!-- Created with Inkscape (http://www.inkscape.org/) -->

<svg
   xmlns:dc="http://purl.org/dc/elements/1.1/"
   xmlns:cc="http://creativecommons.org/ns#"
   xmlns:rdf="http://www.w3.org/1999/02/22-rdf-syntax-ns#"
   xmlns:svg="http://www.w3.org/2000/svg"
   xmlns="http://www.w3.org/2000/svg"
   xmlns:sodipodi="http://sodipodi.sourceforge.net/DTD/sodipodi-0.dtd"
   xmlns:inkscape="http://www.inkscape.org/namespaces/inkscape"
   width="400.21255"
   height="400.21921"
   id="svg5321"
   version="1.1"
   inkscape:version="0.47 r22583"
   sodipodi:docname="Denmark road sign C22.2.svg">
  <defs
     id="defs5323">
    <inkscape:perspective
       sodipodi:type="inkscape:persp3d"
       inkscape:vp_x="0 : 526.18109 : 1"
       inkscape:vp_y="0 : 1000 : 0"
       inkscape:vp_z="744.09448 : 526.18109 : 1"
       inkscape:persp3d-origin="372.04724 : 350.78739 : 1"
       id="perspective5329" />
    <inkscape:perspective
       id="perspective5339"
       inkscape:persp3d-origin="0.5 : 0.33333333 : 1"
       inkscape:vp_z="1 : 0.5 : 1"
       inkscape:vp_y="0 : 1000 : 0"
       inkscape:vp_x="0 : 0.5 : 1"
       sodipodi:type="inkscape:persp3d" />
    <clipPath
       clipPathUnits="userSpaceOnUse"
       id="clipPath4202">
      <path
         d="m 20.045,731.714 42.114,0 0,37.012 -42.114,0 0,-37.012 z"
         id="path4204" />
    </clipPath>
    <inkscape:perspective
       id="perspective5396"
       inkscape:persp3d-origin="425 : 140 : 1"
       inkscape:vp_z="850 : 210 : 1"
       inkscape:vp_y="0 : 1000 : 0"
       inkscape:vp_x="0 : 210 : 1"
       sodipodi:type="inkscape:persp3d" />
    <inkscape:perspective
       id="perspective5429"
       inkscape:persp3d-origin="0.5 : 0.33333333 : 1"
       inkscape:vp_z="1 : 0.5 : 1"
       inkscape:vp_y="0 : 1000 : 0"
       inkscape:vp_x="0 : 0.5 : 1"
       sodipodi:type="inkscape:persp3d" />
    <clipPath
       clipPathUnits="userSpaceOnUse"
       id="clipPath2840">
      <path
         d="m 77.057,731.714 42.114,0 0,37.012 -42.114,0 0,-37.012 z"
         id="path2842" />
    </clipPath>
    <inkscape:perspective
       id="perspective5499"
       inkscape:persp3d-origin="0.5 : 0.33333333 : 1"
       inkscape:vp_z="1 : 0.5 : 1"
       inkscape:vp_y="0 : 1000 : 0"
       inkscape:vp_x="0 : 0.5 : 1"
       sodipodi:type="inkscape:persp3d" />
    <clipPath
       clipPathUnits="userSpaceOnUse"
       id="clipPath3036">
      <path
         d="m 134.072,731.751 42.114,0 0,36.975 -42.114,0 0,-36.975 z"
         id="path3038" />
    </clipPath>
    <inkscape:perspective
       id="perspective5621"
       inkscape:persp3d-origin="0.5 : 0.33333333 : 1"
       inkscape:vp_z="1 : 0.5 : 1"
       inkscape:vp_y="0 : 1000 : 0"
       inkscape:vp_x="0 : 0.5 : 1"
       sodipodi:type="inkscape:persp3d" />
    <clipPath
       clipPathUnits="userSpaceOnUse"
       id="clipPath2952">
      <path
         d="m 191.084,731.751 42.113,0 0,36.975 -42.113,0 0,-36.975 z"
         id="path2954" />
    </clipPath>
    <clipPath
       clipPathUnits="userSpaceOnUse"
       id="clipPath2936">
      <path
         d="m 191.084,731.751 42.113,0 0,36.975 -42.113,0 0,-36.975 z"
         id="path2938" />
    </clipPath>
    <inkscape:perspective
       id="perspective5694"
       inkscape:persp3d-origin="0.5 : 0.33333333 : 1"
       inkscape:vp_z="1 : 0.5 : 1"
       inkscape:vp_y="0 : 1000 : 0"
       inkscape:vp_x="0 : 0.5 : 1"
       sodipodi:type="inkscape:persp3d" />
    <inkscape:perspective
       inkscape:vp_x="0 : 226.5 : 1"
       inkscape:vp_y="0 : 1000 : 0"
       inkscape:vp_z="510 : 226.5 : 1"
       inkscape:persp3d-origin="255 : 151 : 1"
       id="perspective18"
       sodipodi:type="inkscape:persp3d" />
    <inkscape:perspective
       id="perspective5722"
       inkscape:persp3d-origin="0.5 : 0.33333333 : 1"
       inkscape:vp_z="1 : 0.5 : 1"
       inkscape:vp_y="0 : 1000 : 0"
       inkscape:vp_x="0 : 0.5 : 1"
       sodipodi:type="inkscape:persp3d" />
    <clipPath
       clipPathUnits="userSpaceOnUse"
       id="clipPath3216">
      <path
         d="m 248.098,731.74 42.114,0 0,36.986 -42.114,0 0,-36.986 z"
         id="path3218" />
    </clipPath>
    <inkscape:perspective
       id="perspective5860"
       inkscape:persp3d-origin="0.5 : 0.33333333 : 1"
       inkscape:vp_z="1 : 0.5 : 1"
       inkscape:vp_y="0 : 1000 : 0"
       inkscape:vp_x="0 : 0.5 : 1"
       sodipodi:type="inkscape:persp3d" />
    <clipPath
       clipPathUnits="userSpaceOnUse"
       id="clipPath2880">
      <path
         d="m 305.111,731.751 42.114,0 0,36.975 -42.114,0 0,-36.975 z"
         id="path2882" />
    </clipPath>
    <inkscape:perspective
       id="perspective5456"
       inkscape:persp3d-origin="0.5 : 0.33333333 : 1"
       inkscape:vp_z="1 : 0.5 : 1"
       inkscape:vp_y="0 : 1000 : 0"
       inkscape:vp_x="0 : 0.5 : 1"
       sodipodi:type="inkscape:persp3d" />
    <clipPath
       clipPathUnits="userSpaceOnUse"
       id="clipPath3316">
      <path
         d="m 77.057,409.341 42.114,0 0,42.114 -42.114,0 0,-42.114 z"
         id="path3318" />
    </clipPath>
    <inkscape:perspective
       id="perspective6307"
       inkscape:persp3d-origin="0.5 : 0.33333333 : 1"
       inkscape:vp_z="1 : 0.5 : 1"
       inkscape:vp_y="0 : 1000 : 0"
       inkscape:vp_x="0 : 0.5 : 1"
       sodipodi:type="inkscape:persp3d" />
    <clipPath
       clipPathUnits="userSpaceOnUse"
       id="clipPath3802">
      <path
         d="m 134.072,409.341 42.114,0 0,56.174 -42.114,0 0,-56.174 z"
         id="path3804" />
    </clipPath>
    <inkscape:perspective
       id="perspective6372"
       inkscape:persp3d-origin="0.5 : 0.33333333 : 1"
       inkscape:vp_z="1 : 0.5 : 1"
       inkscape:vp_y="0 : 1000 : 0"
       inkscape:vp_x="0 : 0.5 : 1"
       sodipodi:type="inkscape:persp3d" />
    <clipPath
       clipPathUnits="userSpaceOnUse"
       id="clipPath3564">
      <path
         d="m 191.084,409.341 42.113,0 0,42.113 -42.113,0 0,-42.113 z"
         id="path3566" />
    </clipPath>
    <inkscape:perspective
       id="perspective6525"
       inkscape:persp3d-origin="0.5 : 0.33333333 : 1"
       inkscape:vp_z="1 : 0.5 : 1"
       inkscape:vp_y="0 : 1000 : 0"
       inkscape:vp_x="0 : 0.5 : 1"
       sodipodi:type="inkscape:persp3d" />
    <clipPath
       clipPathUnits="userSpaceOnUse"
       id="clipPath3420">
      <path
         d="m 305.125,409.34 42.114,0 0,42.114 -42.114,0 0,-42.114 z"
         id="path3422" />
    </clipPath>
    <inkscape:perspective
       id="perspective6601"
       inkscape:persp3d-origin="0.5 : 0.33333333 : 1"
       inkscape:vp_z="1 : 0.5 : 1"
       inkscape:vp_y="0 : 1000 : 0"
       inkscape:vp_x="0 : 0.5 : 1"
       sodipodi:type="inkscape:persp3d" />
    <clipPath
       clipPathUnits="userSpaceOnUse"
       id="clipPath3822">
      <path
         d="m 362.126,409.341 42.114,0 0,42.114 -42.114,0 0,-42.114 z"
         id="path3824" />
    </clipPath>
    <inkscape:perspective
       id="perspective6677"
       inkscape:persp3d-origin="0.5 : 0.33333333 : 1"
       inkscape:vp_z="1 : 0.5 : 1"
       inkscape:vp_y="0 : 1000 : 0"
       inkscape:vp_x="0 : 0.5 : 1"
       sodipodi:type="inkscape:persp3d" />
    <inkscape:perspective
       id="perspective6691"
       inkscape:persp3d-origin="0.5 : 0.33333333 : 1"
       inkscape:vp_z="1 : 0.5 : 1"
       inkscape:vp_y="0 : 1000 : 0"
       inkscape:vp_x="0 : 0.5 : 1"
       sodipodi:type="inkscape:persp3d" />
    <clipPath
       clipPathUnits="userSpaceOnUse"
       id="clipPath4098">
      <path
         d="m 20.045,328.96 42.113,0 0,42.115 -42.113,0 0,-42.115 z"
         id="path4100" />
    </clipPath>
    <inkscape:perspective
       id="perspective6753"
       inkscape:persp3d-origin="0.5 : 0.33333333 : 1"
       inkscape:vp_z="1 : 0.5 : 1"
       inkscape:vp_y="0 : 1000 : 0"
       inkscape:vp_x="0 : 0.5 : 1"
       sodipodi:type="inkscape:persp3d" />
    <clipPath
       clipPathUnits="userSpaceOnUse"
       id="clipPath3336">
      <path
         d="m 77.057,328.96 42.114,0 0,42.115 -42.114,0 0,-42.115 z"
         id="path3338" />
    </clipPath>
    <inkscape:perspective
       id="perspective6818"
       inkscape:persp3d-origin="0.5 : 0.33333333 : 1"
       inkscape:vp_z="1 : 0.5 : 1"
       inkscape:vp_y="0 : 1000 : 0"
       inkscape:vp_x="0 : 0.5 : 1"
       sodipodi:type="inkscape:persp3d" />
    <clipPath
       clipPathUnits="userSpaceOnUse"
       id="clipPath3692">
      <path
         d="m 134.072,328.96 42.114,0 0,42.115 -42.114,0 0,-42.115 z"
         id="path3694" />
    </clipPath>
    <inkscape:perspective
       id="perspective6883"
       inkscape:persp3d-origin="0.5 : 0.33333333 : 1"
       inkscape:vp_z="1 : 0.5 : 1"
       inkscape:vp_y="0 : 1000 : 0"
       inkscape:vp_x="0 : 0.5 : 1"
       sodipodi:type="inkscape:persp3d" />
    <clipPath
       clipPathUnits="userSpaceOnUse"
       id="clipPath3584">
      <path
         d="m 191.084,328.96 42.113,0 0,42.115 -42.113,0 0,-42.115 z"
         id="path3586" />
    </clipPath>
    <inkscape:perspective
       id="perspective6989"
       inkscape:persp3d-origin="0.5 : 0.33333333 : 1"
       inkscape:vp_z="1 : 0.5 : 1"
       inkscape:vp_y="0 : 1000 : 0"
       inkscape:vp_x="0 : 0.5 : 1"
       sodipodi:type="inkscape:persp3d" />
    <clipPath
       clipPathUnits="userSpaceOnUse"
       id="clipPath3444">
      <path
         d="m 305.111,328.96 42.114,0 0,42.115 -42.114,0 0,-42.115 z"
         id="path3446" />
    </clipPath>
    <inkscape:perspective
       id="perspective7051"
       inkscape:persp3d-origin="0.5 : 0.33333333 : 1"
       inkscape:vp_z="1 : 0.5 : 1"
       inkscape:vp_y="0 : 1000 : 0"
       inkscape:vp_x="0 : 0.5 : 1"
       sodipodi:type="inkscape:persp3d" />
    <clipPath
       clipPathUnits="userSpaceOnUse"
       id="clipPath3846">
      <path
         d="m 362.126,328.96 42.114,0 0,42.115 -42.114,0 0,-42.115 z"
         id="path3848" />
    </clipPath>
    <inkscape:perspective
       id="perspective7113"
       inkscape:persp3d-origin="0.5 : 0.33333333 : 1"
       inkscape:vp_z="1 : 0.5 : 1"
       inkscape:vp_y="0 : 1000 : 0"
       inkscape:vp_x="0 : 0.5 : 1"
       sodipodi:type="inkscape:persp3d" />
    <clipPath
       clipPathUnits="userSpaceOnUse"
       id="clipPath4158">
      <path
         d="m 419.139,328.96 42.114,0 0,42.115 -42.114,0 0,-42.115 z"
         id="path4160" />
    </clipPath>
  </defs>
  <sodipodi:namedview
     id="base"
     pagecolor="#ffffff"
     bordercolor="#666666"
     borderopacity="1.0"
     inkscape:pageopacity="0.0"
     inkscape:pageshadow="2"
     inkscape:zoom="0.7048968"
     inkscape:cx="352.99335"
     inkscape:cy="169.77139"
     inkscape:document-units="px"
     inkscape:current-layer="layer1"
     showgrid="false"
     inkscape:window-width="1600"
     inkscape:window-height="838"
     inkscape:window-x="-8"
     inkscape:window-y="-8"
     inkscape:window-maximized="1" />
  <metadata
     id="metadata5326">
    <rdf:RDF>
      <cc:Work
         rdf:about="">
        <dc:format>image/svg+xml</dc:format>
        <dc:type
           rdf:resource="http://purl.org/dc/dcmitype/StillImage" />
        <dc:title></dc:title>
      </cc:Work>
    </rdf:RDF>
  </metadata>
  <g
     inkscape:label="Livello 1"
     inkscape:groupmode="layer"
     id="layer1"
     transform="translate(-615.8778,-387.53298)">
    <g
       inkscape:label="Ebene 1"
       inkscape:groupmode="layer"
       transform="translate(-501.54702,586.32528)"
       id="layer1-0" />
    <g
       transform="matrix(4.517624,0,0,-4.517624,-1108.878,2421.7478)"
       id="g3560">
      <g
         id="g3562"
         clip-path="url(#clipPath3564)">
        <g
           id="g3568"
           transform="translate(192.0202,432.6087)">
          <path
             d="m 0,0 17.908,17.908 c 1.214,1.249 3.212,1.249 4.424,0 L 40.241,0 c 1.249,-1.213 1.249,-3.21 0,-4.423 L 22.332,-22.332 c -1.212,-1.248 -3.21,-1.248 -4.424,0 L 0,-4.423 C -1.248,-3.21 -1.248,-1.213 0,0"
             style="fill:#000000;fill-opacity:1;fill-rule:nonzero;stroke:none"
             id="path3570" />
        </g>
        <g
           id="g3572"
           transform="translate(193.1263,431.5029)">
          <path
             d="m 0,0 17.908,17.908 c 0.606,0.607 1.57,0.607 2.212,0 L 38.029,0 c 0.606,-0.607 0.606,-1.605 0,-2.212 L 20.12,-20.12 c -0.642,-0.607 -1.606,-0.607 -2.212,0 L 0,-2.212 C -0.607,-1.605 -0.607,-0.607 0,0"
             style="fill:#ffffff;fill-opacity:1;fill-rule:nonzero;stroke:none"
             id="path3574" />
        </g>
        <g
           id="g3576"
           transform="translate(197.6212,430.3971)">
          <path
             d="M 0,0 14.52,14.519 29.039,0 14.52,-14.519 0,0 z"
             style="fill:#ffd520;fill-opacity:1;fill-rule:nonzero;stroke:none"
             id="path3578" />
        </g>
      </g>
    </g>
    <g
       id="g4102"
       transform="matrix(9.5032346,0,0,-9.5032346,615.88065,587.64259)">
      <path
         d="m 0,0 c 0,11.635 9.422,21.057 21.057,21.057 11.634,0 21.056,-9.422 21.056,-21.057 0,-11.635 -9.422,-21.057 -21.056,-21.057 C 9.422,-21.057 0,-11.635 0,0"
         style="fill:#ffffff;fill-opacity:1;fill-rule:nonzero;stroke:none"
         id="path4104" />
    </g>
    <g
       id="g4110"
       transform="matrix(9.5032346,0,0,-9.5032346,702.36674,492.00012)"
       style="fill:#ed171f;fill-opacity:1">
      <path
         d="m 0,0 c -2.32,-2.748 -3.676,-6.246 -3.676,-10.064 0,-8.637 6.995,-15.632 15.632,-15.632 3.819,0 7.352,1.356 10.064,3.676 L 0,0 z m 23.912,-20.093 c 2.319,2.713 3.676,6.21 3.676,10.029 0,8.636 -6.995,15.632 -15.632,15.632 C 8.137,5.568 4.64,4.212 1.892,1.892 l 22.02,-21.985 z m -33.013,10.029 c 0,11.635 9.422,21.056 21.057,21.056 11.634,0 21.056,-9.421 21.056,-21.056 0,-11.635 -9.422,-21.057 -21.056,-21.057 -11.635,0 -21.057,9.422 -21.057,21.057"
         style="fill:#ed171f;fill-opacity:1;fill-rule:nonzero;stroke:none"
         id="path4112" />
    </g>
    <g
       id="g4170"
       transform="matrix(9.5367672,0,0,-9.5367672,767.79938,627.47264)">
      <path
         d="m 0,0 c -0.214,0 -0.356,0.142 -0.356,0.356 l 0,10.492 c 0,0.178 0.142,0.356 0.356,0.356 l 17.394,0 c 0.212,0 0.355,-0.178 0.355,-0.356 l 0,-10.492 C 17.749,0.142 17.606,0 17.394,0 L 0,0 z m 7.612,-5.229 c -1.245,0 -2.277,0.996 -2.277,2.241 0,1.245 1.032,2.241 2.277,2.241 1.209,0 2.241,-0.996 2.241,-2.241 0,-1.245 -1.032,-2.241 -2.241,-2.241 m 5.264,0 c -1.245,0 -2.241,0.996 -2.241,2.241 0,1.245 0.996,2.241 2.241,2.241 1.245,0 2.241,-0.996 2.241,-2.241 0,-1.245 -0.996,-2.241 -2.241,-2.241 M -3.379,-5.264 c 1.245,0 2.24,0.996 2.24,2.24 0,1.246 -0.995,2.241 -2.24,2.241 -1.245,0 -2.241,-0.995 -2.241,-2.241 0,-1.244 0.996,-2.24 2.241,-2.24 m 3.237,2.312 c -0.107,0 -0.178,0.071 -0.178,0.142 l 0,1.92 c 0,0.072 0.071,0.143 0.178,0.143 l 4.731,0 c 0.106,0 0.177,-0.071 0.177,-0.143 l 0,-1.92 c 0,-0.071 -0.071,-0.142 -0.177,-0.142 l -4.731,0 z m -2.917,6.616 c 0.107,0 0.213,0.106 0.213,0.213 l 0,3.201 c 0,0.107 -0.07,0.178 -0.178,0.178 l -2.951,0 c -0.107,0 -0.179,-0.071 -0.214,-0.178 L -7.042,3.877 c 0,-0.107 0.07,-0.213 0.177,-0.213 l 3.806,0 z M -3.201,0 c -0.427,0 -0.64,0 -0.925,-0.071 -0.64,-0.143 -1.103,-0.428 -1.458,-0.819 -0.498,-0.533 -0.747,-1.244 -0.783,-2.062 l -0.854,0 c -0.533,0 -0.782,0.391 -0.782,0.782 l 0,5.549 0,0.285 c 0,0.177 0.036,0.284 0.036,0.284 l 1.031,3.806 c 0.071,0.32 0.32,0.498 0.605,0.498 l 4.801,0 c 0.179,0 0.321,-0.178 0.321,-0.356 l 0,-7.54 C -1.209,0.142 -1.351,0 -1.53,0 l -1.671,0 z"
         style="fill:#000000;fill-opacity:1;fill-rule:nonzero;stroke:none"
         id="path4172" />
    </g>
  </g>
</svg>
