<?xml version="1.0" encoding="UTF-8" standalone="no"?>
<!-- Created with Inkscape (http://www.inkscape.org/) -->

<svg
   xmlns:dc="http://purl.org/dc/elements/1.1/"
   xmlns:cc="http://creativecommons.org/ns#"
   xmlns:rdf="http://www.w3.org/1999/02/22-rdf-syntax-ns#"
   xmlns:svg="http://www.w3.org/2000/svg"
   xmlns="http://www.w3.org/2000/svg"
   xmlns:sodipodi="http://sodipodi.sourceforge.net/DTD/sodipodi-0.dtd"
   xmlns:inkscape="http://www.inkscape.org/namespaces/inkscape"
   width="400.80475"
   height="400.80478"
   id="svg5321"
   version="1.1"
   inkscape:version="0.47 r22583"
   sodipodi:docname="Denmark road sign C52.svg">
  <defs
     id="defs5323">
    <inkscape:perspective
       sodipodi:type="inkscape:persp3d"
       inkscape:vp_x="0 : 526.18109 : 1"
       inkscape:vp_y="0 : 1000 : 0"
       inkscape:vp_z="744.09448 : 526.18109 : 1"
       inkscape:persp3d-origin="372.04724 : 350.78739 : 1"
       id="perspective5329" />
    <inkscape:perspective
       id="perspective5339"
       inkscape:persp3d-origin="0.5 : 0.33333333 : 1"
       inkscape:vp_z="1 : 0.5 : 1"
       inkscape:vp_y="0 : 1000 : 0"
       inkscape:vp_x="0 : 0.5 : 1"
       sodipodi:type="inkscape:persp3d" />
    <clipPath
       clipPathUnits="userSpaceOnUse"
       id="clipPath4202">
      <path
         d="m 20.045,731.714 42.114,0 0,37.012 -42.114,0 0,-37.012 z"
         id="path4204" />
    </clipPath>
    <inkscape:perspective
       id="perspective5396"
       inkscape:persp3d-origin="425 : 140 : 1"
       inkscape:vp_z="850 : 210 : 1"
       inkscape:vp_y="0 : 1000 : 0"
       inkscape:vp_x="0 : 210 : 1"
       sodipodi:type="inkscape:persp3d" />
    <inkscape:perspective
       id="perspective5429"
       inkscape:persp3d-origin="0.5 : 0.33333333 : 1"
       inkscape:vp_z="1 : 0.5 : 1"
       inkscape:vp_y="0 : 1000 : 0"
       inkscape:vp_x="0 : 0.5 : 1"
       sodipodi:type="inkscape:persp3d" />
    <clipPath
       clipPathUnits="userSpaceOnUse"
       id="clipPath2840">
      <path
         d="m 77.057,731.714 42.114,0 0,37.012 -42.114,0 0,-37.012 z"
         id="path2842" />
    </clipPath>
    <inkscape:perspective
       id="perspective5499"
       inkscape:persp3d-origin="0.5 : 0.33333333 : 1"
       inkscape:vp_z="1 : 0.5 : 1"
       inkscape:vp_y="0 : 1000 : 0"
       inkscape:vp_x="0 : 0.5 : 1"
       sodipodi:type="inkscape:persp3d" />
    <clipPath
       clipPathUnits="userSpaceOnUse"
       id="clipPath3036">
      <path
         d="m 134.072,731.751 42.114,0 0,36.975 -42.114,0 0,-36.975 z"
         id="path3038" />
    </clipPath>
    <inkscape:perspective
       id="perspective5621"
       inkscape:persp3d-origin="0.5 : 0.33333333 : 1"
       inkscape:vp_z="1 : 0.5 : 1"
       inkscape:vp_y="0 : 1000 : 0"
       inkscape:vp_x="0 : 0.5 : 1"
       sodipodi:type="inkscape:persp3d" />
    <clipPath
       clipPathUnits="userSpaceOnUse"
       id="clipPath2952">
      <path
         d="m 191.084,731.751 42.113,0 0,36.975 -42.113,0 0,-36.975 z"
         id="path2954" />
    </clipPath>
    <clipPath
       clipPathUnits="userSpaceOnUse"
       id="clipPath2936">
      <path
         d="m 191.084,731.751 42.113,0 0,36.975 -42.113,0 0,-36.975 z"
         id="path2938" />
    </clipPath>
    <inkscape:perspective
       id="perspective5694"
       inkscape:persp3d-origin="0.5 : 0.33333333 : 1"
       inkscape:vp_z="1 : 0.5 : 1"
       inkscape:vp_y="0 : 1000 : 0"
       inkscape:vp_x="0 : 0.5 : 1"
       sodipodi:type="inkscape:persp3d" />
    <inkscape:perspective
       inkscape:vp_x="0 : 226.5 : 1"
       inkscape:vp_y="0 : 1000 : 0"
       inkscape:vp_z="510 : 226.5 : 1"
       inkscape:persp3d-origin="255 : 151 : 1"
       id="perspective18"
       sodipodi:type="inkscape:persp3d" />
    <inkscape:perspective
       id="perspective5722"
       inkscape:persp3d-origin="0.5 : 0.33333333 : 1"
       inkscape:vp_z="1 : 0.5 : 1"
       inkscape:vp_y="0 : 1000 : 0"
       inkscape:vp_x="0 : 0.5 : 1"
       sodipodi:type="inkscape:persp3d" />
    <clipPath
       clipPathUnits="userSpaceOnUse"
       id="clipPath3216">
      <path
         d="m 248.098,731.74 42.114,0 0,36.986 -42.114,0 0,-36.986 z"
         id="path3218" />
    </clipPath>
    <inkscape:perspective
       id="perspective5860"
       inkscape:persp3d-origin="0.5 : 0.33333333 : 1"
       inkscape:vp_z="1 : 0.5 : 1"
       inkscape:vp_y="0 : 1000 : 0"
       inkscape:vp_x="0 : 0.5 : 1"
       sodipodi:type="inkscape:persp3d" />
    <clipPath
       clipPathUnits="userSpaceOnUse"
       id="clipPath2880">
      <path
         d="m 305.111,731.751 42.114,0 0,36.975 -42.114,0 0,-36.975 z"
         id="path2882" />
    </clipPath>
    <inkscape:perspective
       id="perspective5456"
       inkscape:persp3d-origin="0.5 : 0.33333333 : 1"
       inkscape:vp_z="1 : 0.5 : 1"
       inkscape:vp_y="0 : 1000 : 0"
       inkscape:vp_x="0 : 0.5 : 1"
       sodipodi:type="inkscape:persp3d" />
    <clipPath
       clipPathUnits="userSpaceOnUse"
       id="clipPath3316">
      <path
         d="m 77.057,409.341 42.114,0 0,42.114 -42.114,0 0,-42.114 z"
         id="path3318" />
    </clipPath>
    <inkscape:perspective
       id="perspective6307"
       inkscape:persp3d-origin="0.5 : 0.33333333 : 1"
       inkscape:vp_z="1 : 0.5 : 1"
       inkscape:vp_y="0 : 1000 : 0"
       inkscape:vp_x="0 : 0.5 : 1"
       sodipodi:type="inkscape:persp3d" />
    <clipPath
       clipPathUnits="userSpaceOnUse"
       id="clipPath3802">
      <path
         d="m 134.072,409.341 42.114,0 0,56.174 -42.114,0 0,-56.174 z"
         id="path3804" />
    </clipPath>
    <inkscape:perspective
       id="perspective6372"
       inkscape:persp3d-origin="0.5 : 0.33333333 : 1"
       inkscape:vp_z="1 : 0.5 : 1"
       inkscape:vp_y="0 : 1000 : 0"
       inkscape:vp_x="0 : 0.5 : 1"
       sodipodi:type="inkscape:persp3d" />
    <clipPath
       clipPathUnits="userSpaceOnUse"
       id="clipPath3564">
      <path
         d="m 191.084,409.341 42.113,0 0,42.113 -42.113,0 0,-42.113 z"
         id="path3566" />
    </clipPath>
    <inkscape:perspective
       id="perspective6525"
       inkscape:persp3d-origin="0.5 : 0.33333333 : 1"
       inkscape:vp_z="1 : 0.5 : 1"
       inkscape:vp_y="0 : 1000 : 0"
       inkscape:vp_x="0 : 0.5 : 1"
       sodipodi:type="inkscape:persp3d" />
    <clipPath
       clipPathUnits="userSpaceOnUse"
       id="clipPath3420">
      <path
         d="m 305.125,409.34 42.114,0 0,42.114 -42.114,0 0,-42.114 z"
         id="path3422" />
    </clipPath>
    <inkscape:perspective
       id="perspective6601"
       inkscape:persp3d-origin="0.5 : 0.33333333 : 1"
       inkscape:vp_z="1 : 0.5 : 1"
       inkscape:vp_y="0 : 1000 : 0"
       inkscape:vp_x="0 : 0.5 : 1"
       sodipodi:type="inkscape:persp3d" />
    <clipPath
       clipPathUnits="userSpaceOnUse"
       id="clipPath3822">
      <path
         d="m 362.126,409.341 42.114,0 0,42.114 -42.114,0 0,-42.114 z"
         id="path3824" />
    </clipPath>
    <inkscape:perspective
       id="perspective6677"
       inkscape:persp3d-origin="0.5 : 0.33333333 : 1"
       inkscape:vp_z="1 : 0.5 : 1"
       inkscape:vp_y="0 : 1000 : 0"
       inkscape:vp_x="0 : 0.5 : 1"
       sodipodi:type="inkscape:persp3d" />
    <inkscape:perspective
       id="perspective6691"
       inkscape:persp3d-origin="0.5 : 0.33333333 : 1"
       inkscape:vp_z="1 : 0.5 : 1"
       inkscape:vp_y="0 : 1000 : 0"
       inkscape:vp_x="0 : 0.5 : 1"
       sodipodi:type="inkscape:persp3d" />
    <clipPath
       clipPathUnits="userSpaceOnUse"
       id="clipPath4098">
      <path
         d="m 20.045,328.96 42.113,0 0,42.115 -42.113,0 0,-42.115 z"
         id="path4100" />
    </clipPath>
    <inkscape:perspective
       id="perspective6753"
       inkscape:persp3d-origin="0.5 : 0.33333333 : 1"
       inkscape:vp_z="1 : 0.5 : 1"
       inkscape:vp_y="0 : 1000 : 0"
       inkscape:vp_x="0 : 0.5 : 1"
       sodipodi:type="inkscape:persp3d" />
    <clipPath
       clipPathUnits="userSpaceOnUse"
       id="clipPath3336">
      <path
         d="m 77.057,328.96 42.114,0 0,42.115 -42.114,0 0,-42.115 z"
         id="path3338" />
    </clipPath>
    <inkscape:perspective
       id="perspective6818"
       inkscape:persp3d-origin="0.5 : 0.33333333 : 1"
       inkscape:vp_z="1 : 0.5 : 1"
       inkscape:vp_y="0 : 1000 : 0"
       inkscape:vp_x="0 : 0.5 : 1"
       sodipodi:type="inkscape:persp3d" />
    <clipPath
       clipPathUnits="userSpaceOnUse"
       id="clipPath3692">
      <path
         d="m 134.072,328.96 42.114,0 0,42.115 -42.114,0 0,-42.115 z"
         id="path3694" />
    </clipPath>
    <inkscape:perspective
       id="perspective6883"
       inkscape:persp3d-origin="0.5 : 0.33333333 : 1"
       inkscape:vp_z="1 : 0.5 : 1"
       inkscape:vp_y="0 : 1000 : 0"
       inkscape:vp_x="0 : 0.5 : 1"
       sodipodi:type="inkscape:persp3d" />
    <clipPath
       clipPathUnits="userSpaceOnUse"
       id="clipPath3584">
      <path
         d="m 191.084,328.96 42.113,0 0,42.115 -42.113,0 0,-42.115 z"
         id="path3586" />
    </clipPath>
    <inkscape:perspective
       id="perspective6937"
       inkscape:persp3d-origin="0.5 : 0.33333333 : 1"
       inkscape:vp_z="1 : 0.5 : 1"
       inkscape:vp_y="0 : 1000 : 0"
       inkscape:vp_x="0 : 0.5 : 1"
       sodipodi:type="inkscape:persp3d" />
    <clipPath
       clipPathUnits="userSpaceOnUse"
       id="clipPath3990">
      <path
         d="m 248.098,328.96 42.114,0 0,42.115 -42.114,0 0,-42.115 z"
         id="path3992" />
    </clipPath>
    <inkscape:perspective
       id="perspective5685"
       inkscape:persp3d-origin="0.5 : 0.33333333 : 1"
       inkscape:vp_z="1 : 0.5 : 1"
       inkscape:vp_y="0 : 1000 : 0"
       inkscape:vp_x="0 : 0.5 : 1"
       sodipodi:type="inkscape:persp3d" />
    <clipPath
       clipPathUnits="userSpaceOnUse"
       id="clipPath4006">
      <path
         d="m 20.046,204.305 42.114,0 0,42.47 -42.114,0 0,-42.47 z"
         id="path4008" />
    </clipPath>
    <inkscape:perspective
       id="perspective5747"
       inkscape:persp3d-origin="0.5 : 0.33333333 : 1"
       inkscape:vp_z="1 : 0.5 : 1"
       inkscape:vp_y="0 : 1000 : 0"
       inkscape:vp_x="0 : 0.5 : 1"
       sodipodi:type="inkscape:persp3d" />
    <clipPath
       clipPathUnits="userSpaceOnUse"
       id="clipPath3464">
      <path
         d="m 77.053,204.662 42.113,0 0,42.114 -42.113,0 0,-42.114 z"
         id="path3466" />
    </clipPath>
    <inkscape:perspective
       id="perspective5809"
       inkscape:persp3d-origin="0.5 : 0.33333333 : 1"
       inkscape:vp_z="1 : 0.5 : 1"
       inkscape:vp_y="0 : 1000 : 0"
       inkscape:vp_x="0 : 0.5 : 1"
       sodipodi:type="inkscape:persp3d" />
    <clipPath
       clipPathUnits="userSpaceOnUse"
       id="clipPath3866">
      <path
         d="m 134.068,204.642 42.114,0 0,42.115 -42.114,0 0,-42.115 z"
         id="path3868" />
    </clipPath>
    <inkscape:perspective
       id="perspective5881"
       inkscape:persp3d-origin="0.5 : 0.33333333 : 1"
       inkscape:vp_z="1 : 0.5 : 1"
       inkscape:vp_y="0 : 1000 : 0"
       inkscape:vp_x="0 : 0.5 : 1"
       sodipodi:type="inkscape:persp3d" />
    <clipPath
       clipPathUnits="userSpaceOnUse"
       id="clipPath4178">
      <path
         d="m 191.081,204.642 42.114,0 0,42.115 -42.114,0 0,-42.115 z"
         id="path4180" />
    </clipPath>
    <inkscape:perspective
       id="perspective5953"
       inkscape:persp3d-origin="0.5 : 0.33333333 : 1"
       inkscape:vp_z="1 : 0.5 : 1"
       inkscape:vp_y="0 : 1000 : 0"
       inkscape:vp_x="0 : 0.5 : 1"
       sodipodi:type="inkscape:persp3d" />
    <clipPath
       clipPathUnits="userSpaceOnUse"
       id="clipPath3400">
      <path
         d="m 248.093,204.642 42.114,0 0,42.115 -42.114,0 0,-42.115 z"
         id="path3402" />
    </clipPath>
    <inkscape:perspective
       id="perspective6016"
       inkscape:persp3d-origin="0.5 : 0.33333333 : 1"
       inkscape:vp_z="1 : 0.5 : 1"
       inkscape:vp_y="0 : 1000 : 0"
       inkscape:vp_x="0 : 0.5 : 1"
       sodipodi:type="inkscape:persp3d" />
    <clipPath
       clipPathUnits="userSpaceOnUse"
       id="clipPath3778">
      <path
         d="m 305.108,204.642 42.114,0 0,42.115 -42.114,0 0,-42.115 z"
         id="path3780" />
    </clipPath>
  </defs>
  <sodipodi:namedview
     id="base"
     pagecolor="#ffffff"
     bordercolor="#666666"
     borderopacity="1.0"
     inkscape:pageopacity="0.0"
     inkscape:pageshadow="2"
     inkscape:zoom="1.1896297"
     inkscape:cx="6.5911721"
     inkscape:cy="171.70453"
     inkscape:document-units="px"
     inkscape:current-layer="layer1"
     showgrid="false"
     inkscape:window-width="1600"
     inkscape:window-height="838"
     inkscape:window-x="-8"
     inkscape:window-y="-8"
     inkscape:window-maximized="1" />
  <metadata
     id="metadata5326">
    <rdf:RDF>
      <cc:Work
         rdf:about="">
        <dc:format>image/svg+xml</dc:format>
        <dc:type
           rdf:resource="http://purl.org/dc/dcmitype/StillImage" />
        <dc:title></dc:title>
      </cc:Work>
    </rdf:RDF>
  </metadata>
  <g
     inkscape:label="Livello 1"
     inkscape:groupmode="layer"
     id="layer1"
     transform="translate(-624.11514,-391.90953)">
    <g
       inkscape:label="Ebene 1"
       inkscape:groupmode="layer"
       transform="translate(-501.54702,586.32528)"
       id="layer1-0" />
    <g
       transform="matrix(4.517624,0,0,-4.517624,-1108.878,2421.7478)"
       id="g3560">
      <g
         id="g3562"
         clip-path="url(#clipPath3564)">
        <g
           id="g3568"
           transform="translate(192.0202,432.6087)">
          <path
             d="m 0,0 17.908,17.908 c 1.214,1.249 3.212,1.249 4.424,0 L 40.241,0 c 1.249,-1.213 1.249,-3.21 0,-4.423 L 22.332,-22.332 c -1.212,-1.248 -3.21,-1.248 -4.424,0 L 0,-4.423 C -1.248,-3.21 -1.248,-1.213 0,0"
             style="fill:#000000;fill-opacity:1;fill-rule:nonzero;stroke:none"
             id="path3570" />
        </g>
        <g
           id="g3572"
           transform="translate(193.1263,431.5029)">
          <path
             d="m 0,0 17.908,17.908 c 0.606,0.607 1.57,0.607 2.212,0 L 38.029,0 c 0.606,-0.607 0.606,-1.605 0,-2.212 L 20.12,-20.12 c -0.642,-0.607 -1.606,-0.607 -2.212,0 L 0,-2.212 C -0.607,-1.605 -0.607,-0.607 0,0"
             style="fill:#ffffff;fill-opacity:1;fill-rule:nonzero;stroke:none"
             id="path3574" />
        </g>
        <g
           id="g3576"
           transform="translate(197.6212,430.3971)">
          <path
             d="M 0,0 14.52,14.519 29.039,0 14.52,-14.519 0,0 z"
             style="fill:#ffd520;fill-opacity:1;fill-rule:nonzero;stroke:none"
             id="path3578" />
        </g>
      </g>
    </g>
    <path
       id="path3784"
       style="fill:#ffffff;fill-opacity:1;fill-rule:nonzero;stroke:#000000;stroke-width:1.5;stroke-miterlimit:4;stroke-opacity:1;stroke-dasharray:none"
       d="m 624.86514,592.31192 c 0,-110.28164 89.37075,-199.65239 199.65239,-199.65239 110.28164,0 199.65237,89.37075 199.65237,199.65239 0,110.28164 -89.37073,199.65239 -199.65237,199.65239 -110.28164,0 -199.65239,-89.37075 -199.65239,-199.65239" />
    <g
       id="g3786"
       transform="matrix(9.5135992,0,0,-9.5135992,797.8747,580.28933)">
      <path
         d="M 0,0 -0.921,2.198 C -0.957,2.34 -1.064,2.375 -1.17,2.375 l -7.196,0 C -8.508,2.375 -8.579,2.34 -8.65,2.198 L -9.536,0 0,0 z m -0.815,3.332 c 0.354,0 0.567,-0.141 0.708,-0.496 L 1.028,0 c 0.496,-0.035 0.816,-0.354 0.816,-0.851 l 0,-2.694 c 0,-0.496 -0.391,-0.851 -0.816,-0.851 l 0,-1.276 c 0,-0.284 -0.177,-0.461 -0.461,-0.461 l -0.993,0 c -0.283,0 -0.46,0.177 -0.46,0.461 l 0,1.276 -7.764,0 0,-1.276 c 0,-0.284 -0.177,-0.461 -0.461,-0.461 l -0.992,0 c -0.284,0 -0.461,0.177 -0.461,0.461 l 0,1.276 c -0.461,0 -0.815,0.355 -0.815,0.851 l 0,2.694 c 0,0.497 0.319,0.816 0.815,0.851 l 1.134,2.836 c 0.142,0.355 0.355,0.496 0.71,0.496 l 7.905,0 z M 15.136,0 14.25,2.198 C 14.18,2.34 14.109,2.375 13.967,2.375 l -7.197,0 C 6.664,2.375 6.558,2.34 6.523,2.198 L 5.601,0 15.136,0 z m -0.78,3.332 c 0.32,0 0.533,-0.177 0.674,-0.496 L 16.165,0 c 0.531,-0.035 0.815,-0.354 0.815,-0.851 l 0,-2.694 c 0,-0.496 -0.354,-0.851 -0.815,-0.851 l 0,-1.276 c 0,-0.284 -0.177,-0.461 -0.461,-0.461 l -0.957,0 c -0.319,0 -0.497,0.177 -0.497,0.461 l 0,1.276 -7.763,0 0,-1.276 c 0,-0.284 -0.177,-0.461 -0.461,-0.461 l -0.992,0 c -0.284,0 -0.461,0.177 -0.461,0.461 l 0,1.276 c -0.426,0 -0.816,0.355 -0.816,0.851 l 0,2.694 c 0,0.497 0.32,0.816 0.816,0.851 l 1.134,2.836 c 0.142,0.319 0.355,0.496 0.709,0.496 l 7.94,0 z"
         style="fill:#bcbec0;fill-opacity:1;fill-rule:nonzero;stroke:none"
         id="path3788" />
    </g>
    <path
       id="path3792"
       style="fill:none;stroke:#000000;stroke-width:0.17749998;stroke-linecap:butt;stroke-linejoin:miter;stroke-miterlimit:10;stroke-opacity:1;stroke-dasharray:none"
       d="m 624.86514,592.31192 c 0,-109.93915 89.37075,-199.65239 199.65239,-199.65239 110.28164,0 199.65237,89.71324 199.65237,199.65239 0,110.28164 -89.37073,199.65239 -199.65237,199.65239 -110.28164,0 -199.65239,-89.37075 -199.65239,-199.65239 z" />
    <g
       id="g3794"
       transform="matrix(9.5135992,0,0,-9.5135992,948.95921,436.5039)">
      <path
         d="M 0,0 C -0.248,0.213 -0.496,0.39 -0.638,0.496 L -29.955,-28.82 -29.458,-29.458 0,0 z m 3.297,-3.297 -29.458,-29.458 0.638,-0.496 29.316,29.316 c -0.106,0.142 -0.283,0.39 -0.496,0.638 m -2.269,2.411 -0.602,0.532 -29.529,-29.529 0.531,-0.603 29.6,29.6 z m 1.383,-1.383 -29.601,-29.6 0.567,-0.532 29.565,29.565 -0.531,0.567 z M 1.453,-1.276 C 1.737,-1.56 1.737,-1.56 2.021,-1.844 l -29.636,-29.635 c -0.213,0.213 -0.283,0.284 -0.567,0.567 L 1.453,-1.276 z"
         style="fill:#000000;fill-opacity:1;fill-rule:nonzero;stroke:none"
         id="path3796" />
    </g>
  </g>
</svg>
