<?xml version="1.0" encoding="UTF-8" standalone="no"?>
<!-- Created with Inkscape (http://www.inkscape.org/) -->

<svg
   xmlns:dc="http://purl.org/dc/elements/1.1/"
   xmlns:cc="http://creativecommons.org/ns#"
   xmlns:rdf="http://www.w3.org/1999/02/22-rdf-syntax-ns#"
   xmlns:svg="http://www.w3.org/2000/svg"
   xmlns="http://www.w3.org/2000/svg"
   xmlns:sodipodi="http://sodipodi.sourceforge.net/DTD/sodipodi-0.dtd"
   xmlns:inkscape="http://www.inkscape.org/namespaces/inkscape"
   width="401.63763"
   height="401.63763"
   id="svg5321"
   version="1.1"
   inkscape:version="0.47 r22583"
   sodipodi:docname="Denmark road sign C59.svg">
  <defs
     id="defs5323">
    <inkscape:perspective
       sodipodi:type="inkscape:persp3d"
       inkscape:vp_x="0 : 526.18109 : 1"
       inkscape:vp_y="0 : 1000 : 0"
       inkscape:vp_z="744.09448 : 526.18109 : 1"
       inkscape:persp3d-origin="372.04724 : 350.78739 : 1"
       id="perspective5329" />
    <inkscape:perspective
       id="perspective5339"
       inkscape:persp3d-origin="0.5 : 0.33333333 : 1"
       inkscape:vp_z="1 : 0.5 : 1"
       inkscape:vp_y="0 : 1000 : 0"
       inkscape:vp_x="0 : 0.5 : 1"
       sodipodi:type="inkscape:persp3d" />
    <clipPath
       clipPathUnits="userSpaceOnUse"
       id="clipPath4202">
      <path
         d="m 20.045,731.714 42.114,0 0,37.012 -42.114,0 0,-37.012 z"
         id="path4204" />
    </clipPath>
    <inkscape:perspective
       id="perspective5396"
       inkscape:persp3d-origin="425 : 140 : 1"
       inkscape:vp_z="850 : 210 : 1"
       inkscape:vp_y="0 : 1000 : 0"
       inkscape:vp_x="0 : 210 : 1"
       sodipodi:type="inkscape:persp3d" />
    <inkscape:perspective
       id="perspective5429"
       inkscape:persp3d-origin="0.5 : 0.33333333 : 1"
       inkscape:vp_z="1 : 0.5 : 1"
       inkscape:vp_y="0 : 1000 : 0"
       inkscape:vp_x="0 : 0.5 : 1"
       sodipodi:type="inkscape:persp3d" />
    <clipPath
       clipPathUnits="userSpaceOnUse"
       id="clipPath2840">
      <path
         d="m 77.057,731.714 42.114,0 0,37.012 -42.114,0 0,-37.012 z"
         id="path2842" />
    </clipPath>
    <inkscape:perspective
       id="perspective5499"
       inkscape:persp3d-origin="0.5 : 0.33333333 : 1"
       inkscape:vp_z="1 : 0.5 : 1"
       inkscape:vp_y="0 : 1000 : 0"
       inkscape:vp_x="0 : 0.5 : 1"
       sodipodi:type="inkscape:persp3d" />
    <clipPath
       clipPathUnits="userSpaceOnUse"
       id="clipPath3036">
      <path
         d="m 134.072,731.751 42.114,0 0,36.975 -42.114,0 0,-36.975 z"
         id="path3038" />
    </clipPath>
    <inkscape:perspective
       id="perspective5621"
       inkscape:persp3d-origin="0.5 : 0.33333333 : 1"
       inkscape:vp_z="1 : 0.5 : 1"
       inkscape:vp_y="0 : 1000 : 0"
       inkscape:vp_x="0 : 0.5 : 1"
       sodipodi:type="inkscape:persp3d" />
    <clipPath
       clipPathUnits="userSpaceOnUse"
       id="clipPath2952">
      <path
         d="m 191.084,731.751 42.113,0 0,36.975 -42.113,0 0,-36.975 z"
         id="path2954" />
    </clipPath>
    <clipPath
       clipPathUnits="userSpaceOnUse"
       id="clipPath2936">
      <path
         d="m 191.084,731.751 42.113,0 0,36.975 -42.113,0 0,-36.975 z"
         id="path2938" />
    </clipPath>
    <inkscape:perspective
       id="perspective5694"
       inkscape:persp3d-origin="0.5 : 0.33333333 : 1"
       inkscape:vp_z="1 : 0.5 : 1"
       inkscape:vp_y="0 : 1000 : 0"
       inkscape:vp_x="0 : 0.5 : 1"
       sodipodi:type="inkscape:persp3d" />
    <inkscape:perspective
       inkscape:vp_x="0 : 226.5 : 1"
       inkscape:vp_y="0 : 1000 : 0"
       inkscape:vp_z="510 : 226.5 : 1"
       inkscape:persp3d-origin="255 : 151 : 1"
       id="perspective18"
       sodipodi:type="inkscape:persp3d" />
    <inkscape:perspective
       id="perspective5722"
       inkscape:persp3d-origin="0.5 : 0.33333333 : 1"
       inkscape:vp_z="1 : 0.5 : 1"
       inkscape:vp_y="0 : 1000 : 0"
       inkscape:vp_x="0 : 0.5 : 1"
       sodipodi:type="inkscape:persp3d" />
    <clipPath
       clipPathUnits="userSpaceOnUse"
       id="clipPath3216">
      <path
         d="m 248.098,731.74 42.114,0 0,36.986 -42.114,0 0,-36.986 z"
         id="path3218" />
    </clipPath>
    <inkscape:perspective
       id="perspective5860"
       inkscape:persp3d-origin="0.5 : 0.33333333 : 1"
       inkscape:vp_z="1 : 0.5 : 1"
       inkscape:vp_y="0 : 1000 : 0"
       inkscape:vp_x="0 : 0.5 : 1"
       sodipodi:type="inkscape:persp3d" />
    <clipPath
       clipPathUnits="userSpaceOnUse"
       id="clipPath2880">
      <path
         d="m 305.111,731.751 42.114,0 0,36.975 -42.114,0 0,-36.975 z"
         id="path2882" />
    </clipPath>
    <inkscape:perspective
       id="perspective5456"
       inkscape:persp3d-origin="0.5 : 0.33333333 : 1"
       inkscape:vp_z="1 : 0.5 : 1"
       inkscape:vp_y="0 : 1000 : 0"
       inkscape:vp_x="0 : 0.5 : 1"
       sodipodi:type="inkscape:persp3d" />
    <clipPath
       clipPathUnits="userSpaceOnUse"
       id="clipPath3316">
      <path
         d="m 77.057,409.341 42.114,0 0,42.114 -42.114,0 0,-42.114 z"
         id="path3318" />
    </clipPath>
    <inkscape:perspective
       id="perspective6307"
       inkscape:persp3d-origin="0.5 : 0.33333333 : 1"
       inkscape:vp_z="1 : 0.5 : 1"
       inkscape:vp_y="0 : 1000 : 0"
       inkscape:vp_x="0 : 0.5 : 1"
       sodipodi:type="inkscape:persp3d" />
    <clipPath
       clipPathUnits="userSpaceOnUse"
       id="clipPath3802">
      <path
         d="m 134.072,409.341 42.114,0 0,56.174 -42.114,0 0,-56.174 z"
         id="path3804" />
    </clipPath>
    <inkscape:perspective
       id="perspective6372"
       inkscape:persp3d-origin="0.5 : 0.33333333 : 1"
       inkscape:vp_z="1 : 0.5 : 1"
       inkscape:vp_y="0 : 1000 : 0"
       inkscape:vp_x="0 : 0.5 : 1"
       sodipodi:type="inkscape:persp3d" />
    <clipPath
       clipPathUnits="userSpaceOnUse"
       id="clipPath3564">
      <path
         d="m 191.084,409.341 42.113,0 0,42.113 -42.113,0 0,-42.113 z"
         id="path3566" />
    </clipPath>
    <inkscape:perspective
       id="perspective6525"
       inkscape:persp3d-origin="0.5 : 0.33333333 : 1"
       inkscape:vp_z="1 : 0.5 : 1"
       inkscape:vp_y="0 : 1000 : 0"
       inkscape:vp_x="0 : 0.5 : 1"
       sodipodi:type="inkscape:persp3d" />
    <clipPath
       clipPathUnits="userSpaceOnUse"
       id="clipPath3420">
      <path
         d="m 305.125,409.34 42.114,0 0,42.114 -42.114,0 0,-42.114 z"
         id="path3422" />
    </clipPath>
    <inkscape:perspective
       id="perspective6601"
       inkscape:persp3d-origin="0.5 : 0.33333333 : 1"
       inkscape:vp_z="1 : 0.5 : 1"
       inkscape:vp_y="0 : 1000 : 0"
       inkscape:vp_x="0 : 0.5 : 1"
       sodipodi:type="inkscape:persp3d" />
    <clipPath
       clipPathUnits="userSpaceOnUse"
       id="clipPath3822">
      <path
         d="m 362.126,409.341 42.114,0 0,42.114 -42.114,0 0,-42.114 z"
         id="path3824" />
    </clipPath>
    <inkscape:perspective
       id="perspective6677"
       inkscape:persp3d-origin="0.5 : 0.33333333 : 1"
       inkscape:vp_z="1 : 0.5 : 1"
       inkscape:vp_y="0 : 1000 : 0"
       inkscape:vp_x="0 : 0.5 : 1"
       sodipodi:type="inkscape:persp3d" />
    <inkscape:perspective
       id="perspective6691"
       inkscape:persp3d-origin="0.5 : 0.33333333 : 1"
       inkscape:vp_z="1 : 0.5 : 1"
       inkscape:vp_y="0 : 1000 : 0"
       inkscape:vp_x="0 : 0.5 : 1"
       sodipodi:type="inkscape:persp3d" />
    <clipPath
       clipPathUnits="userSpaceOnUse"
       id="clipPath4098">
      <path
         d="m 20.045,328.96 42.113,0 0,42.115 -42.113,0 0,-42.115 z"
         id="path4100" />
    </clipPath>
    <inkscape:perspective
       id="perspective6753"
       inkscape:persp3d-origin="0.5 : 0.33333333 : 1"
       inkscape:vp_z="1 : 0.5 : 1"
       inkscape:vp_y="0 : 1000 : 0"
       inkscape:vp_x="0 : 0.5 : 1"
       sodipodi:type="inkscape:persp3d" />
    <clipPath
       clipPathUnits="userSpaceOnUse"
       id="clipPath3336">
      <path
         d="m 77.057,328.96 42.114,0 0,42.115 -42.114,0 0,-42.115 z"
         id="path3338" />
    </clipPath>
    <inkscape:perspective
       id="perspective6818"
       inkscape:persp3d-origin="0.5 : 0.33333333 : 1"
       inkscape:vp_z="1 : 0.5 : 1"
       inkscape:vp_y="0 : 1000 : 0"
       inkscape:vp_x="0 : 0.5 : 1"
       sodipodi:type="inkscape:persp3d" />
    <clipPath
       clipPathUnits="userSpaceOnUse"
       id="clipPath3692">
      <path
         d="m 134.072,328.96 42.114,0 0,42.115 -42.114,0 0,-42.115 z"
         id="path3694" />
    </clipPath>
    <inkscape:perspective
       id="perspective6883"
       inkscape:persp3d-origin="0.5 : 0.33333333 : 1"
       inkscape:vp_z="1 : 0.5 : 1"
       inkscape:vp_y="0 : 1000 : 0"
       inkscape:vp_x="0 : 0.5 : 1"
       sodipodi:type="inkscape:persp3d" />
    <clipPath
       clipPathUnits="userSpaceOnUse"
       id="clipPath3584">
      <path
         d="m 191.084,328.96 42.113,0 0,42.115 -42.113,0 0,-42.115 z"
         id="path3586" />
    </clipPath>
    <inkscape:perspective
       id="perspective6937"
       inkscape:persp3d-origin="0.5 : 0.33333333 : 1"
       inkscape:vp_z="1 : 0.5 : 1"
       inkscape:vp_y="0 : 1000 : 0"
       inkscape:vp_x="0 : 0.5 : 1"
       sodipodi:type="inkscape:persp3d" />
    <clipPath
       clipPathUnits="userSpaceOnUse"
       id="clipPath3990">
      <path
         d="m 248.098,328.96 42.114,0 0,42.115 -42.114,0 0,-42.115 z"
         id="path3992" />
    </clipPath>
    <inkscape:perspective
       id="perspective5685"
       inkscape:persp3d-origin="0.5 : 0.33333333 : 1"
       inkscape:vp_z="1 : 0.5 : 1"
       inkscape:vp_y="0 : 1000 : 0"
       inkscape:vp_x="0 : 0.5 : 1"
       sodipodi:type="inkscape:persp3d" />
    <clipPath
       clipPathUnits="userSpaceOnUse"
       id="clipPath4006">
      <path
         d="m 20.046,204.305 42.114,0 0,42.47 -42.114,0 0,-42.47 z"
         id="path4008" />
    </clipPath>
    <inkscape:perspective
       id="perspective5747"
       inkscape:persp3d-origin="0.5 : 0.33333333 : 1"
       inkscape:vp_z="1 : 0.5 : 1"
       inkscape:vp_y="0 : 1000 : 0"
       inkscape:vp_x="0 : 0.5 : 1"
       sodipodi:type="inkscape:persp3d" />
    <clipPath
       clipPathUnits="userSpaceOnUse"
       id="clipPath3464">
      <path
         d="m 77.053,204.662 42.113,0 0,42.114 -42.113,0 0,-42.114 z"
         id="path3466" />
    </clipPath>
    <inkscape:perspective
       id="perspective5809"
       inkscape:persp3d-origin="0.5 : 0.33333333 : 1"
       inkscape:vp_z="1 : 0.5 : 1"
       inkscape:vp_y="0 : 1000 : 0"
       inkscape:vp_x="0 : 0.5 : 1"
       sodipodi:type="inkscape:persp3d" />
    <clipPath
       clipPathUnits="userSpaceOnUse"
       id="clipPath3866">
      <path
         d="m 134.068,204.642 42.114,0 0,42.115 -42.114,0 0,-42.115 z"
         id="path3868" />
    </clipPath>
    <inkscape:perspective
       id="perspective5881"
       inkscape:persp3d-origin="0.5 : 0.33333333 : 1"
       inkscape:vp_z="1 : 0.5 : 1"
       inkscape:vp_y="0 : 1000 : 0"
       inkscape:vp_x="0 : 0.5 : 1"
       sodipodi:type="inkscape:persp3d" />
    <clipPath
       clipPathUnits="userSpaceOnUse"
       id="clipPath4178">
      <path
         d="m 191.081,204.642 42.114,0 0,42.115 -42.114,0 0,-42.115 z"
         id="path4180" />
    </clipPath>
    <inkscape:perspective
       id="perspective5953"
       inkscape:persp3d-origin="0.5 : 0.33333333 : 1"
       inkscape:vp_z="1 : 0.5 : 1"
       inkscape:vp_y="0 : 1000 : 0"
       inkscape:vp_x="0 : 0.5 : 1"
       sodipodi:type="inkscape:persp3d" />
    <clipPath
       clipPathUnits="userSpaceOnUse"
       id="clipPath3400">
      <path
         d="m 248.093,204.642 42.114,0 0,42.115 -42.114,0 0,-42.115 z"
         id="path3402" />
    </clipPath>
    <inkscape:perspective
       id="perspective6016"
       inkscape:persp3d-origin="0.5 : 0.33333333 : 1"
       inkscape:vp_z="1 : 0.5 : 1"
       inkscape:vp_y="0 : 1000 : 0"
       inkscape:vp_x="0 : 0.5 : 1"
       sodipodi:type="inkscape:persp3d" />
    <clipPath
       clipPathUnits="userSpaceOnUse"
       id="clipPath3778">
      <path
         d="m 305.108,204.642 42.114,0 0,42.115 -42.114,0 0,-42.115 z"
         id="path3780" />
    </clipPath>
    <inkscape:perspective
       id="perspective6871"
       inkscape:persp3d-origin="0.5 : 0.33333333 : 1"
       inkscape:vp_z="1 : 0.5 : 1"
       inkscape:vp_y="0 : 1000 : 0"
       inkscape:vp_x="0 : 0.5 : 1"
       sodipodi:type="inkscape:persp3d" />
    <clipPath
       clipPathUnits="userSpaceOnUse"
       id="clipPath3668">
      <path
         d="m 362.12,204.668 42.115,0 0,42.115 -42.115,0 0,-42.115 z"
         id="path3670" />
    </clipPath>
    <inkscape:perspective
       id="perspective6945"
       inkscape:persp3d-origin="0.5 : 0.33333333 : 1"
       inkscape:vp_z="1 : 0.5 : 1"
       inkscape:vp_y="0 : 1000 : 0"
       inkscape:vp_x="0 : 0.5 : 1"
       sodipodi:type="inkscape:persp3d" />
    <clipPath
       clipPathUnits="userSpaceOnUse"
       id="clipPath3504">
      <path
         d="m 476.148,204.668 42.113,0 0,42.115 -42.113,0 0,-42.115 z"
         id="path3506" />
    </clipPath>
  </defs>
  <sodipodi:namedview
     id="base"
     pagecolor="#ffffff"
     bordercolor="#666666"
     borderopacity="1.0"
     inkscape:pageopacity="0.0"
     inkscape:pageshadow="2"
     inkscape:zoom="1.1896297"
     inkscape:cx="-1.8566485"
     inkscape:cy="175.40361"
     inkscape:document-units="px"
     inkscape:current-layer="layer1"
     showgrid="false"
     inkscape:window-width="1600"
     inkscape:window-height="838"
     inkscape:window-x="-8"
     inkscape:window-y="-8"
     inkscape:window-maximized="1" />
  <metadata
     id="metadata5326">
    <rdf:RDF>
      <cc:Work
         rdf:about="">
        <dc:format>image/svg+xml</dc:format>
        <dc:type
           rdf:resource="http://purl.org/dc/dcmitype/StillImage" />
        <dc:title></dc:title>
      </cc:Work>
    </rdf:RDF>
  </metadata>
  <g
     inkscape:label="Livello 1"
     inkscape:groupmode="layer"
     id="layer1"
     transform="translate(-155.56555,-394.77575)">
    <g
       inkscape:label="Ebene 1"
       inkscape:groupmode="layer"
       transform="translate(-501.54702,586.32528)"
       id="layer1-0" />
    <path
       id="path3674"
       style="fill:#ffffff;fill-opacity:1;fill-rule:nonzero;stroke:none"
       d="m 156.31555,595.59457 c 0,-110.51166 89.55716,-200.06882 200.06882,-200.06882 110.51166,0 200.06882,89.55716 200.06882,200.06882 0,110.51166 -89.55716,200.06882 -200.06882,200.06882 -110.51166,0 -200.06882,-89.55716 -200.06882,-200.06882" />
    <path
       id="path3682"
       style="fill:none;stroke:#000000;stroke-width:1.5;stroke-linecap:butt;stroke-linejoin:miter;stroke-miterlimit:10;stroke-opacity:1;stroke-dasharray:none"
       d="m 156.31555,595.59457 c 0,-110.51166 89.55716,-200.06882 200.06882,-200.06882 110.51166,0 200.06882,89.55716 200.06882,200.06882 0,110.51166 -89.55716,200.06882 -200.06882,200.06882 -110.51166,0 -200.06882,-89.55716 -200.06882,-200.06882 z" />
    <g
       id="g3512"
       transform="matrix(9.5986193,0,0,-9.5986193,402.53458,596.3768)">
      <path
         d="M 0,0 C 0,-2.552 0.532,-6.558 4.005,-6.558 7.692,-6.558 8.047,-2.552 8.118,0 8.295,4.821 6.203,6.665 4.005,6.665 2.233,6.593 -0.071,4.963 0,0 m -3.758,0 c -0.07,5.176 2.127,10.138 7.763,10.138 5.814,0 7.906,-4.821 7.906,-10.138 -0.071,-5.07 -2.092,-9.962 -7.906,-9.962 -5.777,0 -7.692,4.963 -7.763,9.962 m -9.606,0.354 c -2.127,-0.071 -3.545,-1.595 -3.617,-3.58 0,-2.056 1.951,-3.757 3.617,-3.616 2.091,0.142 3.58,1.702 3.651,3.616 0,1.985 -1.56,3.686 -3.651,3.58 m -7.587,-1.311 c 0.142,2.871 1.454,5.388 3.333,7.48 2.729,2.729 5.175,3.544 8.472,3.97 L -8.083,7.09 c -2.304,-0.071 -3.332,-0.354 -5.175,-1.454 -1.135,-0.673 -2.233,-1.701 -2.837,-2.978 1.135,0.815 1.951,1.028 3.333,1.1 4.29,0.035 6.877,-3.084 6.736,-6.984 -0.071,-4.041 -3.262,-6.736 -7.303,-6.736 -4.147,0 -7.197,2.518 -7.622,6.807 -0.07,0.744 -0.07,1.56 0,2.198"
         style="fill:#bcbec0;fill-opacity:1;fill-rule:nonzero;stroke:none"
         id="path3514" />
    </g>
    <g
       id="g3684"
       transform="matrix(9.5334423,0,0,-9.5334423,481.08656,439.12218)">
      <path
         d="m 0,0 c -0.248,0.177 -0.496,0.354 -0.638,0.461 l -29.317,-29.317 0.461,-0.638 L 0,0 z m 3.297,-3.332 -29.458,-29.458 0.638,-0.497 29.316,29.316 C 3.687,-3.828 3.51,-3.58 3.297,-3.332 m -2.269,2.446 -0.602,0.496 -29.529,-29.529 0.496,-0.603 29.635,29.636 z m 1.383,-1.419 -29.601,-29.599 0.567,-0.532 29.565,29.564 -0.531,0.567 z m -0.958,0.993 c 0.284,-0.283 0.284,-0.283 0.568,-0.567 l -29.636,-29.636 c -0.213,0.213 -0.283,0.284 -0.567,0.568 L 1.453,-1.312 z"
         style="fill:#000000;fill-opacity:1;fill-rule:nonzero;stroke:none"
         id="path3686" />
    </g>
  </g>
</svg>
