<?xml version="1.0" encoding="UTF-8" standalone="no"?>
<!-- Created with Inkscape (http://www.inkscape.org/) -->

<svg
   xmlns:dc="http://purl.org/dc/elements/1.1/"
   xmlns:cc="http://creativecommons.org/ns#"
   xmlns:rdf="http://www.w3.org/1999/02/22-rdf-syntax-ns#"
   xmlns:svg="http://www.w3.org/2000/svg"
   xmlns="http://www.w3.org/2000/svg"
   xmlns:sodipodi="http://sodipodi.sourceforge.net/DTD/sodipodi-0.dtd"
   xmlns:inkscape="http://www.inkscape.org/namespaces/inkscape"
   width="52.584999"
   height="35.927368"
   id="svg5321"
   version="1.1"
   inkscape:version="0.47 r22583"
   sodipodi:docname="Denmark road sign A73.svg">
  <defs
     id="defs5323"><inkscape:perspective
   sodipodi:type="inkscape:persp3d"
   inkscape:vp_x="0 : 526.18109 : 1"
   inkscape:vp_y="0 : 1000 : 0"
   inkscape:vp_z="744.09448 : 526.18109 : 1"
   inkscape:persp3d-origin="372.04724 : 350.78739 : 1"
   id="perspective5329" />
<inkscape:perspective
   id="perspective5339"
   inkscape:persp3d-origin="0.5 : 0.33333333 : 1"
   inkscape:vp_z="1 : 0.5 : 1"
   inkscape:vp_y="0 : 1000 : 0"
   inkscape:vp_x="0 : 0.5 : 1"
   sodipodi:type="inkscape:persp3d" />
<clipPath
   clipPathUnits="userSpaceOnUse"
   id="clipPath4202">
  <path
     d="m 20.045,731.714 42.114,0 0,37.012 -42.114,0 0,-37.012 z"
     id="path4204" />
</clipPath>
<inkscape:perspective
   id="perspective5396"
   inkscape:persp3d-origin="425 : 140 : 1"
   inkscape:vp_z="850 : 210 : 1"
   inkscape:vp_y="0 : 1000 : 0"
   inkscape:vp_x="0 : 210 : 1"
   sodipodi:type="inkscape:persp3d" />
<inkscape:perspective
   id="perspective5429"
   inkscape:persp3d-origin="0.5 : 0.33333333 : 1"
   inkscape:vp_z="1 : 0.5 : 1"
   inkscape:vp_y="0 : 1000 : 0"
   inkscape:vp_x="0 : 0.5 : 1"
   sodipodi:type="inkscape:persp3d" />
<clipPath
   clipPathUnits="userSpaceOnUse"
   id="clipPath2840">
  <path
     d="m 77.057,731.714 42.114,0 0,37.012 -42.114,0 0,-37.012 z"
     id="path2842" />
</clipPath>
<inkscape:perspective
   id="perspective5499"
   inkscape:persp3d-origin="0.5 : 0.33333333 : 1"
   inkscape:vp_z="1 : 0.5 : 1"
   inkscape:vp_y="0 : 1000 : 0"
   inkscape:vp_x="0 : 0.5 : 1"
   sodipodi:type="inkscape:persp3d" />
<clipPath
   clipPathUnits="userSpaceOnUse"
   id="clipPath3036">
  <path
     d="m 134.072,731.751 42.114,0 0,36.975 -42.114,0 0,-36.975 z"
     id="path3038" />
</clipPath>
<inkscape:perspective
   id="perspective5621"
   inkscape:persp3d-origin="0.5 : 0.33333333 : 1"
   inkscape:vp_z="1 : 0.5 : 1"
   inkscape:vp_y="0 : 1000 : 0"
   inkscape:vp_x="0 : 0.5 : 1"
   sodipodi:type="inkscape:persp3d" />
<clipPath
   clipPathUnits="userSpaceOnUse"
   id="clipPath2952">
  <path
     d="m 191.084,731.751 42.113,0 0,36.975 -42.113,0 0,-36.975 z"
     id="path2954" />
</clipPath>
<clipPath
   clipPathUnits="userSpaceOnUse"
   id="clipPath2936">
  <path
     d="m 191.084,731.751 42.113,0 0,36.975 -42.113,0 0,-36.975 z"
     id="path2938" />
</clipPath>
<inkscape:perspective
   id="perspective5694"
   inkscape:persp3d-origin="0.5 : 0.33333333 : 1"
   inkscape:vp_z="1 : 0.5 : 1"
   inkscape:vp_y="0 : 1000 : 0"
   inkscape:vp_x="0 : 0.5 : 1"
   sodipodi:type="inkscape:persp3d" />
<inkscape:perspective
   inkscape:vp_x="0 : 226.5 : 1"
   inkscape:vp_y="0 : 1000 : 0"
   inkscape:vp_z="510 : 226.5 : 1"
   inkscape:persp3d-origin="255 : 151 : 1"
   id="perspective18"
   sodipodi:type="inkscape:persp3d" />

	<inkscape:perspective
   id="perspective5722"
   inkscape:persp3d-origin="0.5 : 0.33333333 : 1"
   inkscape:vp_z="1 : 0.5 : 1"
   inkscape:vp_y="0 : 1000 : 0"
   inkscape:vp_x="0 : 0.5 : 1"
   sodipodi:type="inkscape:persp3d" />
<clipPath
   clipPathUnits="userSpaceOnUse"
   id="clipPath3216">
  <path
     d="m 248.098,731.74 42.114,0 0,36.986 -42.114,0 0,-36.986 z"
     id="path3218" />
</clipPath>
<inkscape:perspective
   id="perspective5860"
   inkscape:persp3d-origin="0.5 : 0.33333333 : 1"
   inkscape:vp_z="1 : 0.5 : 1"
   inkscape:vp_y="0 : 1000 : 0"
   inkscape:vp_x="0 : 0.5 : 1"
   sodipodi:type="inkscape:persp3d" />
<clipPath
   clipPathUnits="userSpaceOnUse"
   id="clipPath2880">
  <path
     d="m 305.111,731.751 42.114,0 0,36.975 -42.114,0 0,-36.975 z"
     id="path2882" />
</clipPath>
<inkscape:perspective
   id="perspective5942"
   inkscape:persp3d-origin="0.5 : 0.33333333 : 1"
   inkscape:vp_z="1 : 0.5 : 1"
   inkscape:vp_y="0 : 1000 : 0"
   inkscape:vp_x="0 : 0.5 : 1"
   sodipodi:type="inkscape:persp3d" />
<clipPath
   clipPathUnits="userSpaceOnUse"
   id="clipPath3112">
  <path
     d="m 362.126,731.751 42.113,0 0,36.975 -42.113,0 0,-36.975 z"
     id="path3114" />
</clipPath>
<clipPath
   clipPathUnits="userSpaceOnUse"
   id="clipPath3100">
  <path
     d="m 362.126,731.751 42.114,0 0,36.975 -42.114,0 0,-36.975 z"
     id="path3102" />
</clipPath>
<inkscape:perspective
   id="perspective6017"
   inkscape:persp3d-origin="0.5 : 0.33333333 : 1"
   inkscape:vp_z="1 : 0.5 : 1"
   inkscape:vp_y="0 : 1000 : 0"
   inkscape:vp_x="0 : 0.5 : 1"
   sodipodi:type="inkscape:persp3d" />
<clipPath
   clipPathUnits="userSpaceOnUse"
   id="clipPath2984">
  <path
     d="m 419.137,731.751 42.114,0 0,36.975 -42.114,0 0,-36.975 z"
     id="path2986" />
</clipPath>
<inkscape:perspective
   id="perspective6119"
   inkscape:persp3d-origin="0.5 : 0.33333333 : 1"
   inkscape:vp_z="1 : 0.5 : 1"
   inkscape:vp_y="0 : 1000 : 0"
   inkscape:vp_x="0 : 0.5 : 1"
   sodipodi:type="inkscape:persp3d" />
<clipPath
   clipPathUnits="userSpaceOnUse"
   id="clipPath3296">
  <path
     d="m 476.153,731.751 42.113,0 0,36.975 -42.113,0 0,-36.975 z"
     id="path3298" />
</clipPath>
<inkscape:perspective
   id="perspective6219"
   inkscape:persp3d-origin="0.5 : 0.33333333 : 1"
   inkscape:vp_z="1 : 0.5 : 1"
   inkscape:vp_y="0 : 1000 : 0"
   inkscape:vp_x="0 : 0.5 : 1"
   sodipodi:type="inkscape:persp3d" />
<clipPath
   clipPathUnits="userSpaceOnUse"
   id="clipPath2860">
  <path
     d="m 533.165,731.751 42.113,0 0,36.975 -42.113,0 0,-36.975 z"
     id="path2862" />
</clipPath>
<inkscape:perspective
   id="perspective6281"
   inkscape:persp3d-origin="0.5 : 0.33333333 : 1"
   inkscape:vp_z="1 : 0.5 : 1"
   inkscape:vp_y="0 : 1000 : 0"
   inkscape:vp_x="0 : 0.5 : 1"
   sodipodi:type="inkscape:persp3d" />
<clipPath
   clipPathUnits="userSpaceOnUse"
   id="clipPath3080">
  <path
     d="m 20.045,674.69 42.114,0 0,36.975 -42.114,0 0,-36.975 z"
     id="path3082" />
</clipPath>
<inkscape:perspective
   id="perspective6343"
   inkscape:persp3d-origin="0.5 : 0.33333333 : 1"
   inkscape:vp_z="1 : 0.5 : 1"
   inkscape:vp_y="0 : 1000 : 0"
   inkscape:vp_x="0 : 0.5 : 1"
   sodipodi:type="inkscape:persp3d" />
<clipPath
   clipPathUnits="userSpaceOnUse"
   id="clipPath2964">
  <path
     d="m 77.057,674.69 42.114,0 0,36.975 -42.114,0 0,-36.975 z"
     id="path2966" />
</clipPath>
<inkscape:perspective
   id="perspective6432"
   inkscape:persp3d-origin="0.5 : 0.33333333 : 1"
   inkscape:vp_z="1 : 0.5 : 1"
   inkscape:vp_y="0 : 1000 : 0"
   inkscape:vp_x="0 : 0.5 : 1"
   sodipodi:type="inkscape:persp3d" />
<clipPath
   clipPathUnits="userSpaceOnUse"
   id="clipPath3256">
  <path
     d="m 134.072,674.69 42.114,0 0,36.975 -42.114,0 0,-36.975 z"
     id="path3258" />
</clipPath>
<inkscape:perspective
   id="perspective6560"
   inkscape:persp3d-origin="0.5 : 0.33333333 : 1"
   inkscape:vp_z="1 : 0.5 : 1"
   inkscape:vp_y="0 : 1000 : 0"
   inkscape:vp_x="0 : 0.5 : 1"
   sodipodi:type="inkscape:persp3d" />
<clipPath
   clipPathUnits="userSpaceOnUse"
   id="clipPath2908">
  <path
     d="m 191.084,674.69 42.113,0 0,36.975 -42.113,0 0,-36.975 z"
     id="path2910" />
</clipPath>
<inkscape:perspective
   id="perspective6650"
   inkscape:persp3d-origin="0.5 : 0.33333333 : 1"
   inkscape:vp_z="1 : 0.5 : 1"
   inkscape:vp_y="0 : 1000 : 0"
   inkscape:vp_x="0 : 0.5 : 1"
   sodipodi:type="inkscape:persp3d" />
<clipPath
   clipPathUnits="userSpaceOnUse"
   id="clipPath3128">
  <path
     d="m 248.098,674.69 42.114,0 0,36.975 -42.114,0 0,-36.975 z"
     id="path3130" />
</clipPath>
<inkscape:perspective
   id="perspective6920"
   inkscape:persp3d-origin="0.5 : 0.33333333 : 1"
   inkscape:vp_z="1 : 0.5 : 1"
   inkscape:vp_y="0 : 1000 : 0"
   inkscape:vp_x="0 : 0.5 : 1"
   sodipodi:type="inkscape:persp3d" />
<clipPath
   clipPathUnits="userSpaceOnUse"
   id="clipPath3016">
  <path
     d="m 305.111,674.69 42.114,0 0,36.975 -42.114,0 0,-36.975 z"
     id="path3018" />
</clipPath>
<inkscape:perspective
   id="perspective6991"
   inkscape:persp3d-origin="0.5 : 0.33333333 : 1"
   inkscape:vp_z="1 : 0.5 : 1"
   inkscape:vp_y="0 : 1000 : 0"
   inkscape:vp_x="0 : 0.5 : 1"
   sodipodi:type="inkscape:persp3d" />
<inkscape:perspective
   id="perspective7016"
   inkscape:persp3d-origin="0.5 : 0.33333333 : 1"
   inkscape:vp_z="1 : 0.5 : 1"
   inkscape:vp_y="0 : 1000 : 0"
   inkscape:vp_x="0 : 0.5 : 1"
   sodipodi:type="inkscape:persp3d" />
<clipPath
   clipPathUnits="userSpaceOnUse"
   id="clipPath4234">
  <path
     d="m 362.126,674.673 42.113,0 0,36.975 -42.113,0 0,-36.975 z"
     id="path4236" />
</clipPath>
<clipPath
   clipPathUnits="userSpaceOnUse"
   id="clipPath4222">
  <path
     d="m 362.126,674.673 42.114,0 0,36.975 -42.114,0 0,-36.975 z"
     id="path4224" />
</clipPath>
<inkscape:perspective
   id="perspective7091"
   inkscape:persp3d-origin="0.5 : 0.33333333 : 1"
   inkscape:vp_z="1 : 0.5 : 1"
   inkscape:vp_y="0 : 1000 : 0"
   inkscape:vp_x="0 : 0.5 : 1"
   sodipodi:type="inkscape:persp3d" />
<clipPath
   clipPathUnits="userSpaceOnUse"
   id="clipPath4394">
  <path
     d="m 419.137,674.673 42.114,0 0,36.975 -42.114,0 0,-36.975 z"
     id="path4396" />
</clipPath>
<inkscape:perspective
   id="perspective7169"
   inkscape:persp3d-origin="0.5 : 0.33333333 : 1"
   inkscape:vp_z="1 : 0.5 : 1"
   inkscape:vp_y="0 : 1000 : 0"
   inkscape:vp_x="0 : 0.5 : 1"
   sodipodi:type="inkscape:persp3d" />
<clipPath
   clipPathUnits="userSpaceOnUse"
   id="clipPath4848">
  <path
     d="m 476.152,674.673 42.114,0 0,36.975 -42.114,0 0,-36.975 z"
     id="path4850" />
</clipPath>
<inkscape:perspective
   id="perspective7231"
   inkscape:persp3d-origin="0.5 : 0.33333333 : 1"
   inkscape:vp_z="1 : 0.5 : 1"
   inkscape:vp_y="0 : 1000 : 0"
   inkscape:vp_x="0 : 0.5 : 1"
   sodipodi:type="inkscape:persp3d" />
<clipPath
   clipPathUnits="userSpaceOnUse"
   id="clipPath4976">
  <path
     d="m 20.044,617.671 42.114,0 0,36.975 -42.114,0 0,-36.975 z"
     id="path4978" />
</clipPath>
<inkscape:perspective
   id="perspective7293"
   inkscape:persp3d-origin="0.5 : 0.33333333 : 1"
   inkscape:vp_z="1 : 0.5 : 1"
   inkscape:vp_y="0 : 1000 : 0"
   inkscape:vp_x="0 : 0.5 : 1"
   sodipodi:type="inkscape:persp3d" />
<clipPath
   clipPathUnits="userSpaceOnUse"
   id="clipPath4924">
  <path
     d="m 134.07,617.671 42.114,0 0,36.975 -42.114,0 0,-36.975 z"
     id="path4926" />
</clipPath>
<inkscape:perspective
   id="perspective7355"
   inkscape:persp3d-origin="0.5 : 0.33333333 : 1"
   inkscape:vp_z="1 : 0.5 : 1"
   inkscape:vp_y="0 : 1000 : 0"
   inkscape:vp_x="0 : 0.5 : 1"
   sodipodi:type="inkscape:persp3d" />
<clipPath
   clipPathUnits="userSpaceOnUse"
   id="clipPath4732">
  <path
     d="m 191.083,617.671 42.114,0 0,36.975 -42.114,0 0,-36.975 z"
     id="path4734" />
</clipPath>
<inkscape:perspective
   id="perspective7417"
   inkscape:persp3d-origin="0.5 : 0.33333333 : 1"
   inkscape:vp_z="1 : 0.5 : 1"
   inkscape:vp_y="0 : 1000 : 0"
   inkscape:vp_x="0 : 0.5 : 1"
   sodipodi:type="inkscape:persp3d" />
<clipPath
   clipPathUnits="userSpaceOnUse"
   id="clipPath4538">
  <path
     d="m 305.109,617.68 42.114,0 0,36.966 -42.114,0 0,-36.966 z"
     id="path4540" />
</clipPath>
<inkscape:perspective
   id="perspective7567"
   inkscape:persp3d-origin="0.5 : 0.33333333 : 1"
   inkscape:vp_z="1 : 0.5 : 1"
   inkscape:vp_y="0 : 1000 : 0"
   inkscape:vp_x="0 : 0.5 : 1"
   sodipodi:type="inkscape:persp3d" />
<clipPath
   clipPathUnits="userSpaceOnUse"
   id="clipPath4888">
  <path
     d="m 362.141,617.646 42.114,0 0,36.974 -42.114,0 0,-36.974 z"
     id="path4890" />
</clipPath>
<inkscape:perspective
   id="perspective7715"
   inkscape:persp3d-origin="0.5 : 0.33333333 : 1"
   inkscape:vp_z="1 : 0.5 : 1"
   inkscape:vp_y="0 : 1000 : 0"
   inkscape:vp_x="0 : 0.5 : 1"
   sodipodi:type="inkscape:persp3d" />
<clipPath
   clipPathUnits="userSpaceOnUse"
   id="clipPath4704">
  <path
     d="m 419.137,617.646 42.114,0 0,36.974 -42.114,0 0,-36.974 z"
     id="path4706" />
</clipPath>
<clipPath
   clipPathUnits="userSpaceOnUse"
   id="clipPath4684">
  <path
     d="m 419.137,617.646 42.114,0 0,36.974 -42.114,0 0,-36.974 z"
     id="path4686" />
</clipPath>
<inkscape:perspective
   id="perspective7822"
   inkscape:persp3d-origin="0.5 : 0.33333333 : 1"
   inkscape:vp_z="1 : 0.5 : 1"
   inkscape:vp_y="0 : 1000 : 0"
   inkscape:vp_x="0 : 0.5 : 1"
   sodipodi:type="inkscape:persp3d" />
<clipPath
   clipPathUnits="userSpaceOnUse"
   id="clipPath5076">
  <path
     d="m 476.152,617.644 42.135,0 0,37.002 -42.135,0 0,-37.002 z"
     id="path5078" />
</clipPath>
<clipPath
   clipPathUnits="userSpaceOnUse"
   id="clipPath5064">
  <path
     d="m 476.152,617.645 42.135,0 0,37.001 -42.135,0 0,-37.001 z"
     id="path5066" />
</clipPath>
<inkscape:perspective
   id="perspective7961"
   inkscape:persp3d-origin="0.5 : 0.33333333 : 1"
   inkscape:vp_z="1 : 0.5 : 1"
   inkscape:vp_y="0 : 1000 : 0"
   inkscape:vp_x="0 : 0.5 : 1"
   sodipodi:type="inkscape:persp3d" />
<clipPath
   clipPathUnits="userSpaceOnUse"
   id="clipPath5016">
  <path
     d="m 533.182,617.715 42.114,0 0,36.931 -42.114,0 0,-36.931 z"
     id="path5018" />
</clipPath>
<inkscape:perspective
   id="perspective8099"
   inkscape:persp3d-origin="0.5 : 0.33333333 : 1"
   inkscape:vp_z="1 : 0.5 : 1"
   inkscape:vp_y="0 : 1000 : 0"
   inkscape:vp_x="0 : 0.5 : 1"
   sodipodi:type="inkscape:persp3d" />
<clipPath
   clipPathUnits="userSpaceOnUse"
   id="clipPath4626">
  <path
     d="m 20.04,560.622 42.114,0 0,36.974 -42.114,0 0,-36.974 z"
     id="path4628" />
</clipPath>
<inkscape:perspective
   id="perspective8156"
   inkscape:persp3d-origin="0.5 : 0.33333333 : 1"
   inkscape:vp_z="1 : 0.5 : 1"
   inkscape:vp_y="0 : 1000 : 0"
   inkscape:vp_x="0 : 0.5 : 1"
   sodipodi:type="inkscape:persp3d" />
</defs>
  <sodipodi:namedview
     id="base"
     pagecolor="#ffffff"
     bordercolor="#666666"
     borderopacity="1.0"
     inkscape:pageopacity="0.0"
     inkscape:pageshadow="2"
     inkscape:zoom="0.83535156"
     inkscape:cx="86.574094"
     inkscape:cy="59.00584"
     inkscape:document-units="px"
     inkscape:current-layer="layer1"
     showgrid="false"
     inkscape:window-width="1600"
     inkscape:window-height="838"
     inkscape:window-x="-8"
     inkscape:window-y="-8"
     inkscape:window-maximized="1"
     showguides="true"
     inkscape:guide-bbox="true" />
  <metadata
     id="metadata5326">
    <rdf:RDF>
      <cc:Work
         rdf:about="">
        <dc:format>image/svg+xml</dc:format>
        <dc:type
           rdf:resource="http://purl.org/dc/dcmitype/StillImage" />
        <dc:title></dc:title>
      </cc:Work>
    </rdf:RDF>
  </metadata>
  <g
     inkscape:label="Livello 1"
     inkscape:groupmode="layer"
     id="layer1"
     transform="translate(-471.75435,-370.21762)"><g
   inkscape:label="Ebene 1"
   inkscape:groupmode="layer"
   transform="translate(-501.54702,586.32528)"
   id="layer1-0" />

	
	
<g
   id="g4940"
   transform="matrix(1.25,0,0,-1.25,498.04685,388.18149)">
  <path
     d="M 0,0 -19.044,-10.961 -20.975,-7.61 -7.728,0 -20.975,7.61 -19.004,10.961 0,0 z"
     style="fill:#ef3e42;fill-opacity:1;fill-rule:nonzero;stroke:none"
     id="path4942" />
</g>
<g
   id="g4944"
   transform="matrix(1.25,0,0,-1.25,498.04685,388.18149)">
  <path
     d="M 0,0 -19.044,-10.961 -20.975,-7.61 -7.728,0 -20.975,7.61 -19.004,10.961 0,0 z"
     style="fill:none;stroke:#ef3e42;stroke-width:0.118;stroke-linecap:butt;stroke-linejoin:miter;stroke-miterlimit:10;stroke-opacity:1;stroke-dasharray:none"
     id="path4946" />
</g>
<g
   id="g4948"
   transform="matrix(1.25,0,0,-1.25,498.04685,388.18149)">
  <path
     d="M 0,0 19.043,-10.961 20.975,-7.61 7.728,0 20.975,7.61 19.004,10.961 0,0 z"
     style="fill:#ef3e42;fill-opacity:1;fill-rule:nonzero;stroke:none"
     id="path4950" />
</g>
<g
   id="g4952"
   transform="matrix(1.25,0,0,-1.25,498.04685,388.18149)">
  <path
     d="M 0,0 19.043,-10.961 20.975,-7.61 7.728,0 20.975,7.61 19.004,10.961 0,0 z"
     style="fill:none;stroke:#ef3e42;stroke-width:0.118;stroke-linecap:butt;stroke-linejoin:miter;stroke-miterlimit:10;stroke-opacity:1;stroke-dasharray:none"
     id="path4954" />
</g>
<g
   id="g4956"
   transform="matrix(1.25,0,0,-1.25,498.04685,382.61262)">
  <path
     d="M 0,0 -17.073,9.857 -19.004,6.506 0,-4.455 19.004,6.506 17.072,9.857 0,0 z"
     style="fill:#ffffff;fill-opacity:1;fill-rule:nonzero;stroke:none"
     id="path4958" />
</g>
<g
   id="g4960"
   transform="matrix(1.25,0,0,-1.25,498.04685,382.61262)">
  <path
     d="M 0,0 -17.073,9.857 -19.004,6.506 0,-4.455 19.004,6.506 17.072,9.857 0,0 z"
     style="fill:none;stroke:#ef3e42;stroke-width:0.118;stroke-linecap:butt;stroke-linejoin:miter;stroke-miterlimit:10;stroke-opacity:1;stroke-dasharray:none"
     id="path4962" />
</g>
<g
   id="g4964"
   transform="matrix(1.25,0,0,-1.25,474.2421,401.88249)">
  <path
     d="M 0,0 1.972,-3.351 19.044,6.506 36.116,-3.351 38.087,0 19.044,10.961 0,0 z"
     style="fill:#ffffff;fill-opacity:1;fill-rule:nonzero;stroke:none"
     id="path4966" />
</g>
<g
   id="g4968"
   transform="matrix(1.25,0,0,-1.25,474.2421,401.88249)">
  <path
     d="M 0,0 1.972,-3.351 19.044,6.506 36.116,-3.351 38.087,0 19.044,10.961 0,0 z"
     style="fill:none;stroke:#ef3e42;stroke-width:0.118;stroke-linecap:butt;stroke-linejoin:miter;stroke-miterlimit:10;stroke-opacity:1;stroke-dasharray:none"
     id="path4970" />
</g>
</g>
</svg>
