<?xml version="1.0" encoding="UTF-8" standalone="no"?>
<!-- Created with Inkscape (http://www.inkscape.org/) -->

<svg
   width="599.01343"
   height="300.52679"
   id="svg5321"
   version="1.1"
   inkscape:version="1.3.2 (091e20e, 2023-11-25, custom)"
   sodipodi:docname="Denmark_road_sign_A75.svg"
   xmlns:inkscape="http://www.inkscape.org/namespaces/inkscape"
   xmlns:sodipodi="http://sodipodi.sourceforge.net/DTD/sodipodi-0.dtd"
   xmlns="http://www.w3.org/2000/svg"
   xmlns:svg="http://www.w3.org/2000/svg"
   xmlns:rdf="http://www.w3.org/1999/02/22-rdf-syntax-ns#"
   xmlns:cc="http://creativecommons.org/ns#"
   xmlns:dc="http://purl.org/dc/elements/1.1/">
  <defs
     id="defs5323">
    <inkscape:perspective
       sodipodi:type="inkscape:persp3d"
       inkscape:vp_x="0 : 526.18109 : 1"
       inkscape:vp_y="0 : 1000 : 0"
       inkscape:vp_z="744.09448 : 526.18109 : 1"
       inkscape:persp3d-origin="372.04724 : 350.78739 : 1"
       id="perspective5329" />
    <inkscape:perspective
       id="perspective5339"
       inkscape:persp3d-origin="0.5 : 0.33333333 : 1"
       inkscape:vp_z="1 : 0.5 : 1"
       inkscape:vp_y="0 : 1000 : 0"
       inkscape:vp_x="0 : 0.5 : 1"
       sodipodi:type="inkscape:persp3d" />
    <clipPath
       clipPathUnits="userSpaceOnUse"
       id="clipPath4202">
      <path
         d="m 20.045,731.714 42.114,0 0,37.012 -42.114,0 0,-37.012 z"
         id="path4204" />
    </clipPath>
    <inkscape:perspective
       id="perspective5396"
       inkscape:persp3d-origin="425 : 140 : 1"
       inkscape:vp_z="850 : 210 : 1"
       inkscape:vp_y="0 : 1000 : 0"
       inkscape:vp_x="0 : 210 : 1"
       sodipodi:type="inkscape:persp3d" />
    <inkscape:perspective
       id="perspective5429"
       inkscape:persp3d-origin="0.5 : 0.33333333 : 1"
       inkscape:vp_z="1 : 0.5 : 1"
       inkscape:vp_y="0 : 1000 : 0"
       inkscape:vp_x="0 : 0.5 : 1"
       sodipodi:type="inkscape:persp3d" />
    <clipPath
       clipPathUnits="userSpaceOnUse"
       id="clipPath2840">
      <path
         d="m 77.057,731.714 42.114,0 0,37.012 -42.114,0 0,-37.012 z"
         id="path2842" />
    </clipPath>
    <inkscape:perspective
       id="perspective5499"
       inkscape:persp3d-origin="0.5 : 0.33333333 : 1"
       inkscape:vp_z="1 : 0.5 : 1"
       inkscape:vp_y="0 : 1000 : 0"
       inkscape:vp_x="0 : 0.5 : 1"
       sodipodi:type="inkscape:persp3d" />
    <clipPath
       clipPathUnits="userSpaceOnUse"
       id="clipPath3036">
      <path
         d="m 134.072,731.751 42.114,0 0,36.975 -42.114,0 0,-36.975 z"
         id="path3038" />
    </clipPath>
    <inkscape:perspective
       id="perspective5621"
       inkscape:persp3d-origin="0.5 : 0.33333333 : 1"
       inkscape:vp_z="1 : 0.5 : 1"
       inkscape:vp_y="0 : 1000 : 0"
       inkscape:vp_x="0 : 0.5 : 1"
       sodipodi:type="inkscape:persp3d" />
    <clipPath
       clipPathUnits="userSpaceOnUse"
       id="clipPath2952">
      <path
         d="m 191.084,731.751 42.113,0 0,36.975 -42.113,0 0,-36.975 z"
         id="path2954" />
    </clipPath>
    <clipPath
       clipPathUnits="userSpaceOnUse"
       id="clipPath2936">
      <path
         d="m 191.084,731.751 42.113,0 0,36.975 -42.113,0 0,-36.975 z"
         id="path2938" />
    </clipPath>
    <inkscape:perspective
       id="perspective5694"
       inkscape:persp3d-origin="0.5 : 0.33333333 : 1"
       inkscape:vp_z="1 : 0.5 : 1"
       inkscape:vp_y="0 : 1000 : 0"
       inkscape:vp_x="0 : 0.5 : 1"
       sodipodi:type="inkscape:persp3d" />
    <inkscape:perspective
       inkscape:vp_x="0 : 226.5 : 1"
       inkscape:vp_y="0 : 1000 : 0"
       inkscape:vp_z="510 : 226.5 : 1"
       inkscape:persp3d-origin="255 : 151 : 1"
       id="perspective18"
       sodipodi:type="inkscape:persp3d" />
    <inkscape:perspective
       id="perspective5722"
       inkscape:persp3d-origin="0.5 : 0.33333333 : 1"
       inkscape:vp_z="1 : 0.5 : 1"
       inkscape:vp_y="0 : 1000 : 0"
       inkscape:vp_x="0 : 0.5 : 1"
       sodipodi:type="inkscape:persp3d" />
    <clipPath
       clipPathUnits="userSpaceOnUse"
       id="clipPath3216">
      <path
         d="m 248.098,731.74 42.114,0 0,36.986 -42.114,0 0,-36.986 z"
         id="path3218" />
    </clipPath>
    <inkscape:perspective
       id="perspective5860"
       inkscape:persp3d-origin="0.5 : 0.33333333 : 1"
       inkscape:vp_z="1 : 0.5 : 1"
       inkscape:vp_y="0 : 1000 : 0"
       inkscape:vp_x="0 : 0.5 : 1"
       sodipodi:type="inkscape:persp3d" />
    <clipPath
       clipPathUnits="userSpaceOnUse"
       id="clipPath2880">
      <path
         d="m 305.111,731.751 42.114,0 0,36.975 -42.114,0 0,-36.975 z"
         id="path2882" />
    </clipPath>
    <inkscape:perspective
       id="perspective5942"
       inkscape:persp3d-origin="0.5 : 0.33333333 : 1"
       inkscape:vp_z="1 : 0.5 : 1"
       inkscape:vp_y="0 : 1000 : 0"
       inkscape:vp_x="0 : 0.5 : 1"
       sodipodi:type="inkscape:persp3d" />
    <clipPath
       clipPathUnits="userSpaceOnUse"
       id="clipPath3112">
      <path
         d="m 362.126,731.751 42.113,0 0,36.975 -42.113,0 0,-36.975 z"
         id="path3114" />
    </clipPath>
    <clipPath
       clipPathUnits="userSpaceOnUse"
       id="clipPath3100">
      <path
         d="m 362.126,731.751 42.114,0 0,36.975 -42.114,0 0,-36.975 z"
         id="path3102" />
    </clipPath>
    <inkscape:perspective
       id="perspective6017"
       inkscape:persp3d-origin="0.5 : 0.33333333 : 1"
       inkscape:vp_z="1 : 0.5 : 1"
       inkscape:vp_y="0 : 1000 : 0"
       inkscape:vp_x="0 : 0.5 : 1"
       sodipodi:type="inkscape:persp3d" />
    <clipPath
       clipPathUnits="userSpaceOnUse"
       id="clipPath2984">
      <path
         d="m 419.137,731.751 42.114,0 0,36.975 -42.114,0 0,-36.975 z"
         id="path2986" />
    </clipPath>
    <inkscape:perspective
       id="perspective6119"
       inkscape:persp3d-origin="0.5 : 0.33333333 : 1"
       inkscape:vp_z="1 : 0.5 : 1"
       inkscape:vp_y="0 : 1000 : 0"
       inkscape:vp_x="0 : 0.5 : 1"
       sodipodi:type="inkscape:persp3d" />
    <clipPath
       clipPathUnits="userSpaceOnUse"
       id="clipPath3296">
      <path
         d="m 476.153,731.751 42.113,0 0,36.975 -42.113,0 0,-36.975 z"
         id="path3298" />
    </clipPath>
    <inkscape:perspective
       id="perspective6219"
       inkscape:persp3d-origin="0.5 : 0.33333333 : 1"
       inkscape:vp_z="1 : 0.5 : 1"
       inkscape:vp_y="0 : 1000 : 0"
       inkscape:vp_x="0 : 0.5 : 1"
       sodipodi:type="inkscape:persp3d" />
    <clipPath
       clipPathUnits="userSpaceOnUse"
       id="clipPath2860">
      <path
         d="m 533.165,731.751 42.113,0 0,36.975 -42.113,0 0,-36.975 z"
         id="path2862" />
    </clipPath>
    <inkscape:perspective
       id="perspective6281"
       inkscape:persp3d-origin="0.5 : 0.33333333 : 1"
       inkscape:vp_z="1 : 0.5 : 1"
       inkscape:vp_y="0 : 1000 : 0"
       inkscape:vp_x="0 : 0.5 : 1"
       sodipodi:type="inkscape:persp3d" />
    <clipPath
       clipPathUnits="userSpaceOnUse"
       id="clipPath3080">
      <path
         d="m 20.045,674.69 42.114,0 0,36.975 -42.114,0 0,-36.975 z"
         id="path3082" />
    </clipPath>
    <inkscape:perspective
       id="perspective6343"
       inkscape:persp3d-origin="0.5 : 0.33333333 : 1"
       inkscape:vp_z="1 : 0.5 : 1"
       inkscape:vp_y="0 : 1000 : 0"
       inkscape:vp_x="0 : 0.5 : 1"
       sodipodi:type="inkscape:persp3d" />
    <clipPath
       clipPathUnits="userSpaceOnUse"
       id="clipPath2964">
      <path
         d="m 77.057,674.69 42.114,0 0,36.975 -42.114,0 0,-36.975 z"
         id="path2966" />
    </clipPath>
    <inkscape:perspective
       id="perspective6432"
       inkscape:persp3d-origin="0.5 : 0.33333333 : 1"
       inkscape:vp_z="1 : 0.5 : 1"
       inkscape:vp_y="0 : 1000 : 0"
       inkscape:vp_x="0 : 0.5 : 1"
       sodipodi:type="inkscape:persp3d" />
    <clipPath
       clipPathUnits="userSpaceOnUse"
       id="clipPath3256">
      <path
         d="m 134.072,674.69 42.114,0 0,36.975 -42.114,0 0,-36.975 z"
         id="path3258" />
    </clipPath>
    <inkscape:perspective
       id="perspective6560"
       inkscape:persp3d-origin="0.5 : 0.33333333 : 1"
       inkscape:vp_z="1 : 0.5 : 1"
       inkscape:vp_y="0 : 1000 : 0"
       inkscape:vp_x="0 : 0.5 : 1"
       sodipodi:type="inkscape:persp3d" />
    <clipPath
       clipPathUnits="userSpaceOnUse"
       id="clipPath2908">
      <path
         d="m 191.084,674.69 42.113,0 0,36.975 -42.113,0 0,-36.975 z"
         id="path2910" />
    </clipPath>
    <inkscape:perspective
       id="perspective6650"
       inkscape:persp3d-origin="0.5 : 0.33333333 : 1"
       inkscape:vp_z="1 : 0.5 : 1"
       inkscape:vp_y="0 : 1000 : 0"
       inkscape:vp_x="0 : 0.5 : 1"
       sodipodi:type="inkscape:persp3d" />
    <clipPath
       clipPathUnits="userSpaceOnUse"
       id="clipPath3128">
      <path
         d="m 248.098,674.69 42.114,0 0,36.975 -42.114,0 0,-36.975 z"
         id="path3130" />
    </clipPath>
    <inkscape:perspective
       id="perspective6920"
       inkscape:persp3d-origin="0.5 : 0.33333333 : 1"
       inkscape:vp_z="1 : 0.5 : 1"
       inkscape:vp_y="0 : 1000 : 0"
       inkscape:vp_x="0 : 0.5 : 1"
       sodipodi:type="inkscape:persp3d" />
    <clipPath
       clipPathUnits="userSpaceOnUse"
       id="clipPath3016">
      <path
         d="m 305.111,674.69 42.114,0 0,36.975 -42.114,0 0,-36.975 z"
         id="path3018" />
    </clipPath>
    <inkscape:perspective
       id="perspective6991"
       inkscape:persp3d-origin="0.5 : 0.33333333 : 1"
       inkscape:vp_z="1 : 0.5 : 1"
       inkscape:vp_y="0 : 1000 : 0"
       inkscape:vp_x="0 : 0.5 : 1"
       sodipodi:type="inkscape:persp3d" />
    <inkscape:perspective
       id="perspective7016"
       inkscape:persp3d-origin="0.5 : 0.33333333 : 1"
       inkscape:vp_z="1 : 0.5 : 1"
       inkscape:vp_y="0 : 1000 : 0"
       inkscape:vp_x="0 : 0.5 : 1"
       sodipodi:type="inkscape:persp3d" />
    <clipPath
       clipPathUnits="userSpaceOnUse"
       id="clipPath4234">
      <path
         d="m 362.126,674.673 42.113,0 0,36.975 -42.113,0 0,-36.975 z"
         id="path4236" />
    </clipPath>
    <clipPath
       clipPathUnits="userSpaceOnUse"
       id="clipPath4222">
      <path
         d="m 362.126,674.673 42.114,0 0,36.975 -42.114,0 0,-36.975 z"
         id="path4224" />
    </clipPath>
    <inkscape:perspective
       id="perspective7091"
       inkscape:persp3d-origin="0.5 : 0.33333333 : 1"
       inkscape:vp_z="1 : 0.5 : 1"
       inkscape:vp_y="0 : 1000 : 0"
       inkscape:vp_x="0 : 0.5 : 1"
       sodipodi:type="inkscape:persp3d" />
    <clipPath
       clipPathUnits="userSpaceOnUse"
       id="clipPath4394">
      <path
         d="m 419.137,674.673 42.114,0 0,36.975 -42.114,0 0,-36.975 z"
         id="path4396" />
    </clipPath>
    <inkscape:perspective
       id="perspective7169"
       inkscape:persp3d-origin="0.5 : 0.33333333 : 1"
       inkscape:vp_z="1 : 0.5 : 1"
       inkscape:vp_y="0 : 1000 : 0"
       inkscape:vp_x="0 : 0.5 : 1"
       sodipodi:type="inkscape:persp3d" />
    <clipPath
       clipPathUnits="userSpaceOnUse"
       id="clipPath4848">
      <path
         d="m 476.152,674.673 42.114,0 0,36.975 -42.114,0 0,-36.975 z"
         id="path4850" />
    </clipPath>
    <inkscape:perspective
       id="perspective7231"
       inkscape:persp3d-origin="0.5 : 0.33333333 : 1"
       inkscape:vp_z="1 : 0.5 : 1"
       inkscape:vp_y="0 : 1000 : 0"
       inkscape:vp_x="0 : 0.5 : 1"
       sodipodi:type="inkscape:persp3d" />
    <clipPath
       clipPathUnits="userSpaceOnUse"
       id="clipPath4976">
      <path
         d="m 20.044,617.671 42.114,0 0,36.975 -42.114,0 0,-36.975 z"
         id="path4978" />
    </clipPath>
    <inkscape:perspective
       id="perspective7293"
       inkscape:persp3d-origin="0.5 : 0.33333333 : 1"
       inkscape:vp_z="1 : 0.5 : 1"
       inkscape:vp_y="0 : 1000 : 0"
       inkscape:vp_x="0 : 0.5 : 1"
       sodipodi:type="inkscape:persp3d" />
    <clipPath
       clipPathUnits="userSpaceOnUse"
       id="clipPath4924">
      <path
         d="m 134.07,617.671 42.114,0 0,36.975 -42.114,0 0,-36.975 z"
         id="path4926" />
    </clipPath>
    <inkscape:perspective
       id="perspective7355"
       inkscape:persp3d-origin="0.5 : 0.33333333 : 1"
       inkscape:vp_z="1 : 0.5 : 1"
       inkscape:vp_y="0 : 1000 : 0"
       inkscape:vp_x="0 : 0.5 : 1"
       sodipodi:type="inkscape:persp3d" />
    <clipPath
       clipPathUnits="userSpaceOnUse"
       id="clipPath4732">
      <path
         d="m 191.083,617.671 42.114,0 0,36.975 -42.114,0 0,-36.975 z"
         id="path4734" />
    </clipPath>
    <inkscape:perspective
       id="perspective7417"
       inkscape:persp3d-origin="0.5 : 0.33333333 : 1"
       inkscape:vp_z="1 : 0.5 : 1"
       inkscape:vp_y="0 : 1000 : 0"
       inkscape:vp_x="0 : 0.5 : 1"
       sodipodi:type="inkscape:persp3d" />
    <clipPath
       clipPathUnits="userSpaceOnUse"
       id="clipPath4538">
      <path
         d="m 305.109,617.68 42.114,0 0,36.966 -42.114,0 0,-36.966 z"
         id="path4540" />
    </clipPath>
    <inkscape:perspective
       id="perspective7567"
       inkscape:persp3d-origin="0.5 : 0.33333333 : 1"
       inkscape:vp_z="1 : 0.5 : 1"
       inkscape:vp_y="0 : 1000 : 0"
       inkscape:vp_x="0 : 0.5 : 1"
       sodipodi:type="inkscape:persp3d" />
    <clipPath
       clipPathUnits="userSpaceOnUse"
       id="clipPath4888">
      <path
         d="m 362.141,617.646 42.114,0 0,36.974 -42.114,0 0,-36.974 z"
         id="path4890" />
    </clipPath>
    <inkscape:perspective
       id="perspective7715"
       inkscape:persp3d-origin="0.5 : 0.33333333 : 1"
       inkscape:vp_z="1 : 0.5 : 1"
       inkscape:vp_y="0 : 1000 : 0"
       inkscape:vp_x="0 : 0.5 : 1"
       sodipodi:type="inkscape:persp3d" />
    <clipPath
       clipPathUnits="userSpaceOnUse"
       id="clipPath4704">
      <path
         d="m 419.137,617.646 42.114,0 0,36.974 -42.114,0 0,-36.974 z"
         id="path4706" />
    </clipPath>
    <clipPath
       clipPathUnits="userSpaceOnUse"
       id="clipPath4684">
      <path
         d="m 419.137,617.646 42.114,0 0,36.974 -42.114,0 0,-36.974 z"
         id="path4686" />
    </clipPath>
    <inkscape:perspective
       id="perspective7822"
       inkscape:persp3d-origin="0.5 : 0.33333333 : 1"
       inkscape:vp_z="1 : 0.5 : 1"
       inkscape:vp_y="0 : 1000 : 0"
       inkscape:vp_x="0 : 0.5 : 1"
       sodipodi:type="inkscape:persp3d" />
    <clipPath
       clipPathUnits="userSpaceOnUse"
       id="clipPath5076">
      <path
         d="m 476.152,617.644 42.135,0 0,37.002 -42.135,0 0,-37.002 z"
         id="path5078" />
    </clipPath>
    <clipPath
       clipPathUnits="userSpaceOnUse"
       id="clipPath5064">
      <path
         d="m 476.152,617.645 42.135,0 0,37.001 -42.135,0 0,-37.001 z"
         id="path5066" />
    </clipPath>
    <inkscape:perspective
       id="perspective7961"
       inkscape:persp3d-origin="0.5 : 0.33333333 : 1"
       inkscape:vp_z="1 : 0.5 : 1"
       inkscape:vp_y="0 : 1000 : 0"
       inkscape:vp_x="0 : 0.5 : 1"
       sodipodi:type="inkscape:persp3d" />
    <clipPath
       clipPathUnits="userSpaceOnUse"
       id="clipPath5016">
      <path
         d="m 533.182,617.715 42.114,0 0,36.931 -42.114,0 0,-36.931 z"
         id="path5018" />
    </clipPath>
    <inkscape:perspective
       id="perspective8099"
       inkscape:persp3d-origin="0.5 : 0.33333333 : 1"
       inkscape:vp_z="1 : 0.5 : 1"
       inkscape:vp_y="0 : 1000 : 0"
       inkscape:vp_x="0 : 0.5 : 1"
       sodipodi:type="inkscape:persp3d" />
    <clipPath
       clipPathUnits="userSpaceOnUse"
       id="clipPath4626">
      <path
         d="m 20.04,560.622 42.114,0 0,36.974 -42.114,0 0,-36.974 z"
         id="path4628" />
    </clipPath>
    <inkscape:perspective
       id="perspective8156"
       inkscape:persp3d-origin="0.5 : 0.33333333 : 1"
       inkscape:vp_z="1 : 0.5 : 1"
       inkscape:vp_y="0 : 1000 : 0"
       inkscape:vp_x="0 : 0.5 : 1"
       sodipodi:type="inkscape:persp3d" />
    <inkscape:perspective
       id="perspective8223"
       inkscape:persp3d-origin="0.5 : 0.33333333 : 1"
       inkscape:vp_z="1 : 0.5 : 1"
       inkscape:vp_y="0 : 1000 : 0"
       inkscape:vp_x="0 : 0.5 : 1"
       sodipodi:type="inkscape:persp3d" />
    <inkscape:perspective
       id="perspective8314"
       inkscape:persp3d-origin="0.5 : 0.33333333 : 1"
       inkscape:vp_z="1 : 0.5 : 1"
       inkscape:vp_y="0 : 1000 : 0"
       inkscape:vp_x="0 : 0.5 : 1"
       sodipodi:type="inkscape:persp3d" />
    <clipPath
       clipPathUnits="userSpaceOnUse"
       id="clipPath4494">
      <path
         d="m 191.098,560.776 42.113,0 0,36.976 -42.113,0 0,-36.976 z"
         id="path4496" />
    </clipPath>
    <clipPath
       clipPathUnits="userSpaceOnUse"
       id="clipPath4478">
      <path
         d="m 195.989,560.927 32.331,0 0,36.669 -32.331,0 0,-36.669 z"
         id="path4480" />
    </clipPath>
    <clipPath
       clipPathUnits="userSpaceOnUse"
       id="clipPath4462">
      <path
         d="m 195.989,560.927 32.331,0 0,36.669 -32.331,0 0,-36.669 z"
         id="path4464" />
    </clipPath>
    <clipPath
       clipPathUnits="userSpaceOnUse"
       id="clipPath4442">
      <path
         d="m 195.989,560.927 32.331,0 0,36.669 -32.331,0 0,-36.669 z"
         id="path4444" />
    </clipPath>
    <clipPath
       clipPathUnits="userSpaceOnUse"
       id="clipPath4418">
      <path
         d="m 195.989,560.927 32.331,0 0,36.669 -32.331,0 0,-36.669 z"
         id="path4420" />
    </clipPath>
  </defs>
  <sodipodi:namedview
     id="base"
     pagecolor="#ffffff"
     bordercolor="#666666"
     borderopacity="1.0"
     inkscape:pageopacity="0.0"
     inkscape:pageshadow="2"
     inkscape:zoom="2.362731"
     inkscape:cx="148.34528"
     inkscape:cy="166.54456"
     inkscape:document-units="px"
     inkscape:current-layer="layer1"
     showgrid="false"
     inkscape:window-width="1920"
     inkscape:window-height="1009"
     inkscape:window-x="-8"
     inkscape:window-y="-8"
     inkscape:window-maximized="1"
     showguides="true"
     inkscape:guide-bbox="true"
     inkscape:showpageshadow="0"
     inkscape:pagecheckerboard="0"
     inkscape:deskcolor="#d1d1d1" />
  <metadata
     id="metadata5326">
    <rdf:RDF>
      <cc:Work
         rdf:about="">
        <dc:format>image/svg+xml</dc:format>
        <dc:type
           rdf:resource="http://purl.org/dc/dcmitype/StillImage" />
      </cc:Work>
    </rdf:RDF>
  </metadata>
  <g
     inkscape:label="Livello 1"
     inkscape:groupmode="layer"
     id="layer1"
     transform="translate(-359.59782,-296.11686)">
    <g
       inkscape:label="Ebene 1"
       inkscape:groupmode="layer"
       transform="translate(-501.54702,586.32528)"
       id="layer1-0" />
    <path
       id="path4424"
       style="fill:#ffffff;stroke:#ef3e42;stroke-width:1.5;stroke-linecap:butt;stroke-linejoin:miter;stroke-miterlimit:10;stroke-opacity:1;stroke-dasharray:none;fill-opacity:1"
       d="m 399.31716,427.37363 60.8224,0 c 0.50787,0 1.26969,0.76177 1.26969,1.2696 l 0,166.24295 c 0,0.49964 -0.76182,1.00747 -1.26969,1.00747 l -60.8224,0 c -0.76182,0 -1.2697,-0.50783 -1.2697,-1.00747 l 0,-166.24295 c 0,-0.50783 0.50788,-1.2696 1.2697,-1.2696 z" />
    <g
       id="g4426"
       transform="matrix(8.1915692,0,0,-8.1909215,398.04915,470.7076)">
      <path
         d="m 0,0 7.735,-4.455 0,2.196 L 0,2.197 0,0 z"
         style="fill:#ef3e42;fill-opacity:1;fill-rule:nonzero;stroke:none"
         id="path4428" />
    </g>
    <g
       id="g4430"
       transform="matrix(8.1915692,0,0,-8.1909215,398.04915,502.38438)">
      <path
         d="m 0,0 7.735,-4.455 0,2.196 L 0,2.197 0,0 z"
         style="fill:#ef3e42;fill-opacity:1;fill-rule:nonzero;stroke:none"
         id="path4432" />
    </g>
    <g
       id="g4434"
       transform="matrix(8.1915692,0,0,-8.1909215,398.04915,534.06104)">
      <path
         d="m 0,0 7.735,-4.455 0,2.196 L 0,2.197 0,0 z"
         style="fill:#ef3e42;fill-opacity:1;fill-rule:nonzero;stroke:none"
         id="path4436" />
    </g>
    <path
       id="path4448"
       style="fill:#ffffff;stroke:#ef3e42;stroke-width:1.5;stroke-linecap:butt;stroke-linejoin:miter;stroke-miterlimit:10;stroke-opacity:1;stroke-dasharray:none;fill-opacity:1"
       d="m 480.66927,427.37363 60.57665,0 c 0.49968,0 1.2615,0.76177 1.2615,1.2696 l 0,166.24295 c 0,0.49964 -0.76182,1.00747 -1.2615,1.00747 l -60.57665,0 c -0.76183,0 -1.2697,-0.50783 -1.2697,-1.00747 l 0,-166.24295 c 0,-0.50783 0.50787,-1.2696 1.2697,-1.2696 z" />
    <g
       id="g4450"
       transform="matrix(8.1915692,0,0,-8.1909215,479.4029,470.7076)">
      <path
         d="m 0,0 7.704,-4.455 0,2.196 L 0,2.197 0,0 z"
         style="fill:#ef3e42;fill-opacity:1;fill-rule:nonzero;stroke:none"
         id="path4452" />
    </g>
    <g
       id="g4454"
       transform="matrix(8.1915692,0,0,-8.1909215,479.4029,502.38438)">
      <path
         d="m 0,0 7.704,-4.455 0,2.196 L 0,2.197 0,0 z"
         style="fill:#ef3e42;fill-opacity:1;fill-rule:nonzero;stroke:none"
         id="path4456" />
    </g>
    <g
       transform="matrix(8.1915692,0,0,-8.1909215,-1245.5548,5191.2881)"
       id="g4458"
       style="stroke-width:0.20952374;stroke-miterlimit:10;stroke-dasharray:none">
      <g
         id="g4460"
         clip-path="url(#clipPath4462)"
         style="stroke-width:0.20952374;stroke-miterlimit:10;stroke-dasharray:none">
        <g
           id="g4466"
           transform="translate(220.6322,581.6091)"
           style="stroke-width:0.20952374;stroke-miterlimit:10;stroke-dasharray:none">
          <path
             d="M 0,0 7.425,0 C 7.487,0 7.58,-0.093 7.58,-0.155 l 0,-20.296 c 0,-0.061 -0.093,-0.123 -0.155,-0.123 l -7.425,0 c -0.093,0 -0.155,0.062 -0.155,0.123 l 0,20.296 C -0.155,-0.093 -0.093,0 0,0 z"
             style="fill:#ffffff;stroke:#ef3e42;stroke-width:0.18312235;stroke-linecap:butt;stroke-linejoin:miter;stroke-miterlimit:10;stroke-opacity:1;stroke-dasharray:none;fill-opacity:1"
             id="path4468" />
        </g>
      </g>
    </g>
    <g
       id="g4470"
       transform="matrix(8.1915692,0,0,-8.1909215,560.50029,470.7076)">
      <path
         d="m 0,0 7.735,-4.455 0,2.196 L 0,2.197 0,0 z"
         style="fill:#ef3e42;fill-opacity:1;fill-rule:nonzero;stroke:none"
         id="path4472" />
    </g>
    <path
       id="path4484"
       style="fill:#ffffff;stroke:#000000;stroke-width:1.50000012;stroke-linecap:butt;stroke-linejoin:miter;stroke-miterlimit:10;stroke-opacity:1;stroke-dasharray:none;stroke-dashoffset:0;fill-opacity:1"
       d="m 361.30009,415.2093 c -1.26969,-1.76924 -1.26969,-4.30842 0,-6.07767 L 424.154,299.90569 c 1.00756,-1.76924 3.03907,-3.03883 5.31633,-3.03883 2.53939,0 4.57089,1.26959 5.57846,3.03883 l 62.85391,109.22594 c 1.01574,1.76925 1.01574,4.30843 0,6.07767 -1.2697,2.03135 -3.30121,3.29275 -5.57028,3.29275 l -125.70781,0 c -2.28545,0 -4.30876,-1.2614 -5.32452,-3.29275 z" />
    <path
       id="path4488"
       style="fill:#000000;fill-opacity:1;fill-rule:nonzero;stroke:none"
       d="m 390.74547,408.87428 2.02332,-5.57802 0.26213,0 1.76937,5.57802 -4.05482,0 z m 4.81664,1.52351 1.2615,3.80059 1.77757,0 -4.5627,-12.67136 -2.02332,0 -4.81665,12.67136 1.77758,0 1.2615,-3.80059 5.32452,0 z" />
    <path
       id="path4500"
       style="fill:#000000;fill-opacity:1;fill-rule:nonzero;stroke:none"
       d="m 403.92239,403.55195 6.84815,0 c -2.28544,2.78491 -4.5627,7.34726 -5.07877,10.6482 l 1.77757,0 c 0.76181,-5.57802 3.80089,-9.63252 5.07059,-10.90211 l 0,-1.2696 -8.61754,0 0,1.52351 z" />
    <path
       id="path4504"
       style="fill:#000000;fill-opacity:1;fill-rule:nonzero;stroke:none"
       d="m 415.32833,406.08704 c 0,-0.76176 0,-3.03882 2.5312,-3.03882 1.77756,0 2.28545,1.26959 2.28545,2.27706 0,1.77744 -0.76182,2.28527 -2.28545,3.04703 l -1.51544,0.75356 c -1.77758,1.01568 -2.78513,2.53919 -3.04727,5.07018 l 8.62572,0 0,-1.51532 -6.84815,0 c 0,-0.51602 0.50788,-1.5235 2.27726,-2.28527 l 1.2697,-0.76174 c 1.77756,-1.01568 3.30119,-2.02317 3.30119,-4.30844 0,-2.27706 -1.77756,-3.54666 -3.80908,-3.54666 -1.51544,0 -4.5545,0.25392 -4.5545,4.30842 l 1.76937,0 z" />
    <path
       id="path4524"
       style="fill:#000000;fill-opacity:1;fill-rule:nonzero;stroke:none"
       d="m 441.34165,408.87441 2.02332,-5.57801 1.77757,5.57801 -3.80089,0 z m 4.56271,1.52351 1.2615,3.80059 1.77757,0 -4.56271,-12.67136 -2.02331,0 -4.81665,12.67136 1.77757,0 1.51545,-3.80059 5.07058,0 z" />
    <path
       id="path4528"
       style="fill:#000000;fill-opacity:1;fill-rule:nonzero;stroke:none"
       d="m 454.2663,403.55195 7.09391,0 c -2.5312,2.78491 -4.80846,7.34726 -5.31634,10.6482 l 1.76938,0 c 1.01576,-5.57802 4.05483,-9.63252 5.32452,-10.90211 l 0,-1.2696 -8.87147,0 0,1.52351 z" />
    <path
       id="path4532"
       style="fill:#000000;fill-opacity:1;fill-rule:nonzero;stroke:none"
       d="m 467.44572,408.36741 0.50787,0 c 1.26151,0 3.03908,0.25391 3.03908,2.28527 0,1.51531 -1.00756,2.53099 -2.78513,2.53099 -2.28545,0 -2.53119,-1.52351 -2.53119,-2.7931 l -1.77758,0 c 0.25394,1.52351 0.50788,2.7931 2.02332,3.55485 0.50787,0.49965 1.26969,0.49965 2.28545,0.49965 3.03907,0 4.5627,-1.76924 4.5627,-3.79239 0,-1.77744 -1.01576,-2.53919 -2.28545,-3.04703 0.76182,-0.25392 1.77758,-1.00748 1.77758,-2.531 0,-2.03134 -1.52363,-3.30094 -4.05483,-3.30094 -3.30121,0 -4.05483,2.28527 -4.05483,4.05451 l 1.52364,0 c 0.24574,-1.00749 0.24574,-2.78491 2.53119,-2.78491 2.02331,0 2.27725,1.26959 2.27725,2.03134 0,1.52352 -1.01575,2.02316 -2.27725,2.02316 l -0.76182,0 0,1.2696 z" />
    <text
       xml:space="preserve"
       style="font-size:18.11309433px;font-style:normal;font-variant:normal;font-weight:normal;font-stretch:normal;text-align:start;line-height:100%;writing-mode:lr-tb;text-anchor:start;fill:#000000;fill-opacity:1;stroke:#ffffff;stroke-width:0.40000001;stroke-miterlimit:4;stroke-opacity:1;stroke-dasharray:none;font-family:Transport Heavy;-inkscape-font-specification:'Transport Heavy,'"
       x="426.15616"
       y="415.28748"
       id="text9322"
       transform="scale(1.0000395,0.9999605)"><tspan
         sodipodi:role="line"
         id="tspan9324"
         x="426.15616"
         y="415.28748"
         style="stroke-width:0.40000001">/</tspan></text>
    <path
       d="m 918.89189,427.37363 -60.8224,0 c -0.50787,0 -1.26969,0.76177 -1.26969,1.2696 l 0,166.24295 c 0,0.49964 0.76182,1.00747 1.26969,1.00747 l 60.8224,0 c 0.76182,0 1.2697,-0.50783 1.2697,-1.00747 l 0,-166.24295 c 0,-0.50783 -0.50788,-1.2696 -1.2697,-1.2696 z"
       style="fill:#ffffff;stroke:#ef3e42;stroke-width:1.5;stroke-linecap:butt;stroke-linejoin:miter;stroke-miterlimit:10;stroke-opacity:1;stroke-dasharray:none;fill-opacity:1"
       id="path9367" />
    <g
       transform="matrix(-8.1915692,0,0,-8.1909215,920.1599,470.7076)"
       id="g9369">
      <path
         id="path9371"
         style="fill:#ef3e42;fill-opacity:1;fill-rule:nonzero;stroke:none"
         d="m 0,0 7.735,-4.455 0,2.196 L 0,2.197 0,0 z" />
    </g>
    <g
       transform="matrix(-8.1915692,0,0,-8.1909215,920.1599,502.38438)"
       id="g9373">
      <path
         id="path9375"
         style="fill:#ef3e42;fill-opacity:1;fill-rule:nonzero;stroke:none"
         d="m 0,0 7.735,-4.455 0,2.196 L 0,2.197 0,0 z" />
    </g>
    <g
       transform="matrix(-8.1915692,0,0,-8.1909215,920.1599,534.06104)"
       id="g9377">
      <path
         id="path9379"
         style="fill:#ef3e42;fill-opacity:1;fill-rule:nonzero;stroke:none"
         d="m 0,0 7.735,-4.455 0,2.196 L 0,2.197 0,0 z" />
    </g>
    <path
       d="m 837.53978,427.37363 -60.57665,0 c -0.49968,0 -1.2615,0.76177 -1.2615,1.2696 l 0,166.24295 c 0,0.49964 0.76182,1.00747 1.2615,1.00747 l 60.57665,0 c 0.76183,0 1.2697,-0.50783 1.2697,-1.00747 l 0,-166.24295 c 0,-0.50783 -0.50787,-1.2696 -1.2697,-1.2696 z"
       style="fill:#ffffff;stroke:#ef3e42;stroke-width:1.5;stroke-linecap:butt;stroke-linejoin:miter;stroke-miterlimit:10;stroke-opacity:1;stroke-dasharray:none;fill-opacity:1"
       id="path9381" />
    <g
       transform="matrix(-8.1915692,0,0,-8.1909215,838.80615,470.7076)"
       id="g9383">
      <path
         id="path9385"
         style="fill:#ef3e42;fill-opacity:1;fill-rule:nonzero;stroke:none"
         d="m 0,0 7.704,-4.455 0,2.196 L 0,2.197 0,0 z" />
    </g>
    <g
       transform="matrix(-8.1915692,0,0,-8.1909215,838.80615,502.38438)"
       id="g9387">
      <path
         id="path9389"
         style="fill:#ef3e42;fill-opacity:1;fill-rule:nonzero;stroke:none"
         d="m 0,0 7.704,-4.455 0,2.196 L 0,2.197 0,0 z" />
    </g>
    <g
       style="stroke-width:0.20952374;stroke-miterlimit:10;stroke-dasharray:none"
       id="g9391"
       transform="matrix(-8.1915692,0,0,-8.1909215,2563.7639,5191.2881)">
      <g
         style="stroke-width:0.20952374;stroke-miterlimit:10;stroke-dasharray:none"
         clip-path="url(#clipPath4462)"
         id="g9393">
        <g
           style="stroke-width:0.20952374;stroke-miterlimit:10;stroke-dasharray:none"
           transform="translate(220.6322,581.6091)"
           id="g9395">
          <path
             id="path9397"
             style="fill:#ffffff;stroke:#ef3e42;stroke-width:0.18312235;stroke-linecap:butt;stroke-linejoin:miter;stroke-miterlimit:10;stroke-opacity:1;stroke-dasharray:none;fill-opacity:1"
             d="M 0,0 7.425,0 C 7.487,0 7.58,-0.093 7.58,-0.155 l 0,-20.296 c 0,-0.061 -0.093,-0.123 -0.155,-0.123 l -7.425,0 c -0.093,0 -0.155,0.062 -0.155,0.123 l 0,20.296 C -0.155,-0.093 -0.093,0 0,0 z" />
        </g>
      </g>
    </g>
    <g
       transform="matrix(-8.1915692,0,0,-8.1909215,757.70876,470.7076)"
       id="g9399">
      <path
         id="path9401"
         style="fill:#ef3e42;fill-opacity:1;fill-rule:nonzero;stroke:none"
         d="m 0,0 7.735,-4.455 0,2.196 L 0,2.197 0,0 z" />
    </g>
    <path
       d="m 956.90896,415.2093 c 1.26969,-1.76924 1.26969,-4.30842 0,-6.07767 L 894.05505,299.90569 c -1.00756,-1.76924 -3.03907,-3.03883 -5.31633,-3.03883 -2.53939,0 -4.57089,1.26959 -5.57846,3.03883 l -62.85391,109.22594 c -1.01574,1.76925 -1.01574,4.30843 0,6.07767 1.2697,2.03135 3.30121,3.29275 5.57028,3.29275 l 125.70781,0 c 2.28545,0 4.30876,-1.2614 5.32452,-3.29275 z"
       style="fill:#ffffff;stroke:#000000;stroke-width:1.50000012;stroke-linecap:butt;stroke-linejoin:miter;stroke-miterlimit:10;stroke-opacity:1;stroke-dasharray:none;stroke-dashoffset:0;fill-opacity:1"
       id="path9403" />
    <path
       d="m 848.98577,408.87428 2.02332,-5.57802 0.26213,0 1.76937,5.57802 -4.05482,0 z m 4.81664,1.52351 1.2615,3.80059 1.77757,0 -4.5627,-12.67136 -2.02332,0 -4.81665,12.67136 1.77758,0 1.2615,-3.80059 5.32452,0 z"
       style="fill:#000000;fill-opacity:1;fill-rule:nonzero;stroke:none"
       id="path9405" />
    <path
       d="m 862.16269,403.55195 6.84815,0 c -2.28544,2.78491 -4.5627,7.34726 -5.07877,10.6482 l 1.77757,0 c 0.76181,-5.57802 3.80089,-9.63252 5.07059,-10.90211 l 0,-1.2696 -8.61754,0 0,1.52351 z"
       style="fill:#000000;fill-opacity:1;fill-rule:nonzero;stroke:none"
       id="path9407" />
    <path
       d="m 873.56863,406.08704 c 0,-0.76176 0,-3.03882 2.5312,-3.03882 1.77756,0 2.28545,1.26959 2.28545,2.27706 0,1.77744 -0.76182,2.28527 -2.28545,3.04703 l -1.51544,0.75356 c -1.77758,1.01568 -2.78513,2.53919 -3.04727,5.07018 l 8.62572,0 0,-1.51532 -6.84815,0 c 0,-0.51602 0.50788,-1.5235 2.27726,-2.28527 l 1.2697,-0.76174 c 1.77756,-1.01568 3.30119,-2.02317 3.30119,-4.30844 0,-2.27706 -1.77756,-3.54666 -3.80908,-3.54666 -1.51544,0 -4.5545,0.25392 -4.5545,4.30842 l 1.76937,0 z"
       style="fill:#000000;fill-opacity:1;fill-rule:nonzero;stroke:none"
       id="path9409" />
    <path
       d="m 899.58195,408.87441 2.02332,-5.57801 1.77757,5.57801 -3.80089,0 z m 4.56271,1.52351 1.2615,3.80059 1.77757,0 -4.56271,-12.67136 -2.02331,0 -4.81665,12.67136 1.77757,0 1.51545,-3.80059 5.07058,0 z"
       style="fill:#000000;fill-opacity:1;fill-rule:nonzero;stroke:none"
       id="path9411" />
    <path
       d="m 912.5066,403.55195 7.09391,0 c -2.5312,2.78491 -4.80846,7.34726 -5.31634,10.6482 l 1.76938,0 c 1.01576,-5.57802 4.05483,-9.63252 5.32452,-10.90211 l 0,-1.2696 -8.87147,0 0,1.52351 z"
       style="fill:#000000;fill-opacity:1;fill-rule:nonzero;stroke:none"
       id="path9413" />
    <path
       d="m 925.68602,408.36741 0.50787,0 c 1.26151,0 3.03908,0.25391 3.03908,2.28527 0,1.51531 -1.00756,2.53099 -2.78513,2.53099 -2.28545,0 -2.53119,-1.52351 -2.53119,-2.7931 l -1.77758,0 c 0.25394,1.52351 0.50788,2.7931 2.02332,3.55485 0.50787,0.49965 1.26969,0.49965 2.28545,0.49965 3.03907,0 4.5627,-1.76924 4.5627,-3.79239 0,-1.77744 -1.01576,-2.53919 -2.28545,-3.04703 0.76182,-0.25392 1.77758,-1.00748 1.77758,-2.531 0,-2.03134 -1.52363,-3.30094 -4.05483,-3.30094 -3.30121,0 -4.05483,2.28527 -4.05483,4.05451 l 1.52364,0 c 0.24574,-1.00749 0.24574,-2.78491 2.53119,-2.78491 2.02331,0 2.27725,1.26959 2.27725,2.03134 0,1.52352 -1.01575,2.02316 -2.27725,2.02316 l -0.76182,0 0,1.2696 z"
       style="fill:#000000;fill-opacity:1;fill-rule:nonzero;stroke:none"
       id="path9415" />
    <text
       transform="scale(1.0000395,0.9999605)"
       id="text9417"
       y="415.28748"
       x="884.37994"
       style="font-size:18.11309433px;font-style:normal;font-variant:normal;font-weight:normal;font-stretch:normal;text-align:start;line-height:100%;writing-mode:lr-tb;text-anchor:start;fill:#000000;fill-opacity:1;stroke:#ffffff;stroke-width:0.40000001;stroke-miterlimit:4;stroke-opacity:1;stroke-dasharray:none;font-family:Transport Heavy;-inkscape-font-specification:'Transport Heavy,'"
       xml:space="preserve"><tspan
         style="stroke-width:0.40000001"
         y="415.28748"
         x="884.37994"
         id="tspan9419"
         sodipodi:role="line">/</tspan></text>
  </g>
</svg>
