<?xml version="1.0" encoding="UTF-8" standalone="no"?>
<!-- Created with Inkscape (http://www.inkscape.org/) -->

<svg
   xmlns:dc="http://purl.org/dc/elements/1.1/"
   xmlns:cc="http://creativecommons.org/ns#"
   xmlns:rdf="http://www.w3.org/1999/02/22-rdf-syntax-ns#"
   xmlns:svg="http://www.w3.org/2000/svg"
   xmlns="http://www.w3.org/2000/svg"
   xmlns:sodipodi="http://sodipodi.sourceforge.net/DTD/sodipodi-0.dtd"
   xmlns:inkscape="http://www.inkscape.org/namespaces/inkscape"
   width="399.8006"
   height="351.37137"
   id="svg5321"
   version="1.1"
   inkscape:version="0.47 r22583"
   sodipodi:docname="Denmark road sign A91.svg">
  <defs
     id="defs5323"><inkscape:perspective
   sodipodi:type="inkscape:persp3d"
   inkscape:vp_x="0 : 526.18109 : 1"
   inkscape:vp_y="0 : 1000 : 0"
   inkscape:vp_z="744.09448 : 526.18109 : 1"
   inkscape:persp3d-origin="372.04724 : 350.78739 : 1"
   id="perspective5329" />
<inkscape:perspective
   id="perspective5339"
   inkscape:persp3d-origin="0.5 : 0.33333333 : 1"
   inkscape:vp_z="1 : 0.5 : 1"
   inkscape:vp_y="0 : 1000 : 0"
   inkscape:vp_x="0 : 0.5 : 1"
   sodipodi:type="inkscape:persp3d" />
<clipPath
   clipPathUnits="userSpaceOnUse"
   id="clipPath4202">
  <path
     d="m 20.045,731.714 42.114,0 0,37.012 -42.114,0 0,-37.012 z"
     id="path4204" />
</clipPath>
<inkscape:perspective
   id="perspective5396"
   inkscape:persp3d-origin="425 : 140 : 1"
   inkscape:vp_z="850 : 210 : 1"
   inkscape:vp_y="0 : 1000 : 0"
   inkscape:vp_x="0 : 210 : 1"
   sodipodi:type="inkscape:persp3d" />
<inkscape:perspective
   id="perspective5429"
   inkscape:persp3d-origin="0.5 : 0.33333333 : 1"
   inkscape:vp_z="1 : 0.5 : 1"
   inkscape:vp_y="0 : 1000 : 0"
   inkscape:vp_x="0 : 0.5 : 1"
   sodipodi:type="inkscape:persp3d" />
<clipPath
   clipPathUnits="userSpaceOnUse"
   id="clipPath2840">
  <path
     d="m 77.057,731.714 42.114,0 0,37.012 -42.114,0 0,-37.012 z"
     id="path2842" />
</clipPath>
<inkscape:perspective
   id="perspective5499"
   inkscape:persp3d-origin="0.5 : 0.33333333 : 1"
   inkscape:vp_z="1 : 0.5 : 1"
   inkscape:vp_y="0 : 1000 : 0"
   inkscape:vp_x="0 : 0.5 : 1"
   sodipodi:type="inkscape:persp3d" />
<clipPath
   clipPathUnits="userSpaceOnUse"
   id="clipPath3036">
  <path
     d="m 134.072,731.751 42.114,0 0,36.975 -42.114,0 0,-36.975 z"
     id="path3038" />
</clipPath>
<inkscape:perspective
   id="perspective5621"
   inkscape:persp3d-origin="0.5 : 0.33333333 : 1"
   inkscape:vp_z="1 : 0.5 : 1"
   inkscape:vp_y="0 : 1000 : 0"
   inkscape:vp_x="0 : 0.5 : 1"
   sodipodi:type="inkscape:persp3d" />
<clipPath
   clipPathUnits="userSpaceOnUse"
   id="clipPath2952">
  <path
     d="m 191.084,731.751 42.113,0 0,36.975 -42.113,0 0,-36.975 z"
     id="path2954" />
</clipPath>
<clipPath
   clipPathUnits="userSpaceOnUse"
   id="clipPath2936">
  <path
     d="m 191.084,731.751 42.113,0 0,36.975 -42.113,0 0,-36.975 z"
     id="path2938" />
</clipPath>
<inkscape:perspective
   id="perspective5694"
   inkscape:persp3d-origin="0.5 : 0.33333333 : 1"
   inkscape:vp_z="1 : 0.5 : 1"
   inkscape:vp_y="0 : 1000 : 0"
   inkscape:vp_x="0 : 0.5 : 1"
   sodipodi:type="inkscape:persp3d" />
<inkscape:perspective
   inkscape:vp_x="0 : 226.5 : 1"
   inkscape:vp_y="0 : 1000 : 0"
   inkscape:vp_z="510 : 226.5 : 1"
   inkscape:persp3d-origin="255 : 151 : 1"
   id="perspective18"
   sodipodi:type="inkscape:persp3d" />

	<inkscape:perspective
   id="perspective5722"
   inkscape:persp3d-origin="0.5 : 0.33333333 : 1"
   inkscape:vp_z="1 : 0.5 : 1"
   inkscape:vp_y="0 : 1000 : 0"
   inkscape:vp_x="0 : 0.5 : 1"
   sodipodi:type="inkscape:persp3d" />
<clipPath
   clipPathUnits="userSpaceOnUse"
   id="clipPath3216">
  <path
     d="m 248.098,731.74 42.114,0 0,36.986 -42.114,0 0,-36.986 z"
     id="path3218" />
</clipPath>
<inkscape:perspective
   id="perspective5860"
   inkscape:persp3d-origin="0.5 : 0.33333333 : 1"
   inkscape:vp_z="1 : 0.5 : 1"
   inkscape:vp_y="0 : 1000 : 0"
   inkscape:vp_x="0 : 0.5 : 1"
   sodipodi:type="inkscape:persp3d" />
<clipPath
   clipPathUnits="userSpaceOnUse"
   id="clipPath2880">
  <path
     d="m 305.111,731.751 42.114,0 0,36.975 -42.114,0 0,-36.975 z"
     id="path2882" />
</clipPath>
<inkscape:perspective
   id="perspective5942"
   inkscape:persp3d-origin="0.5 : 0.33333333 : 1"
   inkscape:vp_z="1 : 0.5 : 1"
   inkscape:vp_y="0 : 1000 : 0"
   inkscape:vp_x="0 : 0.5 : 1"
   sodipodi:type="inkscape:persp3d" />
<clipPath
   clipPathUnits="userSpaceOnUse"
   id="clipPath3112">
  <path
     d="m 362.126,731.751 42.113,0 0,36.975 -42.113,0 0,-36.975 z"
     id="path3114" />
</clipPath>
<clipPath
   clipPathUnits="userSpaceOnUse"
   id="clipPath3100">
  <path
     d="m 362.126,731.751 42.114,0 0,36.975 -42.114,0 0,-36.975 z"
     id="path3102" />
</clipPath>
<inkscape:perspective
   id="perspective6017"
   inkscape:persp3d-origin="0.5 : 0.33333333 : 1"
   inkscape:vp_z="1 : 0.5 : 1"
   inkscape:vp_y="0 : 1000 : 0"
   inkscape:vp_x="0 : 0.5 : 1"
   sodipodi:type="inkscape:persp3d" />
<clipPath
   clipPathUnits="userSpaceOnUse"
   id="clipPath2984">
  <path
     d="m 419.137,731.751 42.114,0 0,36.975 -42.114,0 0,-36.975 z"
     id="path2986" />
</clipPath>
<inkscape:perspective
   id="perspective6119"
   inkscape:persp3d-origin="0.5 : 0.33333333 : 1"
   inkscape:vp_z="1 : 0.5 : 1"
   inkscape:vp_y="0 : 1000 : 0"
   inkscape:vp_x="0 : 0.5 : 1"
   sodipodi:type="inkscape:persp3d" />
<clipPath
   clipPathUnits="userSpaceOnUse"
   id="clipPath3296">
  <path
     d="m 476.153,731.751 42.113,0 0,36.975 -42.113,0 0,-36.975 z"
     id="path3298" />
</clipPath>
<inkscape:perspective
   id="perspective6219"
   inkscape:persp3d-origin="0.5 : 0.33333333 : 1"
   inkscape:vp_z="1 : 0.5 : 1"
   inkscape:vp_y="0 : 1000 : 0"
   inkscape:vp_x="0 : 0.5 : 1"
   sodipodi:type="inkscape:persp3d" />
<clipPath
   clipPathUnits="userSpaceOnUse"
   id="clipPath2860">
  <path
     d="m 533.165,731.751 42.113,0 0,36.975 -42.113,0 0,-36.975 z"
     id="path2862" />
</clipPath>
<inkscape:perspective
   id="perspective6281"
   inkscape:persp3d-origin="0.5 : 0.33333333 : 1"
   inkscape:vp_z="1 : 0.5 : 1"
   inkscape:vp_y="0 : 1000 : 0"
   inkscape:vp_x="0 : 0.5 : 1"
   sodipodi:type="inkscape:persp3d" />
<clipPath
   clipPathUnits="userSpaceOnUse"
   id="clipPath3080">
  <path
     d="m 20.045,674.69 42.114,0 0,36.975 -42.114,0 0,-36.975 z"
     id="path3082" />
</clipPath>
<inkscape:perspective
   id="perspective6343"
   inkscape:persp3d-origin="0.5 : 0.33333333 : 1"
   inkscape:vp_z="1 : 0.5 : 1"
   inkscape:vp_y="0 : 1000 : 0"
   inkscape:vp_x="0 : 0.5 : 1"
   sodipodi:type="inkscape:persp3d" />
<clipPath
   clipPathUnits="userSpaceOnUse"
   id="clipPath2964">
  <path
     d="m 77.057,674.69 42.114,0 0,36.975 -42.114,0 0,-36.975 z"
     id="path2966" />
</clipPath>
<inkscape:perspective
   id="perspective6432"
   inkscape:persp3d-origin="0.5 : 0.33333333 : 1"
   inkscape:vp_z="1 : 0.5 : 1"
   inkscape:vp_y="0 : 1000 : 0"
   inkscape:vp_x="0 : 0.5 : 1"
   sodipodi:type="inkscape:persp3d" />
<clipPath
   clipPathUnits="userSpaceOnUse"
   id="clipPath3256">
  <path
     d="m 134.072,674.69 42.114,0 0,36.975 -42.114,0 0,-36.975 z"
     id="path3258" />
</clipPath>
<inkscape:perspective
   id="perspective6560"
   inkscape:persp3d-origin="0.5 : 0.33333333 : 1"
   inkscape:vp_z="1 : 0.5 : 1"
   inkscape:vp_y="0 : 1000 : 0"
   inkscape:vp_x="0 : 0.5 : 1"
   sodipodi:type="inkscape:persp3d" />
<clipPath
   clipPathUnits="userSpaceOnUse"
   id="clipPath2908">
  <path
     d="m 191.084,674.69 42.113,0 0,36.975 -42.113,0 0,-36.975 z"
     id="path2910" />
</clipPath>
<inkscape:perspective
   id="perspective6650"
   inkscape:persp3d-origin="0.5 : 0.33333333 : 1"
   inkscape:vp_z="1 : 0.5 : 1"
   inkscape:vp_y="0 : 1000 : 0"
   inkscape:vp_x="0 : 0.5 : 1"
   sodipodi:type="inkscape:persp3d" />
<clipPath
   clipPathUnits="userSpaceOnUse"
   id="clipPath3128">
  <path
     d="m 248.098,674.69 42.114,0 0,36.975 -42.114,0 0,-36.975 z"
     id="path3130" />
</clipPath>
<inkscape:perspective
   id="perspective6920"
   inkscape:persp3d-origin="0.5 : 0.33333333 : 1"
   inkscape:vp_z="1 : 0.5 : 1"
   inkscape:vp_y="0 : 1000 : 0"
   inkscape:vp_x="0 : 0.5 : 1"
   sodipodi:type="inkscape:persp3d" />
<clipPath
   clipPathUnits="userSpaceOnUse"
   id="clipPath3016">
  <path
     d="m 305.111,674.69 42.114,0 0,36.975 -42.114,0 0,-36.975 z"
     id="path3018" />
</clipPath>
<inkscape:perspective
   id="perspective6991"
   inkscape:persp3d-origin="0.5 : 0.33333333 : 1"
   inkscape:vp_z="1 : 0.5 : 1"
   inkscape:vp_y="0 : 1000 : 0"
   inkscape:vp_x="0 : 0.5 : 1"
   sodipodi:type="inkscape:persp3d" />
<inkscape:perspective
   id="perspective7016"
   inkscape:persp3d-origin="0.5 : 0.33333333 : 1"
   inkscape:vp_z="1 : 0.5 : 1"
   inkscape:vp_y="0 : 1000 : 0"
   inkscape:vp_x="0 : 0.5 : 1"
   sodipodi:type="inkscape:persp3d" />
<clipPath
   clipPathUnits="userSpaceOnUse"
   id="clipPath4234">
  <path
     d="m 362.126,674.673 42.113,0 0,36.975 -42.113,0 0,-36.975 z"
     id="path4236" />
</clipPath>
<clipPath
   clipPathUnits="userSpaceOnUse"
   id="clipPath4222">
  <path
     d="m 362.126,674.673 42.114,0 0,36.975 -42.114,0 0,-36.975 z"
     id="path4224" />
</clipPath>
<inkscape:perspective
   id="perspective7091"
   inkscape:persp3d-origin="0.5 : 0.33333333 : 1"
   inkscape:vp_z="1 : 0.5 : 1"
   inkscape:vp_y="0 : 1000 : 0"
   inkscape:vp_x="0 : 0.5 : 1"
   sodipodi:type="inkscape:persp3d" />
<clipPath
   clipPathUnits="userSpaceOnUse"
   id="clipPath4394">
  <path
     d="m 419.137,674.673 42.114,0 0,36.975 -42.114,0 0,-36.975 z"
     id="path4396" />
</clipPath>
<inkscape:perspective
   id="perspective7169"
   inkscape:persp3d-origin="0.5 : 0.33333333 : 1"
   inkscape:vp_z="1 : 0.5 : 1"
   inkscape:vp_y="0 : 1000 : 0"
   inkscape:vp_x="0 : 0.5 : 1"
   sodipodi:type="inkscape:persp3d" />
<clipPath
   clipPathUnits="userSpaceOnUse"
   id="clipPath4848">
  <path
     d="m 476.152,674.673 42.114,0 0,36.975 -42.114,0 0,-36.975 z"
     id="path4850" />
</clipPath>
<inkscape:perspective
   id="perspective7231"
   inkscape:persp3d-origin="0.5 : 0.33333333 : 1"
   inkscape:vp_z="1 : 0.5 : 1"
   inkscape:vp_y="0 : 1000 : 0"
   inkscape:vp_x="0 : 0.5 : 1"
   sodipodi:type="inkscape:persp3d" />
<clipPath
   clipPathUnits="userSpaceOnUse"
   id="clipPath4976">
  <path
     d="m 20.044,617.671 42.114,0 0,36.975 -42.114,0 0,-36.975 z"
     id="path4978" />
</clipPath>
<inkscape:perspective
   id="perspective7293"
   inkscape:persp3d-origin="0.5 : 0.33333333 : 1"
   inkscape:vp_z="1 : 0.5 : 1"
   inkscape:vp_y="0 : 1000 : 0"
   inkscape:vp_x="0 : 0.5 : 1"
   sodipodi:type="inkscape:persp3d" />
<clipPath
   clipPathUnits="userSpaceOnUse"
   id="clipPath4924">
  <path
     d="m 134.07,617.671 42.114,0 0,36.975 -42.114,0 0,-36.975 z"
     id="path4926" />
</clipPath>
<inkscape:perspective
   id="perspective7355"
   inkscape:persp3d-origin="0.5 : 0.33333333 : 1"
   inkscape:vp_z="1 : 0.5 : 1"
   inkscape:vp_y="0 : 1000 : 0"
   inkscape:vp_x="0 : 0.5 : 1"
   sodipodi:type="inkscape:persp3d" />
<clipPath
   clipPathUnits="userSpaceOnUse"
   id="clipPath4732">
  <path
     d="m 191.083,617.671 42.114,0 0,36.975 -42.114,0 0,-36.975 z"
     id="path4734" />
</clipPath>
<inkscape:perspective
   id="perspective7417"
   inkscape:persp3d-origin="0.5 : 0.33333333 : 1"
   inkscape:vp_z="1 : 0.5 : 1"
   inkscape:vp_y="0 : 1000 : 0"
   inkscape:vp_x="0 : 0.5 : 1"
   sodipodi:type="inkscape:persp3d" />
<clipPath
   clipPathUnits="userSpaceOnUse"
   id="clipPath4538">
  <path
     d="m 305.109,617.68 42.114,0 0,36.966 -42.114,0 0,-36.966 z"
     id="path4540" />
</clipPath>
<inkscape:perspective
   id="perspective7567"
   inkscape:persp3d-origin="0.5 : 0.33333333 : 1"
   inkscape:vp_z="1 : 0.5 : 1"
   inkscape:vp_y="0 : 1000 : 0"
   inkscape:vp_x="0 : 0.5 : 1"
   sodipodi:type="inkscape:persp3d" />
<clipPath
   clipPathUnits="userSpaceOnUse"
   id="clipPath4888">
  <path
     d="m 362.141,617.646 42.114,0 0,36.974 -42.114,0 0,-36.974 z"
     id="path4890" />
</clipPath>
<inkscape:perspective
   id="perspective7715"
   inkscape:persp3d-origin="0.5 : 0.33333333 : 1"
   inkscape:vp_z="1 : 0.5 : 1"
   inkscape:vp_y="0 : 1000 : 0"
   inkscape:vp_x="0 : 0.5 : 1"
   sodipodi:type="inkscape:persp3d" />
<clipPath
   clipPathUnits="userSpaceOnUse"
   id="clipPath4704">
  <path
     d="m 419.137,617.646 42.114,0 0,36.974 -42.114,0 0,-36.974 z"
     id="path4706" />
</clipPath>
<clipPath
   clipPathUnits="userSpaceOnUse"
   id="clipPath4684">
  <path
     d="m 419.137,617.646 42.114,0 0,36.974 -42.114,0 0,-36.974 z"
     id="path4686" />
</clipPath>
<inkscape:perspective
   id="perspective7822"
   inkscape:persp3d-origin="0.5 : 0.33333333 : 1"
   inkscape:vp_z="1 : 0.5 : 1"
   inkscape:vp_y="0 : 1000 : 0"
   inkscape:vp_x="0 : 0.5 : 1"
   sodipodi:type="inkscape:persp3d" />
<clipPath
   clipPathUnits="userSpaceOnUse"
   id="clipPath5076">
  <path
     d="m 476.152,617.644 42.135,0 0,37.002 -42.135,0 0,-37.002 z"
     id="path5078" />
</clipPath>
<clipPath
   clipPathUnits="userSpaceOnUse"
   id="clipPath5064">
  <path
     d="m 476.152,617.645 42.135,0 0,37.001 -42.135,0 0,-37.001 z"
     id="path5066" />
</clipPath>
<inkscape:perspective
   id="perspective7961"
   inkscape:persp3d-origin="0.5 : 0.33333333 : 1"
   inkscape:vp_z="1 : 0.5 : 1"
   inkscape:vp_y="0 : 1000 : 0"
   inkscape:vp_x="0 : 0.5 : 1"
   sodipodi:type="inkscape:persp3d" />
<clipPath
   clipPathUnits="userSpaceOnUse"
   id="clipPath5016">
  <path
     d="m 533.182,617.715 42.114,0 0,36.931 -42.114,0 0,-36.931 z"
     id="path5018" />
</clipPath>
<inkscape:perspective
   id="perspective8099"
   inkscape:persp3d-origin="0.5 : 0.33333333 : 1"
   inkscape:vp_z="1 : 0.5 : 1"
   inkscape:vp_y="0 : 1000 : 0"
   inkscape:vp_x="0 : 0.5 : 1"
   sodipodi:type="inkscape:persp3d" />
<clipPath
   clipPathUnits="userSpaceOnUse"
   id="clipPath4626">
  <path
     d="m 20.04,560.622 42.114,0 0,36.974 -42.114,0 0,-36.974 z"
     id="path4628" />
</clipPath>
<inkscape:perspective
   id="perspective9429"
   inkscape:persp3d-origin="0.5 : 0.33333333 : 1"
   inkscape:vp_z="1 : 0.5 : 1"
   inkscape:vp_y="0 : 1000 : 0"
   inkscape:vp_x="0 : 0.5 : 1"
   sodipodi:type="inkscape:persp3d" />
<clipPath
   clipPathUnits="userSpaceOnUse"
   id="clipPath4868">
  <path
     d="m 305.128,560.622 42.115,0 0,36.974 -42.115,0 0,-36.974 z"
     id="path4870" />
</clipPath>
<inkscape:perspective
   id="perspective9491"
   inkscape:persp3d-origin="0.5 : 0.33333333 : 1"
   inkscape:vp_z="1 : 0.5 : 1"
   inkscape:vp_y="0 : 1000 : 0"
   inkscape:vp_x="0 : 0.5 : 1"
   sodipodi:type="inkscape:persp3d" />
<clipPath
   clipPathUnits="userSpaceOnUse"
   id="clipPath4664">
  <path
     d="m 362.14,560.622 42.114,0 0,36.974 -42.114,0 0,-36.974 z"
     id="path4666" />
</clipPath>
</defs>
  <sodipodi:namedview
     id="base"
     pagecolor="#ffffff"
     bordercolor="#666666"
     borderopacity="1.0"
     inkscape:pageopacity="0.0"
     inkscape:pageshadow="2"
     inkscape:zoom="0.83535156"
     inkscape:cx="292.52431"
     inkscape:cy="82.996294"
     inkscape:document-units="px"
     inkscape:current-layer="layer1"
     showgrid="false"
     inkscape:window-width="1600"
     inkscape:window-height="838"
     inkscape:window-x="-8"
     inkscape:window-y="-8"
     inkscape:window-maximized="1"
     showguides="true"
     inkscape:guide-bbox="true" />
  <metadata
     id="metadata5326">
    <rdf:RDF>
      <cc:Work
         rdf:about="">
        <dc:format>image/svg+xml</dc:format>
        <dc:type
           rdf:resource="http://purl.org/dc/dcmitype/StillImage" />
        <dc:title></dc:title>
      </cc:Work>
    </rdf:RDF>
  </metadata>
  <g
     inkscape:label="Livello 1"
     inkscape:groupmode="layer"
     id="layer1"
     transform="translate(190.28609,-157.71711)"><path
   id="path4208"
   style="fill:#ffffff;fill-opacity:1;fill-rule:nonzero;stroke:none"
   d="m -187.8599,499.88929 c -3.40816,-5.44927 -3.05691,-12.59787 0,-17.70537 L -6.0404704,166.90493 c 3.3986715,-5.43977 9.1897039,-9.18971 15.6547745,-9.18971 6.4650709,0 12.2561029,3.74994 15.3225019,8.85744 L 207.08851,481.84215 c 3.0664,5.44927 3.39867,12.59787 0,18.04714 -3.0664,5.79103 -9.18971,9.1992 -15.3225,9.1992 l -364.30341,0 c -6.1328,0 -12.26559,-3.40817 -15.3225,-9.1992" />
<g
   id="g4210"
   transform="matrix(9.4934957,0,0,-9.4934957,-187.8599,499.88929)"
   style="fill:#ed171f;fill-opacity:1">
  <path
     d="m 0,0 c -0.359,0.574 -0.322,1.327 0,1.865 l 19.152,33.21 c 0.358,0.573 0.968,0.968 1.649,0.968 0.681,0 1.291,-0.395 1.614,-0.933 L 41.602,1.901 C 41.925,1.327 41.96,0.574 41.602,0 41.279,-0.61 40.634,-0.969 39.988,-0.969 l -38.374,0 C 0.968,-0.969 0.322,-0.61 0,0 M 35.47,3.551 20.801,28.942 6.133,3.551 l 29.337,0 z"
     style="fill:#ed171f;fill-opacity:1;fill-rule:nonzero;stroke:none"
     id="path4212" />
</g>
<g
   inkscape:label="Ebene 1"
   inkscape:groupmode="layer"
   transform="translate(-501.54702,586.32528)"
   id="layer1-0" />

	
	
<g
   id="g4672"
   transform="matrix(9.4055056,0,0,-9.5272694,-12.366392,401.35826)">
  <path
     d="m 0,0 c -0.178,-0.641 -0.82,-1.033 -1.46,-0.855 -0.642,0.179 -1.033,0.82 -0.855,1.461 0.177,0.641 0.819,1.033 1.46,0.854 C -0.214,1.283 0.178,0.641 0,0 M 8.015,-0.926 C 8.656,-1.069 9.048,-1.745 8.87,-2.386 8.691,-3.028 8.05,-3.384 7.409,-3.242 c -0.641,0.179 -1.033,0.82 -0.854,1.497 0.142,0.605 0.818,0.997 1.46,0.819 M -3.135,0.82 c -0.178,0.071 -0.32,0.284 -0.249,0.533 l 0.57,2.102 c 0.071,0.214 0.107,0.286 0.463,0.499 l 2.315,1.354 c 0.25,0.143 0.392,0.143 0.748,0.036 L 5.343,4.096 C 5.735,3.99 5.77,3.883 5.913,3.598 L 7.124,1.532 C 7.267,1.283 7.338,1.068 7.8,0.926 l 2.316,-0.605 c 0.357,-0.071 0.57,-0.392 0.464,-0.82 L 10.116,-2.28 C 10.045,-2.529 9.831,-2.672 9.653,-2.6 L 9.261,-2.493 C 9.51,-1.638 8.976,-0.712 8.122,-0.499 7.267,-0.25 6.34,-0.784 6.127,-1.638 l -5.7,1.531 C 0.641,0.748 0.142,1.639 -0.748,1.888 -1.603,2.102 -2.493,1.603 -2.743,0.713 L -3.135,0.82 z M 3.242,3.99 C 3.17,4.026 3.099,3.99 3.099,3.918 L 2.672,2.458 C 2.672,2.387 2.707,2.316 2.778,2.28 L 6.091,1.425 C 6.233,1.39 6.376,1.532 6.27,1.71 L 5.307,3.348 C 5.272,3.42 5.236,3.455 5.165,3.491 L 3.242,3.99 z M 0.463,4.738 c -0.071,0.035 -0.143,0 -0.178,0 L -1.39,3.776 C -1.567,3.669 -1.496,3.455 -1.353,3.42 L 1.923,2.529 c 0.107,-0.036 0.143,0 0.179,0.072 l 0.356,1.495 c 0,0.072 -0.036,0.107 -0.107,0.143 L 0.463,4.738 z m 16.279,-10.865 -0.179,0 c -0.605,0 -0.997,-0.356 -1.78,-0.356 -0.784,0 -1.176,0.356 -1.781,0.356 -0.606,0 -1.034,-0.356 -1.817,-0.356 -0.784,0 -1.176,0.356 -1.781,0.356 -0.606,0 -1.033,-0.356 -1.817,-0.356 -0.747,0 -1.175,0.356 -1.781,0.356 -0.606,0 -1.033,-0.356 -1.781,-0.356 -0.783,0 -1.211,0.356 -1.781,0.356 -0.606,0 -0.997,-0.356 -1.781,-0.356 -0.784,0 -1.176,0.356 -1.781,0.356 -0.605,0 -1.033,-0.356 -1.817,-0.356 -0.356,0 -0.605,0.071 -0.855,0.143 l 0,0.355 c 0.25,-0.07 0.499,-0.142 0.855,-0.142 0.784,0 1.212,0.357 1.817,0.357 0.605,0 0.997,-0.357 1.781,-0.357 0.784,0 1.175,0.357 1.781,0.357 0.57,0 0.998,-0.357 1.781,-0.357 0.748,0 1.175,0.357 1.781,0.357 0.606,0 1.034,-0.357 1.781,-0.357 0.784,0 1.211,0.357 1.817,0.357 0.605,0 0.997,-0.357 1.781,-0.357 0.783,0 1.211,0.357 1.817,0.357 0.605,0 0.997,-0.357 1.781,-0.357 0.783,0 1.175,0.357 1.78,0.357 l 0.179,-0.357 z m -0.606,1.14 c -0.391,-0.107 -0.783,-0.32 -1.353,-0.32 -0.784,0 -1.176,0.356 -1.781,0.356 -0.606,0 -1.034,-0.356 -1.817,-0.356 -0.784,0 -1.176,0.356 -1.781,0.356 -0.606,0 -1.033,-0.356 -1.817,-0.356 -0.747,0 -1.175,0.356 -1.781,0.356 -0.606,0 -1.033,-0.356 -1.781,-0.356 -0.783,0 -1.211,0.356 -1.781,0.356 -0.606,0 -0.997,-0.356 -1.781,-0.356 -0.784,0 -1.176,0.356 -1.781,0.356 -0.605,0 -1.033,-0.356 -1.817,-0.356 -0.356,0 -0.605,0.071 -0.855,0.142 l 0,0.356 c 0.25,-0.071 0.499,-0.142 0.855,-0.142 0.784,0 1.212,0.356 1.817,0.356 0.605,0 0.997,-0.356 1.781,-0.356 0.784,0 1.175,0.356 1.781,0.356 0.57,0 0.998,-0.356 1.781,-0.356 0.748,0 1.175,0.356 1.781,0.356 0.606,0 1.034,-0.356 1.781,-0.356 0.784,0 1.211,0.356 1.817,0.356 0.605,0 0.997,-0.356 1.781,-0.356 0.783,0 1.211,0.356 1.817,0.356 0.605,0 0.997,-0.356 1.781,-0.356 0.498,0 0.854,0.178 1.211,0.284 l 0.142,-0.32 z m -0.641,0.962 c -0.214,-0.071 -0.427,-0.107 -0.712,-0.107 -0.784,0 -1.176,0.356 -1.781,0.356 -0.606,0 -1.034,-0.356 -1.817,-0.356 -0.784,0 -1.176,0.356 -1.781,0.356 -0.606,0 -1.033,-0.356 -1.817,-0.356 -0.747,0 -1.175,0.356 -1.781,0.356 -0.606,0 -1.033,-0.356 -1.781,-0.356 -0.783,0 -1.211,0.356 -1.781,0.356 -0.606,0 -0.997,-0.356 -1.781,-0.356 -0.784,0 -1.176,0.356 -1.781,0.356 -0.605,0 -1.033,-0.356 -1.817,-0.356 -0.356,0 -0.605,0.071 -0.855,0.143 l 0,3.027 -5.093,0 -3.313,-5.806 29.494,0 -1.603,2.743 z"
     style="fill:#000000;fill-opacity:1;fill-rule:nonzero;stroke:none"
     id="path4674" />
</g>
</g>
</svg>
