<svg width="1e3" height="1e3"  xmlns="http://www.w3.org/2000/svg">
 <path d="m0 96c0-55 38-96 96-96h808c48 0 96 38 96 96v808c0 55-38 99-96 96h-808c-55 0-96-38-96-96z" fill="#0071bb"/>
 <path d="m10 96.072c0-47 39-86 86-86h808c47 0 86 39 86 86v808c0 47-39 86-86 86h-808c-47 0-86-39-86-86z" fill="#fff"/>
 <path d="m42 96.072c0-25.946 27-54 54-54h808c26 0 54 27 54 54v810c0 26-27 52-54 52h-808c-26 0-54-27-54-54z" fill="#0071bb"/>
 <path d="m643.09 204.36 212.02 147.92-212.5 147 12.908-108.32-342.81 0.29401c-16.958 0-30.278 12.021-30.278 36.491l-3.3931 379.61c-2e-3 0.21092-0.12783 0.38413-0.33652 0.38413h-74.608c-0.21092 0-0.33652-0.17577-0.33652-0.38413v-415.82c0.76017-53.73 37.283-80.367 85.851-81.29l368.22-0.34834-14.739-105.53z" fill="#fff" />
</svg>
