<?xml version="1.0" encoding="UTF-8" standalone="no"?>
<!-- Created with Inkscape (http://www.inkscape.org/) -->

<svg
   width="400"
   height="400"
   viewBox="0 0 105.83333 105.83334"
   version="1.1"
   id="svg8042"
   inkscape:version="1.1.2 (b8e25be833, 2022-02-05)"
   sodipodi:docname="corrections.svg"
   xmlns:inkscape="http://www.inkscape.org/namespaces/inkscape"
   xmlns:sodipodi="http://sodipodi.sourceforge.net/DTD/sodipodi-0.dtd"
   xmlns="http://www.w3.org/2000/svg"
   xmlns:svg="http://www.w3.org/2000/svg">
  <sodipodi:namedview
     id="namedview8044"
     pagecolor="#ffffff"
     bordercolor="#666666"
     borderopacity="1.0"
     inkscape:pageshadow="2"
     inkscape:pageopacity="0.0"
     inkscape:pagecheckerboard="0"
     inkscape:document-units="mm"
     showgrid="false"
     units="px"
     inkscape:zoom="1.4396184"
     inkscape:cx="132.32673"
     inkscape:cy="244.16192"
     inkscape:window-width="1920"
     inkscape:window-height="1001"
     inkscape:window-x="-9"
     inkscape:window-y="-9"
     inkscape:window-maximized="1"
     inkscape:current-layer="svg8042" />
  <defs
     id="defs8039" />
  <rect
     style="fill:#ffffff;fill-opacity:1;stroke:#000000;stroke-width:0.264583;stroke-linecap:round;stroke-miterlimit:4;stroke-dasharray:none;stroke-opacity:1"
     id="rect3475"
     width="105.5687"
     height="105.56875"
     x="0.1322915"
     y="0.1322915"
     ry="5.1494894"
     inkscape:label="rect3540" />
  <rect
     style="fill:#0071bb;fill-opacity:1;stroke:none;stroke-width:0.34395;stroke-linecap:round;stroke-miterlimit:10;stroke-dasharray:none"
     id="rect5426"
     width="98.579262"
     height="98.579338"
     x="3.6269968"
     y="3.626991"
     ry="1.6547908"
     inkscape:label="rect3545" />
  <path
     id="rect1420"
     style="display:inline;fill:#ffffff;fill-opacity:1;stroke-width:0.508;stroke-linecap:round"
     d="M 47.811302,33.624224 34.940678,58.875343 c -0.54528,1.06979 -0.30582,2.316242 0.49311,3.123398 l -18.70765,30.122744 c -0.24985,0.402301 -0.12697,0.927383 0.27533,1.177226 0.4023,0.249849 0.92738,0.127469 1.17723,-0.27483 L 36.965728,62.77314 c 1.11675,0.163486 2.25663,-0.375148 2.798952,-1.439167 l 8.046622,-15.78765 V 59.947395 L 37.735168,87.823339 c -0.78736,2.17818 0.33205,4.565483 2.510228,5.352841 2.178179,0.787355 4.56548,-0.332049 5.352838,-2.510232 l 9.218888,-25.504121 9.127609,25.492218 c 0.780737,2.180558 3.164816,3.307339 5.345379,2.526601 2.180564,-0.780746 3.307371,-3.164842 2.526612,-5.345401 L 61.621509,59.362004 69.328316,47.572864 c 0.60288,-0.922144 0.515567,-2.707931 -0.148352,-3.538135 L 60.54471,33.62405 c -2.211728,-2.666384 -3.695094,-3.05892 -6.366708,-3.05892 -3.053284,0 -5.72026,1.790828 -6.3667,3.059094 z"
     sodipodi:nodetypes="cccssccccccscccsccccccc"
     inkscape:label="path3550" />
  <ellipse
     style="fill:#ffffff;fill-opacity:1;stroke:none;stroke-width:1.09309;stroke-linecap:round;stroke-miterlimit:10;stroke-dasharray:none;stroke-opacity:1"
     id="path6226"
     cx="52.91663"
     cy="21.708534"
     rx="7.1816659"
     ry="7.1816611"
     inkscape:label="circle3555" />
</svg>
