<svg width="400.5" height="500.96" version="1.1" xmlns="http://www.w3.org/2000/svg">
 <path d="m17.649 500.96c-9.8452 0-17.649-8.1471-17.649-17.983v-464.99c0-9.8452 7.8036-17.983 17.649-17.983h365.21c9.8452 0 17.649 8.1375 17.649 17.983v464.99c0 9.8356-7.8036 17.983-17.649 17.983z"/>
 <path d="m382.85 491.8c4.7604 0 8.8244-3.7301 8.8244-8.8244v-464.99c0-5.0943-4.064-8.8244-8.8244-8.8244h-365.21c-4.7509 0-8.8244 3.7301-8.8244 8.8244v464.99c0 5.0943 4.0735 8.8244 8.8244 8.8244z" fill="#fff"/>
 <path d="m46.708 199.61c0-85.246 69.3-154.81 154.81-154.81 85.246 0 154.8 69.564 154.8 154.81s-69.557 154.81-154.8 154.81c-85.511 0-154.81-69.564-154.81-154.81" fill="#ed171f"/>
 <path d="m109.47 131.09c-14.388 19.093-23.019 43.149-23.019 68.513 0 63.278 51.515 115.06 115.07 115.06 25.622 0 49.42-8.3665 68.513-22.747z" fill="#005ab2"/>
 <path d="m316.31 199.61c0 25.629-8.3665 49.427-22.482 68.778l-160.83-160.82c19.093-14.123 42.891-22.747 68.52-22.747 63.278 0 114.79 51.515 114.79 114.79" fill="#005ab2"/>
 <path d="m282.38 455.14c7.4697 0 11.543-2.032 17.992-6.449l-7.4602-7.1263c-3.0623 2.032-5.4377 3.0623-9.5113 3.0623-6.4489 0-10.513-3.0623-10.513-8.5h28.505c1.0207-15.941-5.4282-28.505-21.379-28.505-11.543 0-20.024 10.866-20.024 23.087 0 12.888 7.1167 24.432 22.39 24.432"/>
 <path d="m210.1 408.64h9.5017v4.0735c8.4905-9.5017 27.494-5.0943 27.494 9.5017v30.89h-11.543v-30.89c0-4.0735-8.4905-5.4282-12.898-2.032-2.032 2.032-2.032 5.4282-2.032 7.4602v25.462h-10.522z"/>
 <path d="m174.79 407.62c-12.888 0-21.379 9.5017-21.379 23.087 0 13.919 9.5113 23.411 21.379 23.411 13.585 0 21.045-9.4922 21.045-23.411 0-12.564-8.481-23.087-21.045-23.087"/>
 <path d="m141.53 401.17-29.869 41.403h29.869v10.532h-43.445v-10.532l28.505-40.382h-28.505v-10.522h43.445z"/>
 <path d="m281.37 418.15c4.7509 0 7.4698 2.3754 8.481 8.4905h-16.962c0.6678-5.4377 3.3866-8.4905 8.4809-8.4905" fill="#fff"/>
 <path d="m174.79 444.63c-6.4394 0-10.513-6.4585-10.513-13.919 0-5.0943 3.0432-12.564 10.513-12.564s10.522 6.1151 10.522 12.564c0 6.449-3.0528 13.919-10.522 13.919" fill="#fff"/>
</svg>
