<svg width="999.44" height="987.17" version="1.1" xmlns="http://www.w3.org/2000/svg">
 <path d="m0 77.037c0-44.134 30.493-77.037 77.037-77.037h845.37c38.518 0 77.037 30.493 77.037 77.037v832.98c0 44.134-30.493 79.445-77.037 77.037h-845.37c-44.134 0-77.037-30.493-77.037-77.037z" fill="#007ac2"/>
 <path d="m8.026 77.099c0-37.715 31.296-69.011 69.011-69.011h845.37c37.715 0 69.011 31.296 69.011 69.011v832.98c0 37.715-31.296 69.011-69.011 69.011h-845.37c-37.715 0-69.011-31.296-69.011-69.011z" fill="#fff"/>
 <path d="m33.699 72.282c0-20.821 16.852-38.518 38.518-38.518h855.01c20.864 0 38.518 16.852 38.518 38.518v842.61c0 20.864-16.852 38.518-38.518 38.518h-855.01c-20.864 0-38.518-16.852-38.518-38.518z" fill="#007ac2"/>
 <path d="m259.97 118.14v744.74h140.24v-270.04h159.38c149.83 0 223.86-126.3 223.86-236.05 0-114.95-75.767-238.64-240.41-238.64z" fill="#fff"/>
 <path d="m400.2 250.53h128.04c70.56 0 112.36 47.016 112.36 105.4 0 66.183-47.92 108.87-104.51 108.87h-135.89z" fill="#007ac2"/>
 <path d="m540.87 769.05v85.223h21.009v-85.223z" fill="#fff"/>
 <path d="m551.38 734.56c-6.9368 0-12.684 5.7476-12.684 12.684s5.7476 12.684 12.684 12.684 12.684-5.7476 12.684-12.684-5.7476-12.684-12.684-12.684z" fill="#fff"/>
 <path d="m615.19 854.27v-57.08c0-5.5494 5.7476-10.901 14.072-10.901 8.3241 0 15.063 5.3512 15.063 10.901v57.08h20.81v-57.08c0-17.243-11.495-30.324-30.125-30.324-9.7115 0-17.045 3.5675-21.801 9.5133v-5.9458h-18.432v83.836z" fill="#fff"/>
 <path d="m702.29 769.25h-14.468v19.423h14.468v64.017h19.423v-64.017h16.846v-19.423h-16.846v-10.702c0-4.7567 5.153-5.7476 10.306-5.7476 3.3693 0 8.126 0.59459 9.9097 0.79278v-18.036c-4.1621-0.59459-7.9278-0.79278-11.297-0.79278-10.901 0-17.441 2.5765-22.594 7.135s-5.9458 10.108-5.9458 14.666c0 1.1892 0.1982 2.3783 0.1982 3.5675z" fill="#fff"/>
 <path d="m800.69 767.07c-22.198 0-40.035 16.252-40.035 44.594 0 26.36 17.837 44.594 40.035 44.594s40.035-16.648 40.035-44.594c0-29.531-17.837-44.594-40.035-44.594z" fill="#fff"/>
 <path d="m781.46 811.66c0-16.054 8.5223-25.369 19.225-25.369 10.702 0 19.225 8.5223 19.225 25.369 0 15.856-8.5224 25.369-19.225 25.369-10.702 0-19.225-10.306-19.225-25.369z" fill="#007ac2"/>
</svg>
