<svg width="1e3" height="215" version="1.1" xmlns="http://www.w3.org/2000/svg">
 <path d="m0 0h1e3v214.62h-1e3z"/>
 <path d="m358.59 19.916h13.624v43.454q0 11.497-7.1517 17.427-7.1517 5.9296-18.106 5.9296-11.09 0-18.196-5.9296-7.1065-5.9296-7.1065-17.427v-43.454h13.624v43.454q0 6.518 3.078 9.4602 3.1232 2.9422 8.6002 2.9422 11.361 0 11.633-11.814z" fill="#fff"/>
 <path d="m408.09 16.295v69.526h-13.127v-69.526z" fill="#fff"/>
 <path d="m444.12 105.6q-2.5348 0-5.7938-0.86002v-9.9128l2.0369 0.04526q3.8474 0 5.7033-1.2674 1.8558-1.2221 2.8064-3.938l1.4485-3.7569-17.155-49.066h14.077l9.0981 30.508 9.0528-30.508h13.987l-19.599 56.309q-0.86002 2.4443-2.5348 5.3412-1.6748 2.9422-4.8433 5.0243-3.1232 2.0821-8.2833 2.0821z" fill="#fff"/>
 <path d="m534.56 85.821-12.583-19.645-4.6622 4.6622v14.982h-13.081v-69.571h13.081v38.52l2.5348-3.259 12.493-14.666h15.707l-17.653 20.369 19.237 28.607z" fill="#fff"/>
 <path d="m599.88 85.821-12.583-19.645-4.6622 4.6622v14.982h-13.081v-69.571h13.081v38.52l2.5348-3.259 12.493-14.666h15.707l-17.653 20.369 19.237 28.607z" fill="#fff"/>
 <path d="m678.51 77.854q-2.3537 3.3495-7.1517 6.1107-4.798 2.7611-11.95 2.7611-11.407 0-17.834-6.8801-6.4275-6.9254-6.4728-16.702v-1.9011q0-11.09 6.1559-18.196 6.2012-7.1065 16.702-7.1065 10.547 0 16.069 6.6086t5.5222 17.472v5.5675h-31.187q0.67896 4.7527 3.7569 7.6949 3.078 2.8969 8.1023 2.8969 7.4686 0 11.814-5.477z" fill="#fff"/>
 <path d="m321.08 165.58q0-10.682 6.0654-17.789 6.0654-7.1517 17.11-7.1517 11.18 0 17.2 7.1517 6.0201 7.1065 6.0201 17.789v0.95055q0 10.682-6.0201 17.789-6.0201 7.1065-17.11 7.1065-10.999 0-17.065-6.9254-6.0201-6.9254-6.2012-17.381z" fill="#fff"/>
 <path d="m405.82 151.23q-5.4317 0-8.0117 4.6169v34.672h-13.127v-48.976h12.312l0.45264 5.3864q5.1148-6.2917 14.032-6.2917 9.4602 0 12.991 7.4686 5.0243-7.4686 14.711-7.4686 7.0612 0 11.361 4.1643 4.3001 4.1643 4.3454 14.303v31.413h-13.127v-31.232q0-4.8885-1.9916-6.4728-1.9464-1.5842-5.3412-1.5842-5.7938 0-8.1023 5.477v33.812h-13.081v-31.142q0-4.8433-1.9916-6.4728-1.9916-1.6748-5.4317-1.6748z" fill="#fff"/>
 <path d="m547.21 179.96v10.547h-45.128v-8.9623l21.319-22.723q4.798-5.2959 6.6538-8.736 1.9011-3.4853 1.9011-6.4275 0-4.3906-2.2179-6.9254-2.1727-2.5348-6.2917-2.5348-4.6622 0-7.1517 3.1685-2.4443 3.1685-2.4443 7.9665h-13.081q0-8.917 6.1107-15.299 6.1559-6.3822 16.793-6.3822 10.365 0 15.888 5.0243 5.5222 4.9791 5.5222 13.67 0 6.518-3.8927 12.402-3.8474 5.8391-10.547 12.855l-11.769 12.357z" fill="#fff"/>
 <path d="m620.75 190.51-12.583-19.645-4.6622 4.6622v14.982h-13.081v-69.571h13.081v38.52l2.5348-3.259 12.493-14.666h15.707l-17.653 20.369 19.237 28.607z" fill="#fff"/>
 <path d="m673.9 151.23q-5.4317 0-8.0118 4.6169v34.672h-13.127v-48.976h12.312l0.45264 5.3864q5.1148-6.2917 14.032-6.2917 9.4602 0 12.991 7.4686 5.0243-7.4686 14.711-7.4686 7.0612 0 11.361 4.1643t4.3454 14.303v31.413h-13.127v-31.232q0-4.8885-1.9916-6.4728-1.9464-1.5842-5.3412-1.5842-5.7938 0-8.1023 5.477v33.812h-13.081v-31.142q0-4.8433-1.9916-6.4728-1.9916-1.6748-5.4317-1.6748z" fill="#fff"/>
 <path d="m334.2 166.52q0 5.9749 2.2632 10.184 2.3085 4.1643 7.876 4.1643 5.477 0 7.7402-4.1643 2.3085-4.1643 2.3085-11.135 0-5.8391-2.3085-10.094-2.2632-4.3001-7.8307-4.3001-5.5222 0-7.7854 4.2548t-2.2632 11.09z"/>
 <path d="m657.87 46.486q-4.1643 0-6.4275 2.8064t-2.9422 7.3328h18.196v-0.99581q-0.0905-3.938-2.218-6.518-2.0821-2.6253-6.6086-2.6253z"/>
</svg>
