<svg width="1e3" height="1e3" version="1.1" xmlns="http://www.w3.org/2000/svg">
 <path d="m-0.5274 96c0-55 38-96 96-96h808c48 0 96 38 96 96v808c0 55-38 99-96 96h-808c-55 0-96-38-96-96z" fill="#0071bb"/>
 <path d="m9.4726 96.072c0-47 39-86 86-86h808c47 0 86 39 86 86v808c0 47-39 86-86 86h-808c-47 0-86-39-86-86z" fill="#fff"/>
 <path d="m41.473 90.072c0-25.946 21-48 48-48h820c26 0 48 21 48 48v820c0 26-21 48-48 48h-820c-26 0-48-21-48-48z" fill="#0071bb"/>
 <g fill="#f7cd33">
  <path d="m468.22 213.84 11.98-36.747-31.464-22.73 38.858 0.0258 11.967-36.964 11.921 36.896 38.716 0.10445-31.188 22.59 11.915 36.924-31.363-22.787-31.36 22.838 0.0183-0.149z"/>
  <path d="m300.97 258.79 11.966-36.867-31.374-22.764 38.843-0.0505 11.929-36.814 11.942 36.837 38.832-0.0126-31.369 22.765 11.945 36.778-31.387-22.658z"/>
  <path d="m178.61 380.97 12.003-36.651-31.383-22.743 38.779-0.0641 11.793-36.579 12.069 36.613 38.69 0.0305-31.068 22.539 11.794 36.936-31.443-22.669-31.149 22.717-0.0853-0.13083z"/>
  <path d="m145.59 511.69-31.119-22.866 38.659-0.0317 11.893-36.824 11.989 36.736 38.699 0.13296-31.082 22.863 11.795 36.752-31.473-22.567-31.162 22.55z"/>
  <path d="m210.01 693.01-31.248 22.497 11.711-36.585-31.413-23.141 38.916 0.12409 11.922-36.668 12.011 36.548 38.626 0.25926-31.15 22.826 12.042 36.882z"/>
  <path d="m312.95 801.11-31.292-22.714 38.76-0.26448 12.052-36.552 11.995 36.687 38.691 0.0819-31.158 22.918 11.87 36.402-0.0496 0.28522-31.246-22.693-31.245 22.524z"/>
  <path d="m468.22 882.47 11.858-36.675-31.223-22.676 38.693 0.0486 12.014-36.82 12.173 36.785 38.802-0.0337-31.232 22.644 11.749 36.927-31.386-22.581-31.303 22.632-0.13845-0.24371v-6e-3z"/>
  <path d="m635.26 837.9 12.007-36.759-31.254-22.809 38.716-0.12546 12.079-36.816 12.028 36.796 38.769 0.0311-31.282 22.655 11.92 36.776-31.741-22.345z"/>
  <path d="m758.27 713.81 11.403-35.048-31.17-22.775 38.716-0.32806 11.934-36.728 12.01 36.813 38.756-0.0737-31.263 22.872 11.835 37.071-31.418-22.748-31.358 22.756 0.5542-1.8104z"/>
  <path d="m802.51 548.2 11.81-36.728-31.064-22.767 38.673-0.21493 11.86-36.665 11.969 36.58 38.714 0.22101-31.132 22.97 11.88 36.669-31.464-22.477-31.164 22.541-0.0831-0.12897z"/>
  <path d="m757.62 380.73 11.923-36.536-31.254-22.818 38.701-0.0452 11.89-36.762 11.963 36.749 38.809-0.0208-31.301 22.666 11.891 36.871-31.347-22.625-31.305 22.623 0.0291-0.10413z"/>
  <path d="m635.04 258.69 11.986-36.865-31.361-22.771 38.803-0.0276 12.001-36.785 11.9 36.793 38.932-0.11179-31.491 22.876 12.042 36.906-31.256-22.76-31.459 22.733-0.0971 0.0118z"/>
 </g>
 <path d="m415.9 372.96v45.084h128.42l-103.38 228.15h49.183l103.38-228.15v-45.084z" fill="#fff"/>
</svg>
